$MeshFormat
4.1 0 8
$EndMeshFormat
$PhysicalNames
6
1 7 "top"
1 8 "left"
1 9 "right"
1 10 "bottom"
1 11 "wall"
2 12 "ground"
$EndPhysicalNames
$Entities
9 6 1 0
1 -10 0 0 0 
2 10 0 0 0 
3 10 -10 0 0 
4 -10 -10 0 0 
5 0 -3.2 0 0 
6 0 -4.8 0 0 
7 0.8 -4 0 0 
8 0 -4 0 0 
9 -0.8 -4 0 0 
1 -0.8000001 -4.0000001 -1e-07 0.8000001 -3.1999999 1e-07 1 11 2 9 -7 
2 -0.8000001 -4.8000001 -1e-07 0.8000001 -3.9999999 1e-07 1 11 2 7 -9 
3 -10.0000001 -1e-07 -1e-07 10.0000001 1e-07 1e-07 1 7 2 1 -2 
4 9.999999900000001 -10.0000001 -1e-07 10.0000001 1.000000002804313e-07 1e-07 1 9 2 3 -2 
5 -10.0000001 -10.0000001 -1e-07 10.0000001 -9.999999900000001 1e-07 1 10 2 3 -4 
6 -10.0000001 -10.0000001 -1e-07 -9.999999900000001 1.000000002804313e-07 1e-07 1 8 2 4 -1 
1 -10.0000001 -10.0000001 -1e-07 10.0000001 1.000000002804313e-07 1e-07 1 12 6 3 -4 5 6 -2 -1 
$EndEntities
$Nodes
13 1015 1 1015
0 1 0 1
1
-10 0 0
0 2 0 1
2
10 0 0
0 3 0 1
3
10 -10 0
0 4 0 1
4
-10 -10 0
0 7 0 1
5
0.8 -4 0
0 9 0 1
6
-0.8 -4 0
1 1 0 50
7
8
9
10
11
12
13
14
15
16
17
18
19
20
21
22
23
24
25
26
27
28
29
30
31
32
33
34
35
36
37
38
39
40
41
42
43
44
45
46
47
48
49
50
51
52
53
54
55
56
-0.7984826629896353 -3.950751275092846 0
-0.7939364077375486 -3.901689367468229 0
-0.7863784797471215 -3.853000385746744 0
-0.7758375488280076 -3.804869023913298 0
-0.7623536003417253 -3.757477860709565 0
-0.7459777835234848 -3.711006667050278 0
-0.726772217455619 -3.665631724090573 0
-0.7048097554286277 -3.621525154531192 0
-0.6801737085836913 -3.578854269698115 0
-0.6529575298849775 -3.537780934873399 0
-0.6232644596205366 -3.498460955284715 0
-0.5912071337765273 -3.461043485082754 0
-0.5569071567703414 -3.425670461548447 0
-0.5204946401633936 -3.392476066676234 0
-0.4821077091034052 -3.361586218175808 0
-0.4418919783684048 -3.333118091823104 0
-0.4000000000000004 -3.307179676972449 0
-0.3565906846212304 -3.28386936691595 0
-0.3118286986341434 -3.263275585644037 0
-0.2658838395837278 -3.245476452422978 0
-0.2189303920576665 -3.230539485461745 0
-0.1711464665651983 -3.21852134579232 0
-0.1227133239029488 -3.209467622334992 0
-0.07381468757064154 -3.203412658963972 0
-0.02463604684493636 -3.200379424229307 0
0.02463604684493607 -3.200379424229307 0
0.07381468757064123 -3.203412658963972 0
0.1227133239029485 -3.209467622334992 0
0.1711464665651981 -3.218521345792319 0
0.2189303920576662 -3.230539485461745 0
0.2658838395837275 -3.245476452422978 0
0.3118286986341432 -3.263275585644037 0
0.3565906846212302 -3.28386936691595 0
0.3999999999999995 -3.307179676972449 0
0.4418919783684047 -3.333118091823104 0
0.4821077091034049 -3.361586218175808 0
0.5204946401633935 -3.392476066676234 0
0.5569071567703414 -3.425670461548447 0
0.5912071337765273 -3.461043485082755 0
0.6232644596205363 -3.498460955284715 0
0.6529575298849772 -3.537780934873399 0
0.6801737085836912 -3.578854269698115 0
0.7048097554286274 -3.621525154531192 0
0.7267722174556188 -3.665631724090573 0
0.7459777835234846 -3.711006667050277 0
0.7623536003417253 -3.757477860709565 0
0.7758375488280076 -3.804869023913298 0
0.7863784797471215 -3.853000385746744 0
0.7939364077375486 -3.901689367468229 0
0.7984826629896353 -3.950751275092846 0
1 2 0 50
57
58
59
60
61
62
63
64
65
66
67
68
69
70
71
72
73
74
75
76
77
78
79
80
81
82
83
84
85
86
87
88
89
90
91
92
93
94
95
96
97
98
99
100
101
102
103
104
105
106
0.7984826629896353 -4.049248724907154 0
0.7939364077375486 -4.098310632531772 0
0.7863784797471215 -4.146999614253256 0
0.7758375488280076 -4.195130976086702 0
0.7623536003417253 -4.242522139290434 0
0.7459777835234846 -4.288993332949723 0
0.726772217455619 -4.334368275909426 0
0.7048097554286277 -4.378474845468808 0
0.6801737085836914 -4.421145730301885 0
0.6529575298849775 -4.462219065126601 0
0.6232644596205364 -4.501539044715285 0
0.5912071337765273 -4.538956514917245 0
0.5569071567703413 -4.574329538451553 0
0.5204946401633938 -4.607523933323765 0
0.4821077091034052 -4.638413781824192 0
0.4418919783684048 -4.666881908176896 0
0.4000000000000001 -4.692820323027551 0
0.3565906846212307 -4.71613063308405 0
0.3118286986341435 -4.736724414355963 0
0.2658838395837277 -4.754523547577022 0
0.2189303920576664 -4.769460514538255 0
0.1711464665651981 -4.781478654207681 0
0.1227133239029484 -4.790532377665008 0
0.07381468757064162 -4.796587341036028 0
0.02463604684493626 -4.799620575770692 0
-0.02463604684493616 -4.799620575770692 0
-0.07381468757064151 -4.796587341036028 0
-0.1227133239029483 -4.790532377665008 0
-0.1711464665651979 -4.781478654207681 0
-0.2189303920576662 -4.769460514538255 0
-0.2658838395837276 -4.754523547577022 0
-0.3118286986341434 -4.736724414355963 0
-0.3565906846212306 -4.71613063308405 0
-0.3999999999999999 -4.692820323027551 0
-0.4418919783684047 -4.666881908176896 0
-0.4821077091034051 -4.638413781824192 0
-0.5204946401633935 -4.607523933323765 0
-0.5569071567703413 -4.574329538451553 0
-0.5912071337765272 -4.538956514917245 0
-0.6232644596205364 -4.501539044715285 0
-0.6529575298849774 -4.462219065126601 0
-0.6801737085836912 -4.421145730301885 0
-0.7048097554286277 -4.378474845468808 0
-0.7267722174556189 -4.334368275909427 0
-0.7459777835234846 -4.288993332949723 0
-0.7623536003417253 -4.242522139290435 0
-0.7758375488280076 -4.195130976086702 0
-0.7863784797471215 -4.146999614253256 0
-0.7939364077375486 -4.098310632531772 0
-0.7984826629896353 -4.049248724907154 0
1 3 0 19
107
108
109
110
111
112
113
114
115
116
117
118
119
120
121
122
123
124
125
-9 0 0
-8 0 0
-7 0 0
-6 0 0
-5 0 0
-4 0 0
-3 0 0
-2 0 0
-1 0 0
0 0 0
1 0 0
2 0 0
3 0 0
4 0 0
5 0 0
6 0 0
7 0 0
8 0 0
9 0 0
1 4 0 9
126
127
128
129
130
131
132
133
134
10 -9 0
10 -8 0
10 -7 0
10 -6 0
10 -5 0
10 -4 0
10 -3 0
10 -2 0
10 -1 0
1 5 0 19
135
136
137
138
139
140
141
142
143
144
145
146
147
148
149
150
151
152
153
9 -10 0
8 -10 0
7 -10 0
6 -10 0
5 -10 0
4 -10 0
3 -10 0
2 -10 0
1 -10 0
0 -10 0
-1 -10 0
-2 -10 0
-3 -10 0
-4 -10 0
-5 -10 0
-6 -10 0
-7 -10 0
-8 -10 0
-9 -10 0
1 6 0 9
154
155
156
157
158
159
160
161
162
-10 -9 0
-10 -8 0
-10 -7 0
-10 -6 0
-10 -5 0
-10 -4 0
-10 -3 0
-10 -2 0
-10 -1 0
2 1 0 853
163
164
165
166
167
168
169
170
171
172
173
174
175
176
177
178
179
180
181
182
183
184
185
186
187
188
189
190
191
192
193
194
195
196
197
198
199
200
201
202
203
204
205
206
207
208
209
210
211
212
213
214
215
216
217
218
219
220
221
222
223
224
225
226
227
228
229
230
231
232
233
234
235
236
237
238
239
240
241
242
243
244
245
246
247
248
249
250
251
252
253
254
255
256
257
258
259
260
261
262
263
264
265
266
267
268
269
270
271
272
273
274
275
276
277
278
279
280
281
282
283
284
285
286
287
288
289
290
291
292
293
294
295
296
297
298
299
300
301
302
303
304
305
306
307
308
309
310
311
312
313
314
315
316
317
318
319
320
321
322
323
324
325
326
327
328
329
330
331
332
333
334
335
336
337
338
339
340
341
342
343
344
345
346
347
348
349
350
351
352
353
354
355
356
357
358
359
360
361
362
363
364
365
366
367
368
369
370
371
372
373
374
375
376
377
378
379
380
381
382
383
384
385
386
387
388
389
390
391
392
393
394
395
396
397
398
399
400
401
402
403
404
405
406
407
408
409
410
411
412
413
414
415
416
417
418
419
420
421
422
423
424
425
426
427
428
429
430
431
432
433
434
435
436
437
438
439
440
441
442
443
444
445
446
447
448
449
450
451
452
453
454
455
456
457
458
459
460
461
462
463
464
465
466
467
468
469
470
471
472
473
474
475
476
477
478
479
480
481
482
483
484
485
486
487
488
489
490
491
492
493
494
495
496
497
498
499
500
501
502
503
504
505
506
507
508
509
510
511
512
513
514
515
516
517
518
519
520
521
522
523
524
525
526
527
528
529
530
531
532
533
534
535
536
537
538
539
540
541
542
543
544
545
546
547
548
549
550
551
552
553
554
555
556
557
558
559
560
561
562
563
564
565
566
567
568
569
570
571
572
573
574
575
576
577
578
579
580
581
582
583
584
585
586
587
588
589
590
591
592
593
594
595
596
597
598
599
600
601
602
603
604
605
606
607
608
609
610
611
612
613
614
615
616
617
618
619
620
621
622
623
624
625
626
627
628
629
630
631
632
633
634
635
636
637
638
639
640
641
642
643
644
645
646
647
648
649
650
651
652
653
654
655
656
657
658
659
660
661
662
663
664
665
666
667
668
669
670
671
672
673
674
675
676
677
678
679
680
681
682
683
684
685
686
687
688
689
690
691
692
693
694
695
696
697
698
699
700
701
702
703
704
705
706
707
708
709
710
711
712
713
714
715
716
717
718
719
720
721
722
723
724
725
726
727
728
729
730
731
732
733
734
735
736
737
738
739
740
741
742
743
744
745
746
747
748
749
750
751
752
753
754
755
756
757
758
759
760
761
762
763
764
765
766
767
768
769
770
771
772
773
774
775
776
777
778
779
780
781
782
783
784
785
786
787
788
789
790
791
792
793
794
795
796
797
798
799
800
801
802
803
804
805
806
807
808
809
810
811
812
813
814
815
816
817
818
819
820
821
822
823
824
825
826
827
828
829
830
831
832
833
834
835
836
837
838
839
840
841
842
843
844
845
846
847
848
849
850
851
852
853
854
855
856
857
858
859
860
861
862
863
864
865
866
867
868
869
870
871
872
873
874
875
876
877
878
879
880
881
882
883
884
885
886
887
888
889
890
891
892
893
894
895
896
897
898
899
900
901
902
903
904
905
906
907
908
909
910
911
912
913
914
915
916
917
918
919
920
921
922
923
924
925
926
927
928
929
930
931
932
933
934
935
936
937
938
939
940
941
942
943
944
945
946
947
948
949
950
951
952
953
954
955
956
957
958
959
960
961
962
963
964
965
966
967
968
969
970
971
972
973
974
975
976
977
978
979
980
981
982
983
984
985
986
987
988
989
990
991
992
993
994
995
996
997
998
999
1000
1001
1002
1003
1004
1005
1006
1007
1008
1009
1010
1011
1012
1013
1014
1015
4.497766294619944 -9.074253603743937 0
-4.490215925024123 -9.028233717098793 0
4.41839818586579 -0.9089790099133159 0
-4.537640476730536 -0.8725397547906626 0
9.16471942077904 -5.501523300323309 0
-9.179105479318704 -5.500099811523297 0
1.5 -9.133974596215563 0
-1.604605647575898 -9.200902760002405 0
-2.5 -0.8660254037844384 0
2.553464794623714 -0.8171201302662228 0
6.454796278794037 -9.135078208089372 0
-6.482093662475236 -9.14650256572447 0
6.484379003644513 -0.8554257948646882 0
-6.394347785121626 -0.9045655165779101 0
9.226594842650201 -3.574777996062504 0
-9.203575542468446 -3.542402866126352 0
-0.5165646486531419 -0.8210240921507825 0
9.143607257046025 -7.612114670618435 0
-9.074275242174153 -7.461236225457714 0
-8.470227706123893 -0.9376173466656503 0
8.554432395694061 -0.8795885020302796 0
8.539169827149713 -9.192292303166255 0
-8.474667166188709 -9.019878717411284 0
-1.220099884691771 -0.8798001850647781 0
-1.918230323421518 -1.507213175357196 0
-0.3558095118975416 -3.231565067530889 0
-1.011074129947795 -1.495474475833035 0
-0.2429955831151746 -1.4530261221109 0
0.1038179814629351 -3.161837633171953 0
-0.04950630980796223 -3.155499468337661 0
-0.2039813392840968 -3.174508114523964 0
-0.6915558635545422 -2.002778005591222 0
0.1371525638444325 -1.035693564657999 0
0.3262987333748708 -1.63800455998748 0
0.3069813808332358 -3.221040686052258 0
0.7332747792771546 -1.176804144770157 0
0.9647998901226615 -1.731224605725404 0
0.4875508673470337 -3.319682455822713 0
0.5923603389008061 -2.117409083939716 0
0.9997186268723001 -2.214449597776326 0
0.6419027194846427 -3.449968835067041 0
0.5695729572599691 -3.375302913466757 0
0.704079482146831 -2.44347450677648 0
1.025537110114722 -2.583851203712004 0
1.34401085890155 -2.334261203334989 0
1.396241396853542 -2.727464173102907 0
0.7781569527661825 -3.671140345134341 0
0.7294458022735635 -3.578854269698115 0
1.699899058228897 -2.459047948559376 0
1.762875311252753 -2.820821350461994 0
2.085605153812469 -2.582264165258353 0
2.105345212667157 -3.041604909302484 0
0.8358114785449497 -3.872422927276864 0
2.521564796910178 -2.71436853117132 0
2.605847751930248 -3.192419605560561 0
2.214429727152468 -3.515579357680042 0
2.639033975326998 -3.693855836800844 0
0.8449200456750163 -4.07392825512683 0
2.282546845918963 -3.97919941786715 0
2.734553676401067 -4.189846468473172 0
2.261917882647301 -4.481341718904889 0
0.7501749739487714 -4.374016091624975 0
2.807765860245157 -4.71251373872941 0
3.286011091736016 -4.341413669591091 0
2.374153019799644 -5.016479901936654 0
3.335886333019888 -4.962406634200936 0
3.835358651017562 -4.599706310175579 0
3.897441489748505 -5.266827603425183 0
4.460393510767614 -4.85029843336645 0
4.541474155787639 -5.528881720947846 0
0.8239519868823879 -4.18337822324118 0
0.8582617423078013 -3.972328536856241 0
5.116256394274206 -5.11000627706821 0
3.968177812918804 -5.940710344535137 0
5.023866116972713 -4.393298257754365 0
3.069918580283051 -2.905979709840089 0
5.206602362997955 -5.837776052494258 0
5.725162015269103 -4.665195090654969 0
1.492519839941815 -3.037941769337696 0
0.3950555959724325 -2.391522043016733 0
1.909743935094476 -4.848382253550807 0
0.6447492582235477 -4.555362245316699 0
1.97619450260787 -5.295141337328308 0
0.5686646926161361 -4.624478257085195 0
1.547449997296412 -5.113721029325722 0
1.610991363646366 -5.54114962178342 0
0.3997723602424769 -4.744594413511391 0
0.4886428451737868 -4.690811944688327 0
1.245368944499155 -5.391475663366054 0
1.293264996037749 -5.76380488700174 0
1.649067296180048 -5.946748811129183 0
0.962597418011146 -5.607792253743124 0
0.1552438770243374 -4.83080677487747 0
0.9847258693923172 -5.966570292043675 0
0.6459703598390663 -5.780010944232948 0
0.6919317634841804 -6.171839968795831 0
0.3735341015891321 -6.012209396117746 0
-0.1013560494222091 -4.83784434557557 0
0.3932734321884268 -6.401227779799592 0
0.03370901275123494 -6.180200173415247 0
0.07199982088651244 -6.641052494526413 0
-0.3045683234906248 -6.470266189093482 0
-0.3445667160318368 -6.07671933814609 0
-0.6448326096289348 -6.295169216956749 0
-0.3987000063289629 -4.743128308647562 0
-0.6893278984836793 -5.891474821303839 0
-0.9558093849431304 -6.117755992879134 0
-1.002563114817064 -5.779075594337413 0
-1.255371074213292 -5.966895002568859 0
-0.6415135094103835 -4.550048575404742 0
-1.279053790639655 -5.629122089525982 0
-1.562813307942609 -5.82012281686767 0
-1.583682860922233 -5.458290559198989 0
-1.902187051409988 -5.668653956348307 0
-1.917146256657539 -5.259516614808105 0
-2.279806037986962 -5.487144572894668 0
-0.8138108316160633 -4.229360744843225 0
-0.7539883961543328 -4.375441610734143 0
-2.297559828168557 -5.040692155167976 0
-2.705154430478937 -5.286072997354555 0
-2.724025902614232 -4.791510802986512 0
-3.173079153729059 -5.06685315210163 0
-2.290788480735999 -5.974439192219379 0
-1.22851332322344 -6.254266421084117 0
-3.188790280459506 -4.522048759593799 0
-3.675459750373911 -4.785376958976236 0
-2.70706183188736 -4.22284612226662 0
-0.7539883961543329 -3.624558389265857 0
-0.8106499139407888 -3.76947144471959 0
-0.8386983937246355 -3.922283148740142 0
-0.6689824969385733 -3.483191651358357 0
-0.5710593829427386 -3.375139352627137 0
-3.637814654241697 -5.361431026381958 0
-4.197229460867887 -5.121875091404098 0
-4.220181329144183 -4.467637573411945 0
-4.784135823610706 -4.839260178795689 0
-4.745860159529995 -5.527125926743069 0
-0.7039989635955586 -4.467047095341519 0
-0.5694920918775739 -4.626316910106917 0
-0.3062184791121099 -4.789606729539619 0
-0.2072159292620206 -4.820824674869002 0
4.852817681963247e-17 -4.84229146060377 0
-0.8336279902353367 -4.132374456910489 0
0.2556676014914677 -4.807286485583213 0
-0.4882642419743078 -4.691558547567148 0
-0.4882771335256247 -3.312999346000774 0
0.7594356655093062 -6.573235275345086 0
-4.817873832658311 -4.152561171266796 0
-5.41864202720016 -4.592183744995205 0
-1.918653138382115 -4.886289777317834 0
-0.4155537801864105 -5.757567404140305 0
-1.025517195583572 -5.459091801016963 0
-0.2853707647513221 -6.92010024743854 0
-4.211505794568556 -3.792665835780841 0
0.3886876374819312 -5.734123844678752 0
-4.82414262688784 -3.453008768233787 0
2.512720058639709 -5.581995554417492 0
5.616944892737238 -3.907657274262573 0
1.502969090216883 -4.735812206578507 0
1.91711006093981 -3.768840971395957 0
0.1458583396125253 -7.112346837164817 0
1.648600757076043 -2.077551746748606 0
0.9078081342006113 -5.268506165863871 0
-0.2512320106698528 -7.420306595220197 0
6.35403959816604 -4.192606023311681 0
6.458388181913815 -4.989494144902686 0
0.8933157456780584 -2.835698953456038 0
-4.205247838516526 -3.093523528848711 0
4.914440794467976 -3.670127536708162 0
6.282183946747132 -3.410648784932719 0
0.2576638897141276 -7.65043908077969 0
-0.6982815725443272 -7.184336565878723 0
-4.847148842440211 -2.70533803227194 0
-5.523426024695823 -3.09168979822021 0
7.127791793513717 -4.498096542551348 0
-0.2227337239107998 -8.008919319127601 0
7.22508718290308 -5.340580743131105 0
2.929664577525938 -2.314393522293173 0
3.5062620391551 -2.483577403134602 0
-3.53522086807016 -3.508051220798972 0
-3.584415104261613 -2.773748356051476 0
-3.007892655982225 -3.087449153275575 0
-3.003280577743719 -2.479341624782085 0
-2.421721381085895 -2.756591839101361 0
1.363727905158876 -1.22773818084341 0
3.647065518784276 -3.16112343955004 0
3.414245052813331 -1.830278107361344 0
4.137326806924324 -2.735115474011017 0
6.542579450199212 -5.835514601961313 0
7.320510343347222 -6.196479773025463 0
6.616643911499234 -6.707267818151081 0
7.421108958010697 -7.075222152767214 0
-3.432387375402325 -2.09227124767503 0
1.780813868923818 -4.468108326758994 0
1.416352904165365 -4.418101398217336 0
1.269160460283031 -4.603989593510255 0
1.244612485194358 -4.329632978950216 0
1.035528046272929 -4.491598859896173 0
1.336948869226065 -4.18440111403172 0
1.145848393860612 -4.092870444294619 0
1.289922057462758 -3.979549422202027 0
1.128986330059613 -3.928984840382838 0
1.236101519156703 -3.810316600960296 0
1.065197879244878 -3.766277784091 0
1.182047548021691 -3.649782926340698 0
0.8122357542435125 -3.768868206790222 0
1.023027550891849 -3.613651787329089 0
1.130861983301823 -3.494957282052611 0
0.9944710517376559 -3.465101189480932 0
1.084553685632854 -3.339861040508748 0
0.9430842913067951 -3.31927786732905 0
1.338372377577696 -3.52613098268375 0
1.028434462512035 -3.180227443761277 0
1.040357545964382 -4.261081052665853 0
0.7982642301527956 -4.278955940392319 0
0.359797586910559 -8.272553095517743 0
0.8030140121075529 -7.817671845797904 0
-5.542776755331825 -2.291532485191544 0
-6.257059530256074 -2.717887304440914 0
-6.230779357781661 -3.532421796216428 0
-6.977643906655155 -3.158893640277849 0
-6.953038916757214 -3.954119927747183 0
-7.013232990468186 -2.310793356289709 0
-2.472525865359311 -3.320197572857456 0
-2.039221360251429 -3.113830846986593 0
-2.045716094326333 -3.531138239638309 0
-1.658315783382904 -3.351273480578702 0
-1.71245755630637 -3.723670926665734 0
-1.668806858921539 -2.96588360605548 0
-1.371074431568637 -3.135659710404872 0
-1.361261636645225 -2.81206315215133 0
-1.103263268043457 -3.04638261487704 0
-1.135115217422621 -3.297549959550544 0
-0.849395005731683 -3.156042521273313 0
-0.8729232418254319 -2.936998272452323 0
-0.6994149819617461 -3.052002838372037 0
-0.6791091161388516 -2.869820311844464 0
-0.8220240691275814 -2.691424686168012 0
-0.517643813605893 -2.997341283366168 0
-0.4967361529239583 -2.813986774686093 0
-0.3512508666957193 -2.928467833114738 0
-0.3204090169584186 -2.743210481451273 0
-0.1654820601303229 -2.895642844734251 0
-1.647417931594989 -2.587639948848541 0
-0.1342214491403471 -2.67576251714543 0
0.01331446851881889 -2.815264269772448 0
-0.9640565771896985 -3.380359590294548 0
-1.318177018815115 -2.466826139259584 0
-2.013886637538992 -3.914806880236943 0
-1.694643744136304 -4.039419434796958 0
-1.399214088159888 -3.863548439787583 0
-1.422258416488694 -4.145968827124634 0
-1.225217058301651 -4.050575783304784 0
-1.182697445294128 -3.757324648776962 0
-1.194022671938741 -4.241873017986656 0
-1.383678937921098 -4.376412680936378 0
-1.194631567357769 -4.441916970368878 0
-1.36478792086224 -4.600675270300655 0
-1.137796445251597 -4.63995828884578 0
-1.308758827001189 -4.803147819943406 0
-1.098227294651807 -4.877593064392901 0
-0.9461194902237915 -4.72123200356565 0
-0.9131888304801641 -4.916987684324802 0
-0.7745582742149451 -4.800974410746115 0
-0.7528708045757673 -4.959745074209724 0
-0.652957315775529 -4.869827979342507 0
-0.5946253570644703 -4.989588267759922 0
-0.7183526775963719 -5.114785620781339 0
-0.5603284719652413 -5.154187213515004 0
-0.4473941982497381 -5.042658969812056 0
-0.4058176414278791 -5.186503726926476 0
-0.3036459356737145 -5.072853468655327 0
-0.2596438583901709 -5.202160394148565 0
-0.1701245861112916 -5.117402432419091 0
-0.1109484180683979 -5.250637231231432 0
-0.01822984703715716 -5.123960154438935 0
0.04455562548766066 -5.29104908210204 0
0.1486243398189272 -5.167617801393932 0
-0.08881741908079606 -5.43145467505869 0
-0.5080513011831335 -5.332872558854552 0
-0.8049849073591515 -4.664572018143243 0
-1.066212919072664 -3.907504790723122 0
-1.050113361320458 -4.32840155068378 0
0.09411210506147177 -5.030801730551699 0
0.23425494818439 -5.042924967083398 0
0.295877885788612 -5.193100901446232 0
0.3878647484486321 -5.066758966789414 0
0.4548037593101238 -5.212601207768039 0
0.5495185280526101 -5.081768652319929 0
0.4803602962148809 -4.935954807977791 0
0.6282474145975626 -4.955183293140407 0
-0.3041720465203768 -2.522796689708725 0
-0.7449583591924612 -3.258499199204804 0
-0.017744944100321 -4.988799591199178 0
-0.1648633529627896 -4.953573772183011 0
1.017819930104636 -4.104740123119385 0
0.8591925091587184 -3.17501987073161 0
0.7325571224029679 -3.263442958768283 0
0.7028119071444574 -3.134352199353014 0
0.7996232483914618 -3.424361513397969 0
-0.363272784089844 -4.947347573514549 0
-0.693660108295664 -4.692387402658486 0
-1.008147831744813 -5.065835159740444 0
0.5494200699421717 -2.762146301886204 0
-0.1419086276506405 -5.834737847995621 0
0.3267531391560092 -4.921151041775835 0
-0.08771404507297413 -2.390040764538634 0
6.705766572175163 -7.581493063323302 0
5.896782835661147 -7.231971744686863 0
0.5630878783436424 -4.823676751165157 0
0.7016344611254262 -4.828530207560753 0
0.7716686740688478 -4.943792245076286 0
0.8497499980060415 -4.820905470166188 0
0.7659865769929818 -4.6945034378864 0
0.9102181128758954 -4.689105947267402 0
1.009793539302775 -4.810769625314102 0
0.8298174882316418 -4.56771257739406 0
0.7063270517892979 -4.465200912754987 0
-0.996696319576504 -4.580463772036893 0
-0.1822266668428767 -8.661001891589882 0
-7.744334470705077 -2.750896413891137 0
-1.445605716460014 -3.593690236180776 0
-0.5689071729358475 -3.156343042498057 0
-0.4305503774137214 -3.1178998621477 0
-1.960653870443009 -4.250110530315472 0
8.143461203131656 -6.531275341324807 0
7.517372595944988 -7.982082495983297 0
7.894356091829271 -4.746280973165617 0
7.797335703771369 -3.905399012118313 0
-0.007167146964331805 -2.96923201828581 0
0.1095897325039982 -2.934747732721936 0
0.1916977988434133 -2.801447264515593 0
0.3149253787584695 -2.89480103662695 0
0.2417701435852373 -3.063250502014569 0
0.3529423281109247 -3.01553962927319 0
0.4008277397106874 -3.263769225937376 0
-0.1917221414897933 -3.017368005172822 0
-0.6495644821585754 -5.612007117100468 0
0.6130114520920645 -3.245869145238009 0
0.568857315678304 -3.126729931192615 0
-0.4723267935196683 -4.919610028468061 0
0.2088299347374879 -3.18976798625752 0
0.9798073130810203 -3.890550681929954 0
1.123680553486092 -2.859812109978771 0
0.8566479375646279 -3.53853070429799 0
0.6944621437012777 -5.469027666095595 0
0.9335953307752285 -3.765619557433352 0
1.434982627637045 -3.840557511633341 0
-2.448909013739886 -2.199008555666901 0
0.2105824814783883 -4.934286210295463 0
-1.56518051584438 -4.519089396155366 0
-1.600578892987831 -2.162286022489337 0
0.6316573079746056 -3.010715572039813 0
-0.8146121936514075 -8.351977804304433 0
1.856818022271684 -3.397493920165414 0
0.6359996782344676 -4.717174081027483 0
3.422468487903053 -0.7877529032927963 0
0.3536839515732607 -5.352168780155018 0
0.09804740194234843 -5.487417296865758 0
0.5076101145034841 -9.12927533339565 0
3.762649106340496 -3.908742739638202 0
5.95157853395931 -8.245898592735472 0
5.163329916990978 -7.731566347685178 0
5.072019623647907 -6.75548513897265 0
4.408225650735069 -7.362100748977286 0
1.599607098355179 -4.201363955631507 0
-1.078315637286483 -4.137570398813652 0
-0.8418919783684045 -4.025938414850655 0
1.163171220042344 -5.075858503361271 0
0.192354939161508 -2.148776589993492 0
-0.1498529315480848 -2.087820595486825 0
0.4146888195151011 -4.850308002242278 0
-3.493929353002319 -0.7752035098905621 0
-0.3952175416451301 -4.859727300098451 0
-0.4727684063233977 -4.823915961141117 0
-2.869613851784377 -3.665720321992562 0
0.1136855301485058 -4.919725427286573 0
-4.763381937335054 -1.853810506891958 0
-5.550796823553079 -1.449651654588188 0
-0.7314961571733745 -4.598373409747994 0
-0.7969779187662042 -4.554073426421154 0
-2.251395974019644 -4.549386687405622 0
-7.829842028669519 -1.762718953093244 0
-8.600846044167419 -2.309594512104212 0
-1.55380011246551 -5.074219606399216 0
0.08032827561244142 -3.044067737183294 0
-0.468221304198368 -3.208902688446293 0
1.259829972434719 -3.183627357693758 0
0.6579237067053646 -3.326234236524557 0
-5.497950006486456 -9.148549132513661 0
-5.987901893177723 -8.343636894037356 0
-6.929491496296277 -8.315326534195798 0
-6.444688632030062 -7.530533636798605 0
-5.544390545177555 -7.564432857919469 0
-5.977725293389101 -6.783818290356077 0
-6.852225865455154 -6.76104464828393 0
-6.38968476758194 -6.017824688848973 0
-7.29116381761887 -5.994873865124094 0
-5.122666317141155 -6.812110761378264 0
-4.735990313203173 -7.533969832736833 0
-4.311797231026863 -6.855730948598763 0
-3.954102620305229 -7.61701752932438 0
-3.555547695846838 -6.871790771574847 0
-3.190910470882479 -7.503659682710838 0
-2.822492376508905 -6.805367788666761 0
-2.490877461491158 -7.454910751166484 0
-2.710379238853575 -8.013743666722537 0
-2.14513638900653 -6.838817696698362 0
-1.837096276665283 -7.436257844661197 0
-7.727155782574404 -6.728267887443719 0
-3.25343737297645 -6.261130929833817 0
-6.75687184732528 -5.258933519060795 0
-7.608399706940565 -5.214629665911685 0
-1.590631739897649 -6.939137771422141 0
-1.785885270486481 -6.47553949364327 0
-3.897352961453517 -6.296060952474526 0
-5.9264754133808 -5.290892340999946 0
5.493551840810901 -9.157464413488885 0
4.472739519088024 -8.190468547171411 0
3.753978959769953 -7.807328621672312 0
3.612777073477659 -7.065569186079314 0
2.999518389619102 -7.494215439861322 0
3.159636161198174 -8.268091287817871 0
2.380227583235371 -7.917381719751966 0
2.321389519983666 -7.19082086502819 0
1.78465795756731 -7.589430175022731 0
1.729098723642952 -6.952551687375105 0
2.235106455935942 -6.507111482078686 0
2.466779333865969 -8.714062144405016 0
2.874976092379334 -6.793852875871052 0
3.353937952305893 -9.146997830689997 0
2.742642795697859 -6.136035025313642 0
1.712251295697214 -8.356976725291885 0
-2.508562495176946 -9.251979048904786 0
-3.491587847104059 -9.23875933220349 0
-3.808908011304745 -8.464296801703625 0
1.202109667978175 -7.2865133583383 0
5.495695076663606 -0.8534320106107929 0
5.990984254381036 -1.665820563804883 0
6.926008679253593 -1.696207694669384 0
5.054939857049421 -1.634513317955145 0
5.399082281859105 -2.359476834492286 0
6.369052201605518 -2.509254640536646 0
7.338058725029047 -2.530192622897826 0
7.896242096872486 -1.742688424820173 0
8.245028153165585 -2.537006979136242 0
0.9009705371743776 -3.652791658630701 0
-1.293071468289122 -5.320160221515259 0
-5.122939686989607 -8.285570420255278 0
-5.438515139160173 -5.979741469823471 0
-3.109232272252865 -1.465690551928479 0
3.42522257207169 -6.376477235250707 0
3.251312366978701 -5.644515376570891 0
2.639675069062654 -1.671893808829742 0
0.5155633927135083 -3.214232751074736 0
8.831324636260561 -1.835047065308816 0
-2.083163075626298 -8.497086907266651 0
-7.45588698384785 -9.117048605312025 0
-7.8253710952859 -8.247463613419917 0
4.214200882783714 -1.673873299039335 0
-0.3017653286753191 -3.067069099848078 0
0.6777203203605431 -4.629647651094359 0
-1.071663710655764 -2.016341183315151 0
9.139133510731854 -6.491064497945869 0
1.07693183586412 -4.635197257585227 0
1.232161058941335 -4.804181896233159 0
-7.442309469418772 -0.8517319945147559 0
7.523375413460417 -8.999717057274067 0
7.476843695910775 -0.8623184027307538 0
-9.188956202400846 -4.508464983414174 0
-8.416535416357826 -4.047739672726006 0
9.183665700652513 -4.509894810020146 0
-9.173946491134767 -6.455354595487892 0
-1.230367179166171 -5.05739547983089 0
-0.6562105484855592 -6.698895344987163 0
-2.401279501476644 -3.797088001692532 0
-1.230723548089211 -7.36197886514967 0
4.192742218381491 -6.603825344053483 0
5.854393350012998 -6.293943369910102 0
-0.4059310350829709 -3.251702930226815 0
-0.3067976905809618 -3.210546661095711 0
-0.3505133530334006 -3.163025465171764 0
-0.3103756789417229 -4.864630765366862 0
-0.4440588017369179 -4.719420005336127 0
-0.3524401905216423 -4.766149472870445 0
-3.659981211972767 -4.192189925843433 0
-8.300947479972299 -5.97547356518343 0
0.3214701748301459 -3.114098796195667 0
0.4341117212747873 -3.131681167747595 0
-0.8354926485915285 -3.870307551086047 0
-0.8924732658833584 -3.893328669225658 0
-0.8863508226623452 -3.831636129750434 0
-0.8912183474120542 -3.972627285609159 0
-0.9679180574708612 -3.856039428542678 0
-0.9408158412766314 -3.768755414053441 0
-6.254545904067232 -4.444242674947148 0
-0.7978772325259702 -4.283185673785205 0
-0.8537992212746994 -4.271613085548793 0
-0.8648895111406834 -4.192994097737768 0
-0.8245105728812513 -4.345525977046195 0
-0.9241413322970261 -4.325905181461597 0
-0.8843067676231074 -4.408689901011895 0
0.8257508251283221 -3.81955419629893 0
0.8885536465741116 -3.838874858540362 0
-0.8234744059650988 -3.819576313401099 0
-0.7974358735967353 -3.718994440167475 0
-0.863307718153287 -3.729366867568754 0
-0.929876763953955 -3.671892486591723 0
-0.8296758326217235 -3.653724498711424 0
-0.8899322103022833 -3.581470903375882 0
-1.003432337655506 -3.587528368877029 0
-1.040007115276649 -3.700012281376797 0
-1.138744149231509 -3.609326528850426 0
0.3533849394881211 -4.768106230738145 0
-0.7322233763455234 -3.577250636559977 0
-0.7988138795651214 -3.578037500049766 0
-0.770746882891689 -3.515296409037765 0
-0.770770020670379 -3.674783143857121 0
0.5309814477607586 -3.341618512413987 0
0.7756708537879249 -4.328313312538407 0
0.8404447292974864 -4.33146518510385 0
0.8634456603033517 -4.254617536499433 0
0.905082670979243 -4.324276181630678 0
0.8851040937397836 -4.401026107537322 0
0.106679373754754 -4.841018528498171 0
-1.593885066391238 -4.76811775695281 0
0.6755205214086457 -4.510138139996887 0
0.7383604867317414 -4.526688511542048 0
0.7713950685122565 -4.46105126096556 0
0.6102160440603971 -4.594824152074043 0
0.3717392894725634 -2.761671737422455 0
-0.2596437981212911 -4.943368594764241 0
-0.6071113080897195 -4.589757511879386 0
-0.6223805556744892 -4.646559213325766 0
-0.609778852667066 -4.719282925696303 0
-0.5300632797342606 -4.65871163389843 0
0.05016209667336154 -3.158488413105837 0
0.8047706053016536 -4.230920963102013 0
0.8937110154321914 -4.183962938178575 0
-0.1105415414785463 -3.157613601198731 0
-0.08277307030982682 -3.106736312818608 0
-0.002261836663926433 -3.091370096223696 0
0.3556617010918129 -3.233005369568595 0
0.6772606824070144 -3.490211504930706 0
0.7104816778384136 -3.436356606620709 0
0.7502573164024018 -3.503752152708793 0
-0.2598441963010916 -4.810683591788629 0
-0.1529538860330901 -4.835884956197433 0
-0.1931195606557532 -4.888007422685604 0
0.305387742468513 -4.790416520749237 0
0.2959262682572709 -4.841565508466088 0
7.969742972843955 -5.641854213735689 0
-0.8452674676695646 -4.083243004048468 0
-0.9031849069463777 -4.052188874875778 0
-0.9601717070826701 -4.01183532082404 0
-7.332456224103255 -7.518326220776636 0
0.05204966776183089 -4.843895093741908 0
0.0262773994669926 -4.909200068264789 0
-0.04905992380077964 -4.897122663817345 0
0.7967980505397634 -3.719339994051961 0
0.8558627431600307 -3.728113013055876 0
0.8909619204832842 -3.912328567514553 0
0.9446389486671871 -3.977511251743755 0
0.8931428616982755 -4.03307689928023 0
0.7294458022735636 -4.421145730301885 0
0.8386983937246356 -3.922283148740143 0
-1.357749172834242 -3.379268926118922 0
4.373784774724838 -4.133996355772769 0
-0.8149088723134424 -4.179371977966288 0
-0.895328084446081 -4.125489878444599 0
-0.9608385376928996 -4.211418375732331 0
-3.10177443833424 -5.677302542531535 0
0.2062287398202093 -4.819962074749771 0
-0.6746004175115339 -4.509565407195677 0
-0.7322233763455214 -4.422749363440023 0
-0.7997079953825896 -4.417838400445547 0
0.6058117826452547 -3.412564527438027 0
0.4450977235015143 -4.718857505830989 0
0.4428417486086453 -4.781397219012017 0
0.5289000245376987 -4.65742399011661 0
0.5479918085544212 -4.718567446364086 0
0.6390755138092821 -5.248794810091073 0
-0.256257279979572 -3.193194581221535 0
-0.0003212099597054835 -3.161223365225162 0
-2.463231451283846 -6.442411145981881 0
-4.608465464077469 -6.204517693654258 0
0.7578196434624209 -3.622743537192072 0
0.8186710637359634 -3.62268517413085 0
0.7021361706106837 -3.534747700138736 0
-1.06598480576752 -3.475270713286768 0
-6.277083282933457 -1.87212507349931 0
9.19776047031198 -8.529307773069156 0
-9.230688834077057 -8.468151083728529 0
0.4571190409095952 -3.277675420052582 0
0.1573057755731281 -3.171813235796009 0
0.1526110412069034 -3.103504588842875 0
0.2683938238602405 -3.188636834561402 0
7.023751660801253 -3.701331655781721 0
-3.921878212510829 -1.526282823771259 0
-0.1574929090263907 -3.172355746585446 0
0.8423755878890098 -4.133330530956433 0
0.9113555918597926 -4.11340352240699 0
4.268442359475098 -3.426868912216329 0
3.150411569095098 -3.622824275634084 0
-0.7698252405081316 -4.325502974084938 0
-0.7048097554286306 -3.532976118588758 0
-0.734259104425984 -3.439427445649077 0
-0.6654348073254479 -3.417524289667234 0
-0.8249172311435884 -3.446075378403612 0
-0.122749480195811 -4.894020868613789 0
5.817230292444547 -5.45532158949859 0
-0.445097723501515 -3.281142494169011 0
-0.5318505850237897 -3.334138639526335 0
-0.5820924904894387 -3.311153002885619 0
8.239249821170478 -7.439141050252308 0
-4.125743218411092 -2.340829082585063 0
-9.184396448594834 -1.5628183516589 0
0.07904135879185073 -2.629148494927288 0
0.9209143667207795 -5.006075248791302 0
-0.2464977549673935 -3.1366029680516 0
-0.04723613953959314 -5.625138551796927 0
0.4858245483538691 -3.038067474219316 0
1.914789669659548 -4.140780669086896 0
-2.014423357234019 -2.360689944455798 0
-0.6814165263458115 -5.283618625713985 0
-0.8807549406381128 -5.239209638807601 0
0.4865397890339133 -2.907390906646753 0
1.764880082120519 -0.7130968170691858 0
2.01215861218572 -1.343758356663258 0
-0.2447903340481583 -5.595509711659276 0
-0.4564379682452119 -5.527640299370679 0
0.647365771936081 -7.282527573280353 0
-0.8415283032653621 -9.020476287767696 0
4.77538715560868 -2.952107927617781 0
5.559515212170941 -3.134878833091695 0
2.85636752773662 -5.183582241171076 0
1.043992352424569 -8.442316005757576 0
-5.444380929347588 -3.815935107031245 0
1.5800090990302 -3.643701074509707 0
1.209405441377704 -6.749241265182704 0
-8.164348003841653 -7.464360818107513 0
2.114936303769021 -1.895849482279931 0
1.593114096329509 -6.422190989744688 0
0.9730945943658305 -3.008610975186604 0
0.9804505670316344 -4.36929145682671 0
0.938234212776708 -4.482888957402268 0
-0.7276385275318258 -4.523976553826372 0
-0.7171570826245363 -3.355986797883225 0
-0.8250229164181172 -3.337206014219881 0
1.307370054568374 -6.084583036377115 0
-1.465821246577232 -7.992163741004213 0
-1.083257645589048 -2.734920438912395 0
-0.9745340855685144 -2.465684075592428 0
-0.6381956675137153 -2.496450967605033 0
-0.4387490063228871 -2.234246397549725 0
-1.063227922788793 -3.81660014664146 0
-0.7345973759949335 -7.720036850312123 0
0.5875688666631598 -3.319386311498341 0
-1.865699569239399 -6.0637891305767 0
0.53196584458102 -3.286410766016728 0
-2.628290235920402 -5.713339349622896 0
-0.2963581343491068 -5.360968371035667 0
2.029350319886773 -5.742050895750252 0
-2.26685556307313 -4.146847644383438 0
-0.5427925223296696 -4.71517783913982 0
0.7932236108244097 -3.005532027637737 0
8.360089230847265 -8.292442558393919 0
9.12498182656557 -2.709169505890724 0
0.4184629703579535 -3.215105467577499 0
-0.9384134555632544 -6.45750099676312 0
-1.096770570473276 -6.87107746227032 0
0.7825683526877955 -3.573313167605564 0
4.591855319523296 -2.254992540515586 0
-0.04977334152771327 -4.834693277360681 0
0.140974071308667 -5.769315219347241 0
-0.9785997563469551 -4.092676223504222 0
1.503737875616628 -3.324091578719822 0
-0.9235431974731686 -3.483401024272321 0
1.083762248548503 -0.7439993002611276 0
-0.834058276498946 -3.97432002485856 0
-8.446245121841951 -4.984179312352675 0
-1.527440850560813 -6.194204682360287 0
0.2037957195328442 -5.333788881087269 0
1.303163356317246 -2.002920481925238 0
0.4850100372938175 -6.827908949284369 0
6.830939281065363 -8.392866256873436 0
1.016678014902245 -6.323600201966288 0
-1.45372452167921 -1.607141670189879 0
5.115793221093831 -8.479930300964977 0
-0.6075459709460217 -3.414884605079636 0
-7.686423672746759 -3.587626098277884 0
-0.5616098106073397 -4.791504385280817 0
0.2301844774434008 -3.137062906451583 0
-4.111527302208839 -5.708535922235287 0
0.7362054385749489 -5.084020069213811 0
0.7411765191443934 -4.595402013647385 0
-0.8556373783789186 -5.061033461904346 0
-1.087571723084358 -5.228338460182232 0
-6.971073339864623 -1.518207653682945 0
0.3499254825770227 -4.826731623320695 0
-0.5309259016078276 -3.263974461001714 0
-0.6357807530757589 -3.255981591274499 0
-1.646560000585372 -4.309573236658409 0
-0.8471841032794967 -4.485410005160123 0
-5.5 -0.6394881939620358 0
-5.298728559020751 -5.221900586783717 0
1.979019014080156 -6.11229177852672 0
0.478961339337644 -4.827920521304486 0
0.5908379183340181 -0.5912994019378566 0
0.7301103646495111 -3.363625282390042 0
0.8411291410521149 -4.025880644229933 0
-0.8881248238337438 -4.5809629768925 0
1.653991926166697 -3.934859943288109 0
-1.82272142761096 -4.547094564134252 0
-0.9757369176421433 -4.395774265950209 0
-0.2923662814473294 -3.154087755077737 0
-1.938573020404486 -2.756127925330419 0
1.354302634284667 -3.694097819225558 0
-0.6260707375570898 -2.697664388016186 0
-7.69371261188704 -4.408917827599111 0
1.234508961069933 -3.374703527507535 0
-0.6873396942720532 -4.557424683527254 0
3.847611777396397 -8.497427978219106 0
0.8002798734762178 -4.399593830649815 0
0.8497235927737382 -4.480139126476703 0
0.1889053950441154 -4.87810638280745 0
7.680654011011955 -3.173163384731295 0
-1.294168930122745 -3.654963444049329 0
2.394835237708233 -2.277452706296369 0
-1.966547561821057 -1.923864226096705 0
-2.475670662926361 -1.657344571175499 0
0.6179512427403984 -4.647122001339085 0
-3.192133608834834 -4.022171270099077 0
0.3498890375859249 -3.180025430036295 0
-8.50819042163382 -3.123043260520932 0
-0.9644702608166962 -3.930713400292313 0
-1.064957642464135 -4.005834319119699 0
-0.7873637481086361 -5.441417771331773 0
-0.6312818943994748 -3.357982167907513 0
1.361437841624243 -4.932393408874665 0
0.863199659976241 -3.784205966423748 0
1.10216175700644 -4.36232351997794 0
0.6955054211737743 -4.563447712319475 0
4.617296761229919 -6.130271060287855 0
-0.8415906802751701 -3.520856243027869 0
-0.5543102269602944 -4.88044617339165 0
-0.6639168888192807 -4.605758466090604 0
0.5297513370162712 -5.368805024292415 0
-0.2472972687114978 -4.865375098165194 0
1.140207107195355 -3.03802921750294 0
0.4824234236996772 -5.535919280669227 0
0.277934846344303 -2.601548252776328 0
0.171334539039424 -2.432207229050495 0
-3.600381345842949 -5.860892274691425 0
-9.343518500748079 -2.532668791934548 0
9.304752846393527 -1.201429617932225 0
1.758940362654571 -3.110078936856582 0
8.547083366016487 -4.091998549575757 0
1.558686648613672 -1.657115256040866 0
-0.6214581191611099 -5.444751745782634 0
-0.4043942220263348 -3.195458941168008 0
2.5 -9.445937256039539 0
6.858819033034121 -3.033192755434999 0
0.1604081219608105 -3.026566752148772 0
0.08219413926208714 -3.11298397380776 0
-1.899804887729031 -0.9569618289935367 0
-3.330698331712008 -8.06764778309396 0
-0.1769614188993063 -3.103724980675064 0
-0.2438562123560824 -9.352900105387242 0
9.267949192431123 -9.267949192431123 0
-9.267949192431123 -9.267949192431123 0
-0.4405582733077866 -4.765667412003359 0
0.8696544244793132 -6.947650556087246 0
0.0540825226441623 -4.96213170432556 0
-9.273040735444942 -0.7269592645550569 0
0.9364367514480411 -3.558092220666881 0
-0.2525550992477886 -2.977136945717472 0
0.4813746399207102 -2.591992650047807 0
0.8245886190277658 -3.333738577758819 0
-8.488134599939455 -6.816938618336054 0
-0.6312869737214214 -3.45502099729454 0
-1.070822552059645 -4.229815835804104 0
-0.2011924047135625 -5.020855361080515 0
-0.8603761060637648 -5.604368875289464 0
0.8278097724197201 -3.679304785660022 0
1.986271153759201 -2.247087709595462 0
0.6794102519836601 -2.871228160916746 0
-0.4916753427132365 -4.751207358411397 0
0.9648826144614268 -4.050271091646755 0
1.038080631688081 -4.011812526328274 0
1.309205057154964 -7.898581622041679 0
0.9507244363671566 -4.255099435557153 0
-0.5763905580289992 -4.675777439335991 0
0.5787215620032484 -4.673491406553967 0
0.4944372239199424 -4.760205231394177 0
-0.7679551474835327 -4.478515807439123 0
-0.3953781964480487 -4.794026457619677 0
-1.359190351264622 -8.60300154525812 0
1.189898834672027 -4.467626773927777 0
-0.6610322924214516 -4.777551931785971 0
-0.05109395807017683 -1.835181844716161 0
-0.3519260173337307 -4.81482814509901 0
-0.7797613868982086 -2.240284213966781 0
1.467194083086363 -4.024080414532742 0
-0.4771167242947117 -2.654821860293462 0
8.589796595465939 -5.0455088882364 0
0.2779353675897882 -5.535455550467211 0
3.972778020239953 -2.195567364812376 0
3.715038214249912 -1.338285695943281 0
8.43694631719686 -3.331919237919139 0
0.2473439375412435 -4.867059617279637 0
-1.233620650179922 -3.498657571399482 0
0.1403968009972551 -4.869773308084623 0
0.3921226700862734 -4.794227497764905 0
-1.057608128862376 -4.472159916732378 0
-2.130529241579197 -7.891031188149713 0
-2.989034097528089 -8.662683320879555 0
8.611369279525274 -5.96476157696199 0
-0.9416095101362283 -4.487243472964 0
-8.567241403668367 -8.059842367071058 0
-4.422431311365375 -8.185817660223782 0
0.2223613723579398 -2.962452763986352 0
-0.097996930140652 -3.028506927329205 0
-0.862882352435455 -3.783903005967464 0
0.9806978245215835 -3.699585196871035 0
-7.053313797395467 -4.656168723053185 0
0.7222225323884855 -2.688394793571037 0
-8.521328056888915 -1.643187290880502 0
0.1631587662181889 -4.981934583804283 0
0.6593479021039538 -3.395392892791082 0
-0.9863615612119812 -3.253317751957322 0
0.9768107661617624 -4.180161817361103 0
1.065823456508625 -4.175769710385001 0
1.152198046881162 -4.23711315303856 0
0.9357670967706988 -4.566638538816211 0
-0.4003025965976632 -3.027694519619171 0
0.6158636545584364 -3.364576308824277 0
1.292067253752532 -2.96608728991495 0
-2.763927792065874 -6.141737443114343 0
-1.412746900151407 -6.557747495664017 0
-0.09242041035168538 -4.950119086638845 0
-0.1107625908794679 -5.025785066326596 0
-2.893895980413031 -1.978731310245599 0
-0.3793494713279923 -1.885057934827267 0
-0.7018494853570885 -1.697294643508771 0
-0.6317204610712901 -1.287932294319065 0
0.8864303365378443 -3.45056198106156 0
3.020145969318394 -1.196608271182275 0
-0.7003144923308151 -3.17421443027987 0
-2.117869830308653 -6.329814895302754 0
-1.174167699670934 -3.904998519615474 0
9.433193108487599 -0.5607051937624092 0
2.32510749262535 -5.99517116627834 0
$EndNodes
$Elements
7 2030 1 2030
1 1 1 51
1 6 7 
2 7 8 
3 8 9 
4 9 10 
5 10 11 
6 11 12 
7 12 13 
8 13 14 
9 14 15 
10 15 16 
11 16 17 
12 17 18 
13 18 19 
14 19 20 
15 20 21 
16 21 22 
17 22 23 
18 23 24 
19 24 25 
20 25 26 
21 26 27 
22 27 28 
23 28 29 
24 29 30 
25 30 31 
26 31 32 
27 32 33 
28 33 34 
29 34 35 
30 35 36 
31 36 37 
32 37 38 
33 38 39 
34 39 40 
35 40 41 
36 41 42 
37 42 43 
38 43 44 
39 44 45 
40 45 46 
41 46 47 
42 47 48 
43 48 49 
44 49 50 
45 50 51 
46 51 52 
47 52 53 
48 53 54 
49 54 55 
50 55 56 
51 56 5 
1 2 1 51
52 5 57 
53 57 58 
54 58 59 
55 59 60 
56 60 61 
57 61 62 
58 62 63 
59 63 64 
60 64 65 
61 65 66 
62 66 67 
63 67 68 
64 68 69 
65 69 70 
66 70 71 
67 71 72 
68 72 73 
69 73 74 
70 74 75 
71 75 76 
72 76 77 
73 77 78 
74 78 79 
75 79 80 
76 80 81 
77 81 82 
78 82 83 
79 83 84 
80 84 85 
81 85 86 
82 86 87 
83 87 88 
84 88 89 
85 89 90 
86 90 91 
87 91 92 
88 92 93 
89 93 94 
90 94 95 
91 95 96 
92 96 97 
93 97 98 
94 98 99 
95 99 100 
96 100 101 
97 101 102 
98 102 103 
99 103 104 
100 104 105 
101 105 106 
102 106 6 
1 3 1 20
103 1 107 
104 107 108 
105 108 109 
106 109 110 
107 110 111 
108 111 112 
109 112 113 
110 113 114 
111 114 115 
112 115 116 
113 116 117 
114 117 118 
115 118 119 
116 119 120 
117 120 121 
118 121 122 
119 122 123 
120 123 124 
121 124 125 
122 125 2 
1 4 1 10
123 3 126 
124 126 127 
125 127 128 
126 128 129 
127 129 130 
128 130 131 
129 131 132 
130 132 133 
131 133 134 
132 134 2 
1 5 1 20
133 3 135 
134 135 136 
135 136 137 
136 137 138 
137 138 139 
138 139 140 
139 140 141 
140 141 142 
141 142 143 
142 143 144 
143 144 145 
144 145 146 
145 146 147 
146 147 148 
147 148 149 
148 149 150 
149 150 151 
150 151 152 
151 152 153 
152 153 4 
1 6 1 10
153 4 154 
154 154 155 
155 155 156 
156 156 157 
157 157 158 
158 158 159 
159 159 160 
160 160 161 
161 161 162 
162 162 1 
2 1 2 1868
163 173 580 524 
164 415 529 417 
165 585 593 591 
166 290 680 671 
167 540 541 166 
168 705 896 831 
169 784 789 515 
170 319 615 594 
171 319 798 615 
172 413 415 414 
173 864 901 810 
174 238 766 217 
175 789 949 515 
176 389 729 484 
177 437 824 435 
178 447 512 468 
179 202 205 201 
180 205 940 242 
181 321 358 357 
182 443 464 426 
183 236 640 614 
184 308 863 774 
185 674 818 416 
186 143 522 169 
187 222 766 226 
188 761 778 540 
189 394 395 392 
190 401 485 398 
191 401 486 485 
192 539 719 687 
193 521 969 837 
194 605 797 604 
195 144 931 522 
196 332 797 605 
197 507 708 462 
198 505 952 725 
199 468 973 713 
200 247 321 243 
201 467 837 262 
202 441 824 437 
203 623 644 486 
204 186 1008 189 
205 538 638 289 
206 758 855 757 
207 663 733 660 
208 424 443 426 
209 210 751 708 
210 724 725 234 
211 626 777 488 
212 456 721 720 
213 389 484 390 
214 614 640 583 
215 199 201 196 
216 205 242 201 
217 364 505 366 
218 610 860 314 
219 593 924 591 
220 449 468 452 
221 507 834 708 
222 623 930 782 
223 486 549 485 
224 781 857 474 
225 387 389 388 
226 217 766 219 
227 219 766 222 
228 839 883 550 
229 505 666 509 
230 416 675 674 
231 460 501 461 
232 531 902 247 
233 329 989 206 
234 144 522 143 
235 624 692 244 
236 417 445 419 
237 521 837 783 
238 355 778 761 
239 392 729 389 
240 243 356 223 
241 623 878 644 
242 452 870 472 
243 512 973 468 
244 239 641 526 
245 180 777 626 
246 358 961 357 
247 396 1011 455 
248 438 456 446 
249 422 636 547 
250 762 930 702 
251 408 492 405 
252 348 765 523 
253 421 481 424 
254 424 426 425 
255 299 748 612 
256 273 610 314 
257 187 928 850 
258 432 463 434 
259 321 628 358 
260 357 961 359 
261 574 658 579 
262 523 766 348 
263 390 413 412 
264 429 503 432 
265 468 534 452 
266 541 867 166 
267 496 984 497 
268 394 993 395 
269 356 785 223 
270 526 906 239 
271 234 728 724 
272 447 468 449 
273 505 509 366 
274 413 1013 415 
275 116 195 179 
276 199 202 201 
277 639 819 813 
278 346 387 386 
279 254 325 251 
280 455 811 396 
281 389 390 388 
282 166 761 540 
283 268 946 500 
284 262 837 259 
285 218 517 214 
286 429 908 503 
287 187 893 171 
288 415 417 414 
289 305 731 661 
290 456 936 446 
291 251 531 247 
292 325 857 781 
293 230 615 228 
294 443 542 464 
295 671 678 290 
296 775 863 308 
297 413 414 412 
298 517 919 214 
299 690 691 479 
300 472 743 518 
301 539 720 719 
302 112 535 166 
303 473 518 476 
304 662 767 280 
305 321 357 356 
306 489 829 630 
307 396 993 394 
308 221 322 218 
309 445 733 663 
310 398 1011 396 
311 390 484 413 
312 531 781 478 
313 508 744 325 
314 460 551 501 
315 538 895 342 
316 463 694 434 
317 454 817 469 
318 387 388 386 
319 189 850 186 
320 322 517 218 
321 179 1008 186 
322 708 834 210 
323 415 899 529 
324 768 769 293 
325 580 851 524 
326 254 508 325 
327 355 761 613 
328 612 748 561 
329 206 989 205 
330 268 313 265 
331 744 857 325 
332 241 839 550 
333 201 532 196 
334 421 424 423 
335 579 658 311 
336 476 858 479 
337 478 628 531 
338 801 880 374 
339 405 939 403 
340 685 954 807 
341 813 819 516 
342 530 716 655 
343 245 247 243 
344 397 398 396 
345 202 206 205 
346 452 472 453 
347 438 446 440 
348 584 592 583 
349 725 726 234 
350 684 700 233 
351 492 985 405 
352 179 186 115 
353 481 874 424 
354 257 508 254 
355 165 519 120 
356 265 467 262 
357 503 536 463 
358 391 392 389 
359 619 979 569 
360 268 500 313 
361 362 364 363 
362 361 996 362 
363 362 952 364 
364 535 761 166 
365 182 629 545 
366 236 615 230 
367 493 548 492 
368 247 902 321 
369 438 1004 456 
370 522 799 169 
371 459 941 460 
372 260 772 710 
373 305 732 715 
374 312 547 277 
375 164 598 597 
376 259 317 257 
377 449 452 451 
378 260 836 721 
379 348 766 238 
380 655 842 530 
381 641 773 351 
382 556 611 553 
383 426 428 427 
384 897 917 546 
385 592 614 583 
386 399 401 398 
387 541 753 176 
388 164 597 148 
389 432 503 463 
390 509 723 609 
391 169 595 591 
392 313 792 467 
393 178 917 897 
394 609 750 507 
395 625 1007 194 
396 596 619 170 
397 523 765 730 
398 346 386 344 
399 416 1013 413 
400 417 944 445 
401 805 849 812 
402 547 688 422 
403 325 531 251 
404 617 822 756 
405 233 763 701 
406 591 924 169 
407 560 649 575 
408 774 863 549 
409 548 704 492 
410 248 251 247 
411 146 596 170 
412 435 824 433 
413 456 1003 721 
414 600 603 165 
415 393 394 392 
416 409 752 395 
417 484 890 413 
418 562 611 556 
419 464 909 696 
420 505 724 666 
421 612 868 299 
422 374 839 801 
423 594 1015 319 
424 466 949 789 
425 408 493 492 
426 244 905 624 
427 280 738 662 
428 257 913 508 
429 702 930 703 
430 413 890 416 
431 116 179 115 
432 476 479 477 
433 342 895 648 
434 682 886 224 
435 529 944 417 
436 720 936 456 
437 239 773 641 
438 424 425 423 
439 499 930 623 
440 165 971 519 
441 297 648 288 
442 171 613 535 
443 227 243 223 
444 769 811 810 
445 171 535 113 
446 934 959 537 
447 837 969 317 
448 832 1002 286 
449 206 506 329 
450 454 967 816 
451 226 766 523 
452 588 589 587 
453 270 946 268 
454 545 990 182 
455 496 855 758 
456 199 921 846 
457 359 996 361 
458 171 928 187 
459 650 896 759 
460 403 998 401 
461 721 772 260 
462 273 314 270 
463 195 196 190 
464 194 965 625 
465 266 268 265 
466 786 879 346 
467 497 650 496 
468 364 366 365 
469 360 997 808 
470 324 921 804 
471 149 552 164 
472 289 826 544 
473 465 860 636 
474 524 848 173 
475 699 746 704 
476 114 171 113 
477 119 172 118 
478 570 577 576 
479 460 461 459 
480 386 638 538 
481 289 544 283 
482 409 840 752 
483 196 963 190 
484 436 1004 438 
485 426 962 428 
486 387 391 389 
487 116 871 195 
488 613 761 535 
489 302 709 645 
490 288 648 287 
491 795 931 145 
492 850 928 186 
493 176 867 541 
494 596 979 619 
495 552 611 164 
496 264 265 262 
497 446 447 440 
498 366 987 369 
499 364 952 505 
500 405 985 499 
501 618 918 133 
502 630 829 184 
503 473 476 475 
504 704 927 699 
505 467 792 783 
506 929 979 598 
507 472 518 473 
508 694 945 434 
509 565 578 573 
510 771 811 769 
511 345 346 344 
512 717 899 898 
513 630 848 489 
514 570 576 571 
515 625 965 815 
516 321 356 243 
517 433 824 442 
518 638 826 289 
519 809 884 542 
520 121 600 165 
521 617 651 502 
522 776 901 864 
523 422 688 420 
524 589 805 590 
525 119 519 172 
526 730 765 331 
527 164 983 598 
528 432 434 433 
529 658 800 311 
530 455 864 810 
531 941 1009 462 
532 171 893 613 
533 518 624 476 
534 390 412 411 
535 752 974 395 
536 586 587 584 
537 572 649 560 
538 603 622 165 
539 726 764 220 
540 360 961 627 
541 322 801 517 
542 801 875 510 
543 198 199 196 
544 542 909 464 
545 369 938 371 
546 252 254 251 
547 567 570 568 
548 421 977 481 
549 312 688 547 
550 395 993 409 
551 382 800 658 
552 759 855 650 
553 359 361 357 
554 557 612 561 
555 553 611 552 
556 607 631 183 
557 468 862 534 
558 138 580 173 
559 313 467 265 
560 366 369 367 
561 588 599 589 
562 672 678 671 
563 409 993 811 
564 611 983 164 
565 790 841 117 
566 589 590 587 
567 683 886 682 
568 763 764 701 
569 586 595 588 
570 615 798 228 
571 625 815 410 
572 776 863 775 
573 212 241 208 
574 713 862 468 
575 472 957 743 
576 574 988 658 
577 208 506 206 
578 586 588 587 
579 186 928 114 
580 133 830 618 
581 429 432 431 
582 627 997 360 
583 444 1013 818 
584 344 538 342 
585 224 886 727 
586 143 169 142 
587 146 170 145 
588 565 573 567 
589 185 621 620 
590 114 928 171 
591 343 344 342 
592 395 729 392 
593 147 597 596 
594 616 791 172 
595 802 849 805 
596 614 615 236 
597 115 186 114 
598 715 732 716 
599 503 537 536 
600 346 879 387 
601 770 943 293 
602 426 427 425 
603 325 781 531 
604 462 708 707 
605 831 896 651 
606 373 941 459 
607 511 786 346 
608 223 785 221 
609 514 892 850 
610 185 620 152 
611 537 959 536 
612 792 824 441 
613 563 578 565 
614 501 502 461 
615 475 781 474 
616 183 618 607 
617 567 1001 747 
618 598 979 597 
619 565 567 566 
620 374 883 839 
621 694 711 457 
622 227 245 243 
623 446 991 447 
624 269 270 268 
625 679 769 768 
626 281 312 277 
627 561 563 562 
628 417 419 418 
629 140 163 139 
630 149 164 148 
631 733 838 732 
632 805 869 590 
633 807 954 376 
634 221 785 322 
635 617 831 651 
636 563 565 564 
637 642 774 549 
638 506 806 329 
639 163 580 139 
640 330 342 316 
641 140 593 163 
642 241 1000 208 
643 544 826 487 
644 183 631 124 
645 369 371 370 
646 321 902 628 
647 601 603 600 
648 811 993 396 
649 445 977 419 
650 452 453 451 
651 833 1002 832 
652 394 397 396 
653 487 876 544 
654 256 257 254 
655 317 913 257 
656 264 266 265 
657 526 641 471 
658 112 166 111 
659 121 165 120 
660 147 596 146 
661 710 772 711 
662 661 732 305 
663 557 561 556 
664 174 553 552 
665 691 887 479 
666 587 592 584 
667 245 248 247 
668 402 403 401 
669 543 809 542 
670 462 1009 507 
671 469 817 533 
672 420 688 513 
673 649 843 575 
674 601 604 603 
675 220 764 763 
676 930 985 703 
677 233 701 684 
678 752 840 673 
679 548 927 704 
680 547 610 275 
681 362 363 361 
682 688 876 513 
683 500 793 313 
684 175 601 600 
685 419 977 421 
686 525 526 471 
687 539 975 888 
688 519 1010 172 
689 174 552 150 
690 458 952 362 
691 501 617 502 
692 796 835 604 
693 525 527 526 
694 113 535 112 
695 555 556 553 
696 514 850 625 
697 316 648 297 
698 532 963 196 
699 582 584 583 
700 579 612 559 
701 152 620 151 
702 345 511 346 
703 555 557 556 
704 169 924 142 
705 559 612 557 
706 573 1001 567 
707 207 208 206 
708 175 600 122 
709 582 583 527 
710 633 882 843 
711 581 851 163 
712 561 562 556 
713 148 597 147 
714 217 218 214 
715 424 874 443 
716 178 633 632 
717 574 579 559 
718 314 946 270 
719 529 838 733 
720 434 436 435 
721 386 538 344 
722 124 631 123 
723 237 730 331 
724 180 829 777 
725 756 831 617 
726 599 953 379 
727 570 571 568 
728 150 552 149 
729 141 924 593 
730 510 880 801 
731 145 931 144 
732 266 269 268 
733 275 610 273 
734 554 555 553 
735 754 829 180 
736 122 600 121 
737 287 289 283 
738 343 345 344 
739 497 984 495 
740 527 640 526 
741 219 221 218 
742 563 564 562 
743 524 525 471 
744 118 790 117 
745 434 945 436 
746 330 343 342 
747 816 817 454 
748 390 411 388 
749 785 875 322 
750 379 794 599 
751 419 421 420 
752 397 399 398 
753 494 984 493 
754 362 995 458 
755 180 626 128 
756 120 519 119 
757 170 795 145 
758 585 885 593 
759 407 408 405 
760 248 252 251 
761 544 876 312 
762 189 1007 625 
763 565 566 564 
764 110 176 109 
765 281 544 312 
766 179 195 190 
767 404 405 403 
768 457 1004 945 
769 108 629 182 
770 136 630 184 
771 138 173 137 
772 151 174 150 
773 394 814 397 
774 536 645 463 
775 139 580 138 
776 485 1011 398 
777 716 717 655 
778 567 568 566 
779 311 868 579 
780 178 632 159 
781 141 593 140 
782 470 471 353 
783 172 790 118 
784 639 833 334 
785 391 393 392 
786 357 528 356 
787 131 634 177 
788 176 629 109 
789 547 636 610 
790 585 586 584 
791 123 175 122 
792 173 630 137 
793 478 781 475 
794 166 867 111 
795 156 635 181 
796 129 626 167 
797 769 770 293 
798 342 648 316 
799 567 747 570 
800 371 373 372 
801 561 748 563 
802 133 918 134 
803 436 438 437 
804 472 473 453 
805 371 1009 373 
806 591 595 586 
807 734 1001 573 
808 428 429 427 
809 539 888 512 
810 174 554 553 
811 175 602 601 
812 532 915 469 
813 581 582 527 
814 353 641 351 
815 558 559 557 
816 843 882 575 
817 185 982 621 
818 158 632 168 
819 167 634 130 
820 128 626 129 
821 168 635 157 
822 129 167 130 
823 158 168 157 
824 259 837 317 
825 669 986 657 
826 476 477 475 
827 790 791 347 
828 169 799 595 
829 271 273 270 
830 711 772 457 
831 163 885 581 
832 351 773 328 
833 151 620 174 
834 340 891 616 
835 525 581 527 
836 590 594 592 
837 222 223 221 
838 432 433 431 
839 464 962 426 
840 160 178 159 
841 662 738 664 
842 602 605 601 
843 131 177 132 
844 687 975 539 
845 640 906 526 
846 920 968 490 
847 127 180 128 
848 156 181 155 
849 277 547 275 
850 601 605 604 
851 159 632 158 
852 696 697 464 
853 130 634 131 
854 157 635 156 
855 576 833 639 
856 123 631 175 
857 137 630 136 
858 109 629 108 
859 583 640 527 
860 470 524 471 
861 237 331 320 
862 364 365 363 
863 471 641 353 
864 264 637 266 
865 136 184 135 
866 153 185 152 
867 636 860 610 
868 108 182 107 
869 469 533 532 
870 125 183 124 
871 528 875 785 
872 651 896 650 
873 163 851 580 
874 443 543 542 
875 602 606 605 
876 560 574 559 
877 555 558 557 
878 577 1002 576 
879 540 778 335 
880 258 259 257 
881 818 1013 416 
882 599 802 589 
883 252 256 254 
884 421 423 422 
885 190 1008 179 
886 579 868 612 
887 616 804 791 
888 339 351 328 
889 438 440 439 
890 310 316 297 
891 898 899 444 
892 416 890 675 
893 633 843 632 
894 395 974 729 
895 578 916 573 
896 347 921 199 
897 336 382 381 
898 604 835 603 
899 491 920 490 
900 588 953 599 
901 168 649 635 
902 823 1001 734 
903 620 621 554 
904 289 895 538 
905 447 449 448 
906 242 532 201 
907 382 384 383 
908 352 353 351 
909 495 984 494 
910 558 560 559 
911 602 631 607 
912 576 639 571 
913 269 271 270 
914 570 1012 577 
915 804 921 791 
916 461 828 459 
917 604 797 796 
918 629 861 545 
919 110 867 176 
920 195 198 196 
921 261 262 259 
922 594 615 614 
923 465 859 788 
924 550 1000 241 
925 613 1005 355 
926 590 592 587 
927 644 923 486 
928 155 755 154 
929 126 754 127 
930 569 978 619 
931 397 814 400 
932 582 585 584 
933 193 930 762 
934 318 330 316 
935 555 718 558 
936 354 470 353 
937 175 631 602 
938 607 608 606 
939 401 998 486 
940 174 620 554 
941 703 985 704 
942 616 891 804 
943 366 367 365 
944 428 908 429 
945 560 575 574 
946 339 352 351 
947 602 607 606 
948 607 618 608 
949 417 418 414 
950 595 953 588 
951 483 546 545 
952 232 236 230 
953 645 964 302 
954 554 718 555 
955 382 658 384 
956 333 379 378 
957 354 489 470 
958 373 459 375 
959 198 347 199 
960 327 328 240 
961 382 383 381 
962 412 487 411 
963 333 794 379 
964 380 540 335 
965 225 227 223 
966 622 971 165 
967 621 718 554 
968 558 718 572 
969 352 354 353 
970 173 848 630 
971 168 843 649 
972 593 885 163 
973 263 264 262 
974 336 800 382 
975 352 488 354 
976 337 491 490 
977 564 929 598 
978 585 591 586 
979 598 983 564 
980 337 339 328 
981 551 820 501 
982 486 998 623 
983 558 572 560 
984 217 219 218 
985 804 948 324 
986 231 237 235 
987 622 970 349 
988 657 670 669 
989 624 894 692 
990 515 828 461 
991 483 545 385 
992 563 748 578 
993 704 985 492 
994 127 754 180 
995 181 755 155 
996 340 616 349 
997 226 523 229 
998 753 861 176 
999 707 872 462 
1000 202 207 206 
1001 412 865 487 
1002 369 370 367 
1003 434 435 433 
1004 373 1009 941 
1005 696 955 697 
1006 341 348 238 
1007 383 483 385 
1008 132 830 133 
1009 383 385 381 
1010 546 917 779 
1011 327 337 328 
1012 725 952 951 
1013 310 318 316 
1014 380 541 540 
1015 337 490 339 
1016 350 765 348 
1017 442 824 793 
1018 741 957 870 
1019 594 614 592 
1020 237 320 240 
1021 968 980 714 
1022 320 332 327 
1023 336 381 380 
1024 211 212 208 
1025 486 923 549 
1026 207 211 208 
1027 231 235 232 
1028 838 899 717 
1029 320 327 240 
1030 694 911 711 
1031 870 957 472 
1032 524 851 525 
1033 482 516 338 
1034 399 402 401 
1035 609 987 509 
1036 727 886 691 
1037 271 274 273 
1038 162 779 161 
1039 237 240 235 
1040 235 239 232 
1041 160 917 178 
1042 597 979 596 
1043 231 232 230 
1044 326 334 315 
1045 334 819 639 
1046 339 714 352 
1047 229 231 230 
1048 343 355 345 
1049 627 961 358 
1050 449 451 450 
1051 323 847 794 
1052 336 380 335 
1053 256 258 257 
1054 913 969 520 
1055 284 295 288 
1056 419 420 418 
1057 334 637 315 
1058 573 916 734 
1059 253 869 805 
1060 354 777 489 
1061 296 299 298 
1062 755 982 185 
1063 298 311 310 
1064 388 638 386 
1065 352 714 488 
1066 318 335 330 
1067 222 225 223 
1068 318 336 335 
1069 488 777 354 
1070 651 784 502 
1071 501 822 617 
1072 549 923 642 
1073 479 858 690 
1074 507 938 609 
1075 568 569 566 
1076 328 773 240 
1077 274 275 273 
1078 337 760 491 
1079 231 730 237 
1080 490 714 339 
1081 497 651 650 
1082 298 310 297 
1083 219 222 221 
1084 229 230 228 
1085 866 958 543 
1086 758 926 496 
1087 296 297 288 
1088 283 544 281 
1089 3 932 126 
1090 135 932 3 
1091 4 933 153 
1092 154 933 4 
1093 670 671 669 
1094 282 734 284 
1095 94 695 95 
1096 910 913 520 
1097 227 319 245 
1098 309 849 802 
1099 90 646 91 
1100 125 1014 183 
1101 523 730 229 
1102 470 848 524 
1103 635 942 181 
1104 299 856 748 
1105 284 288 287 
1106 791 921 347 
1107 371 372 370 
1108 385 753 381 
1109 815 816 400 
1110 760 925 889 
1111 282 284 283 
1112 701 954 684 
1113 854 962 697 
1114 295 296 288 
1115 562 983 611 
1116 8 652 9 
1117 1 937 162 
1118 107 937 1 
1119 74 676 75 
1120 505 725 724 
1121 516 819 338 
1122 590 1015 594 
1123 226 229 228 
1124 406 410 393 
1125 743 956 518 
1126 296 298 297 
1127 79 687 80 
1128 381 753 380 
1129 619 960 170 
1130 312 876 688 
1131 229 730 231 
1132 284 287 283 
1133 172 791 790 
1134 783 792 441 
1135 327 760 337 
1136 332 760 327 
1137 865 876 487 
1138 380 753 541 
1139 282 283 281 
1140 709 911 645 
1141 322 875 801 
1142 543 958 809 
1143 447 991 512 
1144 429 431 430 
1145 656 898 444 
1146 509 987 366 
1147 341 350 348 
1148 507 1009 938 
1149 425 465 423 
1150 358 628 627 
1151 92 698 93 
1152 436 437 435 
1153 226 228 225 
1154 11 668 12 
1155 240 773 235 
1156 477 997 627 
1157 315 637 264 
1158 349 971 622 
1159 750 834 507 
1160 86 709 87 
1161 235 773 239 
1162 603 835 622 
1163 625 850 189 
1164 331 797 320 
1165 453 857 451 
1166 208 1000 506 
1167 528 785 356 
1168 80 719 81 
1169 278 282 281 
1170 68 692 69 
1171 673 840 672 
1172 72 740 73 
1173 545 861 385 
1174 25 643 26 
1175 320 797 332 
1176 49 749 50 
1177 748 856 578 
1178 438 439 437 
1179 747 1012 570 
1180 335 778 330 
1181 42 681 43 
1182 75 712 76 
1183 77 735 78 
1184 618 830 608 
1185 379 799 378 
1186 657 986 654 
1187 421 422 420 
1188 410 814 393 
1189 323 794 333 
1190 940 989 466 
1191 258 261 259 
1192 236 906 640 
1193 747 1001 285 
1194 445 944 733 
1195 887 997 479 
1196 44 739 45 
1197 40 756 41 
1198 181 942 803 
1199 311 800 310 
1200 261 263 262 
1201 670 672 671 
1202 447 448 440 
1203 330 778 343 
1204 543 874 866 
1205 117 871 116 
1206 222 226 225 
1207 46 706 47 
1208 241 919 839 
1209 248 253 252 
1210 830 972 608 
1211 284 734 295 
1212 225 798 227 
1213 408 494 493 
1214 172 1010 616 
1215 227 798 319 
1216 788 860 465 
1217 38 705 39 
1218 513 876 865 
1219 788 900 314 
1220 14 677 15 
1221 779 917 161 
1222 864 1011 485 
1223 36 759 37 
1224 278 281 277 
1225 24 188 25 
1226 95 272 96 
1227 738 958 866 
1228 310 800 318 
1229 89 267 90 
1230 263 315 264 
1231 22 774 23 
1232 340 349 341 
1233 100 767 101 
1234 621 803 718 
1235 26 745 27 
1236 483 897 546 
1237 220 873 726 
1238 760 889 491 
1239 98 737 99 
1240 514 625 410 
1241 616 1010 349 
1242 383 853 483 
1243 623 939 499 
1244 167 980 968 
1245 393 814 394 
1246 276 277 275 
1247 177 830 132 
1248 314 860 788 
1249 718 803 572 
1250 816 881 400 
1251 318 800 336 
1252 216 217 214 
1253 83 260 84 
1254 7 292 8 
1255 945 1004 436 
1256 637 832 266 
1257 473 475 474 
1258 707 992 872 
1259 628 902 531 
1260 213 214 212 
1261 28 762 29 
1262 477 627 478 
1263 874 981 866 
1264 15 768 16 
1265 343 778 355 
1266 376 904 807 
1267 518 894 624 
1268 232 906 236 
1269 274 276 275 
1270 645 694 463 
1271 409 811 771 
1272 276 278 277 
1273 349 1010 971 
1274 632 843 168 
1275 102 279 103 
1276 199 846 202 
1277 402 404 403 
1278 658 988 384 
1279 912 1000 550 
1280 816 965 817 
1281 726 873 234 
1282 509 903 723 
1283 228 798 225 
1284 582 885 585 
1285 639 813 571 
1286 333 378 338 
1287 50 209 51 
1288 54 215 55 
1289 10 291 11 
1290 499 985 930 
1291 73 249 74 
1292 88 647 89 
1293 323 333 326 
1294 847 935 794 
1295 13 290 14 
1296 263 323 315 
1297 482 795 516 
1298 605 925 332 
1299 57 220 58 
1300 176 861 629 
1301 411 638 388 
1302 296 856 299 
1303 41 200 42 
1304 418 865 414 
1305 63 224 64 
1306 242 915 532 
1307 82 836 83 
1308 404 407 405 
1309 564 983 562 
1310 378 522 482 
1311 183 1014 918 
1312 466 789 693 
1313 78 255 79 
1314 276 285 278 
1315 782 930 193 
1316 373 375 372 
1317 539 936 720 
1318 84 710 85 
1319 474 857 453 
1320 350 796 765 
1321 333 338 326 
1322 9 667 10 
1323 406 514 410 
1324 258 309 261 
1325 323 326 315 
1326 298 868 311 
1327 67 244 68 
1328 428 962 854 
1329 729 974 484 
1330 96 736 97 
1331 511 892 786 
1332 319 825 245 
1333 177 972 830 
1334 93 301 94 
1335 726 951 764 
1336 499 939 405 
1337 91 307 92 
1338 850 892 187 
1339 33 191 34 
1340 429 430 427 
1341 23 642 24 
1342 799 953 595 
1343 6 842 7 
1344 61 377 62 
1345 899 1013 444 
1346 87 302 88 
1347 216 238 217 
1348 30 192 31 
1349 771 840 409 
1350 216 340 238 
1351 378 482 338 
1352 869 1015 590 
1353 62 682 63 
1354 12 680 13 
1355 37 197 38 
1356 379 953 799 
1357 469 780 407 
1358 45 203 46 
1359 53 665 54 
1360 549 863 485 
1361 645 911 694 
1362 51 722 52 
1363 423 636 422 
1364 214 919 212 
1365 5 873 57 
1366 85 303 86 
1367 406 786 514 
1368 484 974 890 
1369 765 796 331 
1370 106 530 6 
1371 269 286 271 
1372 796 797 331 
1373 648 895 287 
1374 55 728 56 
1375 211 213 212 
1376 407 780 408 
1377 391 406 393 
1378 877 977 445 
1379 64 727 65 
1380 69 246 70 
1381 52 368 53 
1382 103 731 104 
1383 274 821 276 
1384 459 806 375 
1385 494 693 495 
1386 65 480 66 
1387 252 812 256 
1388 213 216 214 
1389 340 341 238 
1390 66 689 67 
1391 81 304 82 
1392 326 819 334 
1393 282 823 734 
1394 56 234 5 
1395 684 954 685 
1396 566 929 564 
1397 433 442 431 
1398 529 899 838 
1399 101 659 102 
1400 449 450 448 
1401 872 992 551 
1402 686 886 683 
1403 512 991 539 
1404 105 715 106 
1405 104 305 105 
1406 777 829 489 
1407 361 528 357 
1408 525 851 581 
1409 58 763 59 
1410 31 746 32 
1411 76 306 77 
1412 97 300 98 
1413 70 742 71 
1414 489 848 470 
1415 43 204 44 
1416 71 250 72 
1417 34 757 35 
1418 32 699 33 
1419 178 897 633 
1420 285 1012 747 
1421 285 1001 823 
1422 48 210 49 
1423 60 700 61 
1424 111 867 110 
1425 534 870 452 
1426 451 744 450 
1427 439 521 441 
1428 720 721 304 
1429 808 997 887 
1430 431 787 430 
1431 29 702 30 
1432 448 845 440 
1433 654 667 652 
1434 414 865 412 
1435 378 799 522 
1436 47 751 48 
1437 39 498 40 
1438 184 829 754 
1439 490 968 714 
1440 313 793 792 
1441 35 504 36 
1442 787 788 430 
1443 384 853 383 
1444 642 923 188 
1445 355 1005 345 
1446 183 918 618 
1447 488 980 626 
1448 18 852 19 
1449 802 805 589 
1450 27 193 28 
1451 568 978 569 
1452 59 233 60 
1453 444 818 656 
1454 99 280 100 
1455 425 859 465 
1456 634 920 177 
1457 853 897 483 
1458 207 324 211 
1459 19 294 20 
1460 769 810 770 
1461 439 441 437 
1462 671 680 668 
1463 693 789 495 
1464 663 877 445 
1465 516 960 813 
1466 334 833 637 
1467 634 968 920 
1468 805 812 253 
1469 672 907 678 
1470 575 988 574 
1471 795 960 516 
1472 503 908 537 
1473 21 308 22 
1474 675 752 673 
1475 900 922 500 
1476 793 824 792 
1477 801 839 517 
1478 807 808 686 
1479 95 695 272 
1480 650 855 496 
1481 814 815 400 
1482 581 885 582 
1483 20 775 21 
1484 278 823 282 
1485 487 826 411 
1486 350 835 796 
1487 347 841 790 
1488 267 646 90 
1489 502 515 461 
1490 733 944 529 
1491 440 845 439 
1492 889 925 606 
1493 16 293 17 
1494 721 836 304 
1495 212 919 241 
1496 521 783 441 
1497 779 990 546 
1498 608 889 606 
1499 253 812 252 
1500 473 474 453 
1501 572 942 649 
1502 287 895 289 
1503 292 655 653 
1504 793 922 442 
1505 420 513 418 
1506 708 751 706 
1507 637 833 832 
1508 755 933 154 
1509 126 932 754 
1510 142 924 141 
1511 806 828 329 
1512 454 469 407 
1513 365 510 363 
1514 450 520 448 
1515 292 652 8 
1516 266 832 269 
1517 502 784 515 
1518 666 724 215 
1519 626 980 167 
1520 536 964 645 
1521 679 771 769 
1522 685 686 683 
1523 839 919 517 
1524 776 864 863 
1525 724 728 215 
1526 477 478 475 
1527 465 636 423 
1528 513 865 418 
1529 188 643 25 
1530 245 825 248 
1531 397 400 399 
1532 295 856 296 
1533 497 784 651 
1534 662 664 663 
1535 495 789 497 
1536 161 917 160 
1537 479 997 477 
1538 660 661 279 
1539 377 684 683 
1540 167 968 634 
1541 687 719 80 
1542 732 838 716 
1543 606 925 605 
1544 338 819 326 
1545 205 989 940 
1546 676 712 75 
1547 249 676 74 
1548 802 935 309 
1549 659 662 660 
1550 480 691 690 
1551 349 970 341 
1552 89 647 267 
1553 653 654 652 
1554 248 825 253 
1555 301 695 94 
1556 627 628 478 
1557 370 374 367 
1558 810 901 770 
1559 91 646 307 
1560 655 898 653 
1561 182 937 107 
1562 480 727 691 
1563 184 932 135 
1564 153 933 185 
1565 375 550 372 
1566 309 935 847 
1567 707 708 706 
1568 299 868 298 
1569 652 667 9 
1570 255 687 79 
1571 661 731 279 
1572 385 861 753 
1573 442 787 431 
1574 666 903 509 
1575 410 815 814 
1576 443 874 543 
1577 292 842 655 
1578 291 668 11 
1579 272 736 96 
1580 810 811 455 
1581 24 642 188 
1582 446 936 539 
1583 511 893 892 
1584 624 858 476 
1585 723 947 609 
1586 661 733 732 
1587 415 1013 899 
1588 83 836 260 
1589 73 740 249 
1590 50 749 209 
1591 303 911 709 
1592 459 828 806 
1593 260 710 84 
1594 276 821 285 
1595 704 746 192 
1596 569 979 929 
1597 93 698 301 
1598 307 698 92 
1599 411 826 638 
1600 533 1006 963 
1601 678 679 677 
1602 200 681 42 
1603 520 845 448 
1604 263 847 323 
1605 244 692 68 
1606 377 700 684 
1607 669 671 668 
1608 7 842 292 
1609 808 887 686 
1610 78 735 255 
1611 668 680 12 
1612 649 942 635 
1613 87 709 302 
1614 404 454 407 
1615 286 1002 844 
1616 772 1003 457 
1617 303 709 86 
1618 41 756 200 
1619 537 908 854 
1620 239 906 232 
1621 703 704 192 
1622 679 768 677 
1623 10 667 291 
1624 406 879 786 
1625 656 657 654 
1626 290 677 14 
1627 256 849 258 
1628 963 1006 190 
1629 271 844 274 
1630 69 692 246 
1631 285 823 278 
1632 643 745 26 
1633 498 831 756 
1634 835 970 622 
1635 216 891 340 
1636 81 719 304 
1637 295 916 856 
1638 741 870 534 
1639 302 647 88 
1640 17 943 18 
1641 350 970 835 
1642 54 665 215 
1643 209 722 51 
1644 279 731 103 
1645 13 680 290 
1646 45 739 203 
1647 783 837 467 
1648 633 897 853 
1649 657 674 670 
1650 685 807 686 
1651 215 728 55 
1652 493 926 548 
1653 497 789 784 
1654 2 1014 125 
1655 134 1014 2 
1656 57 873 220 
1657 63 682 224 
1658 882 988 575 
1659 439 845 521 
1660 203 706 46 
1661 408 780 494 
1662 198 841 347 
1663 754 932 184 
1664 185 933 755 
1665 813 978 571 
1666 197 705 38 
1667 670 673 672 
1668 102 659 279 
1669 37 759 197 
1670 782 878 623 
1671 23 774 642 
1672 520 969 845 
1673 224 727 64 
1674 85 710 303 
1675 609 947 750 
1676 854 908 428 
1677 369 987 609 
1678 250 740 72 
1679 76 712 306 
1680 306 735 77 
1681 674 675 673 
1682 43 681 204 
1683 377 682 62 
1684 304 836 82 
1685 202 846 207 
1686 889 972 491 
1687 695 909 272 
1688 210 749 49 
1689 67 689 244 
1690 530 842 6 
1691 258 849 309 
1692 803 982 181 
1693 788 859 430 
1694 204 739 44 
1695 220 763 58 
1696 609 938 369 
1697 368 665 53 
1698 52 722 368 
1699 301 696 695 
1700 738 866 664 
1701 817 965 194 
1702 677 768 15 
1703 309 847 261 
1704 684 685 683 
1705 101 767 659 
1706 812 849 256 
1707 65 727 480 
1708 387 879 391 
1709 234 873 5 
1710 659 767 662 
1711 825 869 253 
1712 427 859 425 
1713 480 689 66 
1714 451 857 744 
1715 500 946 900 
1716 624 905 858 
1717 56 728 234 
1718 498 756 40 
1719 261 847 263 
1720 97 736 300 
1721 938 1009 371 
1722 539 991 446 
1723 662 663 660 
1724 706 751 47 
1725 758 927 548 
1726 653 656 654 
1727 191 757 34 
1728 192 746 31 
1729 844 1002 577 
1730 710 711 303 
1731 300 737 98 
1732 33 699 191 
1733 360 808 807 
1734 106 715 530 
1735 820 822 501 
1736 170 960 795 
1737 39 705 498 
1738 104 731 305 
1739 61 700 377 
1740 181 982 755 
1741 188 923 644 
1742 504 759 36 
1743 845 969 521 
1744 269 832 286 
1745 491 972 920 
1746 764 994 701 
1747 246 742 70 
1748 274 844 821 
1749 534 976 741 
1750 292 653 652 
1751 30 702 192 
1752 307 827 698 
1753 711 911 303 
1754 670 674 673 
1755 779 937 182 
1756 460 872 551 
1757 576 1002 833 
1758 305 715 105 
1759 27 745 193 
1760 546 990 545 
1761 817 1006 533 
1762 280 767 100 
1763 482 931 795 
1764 99 737 280 
1765 29 762 702 
1766 736 809 300 
1767 162 937 779 
1768 656 818 657 
1769 735 888 255 
1770 569 929 566 
1771 623 998 403 
1772 71 742 250 
1773 308 774 22 
1774 32 746 699 
1775 659 660 279 
1776 719 720 304 
1777 193 762 28 
1778 377 683 682 
1779 786 892 514 
1780 384 882 853 
1781 852 901 294 
1782 740 741 249 
1783 716 838 717 
1784 665 666 215 
1785 863 864 485 
1786 213 891 216 
1787 712 713 306 
1788 893 1005 613 
1789 886 887 691 
1790 856 916 578 
1791 827 950 854 
1792 35 757 504 
1793 332 925 760 
1794 48 751 210 
1795 59 763 233 
1796 361 966 528 
1797 764 951 458 
1798 194 1006 817 
1799 457 945 694 
1800 188 644 643 
1801 681 820 204 
1802 653 898 656 
1803 182 990 779 
1804 914 940 693 
1805 233 700 60 
1806 203 707 706 
1807 787 900 788 
1808 480 690 689 
1809 511 1005 893 
1810 715 716 530 
1811 16 768 293 
1812 734 916 295 
1813 717 898 655 
1814 430 859 427 
1815 286 844 271 
1816 200 822 681 
1817 821 844 577 
1818 500 922 793 
1819 742 743 250 
1820 721 1003 772 
1821 722 723 368 
1822 210 834 749 
1823 291 669 668 
1824 522 931 482 
1825 877 981 977 
1826 749 750 209 
1827 195 871 198 
1828 19 852 294 
1829 458 994 764 
1830 211 948 213 
1831 646 950 307 
1832 571 978 568 
1833 319 1015 825 
1834 698 955 301 
1835 403 939 623 
1836 840 907 672 
1837 737 738 280 
1838 290 678 677 
1839 207 846 324 
1840 664 877 663 
1841 803 942 572 
1842 294 775 20 
1843 367 880 365 
1844 391 879 406 
1845 813 960 619 
1846 197 896 705 
1847 372 883 370 
1848 518 956 894 
1849 294 776 775 
1850 21 775 308 
1851 18 943 852 
1852 272 884 736 
1853 794 935 599 
1854 363 966 361 
1855 858 905 690 
1856 345 1005 511 
1857 508 910 744 
1858 267 934 646 
1859 692 894 246 
1860 399 881 402 
1861 853 882 633 
1862 702 703 192 
1863 515 949 828 
1864 714 980 488 
1865 191 758 757 
1866 341 970 350 
1867 854 950 537 
1868 272 909 884 
1869 807 904 360 
1870 676 862 712 
1871 657 818 674 
1872 442 922 787 
1873 324 948 211 
1874 293 943 17 
1875 504 855 759 
1876 771 907 840 
1877 548 926 758 
1878 745 782 193 
1879 697 962 464 
1880 825 1015 869 
1881 599 935 802 
1882 619 978 813 
1883 250 957 740 
1884 693 940 466 
1885 890 974 675 
1886 954 994 376 
1887 301 955 696 
1888 376 996 904 
1889 306 973 735 
1890 787 922 900 
1891 827 854 697 
1892 686 887 886 
1893 294 901 776 
1894 550 883 372 
1895 365 880 510 
1896 455 1011 864 
1897 816 967 881 
1898 681 822 820 
1899 533 963 532 
1900 307 950 827 
1901 815 965 816 
1902 875 966 510 
1903 951 952 458 
1904 213 948 891 
1905 696 909 695 
1906 400 881 399 
1907 510 966 363 
1908 678 907 679 
1909 749 834 750 
1910 647 959 267 
1911 841 871 117 
1912 621 982 803 
1913 370 883 374 
1914 892 893 187 
1915 374 880 367 
1916 971 1010 519 
1917 712 862 713 
1918 725 951 726 
1919 469 915 780 
1920 450 910 520 
1921 675 974 752 
1922 198 871 841 
1923 713 973 306 
1924 744 910 450 
1925 689 905 244 
1926 806 912 375 
1927 736 884 809 
1928 494 914 693 
1929 317 969 913 
1930 679 907 771 
1931 551 999 820 
1932 743 957 250 
1933 1003 1004 457 
1934 846 921 324 
1935 404 967 454 
1936 368 903 665 
1937 643 878 745 
1938 302 964 647 
1939 375 912 550 
1940 977 981 481 
1941 481 981 874 
1942 888 973 512 
1943 737 958 738 
1944 827 955 698 
1945 242 940 914 
1946 994 995 376 
1947 780 914 494 
1948 528 966 875 
1949 699 927 191 
1950 508 913 910 
1951 740 957 741 
1952 676 976 862 
1953 384 988 882 
1954 209 947 722 
1955 904 961 360 
1956 664 981 877 
1957 644 878 643 
1958 690 905 689 
1959 735 973 888 
1960 506 912 806 
1961 267 959 934 
1962 934 950 646 
1963 665 903 666 
1964 770 901 852 
1965 577 1012 821 
1966 402 967 404 
1967 654 986 667 
1968 723 903 368 
1969 608 972 889 
1970 647 964 959 
1971 866 981 664 
1972 249 976 676 
1973 821 1012 285 
1974 246 956 742 
1975 742 956 743 
1976 255 975 687 
1977 701 994 954 
1978 745 878 782 
1979 667 986 291 
1980 722 947 723 
1981 1006 1007 190 
1982 809 958 300 
1983 888 975 255 
1984 300 958 737 
1985 362 996 995 
1986 741 976 249 
1987 1007 1008 190 
1988 780 915 914 
1989 920 972 177 
1990 291 986 669 
1991 750 947 209 
1992 191 927 758 
1993 891 948 804 
1994 894 956 246 
1995 900 946 314 
1996 828 949 329 
1997 739 992 203 
1998 203 992 707 
1999 872 941 462 
2000 697 955 827 
2001 820 999 204 
2002 204 999 739 
2003 992 999 551 
2004 862 976 534 
2005 739 999 992 
2006 918 1014 134 
2007 881 967 402 
2008 914 915 242 
2009 904 996 359 
2010 359 961 904 
2011 537 950 934 
2012 884 909 542 
2013 995 996 376 
2014 852 943 770 
2015 466 989 949 
2016 493 984 926 
2017 460 941 872 
2018 926 984 496 
2019 506 1000 912 
2020 194 1007 1006 
2021 458 995 994 
2022 189 1008 1007 
2023 949 989 329 
2024 959 964 536 
2025 456 1004 1003 
2026 759 896 197 
2027 756 822 200 
2028 705 831 498 
2029 757 855 504 
2030 660 733 661 
$EndElements
