$MeshFormat
4.1 0 8
$EndMeshFormat
$PhysicalNames
6
1 9 "top"
1 10 "left"
1 11 "bottom"
1 12 "right"
1 13 "wall"
2 14 "ground"
$EndPhysicalNames
$Entities
9 6 2 0
1 -10 0 0 0 
2 10 0 0 0 
3 10 -10 0 0 
4 -10 -10 0 0 
5 0 -4 0 0 
6 0 -2.8 0 0 
7 0 -5.2 0 0 
8 1.2 -4 0 0 
9 -1.2 -4 0 0 
1 -1.2000001 -4.0000001 -1e-07 1.2000001 -2.7999999 1e-07 1 13 2 9 -8 
2 -1.2000001 -5.2000001 -1e-07 1.2000001 -3.9999999 1e-07 1 13 2 8 -9 
3 -10.0000001 -1e-07 -1e-07 10.0000001 1e-07 1e-07 1 9 2 1 -2 
4 9.999999900000001 -10.0000001 -1e-07 10.0000001 1.000000002804313e-07 1e-07 1 12 2 2 -3 
5 -10.0000001 -10.0000001 -1e-07 10.0000001 -9.999999900000001 1e-07 1 11 2 3 -4 
6 -10.0000001 -10.0000001 -1e-07 -9.999999900000001 1.000000002804313e-07 1e-07 1 10 2 4 -1 
1 -10.0000001 -10.0000001 -1e-07 10.0000001 1.000000002804313e-07 1e-07 0 20 3 4 5 6 -5 -4 -3 -6 -3 -6 -5 -4 -4 -3 -6 -5 -1 -2 -2 -1 
2 -10.0000001 -10.0000001 -1e-07 10.0000001 1.000000002804313e-07 1e-07 1 14 6 3 4 5 6 -1 -2 
$EndEntities
$Nodes
13 855 1 855
0 1 0 1
1
-10 0 0
0 2 0 1
2
10 0 0
0 3 0 1
3
10 -10 0
0 4 0 1
4
-10 -10 0
0 8 0 1
5
1.2 -4 0
0 9 0 1
6
-1.2 -4 0
1 1 0 37
7
8
9
10
11
12
13
14
15
16
17
18
19
20
21
22
23
24
25
26
27
28
29
30
31
32
33
34
35
36
37
38
39
40
41
42
43
-1.195901391608004 -3.900904785433202 0
-1.183633564083267 -3.80248649166312 0
-1.163280319127197 -3.705417415431041 0
-1.134980690040762 -3.61036063695438 0
-1.098927991986069 -3.517965490416437 0
-1.055368501447787 -3.428863128355512 0
-1.004599773915035 -3.343662210253088 0
-0.9469686112756729 -3.262944744772399 0
-0.8828686928077586 -3.187262114049112 0
-0.8127378859508901 -3.117131307192243 0
-0.7370552552276024 -3.053031388724329 0
-0.656337789746913 -2.995400226084966 0
-0.5711368716444899 -2.944631498552214 0
-0.4820345095835648 -2.901072008013932 0
-0.3896393630456214 -2.865019309959239 0
-0.294582584568961 -2.836719680872804 0
-0.1975135083368825 -2.816366435916733 0
-0.09909521456680036 -2.804098608391996 0
-2.352057350968328e-15 -2.8 0
0.09909521456679672 -2.804098608391996 0
0.1975135083368789 -2.816366435916733 0
0.2945825845689565 -2.836719680872803 0
0.389639363045618 -2.865019309959238 0
0.4820345095835605 -2.90107200801393 0
0.5711368716444857 -2.944631498552212 0
0.6563377897469101 -2.995400226084964 0
0.7370552552275987 -3.053031388724325 0
0.812737885950887 -3.11713130719224 0
0.882868692807756 -3.187262114049109 0
0.9469686112756701 -3.262944744772396 0
1.004599773915033 -3.343662210253085 0
1.055368501447785 -3.428863128355509 0
1.098927991986068 -3.517965490416434 0
1.134980690040761 -3.610360636954379 0
1.163280319127196 -3.705417415431041 0
1.183633564083267 -3.80248649166312 0
1.195901391608004 -3.900904785433202 0
1 2 0 37
44
45
46
47
48
49
50
51
52
53
54
55
56
57
58
59
60
61
62
63
64
65
66
67
68
69
70
71
72
73
74
75
76
77
78
79
80
1.195901391608004 -4.099095214566798 0
1.183633564083267 -4.197513508336881 0
1.163280319127197 -4.294582584568959 0
1.134980690040762 -4.38963936304562 0
1.098927991986069 -4.482034509583563 0
1.055368501447787 -4.571136871644487 0
1.004599773915035 -4.656337789746912 0
0.9469686112756728 -4.737055255227601 0
0.8828686928077586 -4.812737885950888 0
0.8127378859508902 -4.882868692807757 0
0.7370552552276024 -4.946968611275672 0
0.6563377897469135 -5.004599773915033 0
0.5711368716444896 -5.055368501447786 0
0.4820345095835649 -5.098927991986068 0
0.3896393630456215 -5.134980690040761 0
0.2945825845689606 -5.163280319127196 0
0.1975135083368826 -5.183633564083267 0
0.09909521456680073 -5.195901391608004 0
2.205104588509643e-15 -5.2 0
-0.09909521456679633 -5.195901391608004 0
-0.1975135083368782 -5.183633564083268 0
-0.2945825845689564 -5.163280319127197 0
-0.3896393630456174 -5.134980690040763 0
-0.4820345095835604 -5.09892799198607 0
-0.5711368716444853 -5.055368501447788 0
-0.6563377897469094 -5.004599773915036 0
-0.7370552552275984 -4.946968611275675 0
-0.8127378859508868 -4.88286869280776 0
-0.8828686928077555 -4.812737885950892 0
-0.9469686112756701 -4.737055255227604 0
-1.004599773915032 -4.656337789746916 0
-1.055368501447785 -4.571136871644491 0
-1.098927991986067 -4.482034509583567 0
-1.134980690040761 -4.389639363045623 0
-1.163280319127196 -4.29458258456896 0
-1.183633564083266 -4.197513508336883 0
-1.195901391608004 -4.0990952145668 0
1 3 0 19
81
82
83
84
85
86
87
88
89
90
91
92
93
94
95
96
97
98
99
-9 0 0
-8 0 0
-7 0 0
-6 0 0
-5 0 0
-4 0 0
-3 0 0
-2 0 0
-1 0 0
0 0 0
1 0 0
2 0 0
3 0 0
4 0 0
5 0 0
6 0 0
7 0 0
8 0 0
9 0 0
1 4 0 9
100
101
102
103
104
105
106
107
108
10 -1 0
10 -2 0
10 -3 0
10 -4 0
10 -5 0
10 -6 0
10 -7 0
10 -8 0
10 -9 0
1 5 0 19
109
110
111
112
113
114
115
116
117
118
119
120
121
122
123
124
125
126
127
9 -10 0
8 -10 0
7 -10 0
6 -10 0
5 -10 0
4 -10 0
3 -10 0
2 -10 0
1 -10 0
0 -10 0
-1 -10 0
-2 -10 0
-3 -10 0
-4 -10 0
-5 -10 0
-6 -10 0
-7 -10 0
-8 -10 0
-9 -10 0
1 6 0 9
128
129
130
131
132
133
134
135
136
-10 -9 0
-10 -8 0
-10 -7 0
-10 -6 0
-10 -5 0
-10 -4 0
-10 -3 0
-10 -2 0
-10 -1 0
2 2 0 719
137
138
139
140
141
142
143
144
145
146
147
148
149
150
151
152
153
154
155
156
157
158
159
160
161
162
163
164
165
166
167
168
169
170
171
172
173
174
175
176
177
178
179
180
181
182
183
184
185
186
187
188
189
190
191
192
193
194
195
196
197
198
199
200
201
202
203
204
205
206
207
208
209
210
211
212
213
214
215
216
217
218
219
220
221
222
223
224
225
226
227
228
229
230
231
232
233
234
235
236
237
238
239
240
241
242
243
244
245
246
247
248
249
250
251
252
253
254
255
256
257
258
259
260
261
262
263
264
265
266
267
268
269
270
271
272
273
274
275
276
277
278
279
280
281
282
283
284
285
286
287
288
289
290
291
292
293
294
295
296
297
298
299
300
301
302
303
304
305
306
307
308
309
310
311
312
313
314
315
316
317
318
319
320
321
322
323
324
325
326
327
328
329
330
331
332
333
334
335
336
337
338
339
340
341
342
343
344
345
346
347
348
349
350
351
352
353
354
355
356
357
358
359
360
361
362
363
364
365
366
367
368
369
370
371
372
373
374
375
376
377
378
379
380
381
382
383
384
385
386
387
388
389
390
391
392
393
394
395
396
397
398
399
400
401
402
403
404
405
406
407
408
409
410
411
412
413
414
415
416
417
418
419
420
421
422
423
424
425
426
427
428
429
430
431
432
433
434
435
436
437
438
439
440
441
442
443
444
445
446
447
448
449
450
451
452
453
454
455
456
457
458
459
460
461
462
463
464
465
466
467
468
469
470
471
472
473
474
475
476
477
478
479
480
481
482
483
484
485
486
487
488
489
490
491
492
493
494
495
496
497
498
499
500
501
502
503
504
505
506
507
508
509
510
511
512
513
514
515
516
517
518
519
520
521
522
523
524
525
526
527
528
529
530
531
532
533
534
535
536
537
538
539
540
541
542
543
544
545
546
547
548
549
550
551
552
553
554
555
556
557
558
559
560
561
562
563
564
565
566
567
568
569
570
571
572
573
574
575
576
577
578
579
580
581
582
583
584
585
586
587
588
589
590
591
592
593
594
595
596
597
598
599
600
601
602
603
604
605
606
607
608
609
610
611
612
613
614
615
616
617
618
619
620
621
622
623
624
625
626
627
628
629
630
631
632
633
634
635
636
637
638
639
640
641
642
643
644
645
646
647
648
649
650
651
652
653
654
655
656
657
658
659
660
661
662
663
664
665
666
667
668
669
670
671
672
673
674
675
676
677
678
679
680
681
682
683
684
685
686
687
688
689
690
691
692
693
694
695
696
697
698
699
700
701
702
703
704
705
706
707
708
709
710
711
712
713
714
715
716
717
718
719
720
721
722
723
724
725
726
727
728
729
730
731
732
733
734
735
736
737
738
739
740
741
742
743
744
745
746
747
748
749
750
751
752
753
754
755
756
757
758
759
760
761
762
763
764
765
766
767
768
769
770
771
772
773
774
775
776
777
778
779
780
781
782
783
784
785
786
787
788
789
790
791
792
793
794
795
796
797
798
799
800
801
802
803
804
805
806
807
808
809
810
811
812
813
814
815
816
817
818
819
820
821
822
823
824
825
826
827
828
829
830
831
832
833
834
835
836
837
838
839
840
841
842
843
844
845
846
847
848
849
850
851
852
853
854
855
1.257521227544099 -4.263674473634324 0
-1.261321612927745 -4.264155585309318 0
-1.154313155798885 -4.564309315996089 0
-1.287995979523266 -3.947995053626792 0
1.299064217293012 -3.941400451607506 0
1.157818944086046 -4.564399859231751 0
-0.9824417566853658 -4.832116572123166 0
0.9804617328733192 -4.830408728362969 0
0.7466065733825777 -5.045687568230722 0
-0.7513573323811751 -5.058697612432923 0
0.4696304125643401 -5.199937644679486 0
-0.4856951218744892 -5.208130888895074 0
-0.1503464471521539 -5.261040775702989 0
0.1559753875655467 -5.294742954926722 0
1.235184211251772 -3.632234332564942 0
-1.236454404229431 -3.63314621929273 0
1.103770297183865 -3.342295661543123 0
-1.111330347124963 -3.335619758352348 0
-0.9200087502102338 -3.08573963670782 0
0.9116874902269319 -3.086563446119323 0
0.6618134886709186 -2.891769540852126 0
-0.6619366464669191 -2.891581033812082 0
0.3616763523103754 -2.757874959843482 0
0.05209654082882612 -2.710482493630203 0
-0.2521982697446942 -2.749726992114623 0
-9.031115772854083 -5.576071060069987 0
9.133974596215561 -5.5 0
-4.525257338738967 -9.064361123276434 0
4.623050138592442 -9.207000991250677 0
4.489476083605807 -0.8748336508629411 0
-4.455681370776889 -0.9131973619101013 0
1.548003926788503 -9.234821433992028 0
-1.401529184170219 -9.24272196285547 0
-0.466706468336722 -2.784802041799848 0
-2.472573705073966 -0.8119437361917958 0
2.630616238251807 -0.7693611109760212 0
-6.445998319107753 -0.8596553928028277 0
6.52736398262522 -0.8247995425611672 0
6.506389553261516 -9.115004601157127 0
-6.600837073109261 -9.026755149417369 0
-9.033680363874881 -3.424732317903566 0
9.250884665005154 -3.52788188865922 0
9.133974596215561 -7.5 0
-9.167085641948569 -7.547873262261509 0
0.6065744538373631 -0.9229732910364117 0
-8.459141433974054 -0.86002437610962 0
8.566090892854454 -0.7897739916442497 0
8.494740105243491 -9.25905382146467 0
-8.381504715551911 -9.053200551431711 0
1.367351221992064 -0.795108323721907 0
1.115874887356055 -1.461171165746132 0
0.2334195666752316 -1.544959315905296 0
0.6780235467105162 -1.964554509050306 0
-0.111761488090201 -1.044056557954393 0
-0.2837211666178915 -1.622829363185824 0
-0.6717544738926227 -1.181280826904796 0
-0.7961145813326065 -1.722042705965264 0
-0.5145598214303903 -2.047704764211125 0
-0.9383402751919132 -2.149473761177411 0
-1.249900011425134 -1.86653044640488 0
-1.3219375913278 -2.301018038419246 0
-1.660895525474163 -2.043481460585582 0
-1.696851754751242 -2.508887819163044 0
-2.06578188595843 -2.210210853196128 0
-2.111880384312565 -2.615442473718819 0
-2.474760435099836 -2.365499336806782 0
-2.477301812765803 -2.850204733354669 0
-2.919004800392517 -2.525400055203978 0
-2.99022166889807 -3.023079204194516 0
-2.588418194493745 -3.33727148432448 0
-3.043040517121562 -3.518485627804433 0
-3.512003393883556 -3.226721361269125 0
-3.473756392011388 -3.852731861272429 0
-4.060613624099382 -3.484295486254645 0
-4.093674181906581 -4.124269934343642 0
-3.565302650980619 -4.488541731302018 0
-4.136107669037067 -4.78784914030702 0
-3.583391173981512 -5.218095907828364 0
-4.720852903184779 -4.436996128976915 0
-4.740520047237872 -5.146925360032746 0
-2.621397938658784 -3.778634672296474 0
-5.370413705261925 -4.779955642272339 0
-5.375388996731134 -5.536421831790237 0
-4.762969770446535 -5.904720007286074 0
-5.356236693318978 -4.043049511684051 0
-6.036374857767465 -4.394072507466062 0
-5.378762739125548 -6.320798903514548 0
-6.070697778281663 -5.930336017944013 0
-6.028467651882012 -3.604290830538191 0
-2.245983980827665 -3.619845301950907 0
-2.269778128037864 -3.997446212720643 0
-1.803587815751508 -2.884956557028416 0
-4.630029537027795 -6.715755004985118 0
-6.064962988641665 -6.754758088020651 0
-6.798677407594131 -6.338186022651267 0
-4.013608053643723 -2.842011702690901 0
-6.741535800268306 -3.978407814176155 0
-6.717085577177427 -3.166627515112276 0
-1.956721434242415 -3.839088884494706 0
-1.934939253760578 -4.176364600355695 0
-2.265407245344736 -4.354136177800072 0
-1.931789228601741 -4.530251690213018 0
-2.260391402230808 -4.703666449809504 0
-1.953527790521189 -4.877631759267076 0
-2.273070698321817 -5.069482167775467 0
-1.946825289891148 -5.236711387103434 0
-2.279937719660307 -5.462368587337743 0
-1.863153629401995 -5.626721973798835 0
-2.282037036175026 -5.890341193159866 0
-1.888661378460322 -6.095207126305789 0
-2.292360961300934 -6.35837806373209 0
-1.514917111708678 -5.884287743324375 0
-1.51138696015943 -6.29886573837637 0
-1.149774516840007 -6.059357692338386 0
-1.145922323680667 -6.484016848970894 0
-0.7991358894878042 -6.251202904883954 0
-0.7873288953738731 -6.667759295493947 0
-0.4463181002173235 -6.45401922997311 0
-0.4189724485136015 -6.88025744786514 0
-0.0483704974330182 -6.634829803959036 0
-0.02619155389504371 -7.097959624411789 0
0.3461701509306401 -6.851727984982544 0
0.3243608303252576 -6.401145282581829 0
0.6881600572925384 -6.606606426756527 0
0.6570586775079795 -6.2135982129867 0
1.009830509790862 -6.372490676785958 0
1.058143698355368 -6.764443553351862 0
1.376769533777789 -6.517800238132992 0
1.320422603471244 -6.110924099258511 0
1.674508477811733 -6.262833370133714 0
1.639178482680123 -5.893203154781554 0
1.963980987219717 -6.02565462392791 0
1.891519872306445 -5.621874260460962 0
2.249572607870522 -5.788174409555666 0
2.191995487363507 -5.417788400714314 0
2.538547851427248 -5.555213431663493 0
2.474222879297834 -5.194818816230456 0
2.835555361199052 -5.340147238591881 0
2.714052884435965 -4.896795016575664 0
3.165623967505198 -5.074649889315113 0
3.09076536672741 -4.630948846799696 0
3.530567402877857 -4.777540715170032 0
3.598238663167436 -5.27402159216311 0
4.005476537799093 -4.942461065773282 0
2.555040420246001 -5.889054368606963 0
1.751797720593953 -6.656338590223037 0
4.071801661940567 -5.45500489614398 0
4.506391696770079 -5.127679585237338 0
4.422298136233046 -4.573053672971612 0
4.972910154020735 -4.771659031018294 0
5.060179377762773 -5.372132385278857 0
2.689949088812368 -4.472711200189636 0
3.026967879701402 -4.204937396811174 0
2.625629882404935 -4.048997746473771 0
2.953266457564635 -3.78146780382009 0
2.556900711634317 -3.638934337460377 0
4.868624113476243 -4.177252555728782 0
5.568482165477944 -4.991652529863311 0
5.654838565729322 -5.643460137315901 0
2.896773382144689 -3.33007313254845 0
2.386632305595725 -3.201426102416801 0
2.094274846285618 -5.06794507902724 0
5.104920933074473 -6.038381171079932 0
-1.443149061614001 -6.776997128455427 0
6.202576762570971 -5.233750560626683 0
6.091649367863568 -4.546934565504794 0
6.271086453080116 -5.897095190427967 0
1.590316164739526 -5.589015816864437 0
2.821040408013863 -2.814772547064319 0
3.333129923464803 -3.012335116979506 0
2.23545571858522 -3.915794194707267 0
0.3975202462797939 -7.33845469684507 0
2.323982986966977 -2.666719897360219 0
-0.04061184875263148 -7.615321301844585 0
0.3642918946845726 -6.043600775113236 0
0.6197124660825221 -5.896126100145861 0
6.783574476452623 -4.793021767290106 0
6.647978094773004 -4.031095828971318 0
-0.4741770058821736 -6.14564729089068 0
-0.8603523655929811 -7.100141681705731 0
-1.209623195726641 -5.681213741833059 0
3.26011525490685 -2.428790663928487 0
3.831041586840108 -2.681660291776485 0
1.952430414864828 -3.005777682824118 0
1.843178468493206 -2.607605939825279 0
-1.615164590350384 -5.031605534353001 0
-2.742563034901694 -6.117889738504275 0
-2.744659143585853 -6.681812237472096 0
3.303946308075394 -3.924491587313319 0
-5.914343288499365 -2.667519827577689 0
0.3752601488976068 -5.735555778353392 0
0.6093224809126588 -5.646422460754064 0
0.8020388787833095 -5.719119285619693 0
0.7683590188504152 -5.490032864694921 0
3.641960143892438 -5.798876845183383 0
-6.786149371084105 -7.198611651834563 0
1.546728163720546 -2.782206743947085 0
1.640247486807321 -3.220771191133752 0
0.442154829117998 -7.869031800367623 0
-0.05674188305814511 -8.248987920822776 0
0.9772929647977971 -5.578675873506985 0
0.9462563992550282 -5.366416390084046 0
1.444105731765934 -2.479432559462931 0
1.76718979982831 -2.092275573750051 0
0.137863363143524 -5.878054884004465 0
7.397624688944802 -4.312012290647991 0
7.268711657960819 -3.510759896743199 0
6.484495848077986 -3.231173213538677 0
7.130909144801895 -2.642009078950534 0
-1.720613938969721 -4.366298464329994 0
-1.917198472652885 -3.514035511741485 0
-1.672911232929316 -3.7320436008289 0
-1.64675085646612 -3.459360673258399 0
-3.264383923819557 -6.365282242999237 0
-3.278873767766821 -6.988987913529549 0
-2.711017206835084 -7.308638984317284 0
-3.288093393197131 -7.653718387659974 0
-2.68303216699428 -7.973741960877491 0
7.522981015590782 -5.129546936436513 0
-2.825186331386024 -1.968657173023305 0
0.1482465700587622 -5.62539896997013 0
-0.06197628816890408 -5.746485797973121 0
-6.058765701017493 -7.569251805299144 0
1.124459147811611 -2.647935534618109 0
-2.634807167418495 -4.530646699803986 0
-1.60185548971268 -1.637240024525401 0
6.327985949379816 -2.373614499829491 0
5.759059036024806 -3.052343147055819 0
5.512344929789686 -2.295323305213045 0
1.954301169638423 -3.357224970952997 0
1.671530539848649 -3.488085606766663 0
-7.546018037183529 -6.773320500652427 0
-7.533033523734466 -5.917032319655616 0
-1.010259310433065 -2.522154537225878 0
-2.159970157158427 -7.602044044673432 0
0.9409025214474442 -7.522872677740768 0
-4.64989652018508 -3.056752885182536 0
-4.66966788720454 -2.279218497046839 0
-3.30128633785817 -8.503761649940643 0
-3.93015115679404 -7.950920132561411 0
-7.522056481806031 -7.627448912909172 0
3.79237767878836 -2.07343809913657 0
-7.4612873727111 -3.58553260775432 0
-7.467319632253628 -2.655062853530298 0
1.233069101902007 -3.028725895841602 0
4.136127913789108 -6.006636432269682 0
3.660167023767672 -6.359023433626599 0
4.22776109037879 -6.59131011854822 0
3.698217824864225 -6.974647559964032 0
4.337603871723996 -7.229488371869049 0
3.771077833062537 -7.632690253712296 0
3.143393858896838 -7.350985357282194 0
3.206531568756385 -8.033763487260236 0
2.572835639804498 -7.732488955769963 0
2.617063344139734 -8.56109073445152 0
1.989688058606859 -8.110353337492898 0
-7.492425104319278 -4.407002623285341 0
1.149042315195947 -5.441742718632568 0
1.099319520290244 -5.238330443164523 0
-3.876734625729452 -2.142925882487436 0
8.139055535093222 -4.61614919308926 0
-0.0635503359138004 -5.521307656687123 0
-0.2338299387450899 -5.62696143173325 0
1.421353421666288 -3.407574548842838 0
-1.339570506534971 -2.657747779867802 0
3.964733025230477 -3.345760891474054 0
4.440319000110248 -2.911633722997423 0
-1.707207346076392 -3.980416071527774 0
-2.650889794237656 -5.247654787959401 0
2.576797953369234 -7.083539546647576 0
0.7816377987207815 -5.296646328059726 0
3.296511188188957 -8.759204363139602 0
-1.466397927255728 -5.513768258927628 0
-1.191135331125329 -5.387081296889533 0
-0.9678787009542265 -5.507033308836099 0
-0.9581336260485374 -5.252328335805003 0
-1.161339493473903 -5.146438305376257 0
-0.773049034361069 -5.383009458377497 0
-0.7589452196370023 -5.596437094992534 0
-0.5968175861999914 -5.465121978281395 0
-0.5590110879579082 -5.656515609982804 0
-1.106001137747848 -2.861879604076321 0
-1.354348457319756 -2.94648900979812 0
1.188869610155442 -5.66940241372045 0
-0.726300511571018 -5.815807185854364 0
0.9106807103016746 -5.17483713765209 0
1.055205758235698 -5.062409513562642 0
1.230531307417425 -5.099355166010209 0
1.160438623902175 -4.916784338391093 0
1.344181094993807 -4.937730644322827 0
1.428068458129979 -5.135979592155162 0
1.541054530568004 -4.966536107288317 0
1.460266442051217 -4.775851474274426 0
1.66354254574453 -4.7992564895372 0
1.553041740722622 -4.588511811095946 0
1.784881675803537 -4.62421608717694 0
1.693948399615811 -4.428982816313139 0
1.91905186019564 -4.441247539399534 0
1.818964130546984 -4.218743093473653 0
1.591839980696386 -4.221631573741083 0
1.714331925445708 -4.038181944057435 0
1.64497507197887 -5.184448408727013 0
0.5705354495126315 -8.501294357123482 0
-2.633256247360064 -8.724161061650115 0
-1.163181357789168 -3.093451964152287 0
-1.354734816892899 -3.183653565883104 0
4.405144288637312 -7.907389401751051 0
5.004038633618741 -7.485537280893171 0
5.071825038062645 -8.369627024079533 0
5.742660063205816 -7.769213296358863 0
0.0884215690953104 -2.005381441380174 0
-0.1650745711345865 -6.254199714733216 0
-0.5980929654826946 -7.884715970366397 0
2.346728782204734 -4.281109613690782 0
1.363816581436733 -4.634556234939021 0
5.679719156253307 -7.030597423799451 0
6.406582217251609 -7.281997344780179 0
1.508238156665146 -4.035443219862215 0
3.188809770781532 -1.817164053290447 0
-0.9791267073456309 -5.047461208805492 0
-1.138817382500816 -4.978021418905811 0
1.088813999911929 -2.339388557711675 0
0.8599019050628152 -2.559545441820263 0
7.908581616773195 -2.92303706448445 0
7.780246177339825 -2.099162988274892 0
1.466646622413233 -3.638421694341733 0
8.610308933654206 -2.360426661733226 0
1.623433319788131 -3.886187813319005 0
1.807756108538055 -3.843741149188504 0
2.338553104034797 -4.647129265725047 0
0.3354688353892671 -5.528168100530081 0
0.4886823987162536 -5.408790262160213 0
-0.8082795026764443 -8.645738211890102 0
-1.192228528496627 -8.176965222733262 0
-2.190904637306392 -3.251018778511108 0
-1.666362132136866 -4.711936953100179 0
-1.43048878228595 -4.82261917902995 0
-1.420963277597903 -4.593889073632869 0
-1.464149232652004 -3.625352839800949 0
-1.493115422650566 -3.786953552302079 0
-1.492371186774113 -4.033757121986193 0
0.9264970841026672 -2.810272730948952 0
-0.874203295023552 -2.776256638709135 0
-0.7371991042862649 -2.603621566898857 0
-8.312998941258174 -6.334334996621373 0
1.519510916137958 -4.384412669735264 0
1.311724994848279 -4.431795333250616 0
3.444876411521549 -0.7746591054568821 0
-3.474378558375953 -0.7414228411308947 0
1.417377059172314 -4.184576343754031 0
-1.82669482266827 -3.189752559146803 0
1.278091555190038 -4.781079211531138 0
3.090254631019393 -6.657447371012085 0
6.510429255275108 -8.071350144698689 0
7.180738546004036 -7.542232442467576 0
7.325436392409303 -8.40082637845825 0
7.046585290577569 -6.769141504284246 0
7.820573447735509 -6.964655718111634 0
7.555825342961659 -6.044632411800086 0
8.457633670678813 -6.302411132473187 0
4.278284417389407 -3.975727564042283 0
-1.291591577915935 -4.709805129856258 0
-0.2393709232338693 -5.44430901935773 0
3.21053343906961 -6.064305210479631 0
0.09920006374907321 -5.42844255223317 0
1.600334270704005 -1.505135196820977 0
5.514398785677297 -9.202622987033248 0
5.528891492461833 -0.8024087957097503 0
-5.453691270226636 -0.8337790229480406 0
-5.951230228205207 -1.663681038674444 0
-6.957064350271349 -1.71896653703337 0
-5.064866003582905 -1.57560901513624 0
2.01107125384947 -7.416152433008659 0
-1.608968975598587 -0.6881412985611686 0
0.9604507796551653 -6.024965335380155 0
-0.6199633356696856 -5.2855955985584 0
-0.7615321546185857 -5.205797770016353 0
-1.396498675757339 -5.233350156483325 0
-5.5244090561188 -9.151839159319684 0
-5.140649877385823 -8.470549940708793 0
9.244952979894496 -4.522712640182622 0
-3.84047477961061 -6.624581921630293 0
-3.744412004641479 -5.961107351737876 0
0.9194638183776347 -5.023954858966227 0
1.146224473600486 -4.766840161667861 0
1.444497831395439 -3.849672907406743 0
-7.48412586234253 -0.8664951575638398 0
-7.970110114900768 -1.742144603226073 0
-8.483081923917887 -2.554313308195984 0
-1.231452089546677 -4.366619171513821 0
-1.343323831022872 -4.340599109832543 0
-1.37297956884323 -4.22855931296421 0
-1.516239846082439 -4.310293826060843 0
1.275067790420987 -4.154531762372029 0
-1.279587184378365 -4.158969509390733 0
-1.312502832475454 -4.459338792261965 0
-0.02292580502779644 -5.377175677481144 0
-9.137101428437104 -4.519844541726215 0
-8.258033049000508 -4.884110567407592 0
2.499184498955008 -6.553330548351787 0
1.896576500785303 -4.827475179180708 0
-1.410628545147492 -3.407594648271104 0
-8.250770471281532 -4.017973660630622 0
5.951986177960944 -3.837888549861666 0
4.715364388896392 -3.543906717179542 0
1.103134424817496 -4.658276184346245 0
-1.103770297183865 -4.657704338456877 0
1.200305186549722 -4.465035614024392 0
-1.203444075190887 -4.471456419437549 0
7.613957447958789 -0.9980771107040312 0
-7.480939241053894 -9.295280885327891 0
-0.917868570520832 -4.915713244878329 0
0.9082040374612804 -4.909865211615165 0
-9.066175633049449 -1.629785330179649 0
-0.2478706426731944 -5.28766751806797 0
-0.6577043384568712 -5.103770297183869 0
0.6595378083492469 -5.106143396840855 0
-0.2554060359220044 -5.822527372951471 0
-0.3690346692497381 -5.235310758392308 0
-0.3465555686083388 -5.364984000667959 0
-0.4025105049216137 -5.513775327298446 0
0.5651143662235009 -5.157864648802763 0
-0.5752322131277811 -5.159369311449887 0
0.367918967184556 -5.235072982159696 0
-1.284839955679419 -4.053028682367624 0
1.290823705041349 -4.04626581153741 0
1.291157338111234 -3.83379845207466 0
-1.283477999073765 -3.840535442618501 0
-3.631345967879121 -9.259214843779192 0
-0.8434239624384571 -4.993286395510824 0
-0.4887658031183937 -5.335735611880868 0
-3.041657077693385 -4.832268038978403 0
-3.051107054430051 -4.296262104645299 0
0.5566551770054142 -5.269045978520676 0
-1.048452996248662 -4.748583330074588 0
-0.8587147565664772 -5.111514264514119 0
1.204850569539273 -3.52892112351178 0
-1.260848062201165 -3.735004739351986 0
-1.205545120550606 -3.532158633726763 0
1.263794360139335 -3.734299436994007 0
1.325635091192718 -3.549944244955838 0
-2.246777316203908 -6.949546663132972 0
-1.577599200733195 -3.043555648491438 0
-6.773974643464565 -5.52541600541229 0
-1.1635501197534 -3.432127384777089 0
-1.250471308644667 -3.336564351148305 0
1.162049895064381 -3.431020489320285 0
1.224670962471599 -3.327168338031392 0
1.131724687087401 -3.193314506740406 0
-1.064987248769694 -3.236549542556157 0
0.04641550625970062 -5.295683641613344 0
0.2622488988567387 -5.263485987441736 0
0.3540521096935679 -5.354310049199434 0
1.909933095316285 -5.279759734264148 0
1.295978886315593 -5.29683149789481 0
-0.836770852790036 -3.013500930120629 0
0.8321369086976638 -3.017210482276025 0
0.9895153879063125 -3.169296381373157 0
1.052657884929248 -3.056596819610607 0
-0.1600217223611292 -2.716230330987678 0
-0.2633988620889499 -2.626224040756631 0
-0.116476821355511 -2.591040624047876 0
-0.2052469373496926 -2.455281713502703 0
-0.3976209087272565 -2.510510715262404 0
-0.007990432528039687 -2.457195336827712 0
-0.1815584271194806 -2.204486919866381 0
0.2919531002626647 -2.262650187836766 0
0.4729294188075803 -2.790096624551688 0
0.4469126309635402 -2.655125187975589 0
0.2879651971241448 -2.635358203088008 0
0.5858400268760849 -2.70946155008285 0
0.6073947885197795 -2.53527721925387 0
0.794346272923439 -2.282480752829503 0
-1.004087022216357 -3.153822863756754 0
3.917341972964769 -4.398194211104049 0
-0.0535150127190279 -2.711879593749265 0
0.1639991045584284 -2.71736748745248 0
0.1213740254744895 -2.602647139384549 0
8.276780341718425 -5.443011129207457 0
4.933445762714308 -6.743896805368322 0
-0.9465701710759857 -2.961966804241216 0
0.7505058030765583 -2.948954941621817 0
-0.7484235008701035 -2.950645137764202 0
-0.5689522995221443 -2.833612290351311 0
-0.5777133492084716 -2.691039195502627 0
1.321804507424144 -3.208537068474499 0
2.348580413064823 -9.309385712633807 0
-2.147747098625169 -8.339663258945025 0
-6.73200354466107 -8.044816864567494 0
8.170244707372683 -7.791837434432075 0
5.020421444756105 -1.50891200856719 0
-6.055578088555311 -5.151014459698217 0
1.434851559499982 -6.920219340088795 0
0.7655867580665596 -2.835019492046515 0
6.972028750239023 -1.673705731724402 0
-0.3622873916072648 -2.756286759725782 0
-3.218273838904852 -5.755640885174046 0
0.5730335565886823 -2.837532317243482 0
-5.357716518490518 -7.112917612428783 0
-4.60717115954541 -7.494767459351598 0
1.096152302282369 -2.89310651675497 0
9.015016182937734 -8.483600184602905 0
-9.16918198519339 -8.463338025022519 0
-1.323448392885866 -5.017228376319373 0
-3.847257532964935 -1.411869382411401 0
7.989498601202645 -3.760505022100441 0
-9.178080756175333 -6.557189096617266 0
-5.348306989555589 -3.286699218344892 0
3.217515216806612 -5.541868700727123 0
1.460003267995996 -7.827394127872976 0
9.193398060191345 -1.527289047665306 0
5.981506091541945 -1.579793980600841 0
4.773227710410257 -2.295528037672271 0
6.853884448302143 -5.498983620212241 0
-8.301652667355846 -7.214264457266193 0
-8.31611319731446 -8.122013221979525 0
1.379629433957725 -4.318037054142382 0
-3.426289628236284 -2.695908969560974 0
2.183854209594058 -3.586762037591224 0
-3.002819768361705 -1.360492210220269 0
-2.436194157715641 -1.517076072753841 0
5.441618383996782 -4.389743624454003 0
-1.322969215932262 -3.550135502906811 0
4.58214600035063 -5.705408873926955 0
-0.995161664948768 -7.593009846200975 0
1.311334994981996 -8.537484390730341 0
-5.906613855811121 -8.345476279335481 0
5.722991267828719 -6.307922829774145 0
-0.6761507488915318 -2.770248796797997 0
-3.929132298990301 -7.238121803286323 0
-4.187525268249662 -5.518941362985377 0
2.718981314641908 -2.220553242473442 0
2.521203898235914 -1.561009609282351 0
1.882278348971539 -3.626804582911041 0
2.306291041568343 -6.160803109742575 0
3.812929980458478 -1.376853582877743 0
-4.704930152041731 -3.738677194131114 0
1.236446078899375 -4.363477113145058 0
-1.16696401112613 -4.747126434075957 0
0.7286077289128664 -9.243895615870908 0
-0.03733440952884393 -9.074737918568879 0
-0.7615840563285599 -9.279252586844192 0
0.7671448811314638 -5.159127002310994 0
2.065756487832668 -4.227014968336791 0
0.2063835357288155 -2.453183557718342 0
0.7426178565048667 -7.064794883849776 0
-1.771507209646582 -7.15767509687192 0
-1.264180006224826 -4.574905346076344 0
7.515825468997969 -9.257204356816564 0
-6.759109077797828 -4.769153962446619 0
-1.277568069843284 -1.295270426138809 0
-5.239731667267776 -2.611221182895642 0
3.809850579679122 -8.361504453828015 0
-0.08459301836392466 -5.979961068402605 0
-1.553205863174826 -2.807371235054525 0
2.061923271020971 -6.408872557371965 0
-2.716163026590741 -5.624801745077381 0
1.030131875098102 -4.936845389675913 0
-0.5738562102345174 -0.598486568893148 0
2.161464433675852 -6.811331157142432 0
0.106660358537204 -6.150386014989661 0
-0.5625419707550371 -2.513860602776316 0
-1.858973814564196 -6.60611163614576 0
-1.02075783802454 -4.931416392314382 0
1.354734685755327 -5.519847254046727 0
-9.316587584168444 -2.52176619125584 0
1.373456225804754 -2.033009637813297 0
-1.384623936381418 -4.108738167735783 0
-1.501128364157589 -4.178114379705942 0
-1.575284738464305 -4.483975371707245 0
-3.381997135225576 -1.810167879698336 0
5.885127984147186 -8.52410530571216 0
-1.645416655970138 -4.174207410661074 0
1.277002868063217 -4.539168987327013 0
-1.575987638200185 -3.251501283575754 0
1.029180709078169 -5.779198272699445 0
1.042987699228987 -3.255712583822496 0
-1.657608022531319 -5.328431462133245 0
3.422036140345564 -4.347925798581342 0
0.230616541110343 -5.39370774051587 0
1.791726098446435 -5.020903499670771 0
5.060387178796135 -3.004447496342838 0
1.220011682247995 -4.655370807612178 0
-1.108007581313943 -6.855716182720118 0
-0.9532907389102661 -5.768595362583736 0
9.243694190022813 -6.550028082886245 0
1.338932848730754 -3.66187128678447 0
1.362525799182452 -3.751723553935005 0
2.200591875476803 -2.166612967390715 0
0.946717083964407 -8.067256517471606 0
0.6631862642999343 -5.226594796672551 0
-2.640582690494095 -4.142540291963702 0
1.390760691479754 -3.991686967746467 0
0.2636744736343223 -2.742478772455901 0
-0.4898971411976201 -7.361900978732436 0
1.457995313380205 -3.04864125572115 0
-1.410617876451328 -3.899025643425157 0
0.4473878130328264 -5.293431383343902 0
0.647652122298582 -5.367730538054396 0
6.320966549323596 -6.595586641075464 0
2.032542478695218 -4.640658821187939 0
-7.487364227020025 -5.184360807639908 0
-1.043382558278362 -0.7567671485301464 0
-6.616071066050173 -2.395711307757108 0
2.156348154591083 -4.460783466349319 0
-1.371134463694478 -3.76336419604942 0
-0.8861201075431915 -5.99454546053101 0
-1.372089786961909 -4.00850893382831 0
-2.560465953595215 -4.875279886792902 0
-0.05285182329542261 -5.277839273431024 0
0.973080547797061 -1.957616104724073 0
5.299506546525216 -3.667597015103776 0
-1.270632862005685 -3.451716104166015 0
1.403538301792975 -5.765630447751866 0
-1.103696399250591 -4.850694769420882 0
-1.248856325258163 -4.857865003962329 0
8.352800302399723 -1.554945960004341 0
-3.081847269653033 -5.305923949081282 0
-0.7250462186351958 -2.32533769123483 0
4.343628610342645 -1.77879515556284 0
-2.213959191567658 -9.271528780850456 0
-1.182915076383093 -3.228631192694035 0
3.773071832297676 -9.266966443603142 0
0.8259138786836348 -4.983042783543532 0
-0.222854461518113 -1.970100622160877 0
1.042365802358439 -4.750173528570258 0
3.382873049937274 -3.527764163703527 0
-1.331111075741868 -3.661400699480379 0
1.267711987986852 -3.448925748932426 0
4.613454418766787 -6.232618773551939 0
-1.594933445500246 -7.815742521949009 0
-2.369656650690074 -1.967211018790888 0
3.119687259849856 -1.259809492376689 0
3.71153581899048 -3.919977369369763 0
-4.397522082611454 -1.744456680384991 0
0.851529336979339 -2.905955085482952 0
-3.980208808030222 -8.571361974185692 0
-2.010500262883763 -1.76329694180924 0
-7.452682875904141 -8.44448220677257 0
0.3908498818549091 -2.476056360791667 0
1.190994946878752 -5.879682497050045 0
-0.4310957140028422 -2.342863734475627 0
1.507044330057483 -5.353793749282465 0
1.962934147516383 -8.750627121860118 0
9.409768269698136 -2.5 0
-0.4383781584539502 -2.647120559303935 0
1.124837176884754 -7.127913714081398 0
0.05439403007371425 -6.360140204065936 0
-9.267949192431123 -0.7320508075688767 0
-1.723512509543158 -4.523115619837609 0
-2.088268214384745 -2.921127210000704 0
9.267949192431123 -9.267949192431123 0
-9.267949192431123 -9.267949192431123 0
-5.263986725188528 -7.845252536415762 0
2.343075887498726 -4.929018201611234 0
9.273040735444942 -0.7269592645550569 0
-0.8318330161461042 -2.909903055903101 0
0.5343496690736164 -2.264577261289689 0
0.4139401765789597 -1.941698903226864 0
-0.1335699622280361 -5.371618003255883 0
2.864133860517745 -5.772076402252092 0
-1.433662905128594 -4.437619234699093 0
1.307025684530032 -2.828838885142511 0
-4.251922625537354 -6.224109777354455 0
-1.033266197704403 -3.038691319077129 0
1.642830413589793 -3.713300544271003 0
-1.901276776804653 -1.28549474999671 0
2.002177157561816 -1.023305095998288 0
8.565224122405077 -7.021786473580628 0
8.085381745080538 -8.617891980508483 0
-8.134332968961669 -3.258693337061168 0
0.9451101678697031 -2.961617513532138 0
1.467050238322602 -7.335956721324668 0
-8.154551554408977 -5.620867736670203 0
1.948663135137613 -4.006219651431283 0
-0.7585094414796421 -2.859726932597303 0
6.809669616849016 -6.161087873560001 0
2.030269064513907 -3.794874071243343 0
2.77520285593276 -6.199702824132077 0
1.765247041188372 -7.027999648357518 0
-3.285842504193971 -2.228611991994806 0
4.336588375453839 -8.622497662902484 0
0.7395223049492681 -2.687151535439242 0
-2.952228833783804 -9.201463732939185 0
1.708757706879722 -5.405778393919805 0
8.652193810262885 -4.077403111010542 0
2.026387582055173 -1.689087474789995 0
-0.3896506647119316 -5.691333603541477 0
-0.4858572223562312 -5.866676783346774 0
-3.000998609074638 -3.898115884515732 0
0.664810392868259 -2.790215847594186 0
1.410847633254712 -4.488895988808267 0
-1.196163809649928 -4.650770112892305 0
-1.56217430049192 -3.903158351995616 0
0.2067237966661529 -5.498233440225814 0
2.141004563459932 -4.822445309346434 0
0.670152196492531 -1.632162214948181 0
0.8327148193924218 -5.083002631720276 0
1.07248462561975 -4.847781717253509 0
3.002553990434485 -9.225835560908198 0
-0.000902340059852591 -2.614649037527921 0
0.4780625566643159 -5.552379739204322 0
4.236118917298324 -2.348211061429117 0
1.384148139446342 -4.090880472931656 0
8.603248641847069 -3.077432072916968 0
-0.6862603354164393 -6.027173302032853 0
1.336939670077468 -4.22309577278359 0
1.46035018231949 -3.22138101604306 0
0.5984157154884451 -5.493071172973583 0
-1.559779491839394 -8.582059993203888 0
-0.6537942637876506 -5.191276573029938 0
-4.529029791723292 -8.118722034873613 0
1.477089347491096 -4.27716441034319 0
1.671659336332205 -2.985661267288148 0
-5.411201636964379 -2.077044786487802 0
0.07944186908785406 -2.276579488725875 0
8.685522438534736 -4.959737849114737 0
-0.2710575904330812 -6.047356258058784 0
-1.303285260308193 -7.249665958974594 0
$EndNodes
$Elements
7 1710 1 1710
1 1 1 38
1 6 7 
2 7 8 
3 8 9 
4 9 10 
5 10 11 
6 11 12 
7 12 13 
8 13 14 
9 14 15 
10 15 16 
11 16 17 
12 17 18 
13 18 19 
14 19 20 
15 20 21 
16 21 22 
17 22 23 
18 23 24 
19 24 25 
20 25 26 
21 26 27 
22 27 28 
23 28 29 
24 29 30 
25 30 31 
26 31 32 
27 32 33 
28 33 34 
29 34 35 
30 35 36 
31 36 37 
32 37 38 
33 38 39 
34 39 40 
35 40 41 
36 41 42 
37 42 43 
38 43 5 
1 2 1 38
39 5 44 
40 44 45 
41 45 46 
42 46 47 
43 47 48 
44 48 49 
45 49 50 
46 50 51 
47 51 52 
48 52 53 
49 53 54 
50 54 55 
51 55 56 
52 56 57 
53 57 58 
54 58 59 
55 59 60 
56 60 61 
57 61 62 
58 62 63 
59 63 64 
60 64 65 
61 65 66 
62 66 67 
63 67 68 
64 68 69 
65 69 70 
66 70 71 
67 71 72 
68 72 73 
69 73 74 
70 74 75 
71 75 76 
72 76 77 
73 77 78 
74 78 79 
75 79 80 
76 80 6 
1 3 1 20
77 1 81 
78 81 82 
79 82 83 
80 83 84 
81 84 85 
82 85 86 
83 86 87 
84 87 88 
85 88 89 
86 89 90 
87 90 91 
88 91 92 
89 92 93 
90 93 94 
91 94 95 
92 95 96 
93 96 97 
94 97 98 
95 98 99 
96 99 2 
1 4 1 10
97 2 100 
98 100 101 
99 101 102 
100 102 103 
101 103 104 
102 104 105 
103 105 106 
104 106 107 
105 107 108 
106 108 3 
1 5 1 20
107 3 109 
108 109 110 
109 110 111 
110 111 112 
111 112 113 
112 113 114 
113 114 115 
114 115 116 
115 116 117 
116 117 118 
117 118 119 
118 119 120 
119 120 121 
120 121 122 
121 122 123 
122 123 124 
123 124 125 
124 125 126 
125 126 127 
126 127 4 
1 6 1 10
127 4 128 
128 128 129 
129 129 130 
130 130 131 
131 131 132 
132 132 133 
133 133 134 
134 134 135 
135 135 136 
136 136 1 
2 2 2 1574
137 161 632 597 
138 380 524 507 
139 370 418 401 
140 186 187 181 
141 518 666 229 
142 179 638 626 
143 238 786 472 
144 447 761 191 
145 149 796 551 
146 329 511 312 
147 367 400 334 
148 529 709 705 
149 188 795 447 
150 188 447 191 
151 479 793 617 
152 191 194 193 
153 662 676 439 
154 402 541 497 
155 467 589 468 
156 297 366 320 
157 703 747 187 
158 316 731 661 
159 370 755 480 
160 600 778 599 
161 297 655 366 
162 522 724 462 
163 367 462 400 
164 360 478 459 
165 455 769 672 
166 546 753 461 
167 235 404 236 
168 472 474 473 
169 169 846 469 
170 502 703 187 
171 229 666 636 
172 404 709 236 
173 469 846 470 
174 585 595 381 
175 638 806 626 
176 410 412 411 
177 652 775 185 
178 214 633 519 
179 472 473 322 
180 195 370 197 
181 594 595 585 
182 512 559 148 
183 226 471 347 
184 501 587 150 
185 181 190 90 
186 425 521 488 
187 418 441 419 
188 347 348 235 
189 228 579 487 
190 185 775 547 
191 226 235 227 
192 275 466 288 
193 370 479 418 
194 413 456 412 
195 422 423 395 
196 461 631 546 
197 298 717 537 
198 590 717 298 
199 325 770 715 
200 141 563 522 
201 441 610 586 
202 425 488 426 
203 715 770 611 
204 471 487 347 
205 166 484 94 
206 86 485 167 
207 166 672 484 
208 275 791 466 
209 495 650 355 
210 187 833 181 
211 321 850 333 
212 244 714 409 
213 311 327 312 
214 485 641 167 
215 240 472 322 
216 370 401 197 
217 445 503 165 
218 194 195 193 
219 412 414 411 
220 462 802 522 
221 191 761 194 
222 683 699 300 
223 410 411 317 
224 312 511 261 
225 474 498 473 
226 206 226 217 
227 412 513 414 
228 627 648 365 
229 327 328 312 
230 487 787 228 
231 349 475 348 
232 479 617 418 
233 599 778 602 
234 489 500 383 
235 504 648 627 
236 653 674 137 
237 203 471 206 
238 403 541 402 
239 311 312 261 
240 366 367 334 
241 357 467 327 
242 442 582 538 
243 326 740 506 
244 259 311 261 
245 589 734 468 
246 409 410 317 
247 236 346 238 
248 165 818 445 
249 348 404 235 
250 315 854 448 
251 621 665 480 
252 248 317 250 
253 551 796 499 
254 481 643 162 
255 435 680 434 
256 338 422 395 
257 203 787 471 
258 401 691 199 
259 475 476 348 
260 360 459 458 
261 197 401 199 
262 657 768 356 
263 181 833 188 
264 519 667 214 
265 469 678 169 
266 436 486 454 
267 363 631 345 
268 91 186 181 
269 433 482 436 
270 330 407 338 
271 357 831 467 
272 462 577 400 
273 244 409 248 
274 299 664 616 
275 226 347 235 
276 661 731 449 
277 168 676 662 
278 506 851 326 
279 276 645 274 
280 279 645 276 
281 176 775 625 
282 238 472 240 
283 557 567 556 
284 390 509 406 
285 497 770 402 
286 320 850 321 
287 455 672 378 
288 656 707 641 
289 584 622 400 
290 473 640 322 
291 400 844 334 
292 385 489 383 
293 412 572 513 
294 422 520 423 
295 290 307 292 
296 795 833 189 
297 288 466 450 
298 507 524 523 
299 146 552 513 
300 226 227 217 
301 199 228 201 
302 407 422 338 
303 162 810 481 
304 194 755 195 
305 235 236 227 
306 548 566 456 
307 496 615 163 
308 490 492 175 
309 499 556 551 
310 509 696 406 
311 347 349 348 
312 358 398 357 
313 365 718 649 
314 290 450 307 
315 672 769 484 
316 418 801 441 
317 339 799 360 
318 288 450 290 
319 426 488 429 
320 418 419 401 
321 624 846 757 
322 206 471 226 
323 579 711 487 
324 410 413 412 
325 705 709 477 
326 341 357 327 
327 252 315 254 
328 346 709 529 
329 95 504 166 
330 400 765 584 
331 317 721 250 
332 431 482 433 
333 148 567 512 
334 177 539 534 
335 429 488 451 
336 534 539 535 
337 429 451 431 
338 398 501 357 
339 482 849 436 
340 680 741 434 
341 190 695 90 
342 91 181 90 
343 413 457 456 
344 456 572 412 
345 355 615 495 
346 669 823 804 
347 632 782 597 
348 297 320 309 
349 535 539 393 
350 93 484 172 
351 171 485 87 
352 439 726 662 
353 188 191 190 
354 362 803 687 
355 505 506 173 
356 136 550 135 
357 609 747 458 
358 333 799 339 
359 515 516 164 
360 509 816 696 
361 150 716 501 
362 568 569 361 
363 259 261 260 
364 578 699 683 
365 256 259 258 
366 82 523 182 
367 209 569 212 
368 186 502 187 
369 164 848 773 
370 481 651 643 
371 240 322 242 
372 613 614 606 
373 436 454 437 
374 123 515 164 
375 322 640 514 
376 475 742 476 
377 380 525 524 
378 340 703 502 
379 242 714 244 
380 195 755 370 
381 438 717 590 
382 267 304 269 
383 516 848 164 
384 495 813 650 
385 248 409 317 
386 84 505 173 
387 431 828 482 
388 88 171 87 
389 93 172 92 
390 163 722 496 
391 507 740 380 
392 472 706 474 
393 555 567 148 
394 83 523 82 
395 601 681 614 
396 236 709 346 
397 656 657 356 
398 480 665 479 
399 414 512 416 
400 329 712 511 
401 442 758 582 
402 624 757 440 
403 522 729 141 
404 189 747 609 
405 188 833 795 
406 643 651 180 
407 320 366 334 
408 522 802 464 
409 328 845 330 
410 616 664 452 
411 328 330 329 
412 183 753 546 
413 256 784 259 
414 547 775 176 
415 364 718 365 
416 416 567 557 
417 525 550 524 
418 433 436 435 
419 457 700 456 
420 626 805 179 
421 327 838 328 
422 468 838 467 
423 568 745 405 
424 485 656 641 
425 459 609 458 
426 390 406 388 
427 199 691 228 
428 388 489 385 
429 262 511 265 
430 364 748 718 
431 471 787 487 
432 538 659 475 
433 505 508 506 
434 392 509 390 
435 252 842 315 
436 465 802 670 
437 374 851 508 
438 315 448 254 
439 440 820 375 
440 406 489 388 
441 345 631 461 
442 483 674 653 
443 689 818 759 
444 191 193 192 
445 349 538 475 
446 523 524 182 
447 112 503 175 
448 492 685 175 
449 519 800 667 
450 504 627 166 
451 271 298 273 
452 209 826 569 
453 585 713 594 
454 248 250 249 
455 459 819 608 
456 262 265 264 
457 582 749 538 
458 441 442 419 
459 167 508 505 
460 311 341 327 
461 348 830 404 
462 88 510 171 
463 92 804 186 
464 688 851 374 
465 533 587 501 
466 399 499 398 
467 120 169 119 
468 117 168 116 
469 92 186 91 
470 167 505 85 
471 254 448 256 
472 86 167 85 
473 95 166 94 
474 361 745 568 
475 513 572 146 
476 495 615 496 
477 540 748 364 
478 136 785 550 
479 441 801 610 
480 467 838 327 
481 247 578 324 
482 406 536 489 
483 424 591 395 
484 398 533 501 
485 172 804 92 
486 330 338 337 
487 477 709 404 
488 627 756 166 
489 625 663 176 
490 265 267 266 
491 375 820 565 
492 488 719 451 
493 407 679 422 
494 414 416 415 
495 244 248 246 
496 177 534 133 
497 292 655 297 
498 363 648 631 
499 103 517 178 
500 195 197 196 
501 586 758 441 
502 336 677 469 
503 409 514 410 
504 114 165 113 
505 123 164 122 
506 423 425 424 
507 467 716 589 
508 259 260 258 
509 439 677 336 
510 302 540 314 
511 174 504 96 
512 609 794 189 
513 614 837 601 
514 165 503 113 
515 653 828 483 
516 344 540 364 
517 338 395 394 
518 206 217 207 
519 358 399 398 
520 341 358 357 
521 89 739 510 
522 667 800 220 
523 87 485 86 
524 94 484 93 
525 269 590 271 
526 525 807 177 
527 515 663 516 
528 261 511 262 
529 171 656 485 
530 320 321 309 
531 288 290 289 
532 177 702 525 
533 176 515 124 
534 451 828 431 
535 393 738 535 
536 669 804 172 
537 549 694 520 
538 173 523 83 
539 118 678 677 
540 97 546 174 
541 314 540 344 
542 328 329 312 
543 534 535 162 
544 89 510 88 
545 250 252 251 
546 118 677 676 
547 265 777 750 
548 333 339 321 
549 630 819 478 
550 396 654 232 
551 132 534 162 
552 265 750 267 
553 132 162 131 
554 105 163 104 
555 269 821 590 
556 331 645 279 
557 197 199 198 
558 383 500 331 
559 203 206 205 
560 96 504 95 
561 163 517 104 
562 344 364 363 
563 636 666 376 
564 166 756 672 
565 174 648 504 
566 125 547 176 
567 644 673 221 
568 721 743 250 
569 384 616 386 
570 175 708 490 
571 506 740 507 
572 275 288 277 
573 302 658 540 
574 416 557 417 
575 441 758 442 
576 566 572 456 
577 360 458 339 
578 188 190 181 
579 124 515 123 
580 499 557 556 
581 478 819 459 
582 484 769 172 
583 189 833 747 
584 680 811 307 
585 474 684 498 
586 236 238 237 
587 408 836 391 
588 649 718 403 
589 536 692 671 
590 542 719 521 
591 162 643 131 
592 402 770 763 
593 84 173 83 
594 97 174 96 
595 271 590 298 
596 797 815 281 
597 265 266 264 
598 402 763 306 
599 261 262 260 
600 454 522 464 
601 506 507 173 
602 450 680 307 
603 85 505 84 
604 480 698 621 
605 209 212 211 
606 414 513 512 
607 112 175 111 
608 125 176 124 
609 689 759 408 
610 569 728 361 
611 556 567 555 
612 259 697 311 
613 334 850 320 
614 199 201 200 
615 427 591 424 
616 601 852 681 
617 687 803 510 
618 164 565 122 
619 525 702 550 
620 532 684 474 
621 352 578 371 
622 267 269 268 
623 536 696 692 
624 167 771 508 
625 103 178 102 
626 134 177 133 
627 436 437 435 
628 364 365 363 
629 426 429 428 
630 608 609 459 
631 346 786 238 
632 524 550 182 
633 324 578 352 
634 183 546 98 
635 113 503 112 
636 811 814 307 
637 248 249 246 
638 133 534 132 
639 98 546 97 
640 611 770 497 
641 670 802 367 
642 489 815 500 
643 185 547 126 
644 247 699 578 
645 529 706 346 
646 387 388 385 
647 104 517 103 
648 126 547 125 
649 330 735 407 
650 486 840 454 
651 373 673 644 
652 177 807 539 
653 423 424 395 
654 391 836 623 
655 520 694 423 
656 352 371 354 
657 429 431 430 
658 122 565 121 
659 663 790 516 
660 386 616 444 
661 602 778 194 
662 476 830 348 
663 503 708 175 
664 444 452 446 
665 107 179 106 
666 130 180 129 
667 454 464 437 
668 307 655 292 
669 642 841 822 
670 546 631 174 
671 389 390 388 
672 105 722 163 
673 82 182 81 
674 99 183 98 
675 110 184 109 
676 127 185 126 
677 370 480 479 
678 453 493 491 
679 464 802 465 
680 252 254 253 
681 184 806 638 
682 493 495 494 
683 229 800 518 
684 466 832 737 
685 414 415 411 
686 466 741 450 
687 119 678 118 
688 330 337 329 
689 229 636 635 
690 423 694 425 
691 644 688 373 
692 168 623 116 
693 116 623 115 
694 118 676 117 
695 231 580 224 
696 508 771 374 
697 269 271 270 
698 647 781 463 
699 175 685 111 
700 369 580 231 
701 448 784 256 
702 451 719 710 
703 130 643 180 
704 309 668 305 
705 290 292 291 
706 614 681 606 
707 804 823 502 
708 521 719 488 
709 668 725 669 
710 368 369 231 
711 229 635 223 
712 445 708 503 
713 500 815 797 
714 617 801 418 
715 373 688 374 
716 444 616 452 
717 267 268 266 
718 212 568 214 
719 641 771 167 
720 513 847 512 
721 391 392 390 
722 475 764 742 
723 216 220 219 
724 500 645 331 
725 431 433 432 
726 250 251 249 
727 220 229 223 
728 508 851 506 
729 374 396 232 
730 254 256 255 
731 214 754 633 
732 256 258 257 
733 238 240 239 
734 171 657 656 
735 285 611 497 
736 121 757 120 
737 314 344 343 
738 737 741 466 
739 580 628 224 
740 344 363 345 
741 234 326 225 
742 121 820 757 
743 281 815 671 
744 499 796 398 
745 595 637 381 
746 794 795 189 
747 191 192 190 
748 115 759 114 
749 595 808 637 
750 288 289 277 
751 108 638 107 
752 129 639 128 
753 271 273 272 
754 212 214 213 
755 606 730 613 
756 452 453 446 
757 563 724 522 
758 507 523 173 
759 230 359 332 
760 405 754 568 
761 319 402 306 
762 338 394 337 
763 368 481 369 
764 180 652 639 
765 212 569 568 
766 233 393 379 
767 665 812 479 
768 493 494 491 
769 195 196 193 
770 285 497 293 
771 201 787 203 
772 511 777 265 
773 718 748 541 
774 304 821 269 
775 5 562 44 
776 55 553 56 
777 58 560 59 
778 495 496 494 
779 639 652 185 
780 52 549 53 
781 242 244 243 
782 538 711 442 
783 223 635 230 
784 49 542 50 
785 76 545 77 
786 651 652 180 
787 392 646 509 
788 110 685 184 
789 693 754 405 
790 622 844 400 
791 250 743 252 
792 220 223 219 
793 474 798 532 
794 759 818 165 
795 342 355 313 
796 260 682 258 
797 371 624 354 
798 283 331 279 
799 179 722 106 
800 396 817 654 
801 67 559 68 
802 326 644 225 
803 267 750 304 
804 436 849 486 
805 197 198 196 
806 273 275 274 
807 425 426 424 
808 115 836 759 
809 538 749 659 
810 218 221 215 
811 117 676 168 
812 176 663 515 
813 212 213 211 
814 397 615 355 
815 292 297 296 
816 134 702 177 
817 230 231 224 
818 179 805 722 
819 393 539 379 
820 223 224 219 
821 332 368 231 
822 262 264 263 
823 221 673 215 
824 535 810 162 
825 350 633 323 
826 64 551 65 
827 178 781 102 
828 269 270 268 
829 107 638 179 
830 180 639 129 
831 332 377 368 
832 236 237 227 
833 344 345 343 
834 273 791 275 
835 7 564 8 
836 206 207 205 
837 295 299 287 
838 757 846 169 
839 178 841 781 
840 223 230 224 
841 379 380 234 
842 230 332 231 
843 461 463 460 
844 196 687 193 
845 216 219 218 
846 387 389 388 
847 216 667 220 
848 233 379 234 
849 305 668 318 
850 222 233 225 
851 78 138 79 
852 45 137 46 
853 483 828 710 
854 449 731 310 
855 216 218 215 
856 199 200 198 
857 233 234 225 
858 359 625 332 
859 218 222 221 
860 170 782 632 
861 222 225 221 
862 636 848 790 
863 395 591 394 
864 382 383 331 
865 271 272 270 
866 347 487 349 
867 61 587 62 
868 263 682 260 
869 453 491 490 
870 230 635 359 
871 601 837 598 
872 146 572 566 
873 477 830 733 
874 345 461 460 
875 79 531 80 
876 381 622 585 
877 308 372 335 
878 294 302 301 
879 365 649 627 
880 299 660 287 
881 318 455 378 
882 228 787 201 
883 840 843 530 
884 456 700 548 
885 342 397 355 
886 375 376 353 
887 101 647 100 
888 169 678 119 
889 201 202 200 
890 633 754 693 
891 345 460 343 
892 683 855 767 
893 319 403 402 
894 518 519 350 
895 444 446 445 
896 10 575 11 
897 131 643 130 
898 314 343 342 
899 733 744 477 
900 497 541 293 
901 273 274 272 
902 676 677 439 
903 201 203 202 
904 822 841 178 
905 469 470 449 
906 365 648 363 
907 213 216 215 
908 416 417 415 
909 519 633 350 
910 491 492 490 
911 510 803 171 
912 324 352 351 
913 433 435 434 
914 336 449 310 
915 453 490 446 
916 280 285 284 
917 322 714 242 
918 332 625 377 
919 386 444 443 
920 763 770 325 
921 366 670 367 
922 240 242 241 
923 623 836 115 
924 297 309 305 
925 429 430 428 
926 252 253 251 
927 218 628 222 
928 13 586 14 
929 275 276 274 
930 494 626 491 
931 219 628 218 
932 294 301 295 
933 244 246 245 
934 224 628 219 
935 38 583 39 
936 278 611 280 
937 404 830 477 
938 314 342 313 
939 283 382 331 
940 384 385 383 
941 233 686 393 
942 326 851 688 
943 377 651 368 
944 368 651 481 
945 637 808 478 
946 502 823 340 
947 301 303 295 
948 512 567 416 
949 302 314 313 
950 389 391 390 
951 565 773 375 
952 398 796 533 
953 633 693 323 
954 454 729 522 
955 280 284 283 
956 275 277 276 
957 81 785 1 
958 1 785 136 
959 3 788 108 
960 109 788 3 
961 4 789 127 
962 128 789 4 
963 447 795 603 
964 399 557 499 
965 308 682 372 
966 377 652 651 
967 286 287 284 
968 386 387 385 
969 360 637 478 
970 483 710 544 
971 14 610 15 
972 355 650 313 
973 302 313 301 
974 294 295 287 
975 352 354 353 
976 491 626 492 
977 517 822 178 
978 286 294 287 
979 482 828 653 
980 100 792 2 
981 2 792 99 
982 16 592 17 
983 359 663 625 
984 431 432 430 
985 35 594 36 
986 631 648 174 
987 285 293 286 
988 120 757 169 
989 671 815 536 
990 444 445 443 
991 410 514 413 
992 48 142 49 
993 75 139 76 
994 452 736 453 
995 463 753 647 
996 238 239 237 
997 354 440 375 
998 467 831 716 
999 210 232 208 
1000 616 766 299 
1001 285 286 284 
1002 225 644 221 
1003 46 674 47 
1004 324 351 350 
1005 580 686 628 
1006 47 544 48 
1007 751 752 675 
1008 354 375 353 
1009 213 215 211 
1010 244 245 243 
1011 209 211 210 
1012 608 819 607 
1013 290 291 289 
1014 277 278 276 
1015 470 661 449 
1016 44 530 45 
1017 386 443 387 
1018 747 833 187 
1019 588 716 150 
1020 380 807 525 
1021 352 353 351 
1022 373 374 232 
1023 137 674 46 
1024 450 741 680 
1025 318 378 319 
1026 460 642 343 
1027 207 209 208 
1028 343 642 342 
1029 550 702 135 
1030 51 144 52 
1031 72 143 73 
1032 722 805 496 
1033 45 530 137 
1034 384 386 385 
1035 77 526 78 
1036 278 280 279 
1037 280 611 285 
1038 318 319 306 
1039 406 696 536 
1040 552 847 513 
1041 280 283 279 
1042 415 721 411 
1043 254 255 253 
1044 278 279 276 
1045 63 149 64 
1046 54 145 55 
1047 69 146 70 
1048 258 308 257 
1049 354 624 440 
1050 57 147 58 
1051 66 148 67 
1052 351 518 350 
1053 536 815 489 
1054 382 384 383 
1055 78 526 138 
1056 342 642 397 
1057 537 832 298 
1058 23 596 24 
1059 487 711 349 
1060 77 545 526 
1061 256 257 255 
1062 565 820 121 
1063 427 779 591 
1064 114 759 165 
1065 26 613 27 
1066 29 604 30 
1067 362 687 196 
1068 384 766 616 
1069 43 141 5 
1070 6 140 7 
1071 590 821 438 
1072 738 810 535 
1073 550 785 182 
1074 413 640 457 
1075 209 210 208 
1076 641 707 396 
1077 56 558 57 
1078 210 373 232 
1079 272 281 270 
1080 295 664 299 
1081 686 738 393 
1082 214 667 213 
1083 389 408 391 
1084 294 658 302 
1085 111 685 110 
1086 790 848 516 
1087 301 650 303 
1088 30 634 31 
1089 101 781 647 
1090 746 796 149 
1091 725 823 669 
1092 411 721 317 
1093 44 562 530 
1094 21 632 22 
1095 324 350 323 
1096 446 708 445 
1097 500 797 645 
1098 318 668 455 
1099 603 852 447 
1100 70 566 71 
1101 68 552 69 
1102 472 786 706 
1103 313 650 301 
1104 71 548 72 
1105 628 686 222 
1106 242 243 241 
1107 376 666 353 
1108 262 263 260 
1109 442 579 419 
1110 19 620 20 
1111 531 561 80 
1112 80 561 6 
1113 356 707 656 
1114 213 667 216 
1115 65 555 66 
1116 677 678 469 
1117 336 469 449 
1118 73 571 74 
1119 380 740 234 
1120 305 318 306 
1121 264 629 263 
1122 664 736 452 
1123 422 834 520 
1124 278 715 611 
1125 668 669 455 
1126 203 205 204 
1127 553 558 56 
1128 514 714 322 
1129 74 543 75 
1130 426 428 427 
1131 403 718 541 
1132 303 664 295 
1133 142 542 49 
1134 425 835 521 
1135 139 545 76 
1136 232 654 208 
1137 222 686 233 
1138 433 434 432 
1139 286 658 294 
1140 138 531 79 
1141 90 695 89 
1142 40 151 41 
1143 9 152 10 
1144 135 702 134 
1145 326 688 644 
1146 42 563 43 
1147 59 588 60 
1148 144 549 52 
1149 215 673 211 
1150 493 813 495 
1151 145 553 55 
1152 359 790 663 
1153 623 780 391 
1154 8 574 9 
1155 147 560 58 
1156 658 748 540 
1157 247 324 323 
1158 207 208 205 
1159 266 282 264 
1160 298 791 273 
1161 636 790 635 
1162 646 726 372 
1163 141 562 5 
1164 48 544 142 
1165 462 723 577 
1166 681 852 603 
1167 137 843 653 
1168 542 762 50 
1169 510 739 687 
1170 578 683 371 
1171 41 576 42 
1172 68 559 552 
1173 358 554 399 
1174 47 674 544 
1175 246 247 245 
1176 287 660 284 
1177 549 760 53 
1178 293 658 286 
1179 377 775 652 
1180 375 773 376 
1181 194 761 602 
1182 597 782 600 
1183 292 296 291 
1184 148 559 67 
1185 203 204 202 
1186 767 855 661 
1187 240 241 239 
1188 12 154 13 
1189 37 153 38 
1190 569 826 728 
1191 205 654 204 
1192 551 555 65 
1193 560 588 59 
1194 60 150 61 
1195 453 736 493 
1196 154 758 586 
1197 39 573 40 
1198 379 807 380 
1199 149 551 64 
1200 685 806 184 
1201 297 305 296 
1202 394 420 337 
1203 589 716 588 
1204 308 335 310 
1205 251 300 249 
1206 308 310 257 
1207 733 830 476 
1208 580 738 686 
1209 305 306 296 
1210 284 660 283 
1211 11 581 12 
1212 392 662 646 
1213 193 687 192 
1214 237 728 227 
1215 140 564 7 
1216 171 803 657 
1217 335 439 336 
1218 353 666 351 
1219 443 689 387 
1220 270 671 268 
1221 464 465 437 
1222 211 673 210 
1223 335 336 310 
1224 376 848 636 
1225 367 802 462 
1226 391 780 392 
1227 106 722 105 
1228 426 427 424 
1229 247 323 245 
1230 438 779 427 
1231 36 713 37 
1232 371 767 624 
1233 728 826 217 
1234 727 735 570 
1235 15 155 16 
1236 34 156 35 
1237 351 666 518 
1238 227 728 217 
1239 300 855 683 
1240 243 405 241 
1241 645 797 274 
1242 387 689 389 
1243 432 537 430 
1244 460 841 642 
1245 163 853 517 
1246 349 711 538 
1247 210 673 373 
1248 22 161 23 
1249 544 674 483 
1250 75 543 139 
1251 564 574 8 
1252 57 558 147 
1253 28 159 29 
1254 514 640 413 
1255 283 660 382 
1256 72 548 143 
1257 208 654 205 
1258 621 782 170 
1259 409 714 514 
1260 144 694 549 
1261 228 691 579 
1262 490 708 446 
1263 146 566 70 
1264 69 552 146 
1265 421 721 415 
1266 25 160 26 
1267 143 571 73 
1268 562 840 530 
1269 282 629 264 
1270 194 778 755 
1271 291 325 289 
1272 544 710 142 
1273 66 555 148 
1274 372 809 646 
1275 339 340 321 
1276 239 361 237 
1277 258 682 308 
1278 649 756 627 
1279 33 593 34 
1280 255 316 253 
1281 62 746 63 
1282 526 527 138 
1283 207 826 209 
1284 428 438 427 
1285 18 158 19 
1286 31 157 32 
1287 6 561 140 
1288 767 846 624 
1289 309 725 668 
1290 494 805 626 
1291 198 362 196 
1292 17 619 18 
1293 655 670 366 
1294 720 855 300 
1295 442 711 579 
1296 527 528 138 
1297 389 689 408 
1298 204 356 202 
1299 71 566 548 
1300 403 839 649 
1301 587 746 62 
1302 27 730 28 
1303 457 752 751 
1304 152 575 10 
1305 710 828 451 
1306 24 612 25 
1307 32 618 33 
1308 781 841 463 
1309 164 773 565 
1310 470 846 767 
1311 369 738 580 
1312 610 801 155 
1313 598 612 596 
1314 570 735 468 
1315 661 855 316 
1316 783 809 372 
1317 150 587 61 
1318 43 563 141 
1319 526 545 532 
1320 417 421 415 
1321 51 762 144 
1322 277 715 278 
1323 54 760 145 
1324 74 571 543 
1325 445 818 443 
1326 234 740 326 
1327 586 610 14 
1328 63 746 149 
1329 558 570 147 
1330 554 854 825 
1331 447 852 602 
1332 468 734 570 
1333 528 531 138 
1334 602 761 447 
1335 458 703 339 
1336 145 679 553 
1337 526 532 527 
1338 372 726 335 
1339 53 760 54 
1340 50 762 51 
1341 20 170 21 
1342 281 671 270 
1343 465 814 811 
1344 307 814 655 
1345 662 726 646 
1346 679 727 553 
1347 419 691 401 
1348 361 728 237 
1349 683 767 371 
1350 435 811 680 
1351 407 735 727 
1352 396 771 641 
1353 575 581 11 
1354 268 692 266 
1355 154 586 13 
1356 172 769 669 
1357 153 585 584 
1358 369 810 738 
1359 639 789 128 
1360 108 788 638 
1361 299 766 660 
1362 153 583 38 
1363 39 583 573 
1364 560 589 588 
1365 591 779 701 
1366 374 771 396 
1367 289 715 277 
1368 774 803 362 
1369 9 574 152 
1370 560 734 589 
1371 274 797 272 
1372 220 800 229 
1373 706 798 474 
1374 249 699 246 
1375 151 576 41 
1376 42 576 563 
1377 548 700 143 
1378 335 726 439 
1379 341 690 358 
1380 141 729 562 
1381 378 839 319 
1382 102 781 101 
1383 551 556 555 
1384 153 713 585 
1385 597 600 599 
1386 311 697 341 
1387 381 799 732 
1388 293 748 658 
1389 577 765 400 
1390 462 724 723 
1391 498 752 473 
1392 99 792 183 
1393 582 758 154 
1394 40 573 151 
1395 182 785 81 
1396 60 588 150 
1397 246 699 247 
1398 461 753 463 
1399 184 788 109 
1400 127 789 185 
1401 591 701 394 
1402 575 749 581 
1403 492 806 685 
1404 579 691 419 
1405 139 684 545 
1406 159 606 605 
1407 698 782 621 
1408 15 610 155 
1409 192 695 190 
1410 140 733 564 
1411 692 696 282 
1412 159 730 606 
1413 155 592 16 
1414 594 713 36 
1415 486 843 840 
1416 501 831 357 
1417 156 594 35 
1418 571 675 543 
1419 541 748 293 
1420 245 693 243 
1421 791 832 466 
1422 607 634 604 
1423 12 581 154 
1424 168 780 623 
1425 430 717 428 
1426 337 712 329 
1427 325 715 289 
1428 733 742 564 
1429 672 756 378 
1430 762 835 144 
1431 583 765 573 
1432 760 834 145 
1433 303 736 664 
1434 531 704 561 
1435 259 784 697 
1436 603 776 681 
1437 675 752 498 
1438 37 713 153 
1439 597 598 596 
1440 592 619 17 
1441 640 752 457 
1442 599 601 598 
1443 417 825 421 
1444 527 529 528 
1445 161 596 23 
1446 533 796 746 
1447 557 824 417 
1448 481 810 369 
1449 152 659 575 
1450 604 634 30 
1451 266 692 282 
1452 300 699 249 
1453 756 839 378 
1454 638 788 184 
1455 185 789 639 
1456 306 763 296 
1457 647 753 183 
1458 660 766 382 
1459 143 751 571 
1460 159 604 29 
1461 394 701 420 
1462 564 742 574 
1463 428 717 438 
1464 310 731 257 
1465 605 607 604 
1466 646 809 509 
1467 160 613 26 
1468 22 632 161 
1469 358 690 554 
1470 323 693 245 
1471 155 801 617 
1472 671 692 268 
1473 321 725 309 
1474 253 720 251 
1475 606 776 605 
1476 573 577 151 
1477 407 727 679 
1478 243 693 405 
1479 217 826 207 
1480 31 634 157 
1481 382 766 384 
1482 553 727 558 
1483 596 612 24 
1484 142 719 542 
1485 581 582 154 
1486 339 703 340 
1487 613 730 27 
1488 539 807 379 
1489 554 824 399 
1490 608 794 609 
1491 303 813 736 
1492 158 620 19 
1493 34 593 156 
1494 682 783 372 
1495 496 805 494 
1496 202 768 200 
1497 257 731 255 
1498 537 717 430 
1499 437 811 435 
1500 420 712 337 
1501 381 732 622 
1502 625 775 377 
1503 183 792 647 
1504 712 777 511 
1505 657 803 774 
1506 521 762 542 
1507 147 734 560 
1508 28 730 159 
1509 463 841 460 
1510 200 774 198 
1511 153 584 583 
1512 155 617 592 
1513 647 792 100 
1514 251 720 300 
1515 635 790 359 
1516 529 798 706 
1517 25 612 160 
1518 170 632 21 
1519 585 622 584 
1520 304 750 701 
1521 18 619 158 
1522 340 823 725 
1523 20 620 170 
1524 825 842 421 
1525 568 754 214 
1526 576 724 563 
1527 581 749 582 
1528 151 723 576 
1529 773 848 376 
1530 421 743 721 
1531 340 725 321 
1532 518 800 519 
1533 520 760 549 
1534 33 618 593 
1535 679 834 422 
1536 157 618 32 
1537 615 853 163 
1538 512 847 559 
1539 669 769 455 
1540 316 855 720 
1541 438 821 779 
1542 597 599 598 
1543 356 768 202 
1544 528 705 704 
1545 432 737 537 
1546 405 745 241 
1547 316 720 253 
1548 710 719 142 
1549 825 854 315 
1550 255 731 316 
1551 434 737 432 
1552 573 765 577 
1553 599 602 601 
1554 480 755 698 
1555 690 697 448 
1556 736 813 493 
1557 700 751 143 
1558 341 697 690 
1559 186 804 502 
1560 759 836 408 
1561 156 595 594 
1562 704 705 477 
1563 561 744 140 
1564 272 797 281 
1565 458 747 703 
1566 626 806 492 
1567 653 843 486 
1568 529 705 528 
1569 605 608 607 
1570 161 597 596 
1571 603 794 776 
1572 198 774 362 
1573 701 750 420 
1574 558 727 570 
1575 434 741 737 
1576 696 816 282 
1577 687 739 192 
1578 570 734 147 
1579 397 853 615 
1580 392 780 662 
1581 571 751 675 
1582 554 825 824 
1583 239 745 361 
1584 470 767 661 
1585 659 764 475 
1586 701 779 304 
1587 158 665 620 
1588 707 817 396 
1589 241 745 239 
1590 159 605 604 
1591 291 763 325 
1592 654 817 204 
1593 617 793 592 
1594 160 614 613 
1595 670 814 465 
1596 776 794 608 
1597 620 621 170 
1598 157 630 618 
1599 204 817 356 
1600 698 778 600 
1601 319 839 403 
1602 650 813 303 
1603 545 684 532 
1604 681 776 606 
1605 356 817 707 
1606 684 829 498 
1607 822 853 397 
1608 694 835 425 
1609 533 746 587 
1610 757 820 440 
1611 659 749 575 
1612 530 843 137 
1613 465 811 437 
1614 750 777 420 
1615 695 739 89 
1616 574 764 152 
1617 263 783 682 
1618 296 763 291 
1619 629 816 809 
1620 642 822 397 
1621 602 852 601 
1622 330 845 735 
1623 528 704 531 
1624 675 829 543 
1625 592 793 619 
1626 605 776 608 
1627 653 849 482 
1628 443 818 689 
1629 629 783 263 
1630 282 816 629 
1631 577 723 151 
1632 192 739 695 
1633 140 744 733 
1634 473 752 640 
1635 732 799 333 
1636 655 814 670 
1637 768 774 200 
1638 420 777 712 
1639 704 744 561 
1640 600 782 698 
1641 543 829 139 
1642 620 665 621 
1643 662 780 168 
1644 520 834 760 
1645 723 724 576 
1646 732 844 622 
1647 139 829 684 
1648 521 835 762 
1649 517 853 822 
1650 584 765 583 
1651 144 835 694 
1652 809 816 509 
1653 478 808 772 
1654 755 778 698 
1655 298 832 791 
1656 152 764 659 
1657 742 764 574 
1658 486 849 653 
1659 145 834 679 
1660 532 798 527 
1661 478 772 630 
1662 697 784 448 
1663 399 824 557 
1664 559 847 552 
1665 618 772 593 
1666 454 840 729 
1667 315 842 825 
1668 729 840 562 
1669 476 742 733 
1670 527 798 529 
1671 649 839 756 
1672 603 795 794 
1673 706 786 346 
1674 637 799 381 
1675 468 845 838 
1676 334 844 732 
1677 477 744 704 
1678 824 825 417 
1679 629 809 783 
1680 598 837 612 
1681 593 808 156 
1682 498 829 675 
1683 421 842 743 
1684 735 845 468 
1685 619 812 158 
1686 448 854 690 
1687 457 751 700 
1688 743 842 252 
1689 630 772 618 
1690 612 837 160 
1691 156 808 595 
1692 737 832 537 
1693 716 831 501 
1694 779 821 304 
1695 158 812 665 
1696 690 854 554 
1697 732 850 334 
1698 634 827 157 
1699 630 827 819 
1700 160 837 614 
1701 657 774 768 
1702 793 812 619 
1703 772 808 593 
1704 607 827 634 
1705 819 827 607 
1706 157 827 630 
1707 838 845 328 
1708 360 799 637 
1709 479 812 793 
1710 333 850 732 
$EndElements
