$MeshFormat
4.1 0 8
$EndMeshFormat
$PhysicalNames
6
1 13 "wall"
1 14 "top"
1 15 "left"
1 16 "right"
1 17 "bottom"
2 18 "ground"
$EndPhysicalNames
$Entities
13 12 2 0
1 -10 0 0 0 
2 10 0 0 0 
3 10 -10 0 0 
4 -10 -10 0 0 
5 0 -10 0 0 
6 -10 -5 0 0 
7 10 -5 0 0 
8 0 0 0 0 
9 0 -4 0 0 
10 0 -3 0 0 
11 0 -5 0 0 
12 1.5 -4 0 0 
13 -1.5 -4 0 0 
1 -1.000000002804313e-07 -4.000000099999999 -1e-07 1.5000001 -2.9999999 1e-07 1 13 2 10 -12 
2 -9.999999994736442e-08 -5.0000001 -1e-07 1.5000001 -3.9999999 1e-07 1 13 2 12 -11 
3 -1.5000001 -5.0000001 -1e-07 1.000000000583867e-07 -3.9999999 1e-07 1 13 2 11 -13 
4 -1.5000001 -4.0000001 -1e-07 9.999999972531981e-08 -2.9999999 1e-07 1 13 2 13 -10 
5 -10.0000001 -1e-07 -1e-07 1.000000002804313e-07 1e-07 1e-07 1 14 2 1 -8 
6 -1.000000002804313e-07 -1e-07 -1e-07 10.0000001 1e-07 1e-07 1 14 2 8 -2 
7 9.999999900000001 -5.0000001 -1e-07 10.0000001 9.999999983634211e-08 1e-07 1 16 2 2 -7 
8 9.999999900000001 -10.0000001 -1e-07 10.0000001 -4.9999999 1e-07 1 16 2 7 -3 
9 -1.000000002804313e-07 -10.0000001 -1e-07 10.0000001 -9.999999900000001 1e-07 1 17 2 3 -5 
10 -10.0000001 -10.0000001 -1e-07 1.000000002804313e-07 -9.999999900000001 1e-07 1 17 2 5 -4 
11 -10.0000001 -10.0000001 -1e-07 -9.999999900000001 -4.9999999 1e-07 1 15 2 4 -6 
12 -10.0000001 -5.0000001 -1e-07 -9.999999900000001 9.999999983634211e-08 1e-07 1 15 2 6 -1 
1 -10.0000001 -10.0000001 -1e-07 10.0000001 1.000000002804313e-07 1e-07 1 18 12 5 6 7 8 9 10 11 12 -4 -3 -2 -1 
2 -10.0000001 -10.0000001 -1e-07 10.0000001 1.000000002804313e-07 1e-07 0 12 6 7 8 9 10 11 12 5 -4 -3 -2 -1 
$EndEntities
$Nodes
25 874 1 874
0 1 0 1
1
-10 0 0
0 2 0 1
2
10 0 0
0 3 0 1
3
10 -10 0
0 4 0 1
4
-10 -10 0
0 5 0 1
5
0 -10 0
0 6 0 1
6
-10 -5 0
0 7 0 1
7
10 -5 0
0 8 0 1
8
0 0 0
0 10 0 1
9
0 -3 0
0 11 0 1
10
0 -5 0
0 12 0 1
11
1.5 -4 0
0 13 0 1
12
-1.5 -4 0
1 1 0 19
13
14
15
16
17
18
19
20
21
22
23
24
25
26
27
28
29
30
31
0.09912685721540068 -3.002185974535981 0
0.1980598087672384 -3.008755594181158 0
0.296599613073935 -3.019744099278291 0
0.3945360664378811 -3.035210721388177 0
0.4916417412454044 -3.055239384049486 0
0.587664736973317 -3.079939577607818 0
0.6823200184751926 -3.109447264675094 0
0.7752787588008052 -3.143925536428756 0
0.8661550780547767 -3.183564554974921 0
0.9544894254917801 -3.228579971272496 0
1.03972770166913 -3.279208365327298 0
1.121195826220181 -3.335697552393341 0
1.198069686646441 -3.398287988434889 0
1.269342780457947 -3.467179869541413 0
1.333797989223539 -3.542478695605576 0
1.389997842143603 -3.624112310605577 0
1.436318088661539 -3.711717462521641 0
1.471059291090724 -3.804512504411656 0
1.492661496488843 -3.901203560793613 0
1 2 0 19
32
33
34
35
36
37
38
39
40
41
42
43
44
45
46
47
48
49
50
1.492661496488842 -4.098796439206389 0
1.471059291090723 -4.195487495588348 0
1.436318088661538 -4.288282537478361 0
1.389997842143601 -4.375887689394427 0
1.333797989223537 -4.457521304394427 0
1.269342780457944 -4.53282013045859 0
1.198069686646439 -4.601712011565113 0
1.121195826220179 -4.664302447606661 0
1.039727701669128 -4.720791634672703 0
0.9544894254917788 -4.771420028727505 0
0.8661550780547764 -4.816435445025079 0
0.7752787588008032 -4.856074463571244 0
0.6823200184751915 -4.890552735324906 0
0.5876647369733164 -4.920060422392183 0
0.4916417412454038 -4.944760615950514 0
0.3945360664378819 -4.964789278611823 0
0.2965996130739343 -4.980255900721709 0
0.1980598087672378 -4.991244405818842 0
0.09912685721540107 -4.997814025464019 0
1 3 0 19
51
52
53
54
55
56
57
58
59
60
61
62
63
64
65
66
67
68
69
-0.09912685721540054 -4.997814025464019 0
-0.1980598087672376 -4.991244405818842 0
-0.2965996130739338 -4.980255900721709 0
-0.394536066437881 -4.964789278611823 0
-0.4916417412454033 -4.944760615950514 0
-0.5876647369733163 -4.920060422392183 0
-0.6823200184751911 -4.890552735324906 0
-0.7752787588008032 -4.856074463571244 0
-0.8661550780547769 -4.816435445025079 0
-0.9544894254917797 -4.771420028727504 0
-1.03972770166913 -4.720791634672702 0
-1.121195826220181 -4.664302447606659 0
-1.198069686646442 -4.601712011565111 0
-1.269342780457947 -4.532820130458587 0
-1.333797989223539 -4.457521304394424 0
-1.389997842143603 -4.375887689394424 0
-1.436318088661539 -4.288282537478359 0
-1.471059291090724 -4.195487495588345 0
-1.492661496488843 -4.098796439206387 0
1 4 0 19
70
71
72
73
74
75
76
77
78
79
80
81
82
83
84
85
86
87
88
-1.492661496488842 -3.901203560793611 0
-1.471059291090723 -3.804512504411652 0
-1.436318088661537 -3.711717462521638 0
-1.389997842143601 -3.624112310605573 0
-1.333797989223537 -3.542478695605574 0
-1.269342780457946 -3.467179869541411 0
-1.19806968664644 -3.398287988434888 0
-1.12119582622018 -3.33569755239334 0
-1.039727701669129 -3.279208365327297 0
-0.9544894254917784 -3.228579971272495 0
-0.866155078054776 -3.18356455497492 0
-0.7752787588008033 -3.143925536428756 0
-0.6823200184751907 -3.109447264675093 0
-0.5876647369733163 -3.079939577607818 0
-0.4916417412454037 -3.055239384049486 0
-0.3945360664378803 -3.035210721388177 0
-0.2965996130739316 -3.01974409927829 0
-0.198059808767235 -3.008755594181158 0
-0.09912685721539991 -3.002185974535981 0
1 5 0 9
89
90
91
92
93
94
95
96
97
-9 0 0
-8 0 0
-7 0 0
-6 0 0
-5 0 0
-4 0 0
-3 0 0
-2 0 0
-1 0 0
1 6 0 9
98
99
100
101
102
103
104
105
106
1 0 0
2 0 0
3 0 0
4 0 0
5 0 0
6 0 0
7 0 0
8 0 0
9 0 0
1 7 0 4
107
108
109
110
10 -1 0
10 -2 0
10 -3 0
10 -4 0
1 8 0 4
111
112
113
114
10 -6 0
10 -7 0
10 -8 0
10 -9 0
1 9 0 9
115
116
117
118
119
120
121
122
123
9 -10 0
8 -10 0
7 -10 0
6 -10 0
5 -10 0
4 -10 0
3 -10 0
2 -10 0
1 -10 0
1 10 0 9
124
125
126
127
128
129
130
131
132
-1 -10 0
-2 -10 0
-3 -10 0
-4 -10 0
-5 -10 0
-6 -10 0
-7 -10 0
-8 -10 0
-9 -10 0
1 11 0 4
133
134
135
136
-10 -9 0
-10 -8 0
-10 -7 0
-10 -6 0
1 12 0 4
137
138
139
140
-10 -4 0
-10 -3 0
-10 -2 0
-10 -1 0
2 1 0 734
141
142
143
144
145
146
147
148
149
150
151
152
153
154
155
156
157
158
159
160
161
162
163
164
165
166
167
168
169
170
171
172
173
174
175
176
177
178
179
180
181
182
183
184
185
186
187
188
189
190
191
192
193
194
195
196
197
198
199
200
201
202
203
204
205
206
207
208
209
210
211
212
213
214
215
216
217
218
219
220
221
222
223
224
225
226
227
228
229
230
231
232
233
234
235
236
237
238
239
240
241
242
243
244
245
246
247
248
249
250
251
252
253
254
255
256
257
258
259
260
261
262
263
264
265
266
267
268
269
270
271
272
273
274
275
276
277
278
279
280
281
282
283
284
285
286
287
288
289
290
291
292
293
294
295
296
297
298
299
300
301
302
303
304
305
306
307
308
309
310
311
312
313
314
315
316
317
318
319
320
321
322
323
324
325
326
327
328
329
330
331
332
333
334
335
336
337
338
339
340
341
342
343
344
345
346
347
348
349
350
351
352
353
354
355
356
357
358
359
360
361
362
363
364
365
366
367
368
369
370
371
372
373
374
375
376
377
378
379
380
381
382
383
384
385
386
387
388
389
390
391
392
393
394
395
396
397
398
399
400
401
402
403
404
405
406
407
408
409
410
411
412
413
414
415
416
417
418
419
420
421
422
423
424
425
426
427
428
429
430
431
432
433
434
435
436
437
438
439
440
441
442
443
444
445
446
447
448
449
450
451
452
453
454
455
456
457
458
459
460
461
462
463
464
465
466
467
468
469
470
471
472
473
474
475
476
477
478
479
480
481
482
483
484
485
486
487
488
489
490
491
492
493
494
495
496
497
498
499
500
501
502
503
504
505
506
507
508
509
510
511
512
513
514
515
516
517
518
519
520
521
522
523
524
525
526
527
528
529
530
531
532
533
534
535
536
537
538
539
540
541
542
543
544
545
546
547
548
549
550
551
552
553
554
555
556
557
558
559
560
561
562
563
564
565
566
567
568
569
570
571
572
573
574
575
576
577
578
579
580
581
582
583
584
585
586
587
588
589
590
591
592
593
594
595
596
597
598
599
600
601
602
603
604
605
606
607
608
609
610
611
612
613
614
615
616
617
618
619
620
621
622
623
624
625
626
627
628
629
630
631
632
633
634
635
636
637
638
639
640
641
642
643
644
645
646
647
648
649
650
651
652
653
654
655
656
657
658
659
660
661
662
663
664
665
666
667
668
669
670
671
672
673
674
675
676
677
678
679
680
681
682
683
684
685
686
687
688
689
690
691
692
693
694
695
696
697
698
699
700
701
702
703
704
705
706
707
708
709
710
711
712
713
714
715
716
717
718
719
720
721
722
723
724
725
726
727
728
729
730
731
732
733
734
735
736
737
738
739
740
741
742
743
744
745
746
747
748
749
750
751
752
753
754
755
756
757
758
759
760
761
762
763
764
765
766
767
768
769
770
771
772
773
774
775
776
777
778
779
780
781
782
783
784
785
786
787
788
789
790
791
792
793
794
795
796
797
798
799
800
801
802
803
804
805
806
807
808
809
810
811
812
813
814
815
816
817
818
819
820
821
822
823
824
825
826
827
828
829
830
831
832
833
834
835
836
837
838
839
840
841
842
843
844
845
846
847
848
849
850
851
852
853
854
855
856
857
858
859
860
861
862
863
864
865
866
867
868
869
870
871
872
873
874
-0.9651321976137512 -4.882733568716915 0
-0.5642391728909548 -5.021207866802914 0
-0.1542827834760536 -5.080207559223473 0
0.2700927044632759 -5.086534426438606 0
0.9683711831904291 -4.878532455366921 0
0.6609658104096436 -4.988358002542647 0
-9.162489195700264 -5.499957856638748 0
9.133974596215561 -5.5 0
-4.520482100500399 -9.087298043083997 0
4.547836723540205 -9.206451315540294 0
-1.133169203581812 -3.233616595413363 0
-0.8723251335336057 -3.075870612982204 0
-0.5479449792176325 -2.995694176895692 0
-0.2568460173389666 -2.928912035635221 0
0.06118117047740299 -2.897274297994722 0
0.3732833741185876 -2.918674390161646 0
0.6664045256182933 -3.027231486357253 0
0.9493062038381725 -3.129573537811391 0
4.393006713341979 -0.7506770240926368 0
-4.385522473618207 -0.8866242688561892 0
-1.537329059878134 -3.727005695758673 0
-1.434902916984499 -3.533270870565782 0
-1.479803483226751 -9.280201094885498 0
1.538810007232236 -9.160798497155278 0
-1.296787497711552 -3.367783782581794 0
-1.129381677056555 -4.763098836649986 0
1.129381677056553 -4.763098836649987 0
1.133548191232812 -3.231198198698085 0
-0.7597025512195065 -4.956467771537598 0
0.4604341709304838 -5.038870620260491 0
-0.358962291345018 -5.057337817844743 0
0.05145653695650434 -5.084753337973368 0
-6.521572479236827 -0.877941463050341 0
6.461250396649953 -0.6744881495076571 0
6.52703030342987 -9.052290704518567 0
-6.483446485106207 -9.264676297159021 0
2.556321889874834 -0.8169626118641133 0
1.497959832289928 -3.624784905685307 0
1.375907119859321 -3.443516711504291 0
9.059160416169295 -3.470825818797834 0
-9.170059724014195 -3.531321748604925 0
-2.480057079697952 -0.8068811722009306 0
9.13742924336818 -7.536931740590081 0
-9.144586474137903 -7.478064074175785 0
0.6020987744424402 -0.9278263757143392 0
-8.5 -0.8660254037844384 0
8.423522748519026 -0.843425525603597 0
-8.501292696384876 -9.260666052318228 0
8.485314369717397 -9.256964900162107 0
1.35730237614262 -0.8241057335166673 0
1.100116495114207 -1.487773521331431 0
0.1746849894130347 -1.540803294697959 0
0.6359438660006885 -2.127714162490583 0
-0.1332769564735178 -1.037108696821122 0
-0.3621093060291561 -1.613307362172295 0
-0.7193668200373029 -1.181415842537172 0
-0.8581444924435734 -1.732814164629333 0
-0.5471376364510193 -2.120036898956502 0
-1.00210433797893 -2.176849515476647 0
-1.318575456950167 -1.878127927259668 0
-1.401048431856319 -2.318953325903091 0
-1.734853272681307 -2.052002907703025 0
-1.783529343469666 -2.514264040769826 0
-2.129258439417178 -2.218268064532136 0
-2.184584425942035 -2.599099572956735 0
-2.525647182083141 -2.346112487262221 0
-2.535295112614343 -2.792128065117916 0
-1.528677745993856 -4.260274539712842 0
-1.589232491612773 -4.055657956700646 0
-1.435645557812664 -4.475352884330499 0
-2.921013243448697 -2.495468517152555 0
-2.99890201799436 -2.927570404576301 0
-2.655520668192765 -3.200745161956053 0
-3.073061765099816 -3.369924392350078 0
-3.473501708434997 -3.077916734451923 0
-3.543482573812445 -3.595324464954587 0
-3.99242494140408 -3.258949330517463 0
-4.073775824169164 -3.844952681370274 0
-3.514785024985154 -4.19817037510381 0
-4.125450727583619 -4.451190305916432 0
-3.633040545580395 -4.820749812718863 0
-4.205262411432908 -5.073692249412042 0
-3.683706732417361 -5.457334608373078 0
-4.651401303785563 -4.125116037397721 0
-4.305841029902622 -5.740697081211909 0
-3.716587828021616 -6.142591870669547 0
-3.09003292524514 -5.768524496974651 0
-2.712507026953308 -3.623847166838023 0
-3.143789340786472 -6.494195230984607 0
-2.605318774719808 -6.180521236121024 0
-2.516477955029424 -5.648756190564975 0
-2.071287366271234 -5.922273002326072 0
-2.133764809678212 -6.469364846716505 0
-1.667464475993832 -6.229980489216334 0
-1.683353158975314 -6.726664709705699 0
-1.258962403115009 -6.481556035010406 0
-2.097955926435916 -7.02041138587521 0
-1.254100756191348 -6.980097258874435 0
-0.8155198676173075 -6.724801003873819 0
-0.8172682934548373 -7.236091111391437 0
-0.3924777565319604 -6.968850271036173 0
-0.4075205567892736 -6.488644011052763 0
-0.005738377618045043 -6.716995405440947 0
-0.0002813207124309769 -6.284547581484736 0
0.3570156967265699 -6.478154733290721 0
0.3866594125509999 -6.915864240696905 0
0.7443045574735819 -6.67836124585065 0
-0.3151819506489844 -7.43382708315727 0
0.7241595064793775 -6.264769755778929 0
1.070886512680943 -6.43912229610436 0
1.012697715128924 -6.060595694169614 0
1.370077657638811 -6.156507479178863 0
1.53250029842637 -4.270889578461775 0
1.581890974400598 -4.055753550069618 0
1.432127355115506 -4.464909340425311 0
1.430766319794553 -6.58078530624162 0
1.72982619743661 -6.334532263794008 0
1.702050165889367 -5.97239996008086 0
2.033161510476414 -6.084807431336993 0
2.099045841128697 -6.472128973605969 0
2.400949308712999 -6.210684032438046 0
2.317283861634449 -5.818679006650219 0
2.701513341620452 -5.939429140065226 0
2.605798788178843 -5.556520658109235 0
2.999734924746664 -5.659519802348401 0
2.905308642112529 -5.254068029329493 0
3.316749892370219 -5.374236262182539 0
3.214747115979557 -4.951006583040706 0
3.661398309826829 -5.068736188356959 0
3.757430855249317 -5.546603774197982 0
4.144793461062454 -5.199231498611628 0
3.544112704609113 -4.61119869952682 0
4.241963854416536 -5.743601588322694 0
4.675738137469573 -5.349388487362626 0
2.798588635852966 -6.346863143456616 0
4.790878400079506 -5.932251955040882 0
5.249112700854521 -5.535879290544075 0
5.11148374146139 -4.92135251425708 0
3.057216993713838 -4.49743387922226 0
3.399910530375483 -4.161821603053713 0
2.914558640485517 -4.030410435636225 0
3.27538966742934 -3.715015170713009 0
2.854777986965139 -3.591495806999699 0
3.188462882665761 -3.2561908097668 0
3.631653177377933 -3.466425866418296 0
2.745037600646617 -3.12916664491912 0
5.72565284012006 -5.109711823722223 0
5.856429460090325 -5.757999694001573 0
5.561534880996847 -4.443519771858369 0
2.188863852536505 -5.430212046144677 0
4.324495096461014 -6.330026927240032 0
-0.3141133015244902 -6.093305981413128 0
2.667326761515193 -4.343294442008254 0
6.234951391223488 -4.652965064801632 0
6.056690922743454 -3.936653283497956 0
4.917624778280338 -6.541640515353343 0
-4.359378043945013 -6.467055916682909 0
-4.97879932933512 -6.031081800463455 0
-2.074360092263311 -5.464058392354745 0
-2.418639216644174 -5.209348757789299 0
-1.262749465496517 -5.995820804462058 0
0.724208140494407 -5.910570124157969 0
0.9631162227762824 -5.73900149440213 0
3.093506533840851 -2.760130519532357 0
-0.04842290671984797 -5.928137741947336 0
2.515720662693453 -2.665640288120325 0
0.7987324702910901 -7.143478492436541 0
-0.2915433548431327 -5.78229096005829 0
-5.040888027611676 -6.798458953497577 0
-5.674265293044382 -6.352580440603735 0
-1.910628449977503 -2.861036417169587 0
2.460291197620202 -3.452748558790431 0
-2.365893765020041 -3.481799665690486 0
-2.40736798281837 -3.833366949120963 0
4.419433849151656 -6.946683329917617 0
5.049520663246281 -7.195780945020816 0
-2.013041814481806 -5.063834799492663 0
-1.792800923586886 -5.292930510086179 0
0.7269410727447416 -5.61587416167379 0
0.9353727257775871 -5.473204060765221 0
-5.59000297053624 -5.573635848097815 0
-6.314586560988506 -5.892294384588835 0
-6.224323801049007 -5.096014745194776 0
-6.378446185856248 -6.663381222745086 0
6.780410945547435 -4.162442855396837 0
6.604856708383359 -3.418450650122473 0
5.851370687089066 -3.210391806381493 0
6.941807073589422 -4.897356751861209 0
-0.06397582094919911 -5.654441299735044 0
3.896845449941871 -4.231761114476842 0
-2.328248553451211 -4.83060845752087 0
1.165700535990409 -5.570517880488275 0
1.105001530305331 -5.302201127823633 0
1.344941148188824 -5.40542715104137 0
1.306441457794806 -5.184685637697259 0
1.520883321408035 -5.264747284834794 0
1.464682306178364 -5.024249556856507 0
1.295280488867313 -4.632748499312504 0
-3.900928212187361 -2.685447905227607 0
-4.500632454751067 -2.879726736611921 0
-0.2656809735815168 -5.511813672896528 0
-0.4880653649005154 -5.633082334629259 0
-2.008693989484517 -4.720187319476528 0
1.693405106257777 -5.121950793244634 0
1.663405801130347 -4.913683114353883 0
1.869862852305884 -4.983362441406809 0
1.814937693522652 -4.75010256717182 0
2.055035913285717 -4.841901594999731 0
2.008101970396905 -4.608717784744878 0
-6.968898080964363 -5.421276884620362 0
-6.872911041395861 -4.612102502295455 0
-1.286664712913548 -7.477983033798639 0
-2.089914776042486 -3.730996213947314 0
-2.137699991682341 -4.010396944436134 0
-4.403745612548207 -7.23364009472489 0
-5.113891961171747 -7.584784204170639 0
2.957867685040054 -2.214597963087564 0
3.512894968612177 -2.347036381131559 0
0.7210675327667639 -5.37777076753449 0
0.5311012347051739 -5.494307556079781 0
-2.893062863090377 -2.02349925777684 0
-0.4476445744482973 -5.403728798131112 0
-0.6635419669944848 -5.449524464423744 0
-2.726099427676879 -4.011612790166851 0
-6.129590100461592 -4.275186655820302 0
-6.77658447503477 -3.802063727006705 0
-6.009765527311707 -3.458986004647874 0
-6.68926085490974 -2.976618734319986 0
-5.841950990538006 -2.724186175145348 0
7.522921416744472 -4.401374411523579 0
1.805503879578014 -4.522898534768793 0
1.96525286401559 -4.389081274753543 0
-0.0711086120471839 -5.415028301901574 0
-0.7114347094832582 -5.725071216299396 0
-0.8958463509043881 -5.562660673720183 0
-0.8677404771906285 -5.328807720032843 0
-1.078031684362032 -5.40981079270861 0
-1.07640678565839 -2.550113018908308 0
2.399364170219345 -2.079850008677059 0
1.999812207501813 -2.465864684226734 0
6.414573735967417 -2.646922806186744 0
7.20573880496593 -2.863289849907744 0
5.643590415828861 -2.455722443064441 0
5.095599709604814 -3.005809357625072 0
3.43591765630405 -1.707739712910566 0
0.1481179052987254 -5.759401819920707 0
-2.069199699959135 -3.39797744400418 0
3.847475433724887 -6.716629544533738 0
3.924090435912934 -7.349109671894718 0
-1.042861728390154 -5.178910982150909 0
-1.251956229513133 -5.260878396489812 0
3.290308840062655 -7.054228059392085 0
3.412805119190461 -7.740588659302964 0
2.812476067098971 -7.506755812149875 0
2.90780422572368 -8.17482140246069 0
2.294020950800895 -7.936208138861402 0
-1.326976776852486 -5.483978061001052 0
4.750401255365094 -2.283768125347505 0
2.252026877641557 -4.702027406989032 0
-7.638756757336132 -4.908844197295653 0
-7.72180078996237 -5.676853721851161 0
1.73318547758759 -5.355764436942172 0
-1.206470125689635 -5.05119278275776 0
1.844786323669153 -1.991464677321698 0
1.549992654144161 -2.375761609514009 0
1.638770760109053 -2.780700086535543 0
1.28652479745446 -2.63656466381382 0
2.060123421717564 -2.88767672708719 0
1.787582019735953 -3.141886774756205 0
1.492554811335933 -3.053020699090055 0
1.12192127631425 -5.092168627737323 0
-1.841597047962519 -3.593251174401145 0
-1.822880080922395 -3.341714050237326 0
7.681160605218342 -5.171122938694967 0
7.093762476857517 -5.676342507228921 0
7.824197567565303 -5.952989979501623 0
7.213672138807644 -6.499089743639179 0
-1.677417591494014 -1.60507308011912 0
-7.483729265090716 -3.34518048830679 0
-7.390893709588306 -2.440155451335611 0
-4.401218396595896 -2.198106929961574 0
4.898724809795021 -4.287076583565699 0
-0.08574099543995096 -2.002539040379916 0
-0.22069925723141 -2.416496988894818 0
0.1163399055906747 -2.321533456040062 0
-0.5457710152004537 -2.478445118317854 0
-2.719289245484878 -4.872919373772596 0
-2.280189731435907 -4.483218084487015 0
1.484230323397225 -4.811288173564558 0
5.431301889531076 -1.708917584690943 0
2.352402680352434 -4.942431455365468 0
2.548350355561272 -4.777239124849479 0
-1.428480014678226 -2.679489287728974 0
-1.195866292615249 -2.896597499140517 0
-1.436832891357325 -2.962240223192373 0
5.551604948985291 -6.760818989533747 0
5.746985438741872 -7.49974925986551 0
5.142655374613838 -7.917023349182602 0
1.756595867202643 -4.328590314912554 0
1.917581299671989 -4.187459917373018 0
2.129749667957795 -4.249996979902963 0
2.069087808653984 -4.034747673707472 0
1.576150589773905 -3.825167687679032 0
1.843702370733456 -3.975373555005099 0
2.004884519698694 -3.82303106502698 0
2.301206207006005 -4.092063209591331 0
0.5384820273673592 -5.291447706872443 0
0.4057334139932007 -5.383359405865598 0
-0.9202327457524249 -2.809875876916058 0
-1.764796928631665 -4.874428244256116 0
-1.296282511133547 -4.634483347995044 0
-1.732491516914462 -4.614423674517105 0
-1.540766860613291 -4.763302948775249 0
-1.547787677684429 -5.009299089975307 0
-0.9070109660589125 -6.235368770923696 0
8.390692777838725 -4.718787062981309 0
4.022988163661376 -7.964853562140822 0
0.2833125692063558 -7.461097116160378 0
0.8496367422384136 -7.65318161971051 0
0.3769489769013427 -7.973749392656621 0
1.318067722738064 -7.315576093606954 0
1.331110660518143 -7.915297811904768 0
0.1161893053754363 -5.51270127201524 0
0.08089190947363946 -5.296234006486015 0
0.00392720549023914 -2.614587486729868 0
0.2569942783952187 -2.559989755478697 0
2.260419508780585 -7.321629459409426 0
-1.881095646774261 -3.830828238297926 0
-1.886554645184569 -4.089904178823359 0
-1.938335021724916 -4.449681328058487 0
1.151689945790705 -2.329709868593413 0
0.9735863728525841 -2.608998994680836 0
1.812233650269199 -3.762386189469505 0
1.957766874782832 -3.615634389800249 0
1.735767619901288 -3.564176123416899 0
1.067237190906949 -2.866304798190888 0
-3.709324748234601 -2.067013642982501 0
7.036377526922784 -2.072612333690298 0
7.833755978500415 -2.276084290409478 0
-0.3742094841594003 -2.648146512894617 0
-0.5929232634285222 -2.735696818224667 0
1.260607393036212 -4.995531527989377 0
0.8356892893227981 -2.802850604942945 0
0.7231382153821621 -2.603973574940213 0
0.4396720449159479 -6.075065194532106 0
0.877510577603644 -5.256292537592984 0
8.070507086703548 -6.674207877098715 0
7.395746701425653 -7.342305101990555 0
-2.301949110267622 -3.14826888213427 0
1.665519482485332 -4.458006506874469 0
1.641901008991697 -4.603029666818374 0
1.553153573033821 -3.278825727596666 0
4.361342736170523 -2.849042731498147 0
0.6991231865066316 -5.182483354234066 0
0.8465112972344788 -5.073281910357453 0
1.403321580441465 -5.642450584905997 0
-1.651829947390203 -5.851902339973752 0
4.6033863677659 -3.56569265244241 0
-0.2912253471613238 -5.310235153851044 0
1.350228139843424 -3.222468550927914 0
-1.652179791041149 -3.469208445727467 0
-1.596937822495013 -3.285064869501953 0
-0.05204393800352635 -5.264023245684809 0
2.331509047002772 -8.673832298911595 0
3.431491094641918 -0.8631805789182465 0
-4.454617384378868 -8.074555033132588 0
-3.745333056020351 -7.680789180526649 0
-5.224513821946852 -8.404301007529146 0
-5.860695174073315 -7.821073957990084 0
-3.777966786791176 -8.48986487724275 0
-3.080267630623288 -8.113551519279394 0
-0.7884255858353032 -2.591246416662803 0
-3.409766825742483 -0.7451949814420029 0
-0.8595741192152551 -5.143880903320557 0
-0.7233753266366622 -5.224856724212274 0
-8.398328668409382 -2.898871889061193 0
3.000264839959399 -8.940062057435403 0
0.379785372772184 -5.193553778110153 0
-1.701599493575084 -4.410432867725631 0
1.103768648015663 -4.916987240064265 0
4.045676052101784 -1.946993398357316 0
1.256459698068966 -3.039233377952075 0
1.378428439594479 -1.955626370252201 0
1.634183678500889 -1.458058134870091 0
6.378432004131051 -6.918198496872128 0
6.469511096699048 -7.722561842081512 0
7.216866986159715 -8.319093923469666 0
8.177701608378305 -7.944716020680222 0
8.040105901453604 -3.113071345617501 0
8.661023169990198 -2.42107405203789 0
2.069151858692998 -3.182897440562017 0
-0.4302688752680791 -5.232459090178878 0
-3.026322798961568 -7.344878018519664 0
-2.427347173757137 -7.80487072361404 0
-2.448544487656723 -8.502197539654997 0
-1.763163976897663 -8.165928791941807 0
1.751618195449036 -4.144902143785518 0
0.5178156221517469 -5.758316309752297 0
0.4031757265981762 -2.335974167299965 0
1.562435986637493 -4.165093827842423 0
0.6374902475021955 -2.787257368908548 0
-1.351728510848354 -4.920929948576712 0
-5.439249809462073 -0.8309512649240443 0
-5.949236372170388 -1.515817262137335 0
1.962079356560531 -5.695151412792859 0
-4.999628229564406 -1.616402805152817 0
-1.570090799138691 -3.834071227705512 0
-1.639595545119134 -3.75850131139499 0
-1.707549739440501 -3.861606390595741 0
-1.301441117036622 -3.104535489108672 0
-1.630403258617036 -0.6891935565779086 0
-0.4344431592917311 -2.824203021978092 0
5.503578517733958 -9.220260897709462 0
2.498344379422799 -3.826860721368987 0
0.8413815347999485 -2.360231850813998 0
-1.76682645189071 -3.08834594654241 0
1.588426217347271 -3.941347719498163 0
-5.041135327329828 -2.4547102613335 0
-5.18669670458898 -3.159307302881888 0
2.668652368123594 -7.005773346437646 0
1.542826055920176 -3.720103152736653 0
-0.5538583281813765 -9.22651368691348 0
0.3893594377930292 -9.13620398282851 0
2.184536631744708 -1.4994083614092 0
-1.572863405013835 -4.165957714478504 0
-0.9984730055001024 -3.023834073921203 0
-8.195146988627222 -1.735055495666218 0
-9.187175785743879 -4.511228352074764 0
-8.309369554548592 -4.036309277946452 0
-2.386995695603882 -4.16240250366901 0
-2.692692393379332 -4.389507859391904 0
1.484879684705949 -4.369570429380268 0
7.664989268866205 -1.452682633353495 0
0.1555195842297071 -2.781972231420744 0
9.098539236980381 -6.534167888126948 0
-9.185644921406359 -6.490150275523706 0
-8.381131848293865 -6.971859571154784 0
-8.277764716294961 -7.87797185289378 0
-7.597661998124307 -7.412235511657798 0
-7.476827858907857 -8.283040469329478 0
-0.9633790895704735 -5.017323989870808 0
-1.1016633611261 -4.921148845662541 0
0.3345488358854725 -2.766752656099168 0
1.369524389143747 -4.55326309253276 0
1.414149746014393 -4.669303373060933 0
1.319097872486516 -4.751297985402315 0
-9.05334001039823 -2.193841500796099 0
-7.20757323874251 -1.531285280697259 0
-1.489021699940457 -3.627802783465685 0
-1.217138310601099 -4.706090376243747 0
1.213835998361995 -4.699579899760461 0
-3.134264021478764 -4.606067171193709 0
-1.529419031088692 -4.366783103434086 0
-1.560835725023765 -4.496445430630901 0
-1.482613597237818 -4.594320390664942 0
-0.9430111324394433 -5.856278741074206 0
-5.488691317359118 -4.779458435891676 0
-1.040875939067173 -8.48926525263844 0
-0.3025406270248415 -8.516445515520461 0
-5.359381777939141 -3.912575769793715 0
5.395370222508372 -0.8056173735843961 0
3.819845432140626 -6.097417150202363 0
1.040483251807881 -4.817383185083683 0
0.9846560363344754 -5.006317462676661 0
-1.044154353905119 -4.825753094137175 0
0.9368476557155659 -8.457841744058442 0
0.8666050928963316 -4.930743218160152 0
5.336271384589895 -3.729087597169062 0
1.444447665770968 -3.53086855020769 0
-3.732526113380538 -6.893858385351377 0
3.329443995537186 -6.422309212787367 0
1.572979531908925 -3.532209871035641 0
-1.703341934239063 -4.140183012309778 0
-3.082160355959252 -8.936579928341226 0
-1.215630069478963 -3.298700380734159 0
-1.32160809401687 -3.251644575239439 0
-0.8573852945522343 -4.920320785830516 0
1.30388736274984 -3.359930436551854 0
7.525102610172822 -9.201209573643181 0
1.219010506224862 -3.294064745965285 0
-0.662102920588815 -4.992272258705393 0
-1.371229789385279 -3.445735816930356 0
-4.872024057189715 -5.315298707112214 0
-3.105044003614094 -3.84015626795476 0
1.683477819455142 -4.016196339356496 0
0.3589622913450187 -5.057337817844743 0
0.2195856264350421 -5.20526265611911 0
-2.075846993259176 -4.243054383023471 0
-1.04294932878225 -3.172439928238345 0
-0.2574024446327062 -5.075791564808672 0
4.517474059873949 -4.823514124549447 0
2.368987141221744 -4.327471311441052 0
0.3415105328256838 -5.585046522621576 0
-0.4614160410174413 -5.040401542352291 0
-0.5202955822600857 -5.12922099278381 0
0.155980493267239 -5.085987240078144 0
-0.05133668223906904 -5.081152208005113 0
1.045899277781937 -3.172519350914081 0
1.048776428874721 -3.053628446493696 0
0.901057921070381 -2.98875873177698 0
2.218935369427498 -3.67153768050057 0
0.7603337474031144 -4.96025456794565 0
0.5618374486939794 -5.018507673975426 0
-2.934176601917101 -1.432571197537636 0
-2.37692308455705 -1.436817010635741 0
0.3045893064694968 -1.982660541001727 0
5.902494780866167 -8.388775068392501 0
-1.641439275022096 -3.633016971981891 0
-0.2102619525430115 -5.178978029577163 0
-1.500554706260882 -3.434004085112106 0
-1.226973224077614 -4.824314434712609 0
-1.337097407056685 -4.752157408632678 0
-3.18544871628586 -5.112997187859875 0
9.219507725181614 -4.5 0
-0.9493062038381718 -3.129573537811391 0
1.640175981717956 -4.231291030408667 0
1.793408404260556 -6.737464228927465 0
-6.498256442303166 -2.127965958820415 0
0.763050240826128 -3.042303143030889 0
1.754914935928001 -3.354175076342148 0
-0.7643322881403792 -3.037351439203601 0
0.5800338096368922 -2.949551601293528 0
-0.6561218908467163 -3.01010976920235 0
-0.7304545982475152 -2.89374855096098 0
-5.540581521122425 -9.228577134131983 0
-7.024422082571054 -6.176949516283051 0
-0.4614454909308041 -2.956226161150314 0
0.4629398991456602 -2.955630853738754 0
9.007149240005676 -8.522682006028592 0
-9.038444757914068 -8.496661530105911 0
0.2520994023934069 -2.901856216499947 0
-4.225724913987524 -1.611720799965965 0
0.545966223391479 -5.135902962015169 0
2.827583187970817 -1.530289872811126 0
-5.735583265361762 -7.093125066020296 0
0.1545851982855009 -2.915238327858674 0
6.232995954273582 -1.91863922329625 0
-0.05523638835079932 -2.905320715279293 0
0.005240342391161102 -2.801265933622719 0
-0.1391898598907445 -2.807174936688968 0
-0.3540937449406049 -2.925406132247831 0
-1.591102374587161 -3.942089855965918 0
-0.1496917863126291 -2.930469851264124 0
1.226137763910278 -4.841769511215836 0
2.479758339437141 -5.222775626079535 0
9.170192091522038 -1.593988814228439 0
-1.528044389291637 -5.254681615121319 0
7.37429382102084 -3.64271687332263 0
4.658126534716717 -1.538216173377643 0
-6.732495893138312 -7.858797638298684 0
6.519670343523159 -6.210930374991414 0
-2.005640312266348 -3.119438328906387 0
1.487259757884531 -4.574602939911289 0
-1.377197386605438 -5.099396366584182 0
-7.519706106254214 -4.124441451717477 0
1.141231533011443 -3.137586698808487 0
5.387527372731519 -6.140141735976428 0
4.000681292739867 -4.746088406009015 0
6.395378930900661 -5.384217702767828 0
-8.46596016166677 -5.003248685571138 0
2.338097915314961 -3.126090719695649 0
0.4923276506064178 -2.615126204459783 0
1.126907587295271 -6.876246785643946 0
4.513028052952871 -7.581791584072916 0
1.220062935365625 -5.845616070232801 0
3.412334227301868 -5.795886258790732 0
-7.474675668513439 -9.132466939027939 0
3.048323025011828 -6.032801511489668 0
0.1073402341631981 -5.183605550377826 0
-0.008685220608326816 -7.099326823298335 0
-0.1884612161538192 -2.64209472535706 0
1.417860839037226 -3.34459704431418 0
-4.542125709200262 -3.476102925611133 0
4.421566878355383 -4.046083272092775 0
-2.620708662501619 -6.785691484184387 0
-2.318386256708409 -9.240308004825152 0
-0.5293593940338771 -5.907837570716003 0
-1.325738053778435 -1.296291416312409 0
-1.36789624348862 -4.559720242222701 0
-3.047189821049761 -4.225244374665717 0
3.992843610221289 -1.361361377531281 0
-1.653997326476765 -2.852620314240718 0
-1.643745663494475 -7.1762866946255 0
2.196056976137506 -4.473346416377969 0
1.682080895888326 -5.64938998476881 0
-3.349248200477947 -2.64084676979884 0
1.536882484702848 -5.463555888498628 0
1.789669426516342 -7.684157430524518 0
-0.3281026159339369 -5.16369639496207 0
-1.643534747305662 -4.267725749387944 0
-1.824868805881411 -4.266830253221444 0
-8.499790758972328 -5.996057466129202 0
1.537398353821554 -4.683965178123068 0
1.695937482306015 -3.874933528905129 0
2.374116778838882 -9.354938570700456 0
1.70429744980015 -8.357332383552873 0
-2.785977611737895 -5.322509201392279 0
-0.8549200993837186 -2.962769094133581 0
1.922526739563579 -5.232926543637328 0
3.538956590418992 -8.396354009820255 0
-7.499999999999999 -0.6927271648403046 0
4.053742286333886 -3.746449671838063 0
8.09172914903025 -3.897672127367647 0
3.710972147519517 -9.18848035232009 0
0.8521340161640026 -3.094030692117117 0
-1.149915679896343 -3.104207540646239 0
-4.663547284572287 -4.693226827596392 0
-0.7361705893360031 -7.876065216895581 0
8.312518426000118 -5.495110129722355 0
2.893510430547775 -4.794043659579693 0
-1.122815630104869 -5.635229860095272 0
-0.747392942895011 -5.072578477487419 0
-0.5689655102902114 -0.5418277984843822 0
-3.607187378355344 -1.410393452414342 0
-3.676121848650165 -9.302748569733595 0
1.93437152497706 -5.457919633158471 0
-0.5610593346110873 -5.258922322586862 0
-2.486391530283805 -1.87805979940555 0
2.144741729580209 -5.108934951272258 0
-0.2912072469625443 -2.795989560800298 0
2.218491656841796 -3.889648070039068 0
8.377885905666369 -1.666462857402528 0
1.506127999699726 -3.418243794990178 0
2.48882146314932 -6.599620846623304 0
2.189809575941123 -6.877318315420553 0
1.348309451575072 -2.875164725116477 0
-1.687079720842159 -4 0
0.2351980724050376 -5.349977366599626 0
-7.717567617951001 -6.516553772274569 0
0.7206138351264212 -5.05898649474365 0
-1.426042962431072 -3.331206483011817 0
-1.452214426121967 -3.178999663425913 0
-9.168587088388172 -1.420689384040156 0
-1.377730800880898 -5.730865492697951 0
2.556493358707795 -4.114035313300806 0
-0.6022290254298557 -6.194205210808314 0
1.671634246257116 -3.729129682422482 0
-3.216651242068588 -2.198234199322703 0
-1.66070133363861 -5.535036501620667 0
4.990980748922487 -8.623124995964341 0
0.7404200878789149 -2.921320982031869 0
0.1879250602694128 -6.028372033260176 0
1.343690280763922 -4.872355362965813 0
-0.6388000551789046 -5.105769560081149 0
0.4801039694825375 -2.832165512443572 0
0.9871201435584358 -5.146052333237611 0
3.706131661492627 -2.92153409914384 0
0.9767181445742528 -1.989385384912353 0
-0.5705555636604869 -2.902613083068683 0
7.469001023173764 -0.6541283598217067 0
1.487045146690471 -6.935980582317274 0
-0.8374867994904961 -5.022114385609379 0
0.6372538246120897 -5.080763966398261 0
-0.7865558224074387 -2.371671800192351 0
2.680989328541346 -5.018290934027534 0
8.516305941592075 -6.095713534582583 0
-2.059692730498681 -1.729027902226544 0
-1.048894728544597 -0.7417457227823743 0
-0.7580090483159414 -2.757641915691127 0
-1.882594433107263 -5.688688771886152 0
1.958609476944433 -3.410647878955388 0
-1.22759513186202 -3.194221658055328 0
5.990532882234228 -1.267115157970842 0
4.604798136911232 -8.164779825147912 0
9.267949192431123 -9.267949192431123 0
-9.267949192431123 -9.267949192431123 0
-9.263035531303581 -0.7292139039941823 0
-1.542921808257695 -3.533669154820355 0
-1.277031078103195 -8.000311442688201 0
9.273040735444942 -0.7269592645550569 0
1.601800164480443 -4.353287282356271 0
1.944217292568834 -0.9860451112477016 0
0.3227400439763997 -8.517027306358582 0
-6.965984454675688 -6.994398213062307 0
-6.104229218072106 -8.51738870842922 0
-0.1374472329411513 -7.956289425267403 0
2.975674884765395 -6.687822353780192 0
1.806403297487857 -7.145354351701031 0
1.651361517824289 -4.759210026188278 0
4.088276130777258 -3.310361627009798 0
-1.585686521923542 -4.616805034149174 0
0.2489245716386285 -6.243037166604974 0
1.461943375050329 -5.865077010895813 0
2.45222333559145 -4.562783740436347 0
-1.945952554247526 -1.203886369107627 0
-0.1639359977446229 -5.284715594666639 0
1.610237240550476 -3.63312725982378 0
-2.168933830693399 -2.885718673351182 0
1.546214127058337 -4.467941448524491 0
5.959513948099131 -6.312259971384951 0
4.236088751828968 -8.590674010155618 0
2.175367957970227 -3.430998856083719 0
2.723725575385906 -4.594958969219206 0
-5.618062931164097 -2.108343680888082 0
-1.742255450863702 -3.735440817334339 0
9.435620897803455 -2.499265341788013 0
-1.730442025536344 -5.087934187109326 0
-6.334640994621065 -7.286155219623291 0
-5.075510818473763 -4.386480065658059 0
-3.254516734835522 -1.808628195405655 0
-1.862893538363956 -7.557317217971056 0
-1.822888829763829 -3.948653616274971 0
8.419261277806859 -7.301201035068325 0
1.221474069098778 -3.1913541199845 0
-1.581361783668356 -3.073454203380674 0
-0.7386090454890694 -5.983752301964323 0
0.003950015494007883 -5.171848248856443 0
4.310992090912245 -4.432313299658043 0
0.6191933986774787 -2.408603992000908 0
-2.508605759815993 -7.267716383485901 0
8.053633620960481 -8.649870114379571 0
6.873197341628151 -1.358449268557361 0
-0.1973041443950947 -5.38760202471595 0
-1.810154828711344 -8.73558013678918 0
-1.221708805435426 -4.929396502927406 0
-1.404931323905992 -4.660796867658123 0
-2.505104980937832 -4.644063443793097 0
-0.6934924779494349 -6.444631938538985 0
-6.802044279898414 -8.548867844730893 0
0.6451052838202361 -1.644417330811987 0
-1.955149189713808 -3.950836230316023 0
-6.553326782182964 -1.511591357013558 0
-0.4198090811649122 -5.124623167624359 0
8.690272517054972 -4.146821252286697 0
-1.078593576194091 -5.042144150110505 0
4.060698950143509 -2.466973305581426 0
1.632085335288057 -3.426136337980485 0
1.643919791532045 -4.122647378292545 0
-0.1060292599385983 -5.171670911566579 0
-8.132006592902062 -8.604966560217179 0
-9.327548663320258 -2.835280119253087 0
0.3385400315328863 -5.870716160385443 0
6.5289757917887 -8.370680384615561 0
3.651508222291703 -3.864294685299984 0
$EndNodes
$Elements
13 1748 1 1748
1 1 1 20
1 9 13 
2 13 14 
3 14 15 
4 15 16 
5 16 17 
6 17 18 
7 18 19 
8 19 20 
9 20 21 
10 21 22 
11 22 23 
12 23 24 
13 24 25 
14 25 26 
15 26 27 
16 27 28 
17 28 29 
18 29 30 
19 30 31 
20 31 11 
1 2 1 20
21 11 32 
22 32 33 
23 33 34 
24 34 35 
25 35 36 
26 36 37 
27 37 38 
28 38 39 
29 39 40 
30 40 41 
31 41 42 
32 42 43 
33 43 44 
34 44 45 
35 45 46 
36 46 47 
37 47 48 
38 48 49 
39 49 50 
40 50 10 
1 3 1 20
41 10 51 
42 51 52 
43 52 53 
44 53 54 
45 54 55 
46 55 56 
47 56 57 
48 57 58 
49 58 59 
50 59 60 
51 60 61 
52 61 62 
53 62 63 
54 63 64 
55 64 65 
56 65 66 
57 66 67 
58 67 68 
59 68 69 
60 69 12 
1 4 1 20
61 12 70 
62 70 71 
63 71 72 
64 72 73 
65 73 74 
66 74 75 
67 75 76 
68 76 77 
69 77 78 
70 78 79 
71 79 80 
72 80 81 
73 81 82 
74 82 83 
75 83 84 
76 84 85 
77 85 86 
78 86 87 
79 87 88 
80 88 9 
1 5 1 10
81 1 89 
82 89 90 
83 90 91 
84 91 92 
85 92 93 
86 93 94 
87 94 95 
88 95 96 
89 96 97 
90 97 8 
1 6 1 10
91 8 98 
92 98 99 
93 99 100 
94 100 101 
95 101 102 
96 102 103 
97 103 104 
98 104 105 
99 105 106 
100 106 2 
1 7 1 5
101 2 107 
102 107 108 
103 108 109 
104 109 110 
105 110 7 
1 8 1 5
106 7 111 
107 111 112 
108 112 113 
109 113 114 
110 114 3 
1 9 1 10
111 3 115 
112 115 116 
113 116 117 
114 117 118 
115 118 119 
116 119 120 
117 120 121 
118 121 122 
119 122 123 
120 123 5 
1 10 1 10
121 5 124 
122 124 125 
123 125 126 
124 126 127 
125 127 128 
126 128 129 
127 129 130 
128 130 131 
129 131 132 
130 132 4 
1 11 1 5
131 4 133 
132 133 134 
133 134 135 
134 135 136 
135 136 6 
1 12 1 5
136 6 137 
137 137 138 
138 138 139 
139 139 140 
140 140 1 
2 1 2 1608
141 423 424 198 
142 520 603 167 
143 516 569 181 
144 378 434 433 
145 378 794 512 
146 419 569 516 
147 518 626 170 
148 671 676 574 
149 290 759 685 
150 409 410 406 
151 422 714 498 
152 424 480 426 
153 494 495 486 
154 248 710 458 
155 664 789 663 
156 574 676 155 
157 513 754 160 
158 567 741 588 
159 190 191 185 
160 685 759 431 
161 488 525 417 
162 522 696 639 
163 380 406 405 
164 156 671 583 
165 424 426 198 
166 593 594 519 
167 166 605 582 
168 406 407 405 
169 748 816 599 
170 186 741 567 
171 728 736 462 
172 425 465 424 
173 148 749 456 
174 519 730 593 
175 739 759 290 
176 459 606 460 
177 517 744 121 
178 333 786 411 
179 341 853 373 
180 144 626 518 
181 583 671 574 
182 462 606 459 
183 385 674 505 
184 498 608 422 
185 152 655 566 
186 170 673 518 
187 192 423 195 
188 378 449 434 
189 145 603 520 
190 396 736 728 
191 192 646 423 
192 486 786 333 
193 195 198 197 
194 452 453 450 
195 343 452 450 
196 409 492 410 
197 306 408 380 
198 407 476 472 
199 567 773 186 
200 406 766 407 
201 515 757 363 
202 554 761 641 
203 522 639 476 
204 598 748 599 
205 481 789 664 
206 452 821 453 
207 456 654 148 
208 582 651 166 
209 123 563 164 
210 505 674 177 
211 563 606 164 
212 199 378 201 
213 160 754 672 
214 488 526 525 
215 454 694 687 
216 412 835 468 
217 343 450 317 
218 290 756 739 
219 313 353 314 
220 506 510 149 
221 149 508 506 
222 463 768 633 
223 359 494 486 
224 94 513 160 
225 408 409 406 
226 476 766 522 
227 433 722 203 
228 518 768 627 
229 198 794 199 
230 571 857 427 
231 306 701 408 
232 449 566 434 
233 387 412 353 
234 198 199 197 
235 542 855 403 
236 581 582 141 
237 600 713 224 
238 633 768 448 
239 185 194 8 
240 378 433 201 
241 121 744 120 
242 458 816 248 
243 201 433 203 
244 141 617 581 
245 313 489 387 
246 518 627 144 
247 231 299 232 
248 587 773 567 
249 501 648 412 
250 341 373 329 
251 653 737 227 
252 167 684 520 
253 317 318 299 
254 687 837 454 
255 308 329 305 
256 193 849 539 
257 492 500 410 
258 159 505 101 
259 476 640 483 
260 423 425 424 
261 541 781 662 
262 308 341 329 
263 191 860 185 
264 476 483 472 
265 591 684 167 
266 292 308 305 
267 644 758 361 
268 183 669 528 
269 195 423 198 
270 679 680 465 
271 554 641 312 
272 292 305 244 
273 159 721 505 
274 533 610 229 
275 376 515 363 
276 319 359 320 
277 149 665 508 
278 213 313 228 
279 302 319 303 
280 371 490 439 
281 320 486 333 
282 369 559 367 
283 668 785 662 
284 409 801 660 
285 480 552 481 
286 520 604 145 
287 482 783 337 
288 362 499 341 
289 203 311 205 
290 413 501 412 
291 693 829 491 
292 559 713 600 
293 412 468 353 
294 400 700 569 
295 480 481 426 
296 611 708 706 
297 373 503 464 
298 227 231 230 
299 519 594 452 
300 242 292 244 
301 575 843 487 
302 180 743 529 
303 319 320 303 
304 487 796 575 
305 155 679 574 
306 279 293 281 
307 659 781 640 
308 302 303 251 
309 434 435 433 
310 363 757 362 
311 207 828 489 
312 359 486 320 
313 249 302 251 
314 98 190 185 
315 378 512 449 
316 447 494 359 
317 402 756 725 
318 495 607 604 
319 507 610 533 
320 437 647 438 
321 669 851 528 
322 331 343 317 
323 190 524 191 
324 529 530 180 
325 455 858 239 
326 390 514 376 
327 555 849 193 
328 333 411 335 
329 566 738 152 
330 223 653 227 
331 300 317 299 
332 528 843 183 
333 493 820 787 
334 207 489 213 
335 301 596 455 
336 347 491 371 
337 313 387 353 
338 360 447 359 
339 128 665 149 
340 453 652 542 
341 185 860 192 
342 232 497 234 
343 407 472 471 
344 569 695 400 
345 234 301 236 
346 231 232 230 
347 489 692 387 
348 258 545 259 
349 558 559 369 
350 335 482 337 
351 313 314 228 
352 283 312 286 
353 586 684 591 
354 504 735 164 
355 380 408 406 
356 430 689 601 
357 466 574 465 
358 411 520 482 
359 701 832 531 
360 428 470 343 
361 126 755 614 
362 425 466 465 
363 232 800 497 
364 353 354 314 
365 245 485 249 
366 453 856 652 
367 371 439 372 
368 403 865 390 
369 398 866 521 
370 373 464 463 
371 543 544 173 
372 403 694 542 
373 494 770 495 
374 337 429 345 
375 164 736 504 
376 365 600 597 
377 234 497 301 
378 566 746 434 
379 281 554 283 
380 312 832 701 
381 645 758 644 
382 362 532 499 
383 411 482 335 
384 527 619 175 
385 242 244 243 
386 434 550 435 
387 566 655 629 
388 387 413 412 
389 213 489 313 
390 318 779 299 
391 648 835 412 
392 491 829 490 
393 245 822 485 
394 601 689 159 
395 380 405 404 
396 627 636 144 
397 199 794 378 
398 337 783 429 
399 182 513 95 
400 448 518 447 
401 722 845 556 
402 490 811 439 
403 174 601 103 
404 174 803 601 
405 219 720 592 
406 283 554 312 
407 216 624 219 
408 98 185 8 
409 447 673 494 
410 401 732 700 
411 525 691 417 
412 444 734 473 
413 301 455 236 
414 175 873 527 
415 453 542 454 
416 518 673 447 
417 582 605 141 
418 319 538 360 
419 495 642 607 
420 281 775 554 
421 306 380 379 
422 347 371 349 
423 192 195 194 
424 239 242 241 
425 465 711 424 
426 219 592 221 
427 691 699 415 
428 604 607 145 
429 523 788 191 
430 470 519 452 
431 92 543 173 
432 180 864 743 
433 611 706 602 
434 439 811 656 
435 562 599 563 
436 422 608 289 
437 485 538 302 
438 600 839 597 
439 664 738 449 
440 100 177 99 
441 448 768 518 
442 429 586 585 
443 181 871 516 
444 625 734 444 
445 440 537 444 
446 446 761 554 
447 342 362 341 
448 288 699 691 
449 543 546 544 
450 427 592 571 
451 503 847 464 
452 463 633 386 
453 526 647 437 
454 249 251 250 
455 236 455 239 
456 289 608 295 
457 96 182 95 
458 680 683 154 
459 100 505 177 
460 428 628 470 
461 559 600 367 
462 229 715 533 
463 493 866 398 
464 353 861 354 
465 401 700 400 
466 329 463 386 
467 99 812 190 
468 262 545 290 
469 194 753 8 
470 377 390 376 
471 320 333 332 
472 311 722 556 
473 177 812 99 
474 419 695 569 
475 468 861 353 
476 421 558 546 
477 203 722 311 
478 624 720 219 
479 343 470 452 
480 231 300 299 
481 245 249 247 
482 391 403 390 
483 477 726 339 
484 562 563 5 
485 477 778 726 
486 262 290 264 
487 464 847 709 
488 469 767 613 
489 319 360 359 
490 629 746 566 
491 118 553 175 
492 163 562 124 
493 259 545 262 
494 396 467 394 
495 394 560 392 
496 492 712 500 
497 160 546 543 
498 392 611 388 
499 195 197 196 
500 787 866 493 
501 317 837 318 
502 598 854 536 
503 647 780 438 
504 594 821 452 
505 199 201 200 
506 408 531 409 
507 541 785 702 
508 467 560 394 
509 444 473 445 
510 384 608 498 
511 505 721 385 
512 223 227 226 
513 181 569 568 
514 227 230 229 
515 360 448 447 
516 434 746 550 
517 375 376 363 
518 497 774 301 
519 163 598 562 
520 301 751 596 
521 5 563 123 
522 160 543 93 
523 205 828 207 
524 94 160 93 
525 102 159 101 
526 302 538 319 
527 681 760 154 
528 384 498 493 
529 662 785 541 
530 664 799 481 
531 373 463 329 
532 191 524 523 
533 96 551 182 
534 99 190 98 
535 125 163 124 
536 329 386 305 
537 249 485 302 
538 407 766 476 
539 123 164 122 
540 512 799 449 
541 485 872 538 
542 355 610 507 
543 252 258 257 
544 531 801 409 
545 182 644 513 
546 251 705 252 
547 189 851 669 
548 614 716 126 
549 521 689 398 
550 298 623 225 
551 640 745 659 
552 548 835 648 
553 514 515 376 
554 242 243 241 
555 757 784 635 
556 181 568 137 
557 413 692 556 
558 514 752 515 
559 658 834 369 
560 279 281 280 
561 384 493 398 
562 232 234 233 
563 576 577 184 
564 333 335 334 
565 439 537 440 
566 616 772 550 
567 550 772 435 
568 201 203 202 
569 774 779 397 
570 120 150 119 
571 128 149 127 
572 150 553 119 
573 460 816 458 
574 203 205 204 
575 183 843 575 
576 556 692 311 
577 293 775 281 
578 596 846 455 
579 239 858 242 
580 583 785 156 
581 227 737 231 
582 300 331 317 
583 440 444 442 
584 121 735 517 
585 553 647 175 
586 273 602 270 
587 258 725 545 
588 673 793 494 
589 371 372 349 
590 95 513 94 
591 387 692 413 
592 225 623 222 
593 841 850 237 
594 453 454 450 
595 390 581 514 
596 570 628 428 
597 680 711 465 
598 299 800 232 
599 533 534 511 
600 546 672 421 
601 502 650 501 
602 507 533 511 
603 411 604 520 
604 327 384 383 
605 271 631 274 
606 371 491 490 
607 733 819 429 
608 599 813 563 
609 500 522 410 
610 410 766 406 
611 127 755 126 
612 97 798 551 
613 244 245 243 
614 135 576 184 
615 183 575 112 
616 308 342 341 
617 331 428 343 
618 462 736 606 
619 335 337 336 
620 488 527 526 
621 483 541 484 
622 439 656 537 
623 432 795 431 
624 428 571 570 
625 640 781 483 
626 281 283 282 
627 473 777 475 
628 249 250 247 
629 251 252 250 
630 380 404 379 
631 97 551 96 
632 124 562 5 
633 538 633 360 
634 6 568 147 
635 234 236 235 
636 295 608 327 
637 6 147 136 
638 111 148 7 
639 268 279 272 
640 413 502 501 
641 539 646 193 
642 660 801 475 
643 365 597 323 
644 367 600 365 
645 148 654 7 
646 544 834 658 
647 320 332 303 
648 617 792 581 
649 431 795 685 
650 312 701 286 
651 397 779 687 
652 347 819 491 
653 425 646 539 
654 407 471 405 
655 686 836 530 
656 111 575 148 
657 147 576 136 
658 291 602 273 
659 388 602 291 
660 156 785 668 
661 627 709 636 
662 725 756 545 
663 323 597 321 
664 418 825 718 
665 213 228 214 
666 389 392 388 
667 530 762 686 
668 227 229 226 
669 577 579 578 
670 92 173 91 
671 104 174 103 
672 101 505 100 
673 164 735 122 
674 705 823 252 
675 569 700 568 
676 337 345 344 
677 585 733 429 
678 487 843 488 
679 473 475 474 
680 595 856 453 
681 752 784 515 
682 93 543 92 
683 175 619 117 
684 502 771 650 
685 102 601 159 
686 315 388 291 
687 384 398 383 
688 216 219 218 
689 177 674 564 
690 118 175 117 
691 130 176 129 
692 469 842 767 
693 207 213 212 
694 355 507 506 
695 429 819 345 
696 415 699 328 
697 318 837 687 
698 530 836 180 
699 120 744 150 
700 119 553 118 
701 192 194 185 
702 509 815 690 
703 327 608 384 
704 236 239 238 
705 464 768 463 
706 342 363 362 
707 392 817 611 
708 321 623 298 
709 439 440 372 
710 138 181 137 
711 110 180 109 
712 354 628 570 
713 475 801 474 
714 450 837 317 
715 577 578 184 
716 725 727 402 
717 205 207 206 
718 560 817 392 
719 588 741 173 
720 110 654 180 
721 552 760 681 
722 597 747 623 
723 424 711 480 
724 137 568 6 
725 305 782 244 
726 163 854 598 
727 582 855 651 
728 787 820 285 
729 259 262 261 
730 258 259 257 
731 516 871 587 
732 507 511 510 
733 360 633 448 
734 193 788 555 
735 598 599 562 
736 542 694 454 
737 351 365 323 
738 449 799 664 
739 574 679 465 
740 534 536 535 
741 576 732 577 
742 136 576 135 
743 112 575 111 
744 266 795 750 
745 488 843 528 
746 536 809 598 
747 578 670 184 
748 803 852 677 
749 500 844 522 
750 135 184 134 
751 113 183 112 
752 301 774 751 
753 579 580 578 
754 639 640 476 
755 262 264 263 
756 125 716 163 
757 333 334 332 
758 274 631 278 
759 597 623 321 
760 345 347 346 
761 116 619 189 
762 532 729 499 
763 779 800 299 
764 232 233 230 
765 264 685 266 
766 90 186 89 
767 106 187 105 
768 366 367 365 
769 193 860 788 
770 116 189 115 
771 132 188 131 
772 578 870 670 
773 375 377 376 
774 279 833 293 
775 311 828 205 
776 597 839 747 
777 278 422 289 
778 199 200 197 
779 239 241 240 
780 242 776 292 
781 103 601 102 
782 368 369 367 
783 377 391 390 
784 160 672 546 
785 483 781 541 
786 393 394 392 
787 423 646 425 
788 553 780 647 
789 814 838 690 
790 130 707 176 
791 414 415 328 
792 554 775 446 
793 154 760 680 
794 279 280 272 
795 573 790 187 
796 278 631 422 
797 483 484 472 
798 469 731 628 
799 129 665 128 
800 310 321 298 
801 173 741 91 
802 322 323 321 
803 732 769 577 
804 618 620 500 
805 499 853 341 
806 295 327 326 
807 264 266 265 
808 507 510 506 
809 537 625 444 
810 421 477 339 
811 567 588 420 
812 244 822 245 
813 117 619 116 
814 587 871 139 
815 327 383 381 
816 809 841 352 
817 297 610 355 
818 332 705 303 
819 449 738 566 
820 579 814 690 
821 388 611 602 
822 315 389 388 
823 444 445 442 
824 195 196 194 
825 481 512 426 
826 510 755 149 
827 234 235 233 
828 700 732 147 
829 520 684 482 
830 504 736 396 
831 308 717 342 
832 335 336 334 
833 472 555 471 
834 815 859 690 
835 114 669 113 
836 134 670 133 
837 546 834 544 
838 201 202 200 
839 31 557 11 
840 555 788 471 
841 205 206 204 
842 104 790 174 
843 248 816 748 
844 219 221 220 
845 534 535 511 
846 351 366 365 
847 350 351 323 
848 314 364 228 
849 252 823 258 
850 479 529 382 
851 322 350 323 
852 588 658 420 
853 395 396 394 
854 310 322 321 
855 606 813 460 
856 633 872 386 
857 469 628 354 
858 545 756 290 
859 60 605 61 
860 252 257 256 
861 281 282 280 
862 702 785 583 
863 464 709 627 
864 534 850 841 
865 396 728 467 
866 245 247 246 
867 188 707 131 
868 355 506 356 
869 266 750 268 
870 203 204 202 
871 290 685 264 
872 561 777 443 
873 297 355 309 
874 350 401 400 
875 416 417 415 
876 488 528 527 
877 268 750 279 
878 515 784 757 
879 200 718 197 
880 529 688 382 
881 516 587 567 
882 347 349 348 
883 262 263 261 
884 271 698 631 
885 707 859 176 
886 29 561 30 
887 283 286 284 
888 42 607 43 
889 325 328 294 
890 176 665 129 
891 223 226 225 
892 236 238 235 
893 250 703 247 
894 516 567 420 
895 350 400 351 
896 337 344 336 
897 538 872 633 
898 366 368 367 
899 541 702 484 
900 419 516 420 
901 479 530 529 
902 414 416 415 
903 496 705 332 
904 370 414 328 
905 113 669 183 
906 184 670 134 
907 90 741 186 
908 58 617 59 
909 487 488 417 
910 723 841 237 
911 297 298 225 
912 398 430 383 
913 307 461 459 
914 180 836 109 
915 508 509 356 
916 340 559 558 
917 264 265 263 
918 309 310 298 
919 327 381 326 
920 379 674 357 
921 419 420 368 
922 62 590 63 
923 602 706 270 
924 730 731 613 
925 274 278 277 
926 27 609 28 
927 405 523 404 
928 233 715 230 
929 66 593 67 
930 310 324 322 
931 7 654 110 
932 409 660 492 
933 577 769 579 
934 506 508 356 
935 628 731 470 
936 355 356 309 
937 256 703 250 
938 275 708 611 
939 389 393 392 
940 568 700 147 
941 219 220 218 
942 361 840 644 
943 790 852 174 
944 56 621 57 
945 226 297 225 
946 182 645 644 
947 478 573 479 
948 221 223 222 
949 521 721 689 
950 670 870 188 
951 276 291 273 
952 354 861 469 
953 297 309 298 
954 174 852 803 
955 266 267 265 
956 54 634 55 
957 417 691 415 
958 467 765 560 
959 613 731 469 
960 369 834 558 
961 366 419 368 
962 10 637 51 
963 52 630 53 
964 292 717 308 
965 108 686 107 
966 428 857 571 
967 187 790 105 
968 416 487 417 
969 631 848 422 
970 478 479 382 
971 579 690 580 
972 383 677 381 
973 214 624 216 
974 307 703 461 
975 139 871 138 
976 373 826 503 
977 226 610 297 
978 266 268 267 
979 221 653 223 
980 558 834 546 
981 325 370 328 
982 239 240 238 
983 551 825 182 
984 370 456 414 
985 306 379 357 
986 303 705 251 
987 368 658 369 
988 813 816 460 
989 296 315 291 
990 345 346 344 
991 446 775 632 
992 437 438 316 
993 68 565 69 
994 381 478 382 
995 426 794 198 
996 286 701 306 
997 718 825 551 
998 421 672 477 
999 350 666 401 
1000 598 809 748 
1001 278 289 287 
1002 552 789 481 
1003 381 382 326 
1004 274 277 276 
1005 295 326 325 
1006 289 295 294 
1007 342 717 374 
1008 646 860 193 
1009 322 666 350 
1010 511 614 510 
1011 430 677 383 
1012 286 306 304 
1013 259 261 260 
1014 1 807 140 
1015 495 786 486 
1016 391 694 403 
1017 149 755 127 
1018 271 274 273 
1019 295 325 294 
1020 223 225 222 
1021 314 570 364 
1022 33 253 34 
1023 436 525 437 
1024 229 610 226 
1025 549 835 548 
1026 425 539 466 
1027 296 436 316 
1028 89 807 1 
1029 289 294 287 
1030 354 570 314 
1031 398 689 430 
1032 3 805 114 
1033 115 805 3 
1034 4 806 132 
1035 133 806 4 
1036 495 770 642 
1037 564 674 379 
1038 473 474 445 
1039 278 287 277 
1040 78 629 79 
1041 438 704 316 
1042 213 214 212 
1043 24 620 25 
1044 400 695 351 
1045 509 675 356 
1046 275 817 764 
1047 61 166 62 
1048 39 167 40 
1049 11 557 254 
1050 22 638 23 
1051 310 675 324 
1052 466 583 574 
1053 324 666 322 
1054 59 141 60 
1055 41 145 42 
1056 107 810 2 
1057 2 810 106 
1058 276 296 291 
1059 525 526 437 
1060 252 256 250 
1061 309 675 310 
1062 502 772 771 
1063 420 658 368 
1064 404 564 379 
1065 539 702 466 
1066 207 211 206 
1067 606 736 164 
1068 40 603 41 
1069 268 272 269 
1070 345 819 347 
1071 357 674 385 
1072 689 721 159 
1073 268 269 267 
1074 418 718 200 
1075 287 288 277 
1076 468 835 549 
1077 296 316 315 
1078 48 144 49 
1079 274 276 273 
1080 328 699 294 
1081 716 854 163 
1082 393 395 394 
1083 71 161 72 
1084 55 142 56 
1085 228 624 214 
1086 51 143 52 
1087 374 375 363 
1088 381 677 478 
1089 436 437 316 
1090 356 675 309 
1091 401 769 732 
1092 340 713 559 
1093 221 222 220 
1094 147 732 576 
1095 38 591 39 
1096 788 860 191 
1097 241 248 240 
1098 150 780 553 
1099 586 591 338 
1100 259 260 257 
1101 351 695 366 
1102 385 521 358 
1103 581 792 514 
1104 37 338 38 
1105 49 636 50 
1106 575 796 148 
1107 131 707 130 
1108 207 212 211 
1109 283 284 282 
1110 422 848 714 
1111 680 760 711 
1112 245 246 243 
1113 57 169 58 
1114 269 271 270 
1115 580 859 707 
1116 237 715 233 
1117 190 812 524 
1118 50 172 10 
1119 366 695 419 
1120 271 273 270 
1121 53 171 54 
1122 220 224 218 
1123 217 339 215 
1124 632 775 293 
1125 61 605 166 
1126 216 218 217 
1127 395 504 396 
1128 499 729 649 
1129 491 733 693 
1130 498 820 493 
1131 535 614 511 
1132 187 762 573 
1133 126 716 125 
1134 19 659 20 
1135 47 626 48 
1136 34 572 35 
1137 247 307 246 
1138 30 561 443 
1139 389 457 393 
1140 470 731 519 
1141 397 687 391 
1142 592 653 221 
1143 340 558 421 
1144 33 540 253 
1145 280 330 272 
1146 253 572 34 
1147 269 270 267 
1148 724 824 399 
1149 139 773 587 
1150 81 661 82 
1151 340 421 339 
1152 263 275 261 
1153 650 808 501 
1154 84 667 85 
1155 43 642 44 
1156 32 540 33 
1157 347 348 346 
1158 685 795 266 
1159 141 605 60 
1160 590 652 451 
1161 357 385 358 
1162 382 688 326 
1163 533 850 534 
1164 16 668 17 
1165 108 836 686 
1166 46 170 47 
1167 28 178 29 
1168 36 584 37 
1169 461 462 459 
1170 801 832 474 
1171 13 676 14 
1172 326 688 325 
1173 791 818 461 
1174 357 358 304 
1175 325 688 370 
1176 440 442 441 
1177 479 762 530 
1178 427 653 592 
1179 35 255 36 
1180 44 146 45 
1181 474 832 641 
1182 45 643 46 
1183 411 786 604 
1184 230 715 229 
1185 145 607 42 
1186 456 749 414 
1187 480 760 552 
1188 534 841 536 
1189 334 496 332 
1190 453 821 595 
1191 435 722 433 
1192 59 617 141 
1193 570 571 364 
1194 300 427 331 
1195 267 706 265 
1196 413 556 502 
1197 687 694 391 
1198 63 451 64 
1199 173 862 588 
1200 217 340 339 
1201 257 657 256 
1202 557 734 625 
1203 214 216 215 
1204 11 254 32 
1205 395 517 504 
1206 70 547 71 
1207 585 586 338 
1208 481 799 512 
1209 632 824 724 
1210 529 743 688 
1211 269 698 271 
1212 72 589 73 
1213 167 603 40 
1214 443 777 734 
1215 240 352 238 
1216 623 747 222 
1217 216 217 215 
1218 349 399 348 
1219 166 590 62 
1220 294 699 287 
1221 224 713 218 
1222 77 151 78 
1223 30 443 31 
1224 773 807 186 
1225 535 716 614 
1226 64 719 65 
1227 39 591 167 
1228 599 816 813 
1229 654 864 180 
1230 21 158 22 
1231 23 168 24 
1232 306 357 304 
1233 161 648 589 
1234 41 603 145 
1235 627 768 464 
1236 241 710 248 
1237 362 757 532 
1238 691 830 288 
1239 446 632 441 
1240 665 815 508 
1241 435 845 722 
1242 169 617 58 
1243 71 547 161 
1244 344 402 336 
1245 260 657 257 
1246 316 704 315 
1247 142 621 56 
1248 63 590 451 
1249 67 208 68 
1250 315 704 389 
1251 91 741 90 
1252 286 304 284 
1253 272 698 269 
1254 55 634 142 
1255 797 825 418 
1256 296 697 436 
1257 197 718 196 
1258 500 712 618 
1259 18 157 19 
1260 338 591 38 
1261 523 524 404 
1262 12 682 70 
1263 15 156 16 
1264 57 621 169 
1265 8 753 97 
1266 51 637 143 
1267 28 609 178 
1268 440 441 372 
1269 143 630 52 
1270 607 642 43 
1271 461 818 728 
1272 339 726 215 
1273 235 237 233 
1274 161 589 72 
1275 83 153 84 
1276 277 697 276 
1277 210 595 594 
1278 540 656 253 
1279 73 162 74 
1280 342 374 363 
1281 9 155 13 
1282 307 459 458 
1283 508 815 509 
1284 408 701 531 
1285 769 814 579 
1286 20 745 21 
1287 254 540 32 
1288 307 458 246 
1289 86 154 87 
1290 80 152 81 
1291 171 634 54 
1292 330 698 272 
1293 288 697 277 
1294 79 655 80 
1295 287 699 288 
1296 172 637 10 
1297 14 671 15 
1298 214 215 212 
1299 53 630 171 
1300 714 742 498 
1301 17 662 18 
1302 547 682 549 
1303 611 817 275 
1304 35 572 255 
1305 65 210 66 
1306 25 618 26 
1307 76 615 77 
1308 459 460 458 
1309 85 681 86 
1310 88 678 9 
1311 399 431 348 
1312 82 663 83 
1313 37 584 338 
1314 87 683 88 
1315 429 783 586 
1316 247 703 307 
1317 210 719 595 
1318 527 851 619 
1319 544 862 173 
1320 122 735 121 
1321 399 432 431 
1322 224 839 600 
1323 725 823 496 
1324 265 708 263 
1325 377 397 391 
1326 549 842 468 
1327 144 636 49 
1328 385 721 521 
1329 536 841 809 
1330 389 704 457 
1331 26 179 27 
1332 218 713 217 
1333 67 593 208 
1334 586 783 684 
1335 672 754 477 
1336 74 622 75 
1337 179 763 609 
1338 364 624 228 
1339 75 165 76 
1340 414 749 416 
1341 604 786 495 
1342 276 697 296 
1343 48 626 144 
1344 192 860 646 
1345 557 625 254 
1346 178 561 29 
1347 374 596 375 
1348 764 817 560 
1349 349 724 399 
1350 188 870 707 
1351 293 824 632 
1352 284 285 282 
1353 255 584 36 
1354 688 743 370 
1355 50 636 172 
1356 416 796 487 
1357 370 743 456 
1358 524 564 404 
1359 443 557 31 
1360 436 830 525 
1361 692 828 311 
1362 352 841 723 
1363 592 720 571 
1364 243 710 241 
1365 202 418 200 
1366 517 735 504 
1367 330 742 714 
1368 140 773 139 
1369 442 446 441 
1370 584 585 338 
1371 497 779 774 
1372 217 713 340 
1373 270 706 267 
1374 651 855 542 
1375 70 682 547 
1376 211 361 206 
1377 601 803 430 
1378 255 693 584 
1379 677 852 478 
1380 170 626 47 
1381 466 702 583 
1382 573 762 479 
1383 547 548 161 
1384 461 728 462 
1385 471 523 405 
1386 210 593 66 
1387 69 209 12 
1388 565 730 613 
1389 44 642 146 
1390 69 565 209 
1391 179 609 27 
1392 158 640 639 
1393 651 652 590 
1394 105 790 104 
1395 670 806 133 
1396 114 805 669 
1397 451 719 64 
1398 525 830 691 
1399 542 652 651 
1400 263 708 275 
1401 474 641 445 
1402 427 857 331 
1403 238 723 235 
1404 636 709 172 
1405 336 727 334 
1406 46 643 170 
1407 275 764 261 
1408 151 629 78 
1409 143 649 630 
1410 571 720 364 
1411 220 747 224 
1412 484 555 472 
1413 645 825 797 
1414 168 620 24 
1415 146 643 45 
1416 23 638 168 
1417 560 765 764 
1418 246 710 243 
1419 73 589 162 
1420 261 764 260 
1421 231 737 300 
1422 619 851 189 
1423 372 724 349 
1424 634 635 142 
1425 528 851 527 
1426 706 708 265 
1427 475 867 660 
1428 158 638 22 
1429 678 680 679 
1430 138 871 181 
1431 630 729 171 
1432 364 720 624 
1433 686 762 187 
1434 632 724 441 
1435 142 784 621 
1436 643 673 170 
1437 656 811 253 
1438 524 812 564 
1439 621 752 169 
1440 212 726 211 
1441 532 757 635 
1442 196 753 194 
1443 547 549 548 
1444 222 747 220 
1445 208 565 68 
1446 106 810 187 
1447 522 766 410 
1448 395 740 517 
1449 148 796 749 
1450 166 651 590 
1451 548 648 161 
1452 284 787 285 
1453 186 807 89 
1454 189 805 115 
1455 132 806 188 
1456 158 745 640 
1457 304 787 284 
1458 660 867 492 
1459 496 727 725 
1460 456 864 654 
1461 25 620 618 
1462 65 719 210 
1463 638 696 168 
1464 666 769 401 
1465 629 655 79 
1466 550 802 616 
1467 535 854 716 
1468 457 740 393 
1469 573 852 790 
1470 678 683 680 
1471 614 755 510 
1472 750 833 279 
1473 346 739 344 
1474 581 865 582 
1475 109 836 108 
1476 334 727 496 
1477 772 845 435 
1478 182 825 645 
1479 584 693 585 
1480 386 782 305 
1481 588 862 658 
1482 635 863 532 
1483 352 723 238 
1484 563 813 606 
1485 157 659 19 
1486 596 751 375 
1487 565 613 209 
1488 427 737 653 
1489 564 812 177 
1490 693 733 585 
1491 77 615 151 
1492 215 726 212 
1493 782 822 244 
1494 402 727 336 
1495 527 873 526 
1496 659 745 20 
1497 612 867 475 
1498 393 740 395 
1499 690 838 509 
1500 458 710 246 
1501 556 845 502 
1502 443 734 557 
1503 358 787 304 
1504 21 745 158 
1505 649 729 630 
1506 209 682 12 
1507 162 622 74 
1508 703 791 461 
1509 153 667 84 
1510 644 754 513 
1511 712 763 179 
1512 711 760 480 
1513 280 874 330 
1514 441 724 372 
1515 156 668 16 
1516 210 594 593 
1517 152 661 81 
1518 656 868 537 
1519 669 805 189 
1520 188 806 670 
1521 502 845 772 
1522 707 870 580 
1523 647 873 175 
1524 150 831 780 
1525 526 873 647 
1526 609 612 178 
1527 375 751 377 
1528 687 779 318 
1529 551 798 718 
1530 155 676 13 
1531 248 748 240 
1532 344 739 402 
1533 235 723 237 
1534 206 758 204 
1535 777 827 475 
1536 661 663 82 
1537 667 681 85 
1538 17 668 662 
1539 240 748 352 
1540 26 618 179 
1541 509 838 675 
1542 780 831 804 
1543 242 858 776 
1544 14 676 671 
1545 742 820 498 
1546 162 650 622 
1547 475 827 612 
1548 540 868 656 
1549 358 866 787 
1550 740 744 517 
1551 18 662 157 
1552 80 655 152 
1553 635 784 142 
1554 165 615 76 
1555 15 671 156 
1556 300 737 427 
1557 75 622 165 
1558 445 761 442 
1559 83 663 153 
1560 431 759 348 
1561 715 850 533 
1562 178 827 561 
1563 641 832 312 
1564 750 795 432 
1565 430 803 677 
1566 260 765 657 
1567 9 678 155 
1568 176 815 665 
1569 86 681 154 
1570 258 823 725 
1571 285 874 282 
1572 187 810 686 
1573 154 683 87 
1574 618 712 179 
1575 151 746 629 
1576 208 730 565 
1577 519 731 730 
1578 739 756 402 
1579 717 846 374 
1580 442 761 446 
1581 478 852 573 
1582 253 811 572 
1583 580 870 578 
1584 620 844 500 
1585 88 683 678 
1586 324 838 814 
1587 165 616 615 
1588 204 797 202 
1589 686 810 107 
1590 255 829 693 
1591 648 808 589 
1592 158 639 638 
1593 754 840 477 
1594 536 854 535 
1595 438 804 704 
1596 649 869 826 
1597 697 830 436 
1598 642 770 146 
1599 348 759 346 
1600 288 830 697 
1601 512 794 426 
1602 374 846 596 
1603 390 865 581 
1604 377 751 397 
1605 157 781 659 
1606 324 814 666 
1607 684 783 482 
1608 152 738 661 
1609 521 866 358 
1610 661 664 663 
1611 714 848 330 
1612 634 863 635 
1613 678 679 155 
1614 764 765 260 
1615 625 868 254 
1616 641 761 445 
1617 489 828 692 
1618 256 791 703 
1619 432 833 750 
1620 292 776 717 
1621 682 767 549 
1622 457 831 740 
1623 552 681 667 
1624 639 696 638 
1625 666 814 769 
1626 209 767 682 
1627 675 838 324 
1628 202 797 418 
1629 146 793 643 
1630 403 855 582 
1631 643 793 673 
1632 740 831 744 
1633 451 856 719 
1634 753 798 97 
1635 361 758 206 
1636 751 774 397 
1637 589 808 162 
1638 649 826 499 
1639 471 788 523 
1640 454 837 450 
1641 621 784 752 
1642 330 874 742 
1643 811 829 572 
1644 539 849 702 
1645 477 840 778 
1646 496 823 705 
1647 346 759 739 
1648 749 796 416 
1649 399 824 432 
1650 609 763 612 
1651 726 778 211 
1652 657 791 256 
1653 537 868 625 
1654 582 865 403 
1655 698 848 631 
1656 612 827 178 
1657 169 792 617 
1658 595 821 594 
1659 162 808 650 
1660 728 818 467 
1661 572 829 255 
1662 211 778 361 
1663 658 862 544 
1664 622 771 165 
1665 652 856 451 
1666 771 772 616 
1667 690 859 580 
1668 826 869 503 
1669 765 818 657 
1670 492 763 712 
1671 770 793 146 
1672 709 847 172 
1673 742 874 285 
1674 661 738 664 
1675 758 797 204 
1676 704 804 457 
1677 196 798 753 
1678 293 833 824 
1679 522 844 696 
1680 492 867 763 
1681 613 767 209 
1682 254 868 540 
1683 143 869 649 
1684 285 820 742 
1685 501 808 648 
1686 282 874 280 
1687 650 771 622 
1688 561 827 777 
1689 140 807 773 
1690 752 792 169 
1691 331 857 428 
1692 748 809 352 
1693 330 848 698 
1694 729 863 171 
1695 153 789 667 
1696 494 793 770 
1697 237 850 715 
1698 165 771 616 
1699 373 853 826 
1700 644 840 754 
1701 172 847 637 
1702 847 869 637 
1703 747 839 224 
1704 780 804 438 
1705 734 777 473 
1706 615 802 151 
1707 171 863 634 
1708 718 798 196 
1709 616 802 615 
1710 637 869 143 
1711 719 856 595 
1712 484 849 555 
1713 491 819 733 
1714 744 831 150 
1715 176 859 815 
1716 776 846 717 
1717 743 864 456 
1718 657 818 791 
1719 151 802 746 
1720 696 844 168 
1721 702 849 484 
1722 168 844 620 
1723 667 789 552 
1724 467 818 765 
1725 804 831 457 
1726 767 842 549 
1727 490 829 811 
1728 497 800 779 
1729 645 797 758 
1730 485 822 782 
1731 763 867 612 
1732 778 840 361 
1733 469 861 842 
1734 386 872 782 
1735 455 846 776 
1736 514 792 752 
1737 776 858 455 
1738 532 863 729 
1739 503 869 847 
1740 782 872 485 
1741 824 833 432 
1742 746 802 550 
1743 531 832 801 
1744 826 853 499 
1745 842 861 468 
1746 663 789 153 
1747 662 781 157 
1748 593 730 208 
$EndElements
