$MeshFormat
4.1 0 8
$EndMeshFormat
$PhysicalNames
6
1 9 "top"
1 10 "left"
1 11 "right"
1 12 "bottom"
1 13 "wall"
2 14 "ground"
$EndPhysicalNames
$Entities
9 8 1 0
1 10 0 0 0 
2 -10 0 0 0 
3 -10 -10 0 0 
4 10 -10 0 0 
5 0 -4 0 0 
6 1.1 -5.1 0 0 
7 -1.1 -5.1 0 0 
8 -1.1 -2.9 0 0 
9 1.1 -2.9 0 0 
1 -10.0000001 -1e-07 -1e-07 10.0000001 1e-07 1e-07 1 9 2 2 -1 
2 9.999999900000001 -10.0000001 -1e-07 10.0000001 1.000000002804313e-07 1e-07 1 11 2 1 -4 
3 -10.0000001 -10.0000001 -1e-07 10.0000001 -9.999999900000001 1e-07 1 12 2 4 -3 
4 -10.0000001 -10.0000001 -1e-07 -9.999999900000001 1.000000002804313e-07 1e-07 1 10 2 3 -2 
5 -1.1000001 -5.1000001 -1e-07 -1.0999999 -2.8999999 1e-07 1 13 2 8 -7 
6 -1.1000001 -5.1000001 -1e-07 1.1000001 -5.099999899999999 1e-07 1 13 2 7 -6 
7 -1.1000001 -2.9000001 -1e-07 1.1000001 -2.8999999 1e-07 1 13 2 8 -9 
8 1.0999999 -5.1000001 -1e-07 1.1000001 -2.8999999 1e-07 1 13 2 9 -6 
1 -10.0000001 -10.0000001 -1e-07 10.0000001 1.000000002804313e-07 1e-07 1 14 8 1 2 3 4 5 6 -8 -7 
$EndEntities
$Nodes
17 936 1 936
0 1 0 1
1
10 0 0
0 2 0 1
2
-10 0 0
0 3 0 1
3
-10 -10 0
0 4 0 1
4
10 -10 0
0 6 0 1
5
1.1 -5.1 0
0 7 0 1
6
-1.1 -5.1 0
0 8 0 1
7
-1.1 -2.9 0
0 9 0 1
8
1.1 -2.9 0
1 1 0 19
9
10
11
12
13
14
15
16
17
18
19
20
21
22
23
24
25
26
27
-9 0 0
-8 0 0
-7 0 0
-6 0 0
-5 0 0
-4 0 0
-3 0 0
-2 0 0
-1 0 0
0 0 0
1 0 0
2 0 0
3 0 0
4 0 0
5 0 0
6 0 0
7 0 0
8 0 0
9 0 0
1 2 0 9
28
29
30
31
32
33
34
35
36
10 -1 0
10 -2 0
10 -3 0
10 -4 0
10 -5 0
10 -6 0
10 -7 0
10 -8 0
10 -9 0
1 3 0 19
37
38
39
40
41
42
43
44
45
46
47
48
49
50
51
52
53
54
55
9 -10 0
8 -10 0
7 -10 0
6 -10 0
5 -10 0
4 -10 0
3 -10 0
2 -10 0
1 -10 0
0 -10 0
-1 -10 0
-2 -10 0
-3 -10 0
-4 -10 0
-5 -10 0
-6 -10 0
-7 -10 0
-8 -10 0
-9 -10 0
1 4 0 9
56
57
58
59
60
61
62
63
64
-10 -9 0
-10 -8 0
-10 -7 0
-10 -6 0
-10 -5 0
-10 -4 0
-10 -3 0
-10 -2 0
-10 -1 0
1 5 0 21
65
66
67
68
69
70
71
72
73
74
75
76
77
78
79
80
81
82
83
84
85
-1.1 -3 0
-1.1 -3.1 0
-1.1 -3.2 0
-1.1 -3.3 0
-1.1 -3.4 0
-1.1 -3.500000000000001 0
-1.1 -3.600000000000001 0
-1.1 -3.700000000000001 0
-1.1 -3.800000000000001 0
-1.1 -3.900000000000001 0
-1.1 -4.000000000000002 0
-1.1 -4.100000000000001 0
-1.1 -4.200000000000001 0
-1.1 -4.300000000000001 0
-1.1 -4.4 0
-1.1 -4.5 0
-1.1 -4.6 0
-1.1 -4.7 0
-1.1 -4.8 0
-1.1 -4.9 0
-1.1 -5 0
1 6 0 21
86
87
88
89
90
91
92
93
94
95
96
97
98
99
100
101
102
103
104
105
106
-1 -5.1 0
-0.8999999999999998 -5.1 0
-0.7999999999999996 -5.1 0
-0.6999999999999994 -5.1 0
-0.5999999999999993 -5.1 0
-0.4999999999999991 -5.1 0
-0.3999999999999989 -5.1 0
-0.2999999999999986 -5.1 0
-0.1999999999999984 -5.1 0
-0.09999999999999831 -5.1 0
1.332267629550188e-15 -5.1 0
0.1000000000000012 -5.1 0
0.2000000000000008 -5.1 0
0.3000000000000005 -5.1 0
0.4000000000000004 -5.1 0
0.5 -5.1 0
0.6000000000000001 -5.1 0
0.7000000000000004 -5.1 0
0.8000000000000005 -5.1 0
0.9000000000000008 -5.1 0
1 -5.1 0
1 7 0 21
107
108
109
110
111
112
113
114
115
116
117
118
119
120
121
122
123
124
125
126
127
-1 -2.9 0
-0.8999999999999998 -2.9 0
-0.7999999999999996 -2.9 0
-0.6999999999999994 -2.9 0
-0.5999999999999993 -2.9 0
-0.4999999999999991 -2.9 0
-0.3999999999999989 -2.9 0
-0.2999999999999986 -2.9 0
-0.1999999999999984 -2.9 0
-0.09999999999999831 -2.9 0
1.332267629550188e-15 -2.9 0
0.1000000000000012 -2.9 0
0.2000000000000008 -2.9 0
0.3000000000000005 -2.9 0
0.4000000000000004 -2.9 0
0.5 -2.9 0
0.6000000000000001 -2.9 0
0.7000000000000004 -2.9 0
0.8000000000000005 -2.9 0
0.9000000000000008 -2.9 0
1 -2.9 0
1 8 0 21
128
129
130
131
132
133
134
135
136
137
138
139
140
141
142
143
144
145
146
147
148
1.1 -3 0
1.1 -3.1 0
1.1 -3.2 0
1.1 -3.3 0
1.1 -3.4 0
1.1 -3.500000000000001 0
1.1 -3.600000000000001 0
1.1 -3.700000000000001 0
1.1 -3.800000000000001 0
1.1 -3.900000000000001 0
1.1 -4.000000000000002 0
1.1 -4.100000000000001 0
1.1 -4.200000000000001 0
1.1 -4.300000000000001 0
1.1 -4.4 0
1.1 -4.5 0
1.1 -4.6 0
1.1 -4.7 0
1.1 -4.8 0
1.1 -4.9 0
1.1 -5 0
2 1 0 788
149
150
151
152
153
154
155
156
157
158
159
160
161
162
163
164
165
166
167
168
169
170
171
172
173
174
175
176
177
178
179
180
181
182
183
184
185
186
187
188
189
190
191
192
193
194
195
196
197
198
199
200
201
202
203
204
205
206
207
208
209
210
211
212
213
214
215
216
217
218
219
220
221
222
223
224
225
226
227
228
229
230
231
232
233
234
235
236
237
238
239
240
241
242
243
244
245
246
247
248
249
250
251
252
253
254
255
256
257
258
259
260
261
262
263
264
265
266
267
268
269
270
271
272
273
274
275
276
277
278
279
280
281
282
283
284
285
286
287
288
289
290
291
292
293
294
295
296
297
298
299
300
301
302
303
304
305
306
307
308
309
310
311
312
313
314
315
316
317
318
319
320
321
322
323
324
325
326
327
328
329
330
331
332
333
334
335
336
337
338
339
340
341
342
343
344
345
346
347
348
349
350
351
352
353
354
355
356
357
358
359
360
361
362
363
364
365
366
367
368
369
370
371
372
373
374
375
376
377
378
379
380
381
382
383
384
385
386
387
388
389
390
391
392
393
394
395
396
397
398
399
400
401
402
403
404
405
406
407
408
409
410
411
412
413
414
415
416
417
418
419
420
421
422
423
424
425
426
427
428
429
430
431
432
433
434
435
436
437
438
439
440
441
442
443
444
445
446
447
448
449
450
451
452
453
454
455
456
457
458
459
460
461
462
463
464
465
466
467
468
469
470
471
472
473
474
475
476
477
478
479
480
481
482
483
484
485
486
487
488
489
490
491
492
493
494
495
496
497
498
499
500
501
502
503
504
505
506
507
508
509
510
511
512
513
514
515
516
517
518
519
520
521
522
523
524
525
526
527
528
529
530
531
532
533
534
535
536
537
538
539
540
541
542
543
544
545
546
547
548
549
550
551
552
553
554
555
556
557
558
559
560
561
562
563
564
565
566
567
568
569
570
571
572
573
574
575
576
577
578
579
580
581
582
583
584
585
586
587
588
589
590
591
592
593
594
595
596
597
598
599
600
601
602
603
604
605
606
607
608
609
610
611
612
613
614
615
616
617
618
619
620
621
622
623
624
625
626
627
628
629
630
631
632
633
634
635
636
637
638
639
640
641
642
643
644
645
646
647
648
649
650
651
652
653
654
655
656
657
658
659
660
661
662
663
664
665
666
667
668
669
670
671
672
673
674
675
676
677
678
679
680
681
682
683
684
685
686
687
688
689
690
691
692
693
694
695
696
697
698
699
700
701
702
703
704
705
706
707
708
709
710
711
712
713
714
715
716
717
718
719
720
721
722
723
724
725
726
727
728
729
730
731
732
733
734
735
736
737
738
739
740
741
742
743
744
745
746
747
748
749
750
751
752
753
754
755
756
757
758
759
760
761
762
763
764
765
766
767
768
769
770
771
772
773
774
775
776
777
778
779
780
781
782
783
784
785
786
787
788
789
790
791
792
793
794
795
796
797
798
799
800
801
802
803
804
805
806
807
808
809
810
811
812
813
814
815
816
817
818
819
820
821
822
823
824
825
826
827
828
829
830
831
832
833
834
835
836
837
838
839
840
841
842
843
844
845
846
847
848
849
850
851
852
853
854
855
856
857
858
859
860
861
862
863
864
865
866
867
868
869
870
871
872
873
874
875
876
877
878
879
880
881
882
883
884
885
886
887
888
889
890
891
892
893
894
895
896
897
898
899
900
901
902
903
904
905
906
907
908
909
910
911
912
913
914
915
916
917
918
919
920
921
922
923
924
925
926
927
928
929
930
931
932
933
934
935
936
1.187917478104999 -4.449999999999999 0
1.189191237348666 -3.750000000000002 0
1.189570756258755 -3.146154455177149 0
-1.197651613716932 -4.549010172348984 0
-1.195403269345988 -3.744737853802023 0
-1.186602540378444 -3.15 0
1.186602540378444 -4.850000000000001 0
-1.195580840982479 -4.151994331607026 0
-9.128261206178387 -5.488758248426898 0
9.180304960737679 -5.492973426677674 0
0.5521430926982609 -5.194894449490584 0
-0.04843327119196775 -5.194639524843407 0
-0.6499999999999994 -5.186602540378444 0
-1.186396906430318 -4.850000000000001 0
1.188586275660553 -4.15 0
0.8500000000000005 -5.186602540378443 0
0.2475061360578704 -5.170965647325809 0
-0.3499999999999988 -5.186602540378444 0
4.359277433585575 -9.141010822219865 0
-4.5 -9.133974596215563 0
1.187466072894237 -3.456398801518329 0
-1.203560624178083 -3.454543700017507 0
4.584713745173788 -0.8996883653655923 0
-4.381278577446902 -0.8923388065386204 0
0.4500000000000011 -2.807913542929716 0
0.8500000000000006 -2.813397459621556 0
0.05306251420259548 -2.798333195038964 0
-0.4499999999999989 -2.80939021674694 0
-0.8411523264947043 -2.801258694878507 0
-1.520127331256926 -9.352576418508516 0
1.426281781154428 -9.154983508360537 0
6.503922911232666 -0.8002932685477404 0
-6.447046160535079 -0.8599235458645653 0
6.484379605899327 -9.069588786820523 0
-6.538694260675578 -9.168833482257611 0
9.184329457429779 -3.594495842257815 0
-9.193179900609085 -3.562691561180132 0
-2.630109298630454 -0.7499708236868816 0
2.492642621220516 -0.8271014482259327 0
1.186653522568774 -4.65 0
-1.187891666880641 -4.35 0
-0.8526968888351348 -5.172005502742074 0
1.186602940522178 -3.950000000000002 0
-1.188482916362646 -3.950000000000002 0
9.214807131048707 -7.556358493915036 0
-9.065758034744226 -7.401315117042733 0
0.36099884323392 -0.7599808782288973 0
9.045612594086814 -1.50404470374212 0
-8.534385782392997 -0.8801920409496669 0
8.500211880922697 -9.030480711380449 0
-8.509646847608318 -9.018316086863155 0
1.445597014939688 -0.7839556088311159 0
0.9549817157619662 -1.558923931027227 0
3.312805189628227 -0.8188064776720649 0
4.124171995584546 -1.521746390216465 0
2.907185605408501 -1.477385401184319 0
2.290903451991412 -1.579967168848425 0
2.64120609950275 -2.021993860135448 0
2.128509728883054 -2.101309321318697 0
2.41590804054008 -2.470410367813526 0
2.905974679675739 -2.476947811357197 0
2.602265777660866 -2.926621085283625 0
3.146500235679619 -2.914767007267482 0
2.904127423688712 -3.34468324101082 0
3.404747344637248 -3.348807279710288 0
3.102361206305909 -3.791358364849477 0
3.643255993541597 -3.786228570541223 0
3.393324739441202 -4.212648727871386 0
3.901373641315645 -4.221952161322135 0
3.63975450337507 -4.659415099585837 0
4.168319371597518 -4.677580869800144 0
4.449365769813896 -4.19144491703041 0
4.731019707067345 -4.710012169429506 0
3.877625953657679 -5.135423593145138 0
3.333743547936013 -5.12175519460212 0
3.591500779251119 -5.588790168762846 0
3.077744977838079 -5.599655293530369 0
5.045151625943864 -4.15419544141019 0
3.318234600782773 -6.028003137719899 0
2.830837152952213 -5.995865756716865 0
3.85625174001635 -6.049782236837396 0
2.906724853286351 -4.200326894425385 0
5.37179218805833 -4.715549899923922 0
3.042737923874578 -6.444804407260262 0
2.48206703487782 -6.362958728137644 0
2.605792476917159 -5.604034998043997 0
5.70425790145978 -4.141436825088859 0
2.770957854304466 -6.910248289597072 0
2.224524387291708 -6.870934645551492 0
1.949996251045956 -6.421942469339911 0
1.718740519856328 -6.828527680220822 0
1.496788616218772 -6.422175001282074 0
1.263052039089691 -6.785775605797027 0
1.067381117372602 -6.377678924222364 0
0.8360823131722896 -6.742605300672787 0
0.6431887695255672 -6.382998717297024 0
0.4275077115515624 -6.708028458232029 0
0.2426418658703352 -6.379830618261904 0
0.0362133736425016 -6.667788458734178 0
0.1998487888115711 -7.020619385765665 0
-0.1143683678298225 -6.342373371915559 0
-0.3336786946172082 -6.629376317312637 0
-0.4715890039471985 -6.265033854350981 0
-0.6949974068861877 -6.593324539282132 0
-0.8354209897319264 -6.282313487740447 0
-1.052472506657801 -6.571530836545737 0
-1.205386999495976 -6.244332013911523 0
-1.408774787749625 -6.543477521723212 0
-1.579029062784874 -6.221138871717488 0
-1.778890175203081 -6.52059950177834 0
-1.950454754047223 -6.16146863139158 0
-2.184718063696863 -6.501564838710345 0
-2.375758560915707 -6.0894222026936 0
-2.652771130463667 -6.48181214035416 0
-2.855622416522853 -6.02325671202691 0
-2.492842300517399 -5.672597760258316 0
-2.979409818176253 -5.468172248665354 0
-3.443159170080502 -5.947712382413834 0
-3.625932310344551 -5.395975959405954 0
-3.22712761768704 -4.920649901693341 0
-3.838209516888251 -4.813277483245523 0
-3.41349541195918 -4.336671485855655 0
-4.270526858617973 -5.294085735617441 0
-4.05549310407916 -4.209026029478951 0
-3.601457551386063 -3.70332269008596 0
-4.282788752911298 -3.56145284876313 0
-2.738434968188497 -4.489123936993574 0
6.046283683678832 -4.727230363319931 0
5.664929873738434 -5.344617155405494 0
-0.9076374051191536 -6.912976836281059 0
-2.424183359361296 -6.933015624019726 0
-1.72733994071744 -5.879306014532668 0
2.450905710780781 -3.428246572403125 0
5.344457025184362 -3.551846412099726 0
6.054614769640737 -3.532285359914495 0
1.297957135809936 -6.00745778573581 0
6.401862119166849 -5.338385354987016 0
6.01198567332977 -5.979353756469261 0
-2.975874940750548 -6.927544929875419 0
1.017482878223463 -7.173970409344943 0
-4.751756138085781 -4.106403737915792 0
-5.003703051559693 -3.407868903587438 0
-5.502975553554155 -4.002351806667119 0
0.103745922027605 -6.126355046396083 0
-0.6697818707267746 -5.972482924181268 0
-1.624565851467947 -6.801145566119413 0
-2.693254092385944 -7.460866555470565 0
1.965826188704513 -2.507896027332341 0
6.783699901279089 -5.987764854688024 0
-3.799390930254054 -3.052756453644299 0
-3.09066699655303 -3.253784556994222 0
-5.766647903533608 -3.251248741474872 0
-6.284802989785365 -3.858193241863294 0
-6.005319453631058 -4.614211991427613 0
6.775665943591929 -4.703606283720053 0
-6.553091987517467 -3.066131142277143 0
3.350845127037695 -6.948103391673444 0
3.03990159166386 -7.478754915710439 0
-3.337918699663006 -7.431910758583337 0
-6.816058621635991 -4.485427689893537 0
-6.517437043294149 -5.275837796142204 0
6.384072387939108 -6.645518934790074 0
5.602719087145299 -6.617733808151641 0
5.665638621729307 -2.92336553532044 0
6.428612615353 -2.892646821043249 0
-3.32380362443471 -2.588864904420084 0
-2.737755826843629 -2.77995305945428 0
-2.537329581211563 -3.242573944127856 0
-2.271608783741477 -2.888420756059209 0
-2.109610324734845 -3.280599653428447 0
-2.379530342987721 -2.438020152280971 0
-1.943929637939825 -2.612852620541682 0
-2.029238420451585 -2.160802004293302 0
-1.61709312611469 -2.285147086157539 0
-1.704009355301108 -1.881299291843814 0
-1.287927790063397 -1.977228143312971 0
3.67927120020614 -2.923708944076555 0
1.91664750642746 -7.268654882591605 0
3.687384343123542 -7.499031350372414 0
3.338935147605252 -8.085324461366625 0
7.18740439600503 -6.67474064032845 0
1.695951083945819 -2.200904458032125 0
1.611431544271775 -2.552672290001301 0
1.371753981657382 -2.327130978295771 0
1.82114523049053 -2.79668107580194 0
-2.355148794795713 -3.628473980037779 0
-1.995859240255572 -3.629984986228592 0
-1.754410046777471 -3.398119822649665 0
-1.667559218849525 -3.686709371772875 0
-1.857341422142365 -3.892984538713499 0
-5.232717427224565 -2.715684653173532 0
-3.026886502298192 -8.03143883630367 0
-1.598221937361202 -3.909165968541298 0
-1.695574382462076 -4.118534911875556 0
-1.983688834847131 -4.120708225061561 0
-1.842567729738535 -4.339809147447346 0
-1.598894092441635 -4.345497353299136 0
-1.674514832008763 -4.575508222587341 0
-1.96153532117789 -4.573532968362677 0
-1.804439989985762 -4.803713710699371 0
-2.097444375283769 -4.829902674450246 0
-1.919616280679589 -5.070576823627449 0
-1.632470879115189 -5.00678383724321 0
-1.206723813104714 -5.050178129401625 0
-1.18746685480484 -5.168278060111484 0
-1.054911476523522 -5.190304237616274 0
-1.129194781744823 -5.298911355977683 0
-1.305405951937427 -5.271583701416557 0
-1.230162396876748 -5.422321067892749 0
-1.049406424757866 -5.442848978732991 0
-1.157213049409422 -5.598044687479203 0
-1.411942918093294 -5.397340891542697 0
5.971528557338634 -7.312059868571081 0
-1.387063987931166 -1.569955753083499 0
-0.9343781261007411 -1.70883412528732 0
-0.8495178351511063 -2.178449848432185 0
-0.5386047795616253 -1.886815224290827 0
-0.5531589684917091 -1.380664897123264 0
1.503786530924116 -2.852310990191234 0
1.654565397852013 -3.040425444065215 0
1.340587711049231 -2.611863066400158 0
1.10560207825508 -2.463767926553304 0
-1.588274618230447 -2.643653574252717 0
-0.960824065183322 -5.60208848335354 0
1.195701662032053 -2.955050047738045 0
-0.4428487712567802 -2.245010037710105 0
-0.1895608625661111 -2.036011786881194 0
-7.322036696761833 -5.118343213157607 0
-7.012831375379614 -5.916037466658465 0
-6.200732639188318 -6.071282701995032 0
-6.742765696601976 -6.731729477739633 0
-5.899819805553413 -6.852587186421092 0
-2.470686818561983 -1.898783114109759 0
5.078611812068616 -7.271330468350886 0
-0.1392937981123967 -2.376184229071357 0
0.1127160633031466 -2.172446804699805 0
-0.1499999999999984 -2.813397459621556 0
-3.981586057465165 -2.373894024365832 0
-3.504669820903729 -1.928552159186244 0
1.063955950876329 -2.806460926227595 0
-1.527762989049109 -3.508401156857865 0
-1.596584266757052 -3.224566834876646 0
4.961481354368024 -2.964090154137742 0
5.349947591280576 -2.194756404550609 0
-5.39487625553223 -6.213135864498494 0
-5.091503978637719 -6.970617497407677 0
-5.594794446353565 -7.624145061048843 0
0.09687537661727158 -1.82886531548169 0
5.51197784304072 -7.962045308902586 0
-7.657657371275931 -6.524548660050168 0
-7.313556227514731 -7.451192328594796 0
-7.611185123220463 -4.284676966214146 0
2.512305565755215 -8.128176458801697 0
7.555032403833131 -5.996598009595006 0
-1.469540094398379 -4.51904118273719 0
-4.642014476663563 -7.706250469931807 0
-1.065362073481275 -5.789469808612065 0
-1.449116620012024 -3.688578005921107 0
-2.370469443246142 -8.049912315310543 0
0.1613889992706429 -2.481205869535529 0
0.3745382673203979 -2.293394047654568 0
0.2499999999999998 -2.808919000383355 0
6.803191529042643 -3.521480032516825 0
7.222308856860403 -2.857210757920966 0
7.659577639372142 -3.629482651373757 0
-0.8633072910526143 -5.427453729276619 0
-0.7691777226750582 -5.598645565721661 0
-0.675617045107106 -5.424683644389749 0
-0.582941162343892 -5.595483595300278 0
-0.4984371266678932 -5.445377760034342 0
-0.4018653749398493 -5.598291905185528 0
-0.3191824307763423 -5.423489336691293 0
-0.2189628373642389 -5.594176600098419 0
-0.3133558876714094 -5.783627217370769 0
-0.1187395725295937 -5.419498269160314 0
-0.03534202238551496 -5.593513108744602 0
0.06354640197574923 -5.442782247581889 0
0.1470410034353475 -5.597154256194393 0
0.2380106426488964 -5.424569082670275 0
0.3272672522060132 -5.593495837653149 0
0.4065719411656986 -5.440880670146828 0
0.5108150511322893 -5.594091771501176 0
0.4236251026442605 -5.773880051247146 0
0.6336518993683521 -5.771722221659989 0
0.7311846397771643 -5.571928115855128 0
0.855256603711845 -5.759411646227167 0
0.9401070354413384 -5.560138970928746 0
1.052972189098868 -5.204417201488206 0
1.167681802737723 -5.183726721193435 0
1.188452980529773 -5.067636422949668 0
1.288919359874105 -5.141435592640129 0
1.264625069548837 -5.277588103865937 0
1.407209811253743 -5.226948328812481 0
1.423461421699723 -5.070270930220039 0
1.565706371801884 -5.162492252678719 0
1.572351183698157 -4.987832892741568 0
1.739018554833763 -5.083993080951379 0
1.723988498582498 -4.861468215068274 0
1.722349789794419 -5.299090322670753 0
1.942190147732439 -4.994788861375748 0
1.954829691627856 -4.757963785151187 0
1.754405904147611 -4.628268115597423 0
1.96366886477379 -4.518526869549853 0
1.729120906006648 -4.396234494471868 0
1.963095895990398 -4.280882611307868 0
1.720513118106606 -4.150820996708538 0
2.180870518763158 -4.892307272620698 0
1.376005492597867 -5.364988122663796 0
1.967011303789733 -4.037912479624174 0
1.760098328997215 -3.913274644765603 0
1.574561466926355 -4.269673081716191 0
2.152719506160394 -4.397350980113587 0
1.97902264863934 -3.787140355756507 0
1.761406737033912 -3.670637340159202 0
2.216509115781144 -3.916768569991761 0
1.553137490053966 -3.804413694746536 0
1.563972178771873 -3.574739969919586 0
1.12563828041711 -5.307278356597653 0
2.151492181276025 -5.169331204045008 0
2.455058924169821 -5.0590075835131 0
1.745079696951568 -3.448870196487272 0
0.9915696487173069 -5.297132538497053 0
1.405083034002607 -4.90660606010672 0
4.791990739902701 -7.885320786745526 0
-1.335982217290514 -5.117545053853551 0
1.929402575267876 -3.048149338141595 0
4.872760918501723 -6.535899453062118 0
-0.771811103461034 -2.498798189622179 0
-0.6559523809523807 -2.812322534447448 0
-1.758502853403501 -2.8911024627107 0
-4.609307310123961 -6.354400062196927 0
1.09878829086822 -2.148913410734211 0
1.40586174503101 -1.972198850882849 0
2.465774151712783 -4.741548540069216 0
8.092667997642508 -2.751668036599235 0
7.594164723846831 -2.105520067161982 0
1.441846664247385 -3.086045858313722 0
-3.617555833720182 -6.92616125326742 0
-1.405602595965097 -3.282896835204534 0
-1.438095144852998 -3.13049258250787 0
-1.195707736359398 -2.95553055356783 0
-1.197817536151122 -2.837333074636221 0
-1.090436356646541 -2.784202088693719 0
-1.202405998538193 -2.692214553774504 0
-1.302360029793699 -2.895088751277996 0
-1.047778535764508 -2.625425542656019 0
-1.216058360539532 -2.505467150013963 0
-1.313151700414736 -4.983834667183229 0
-2.669981351615795 -8.6456713318472 0
0.8398497098396469 -2.313850115078683 0
2.732700979481685 -4.918163371700788 0
-1.392707015686694 -3.886363939408308 0
1.389690333596431 -3.684763703612353 0
1.39146166397216 -3.828529226339385 0
1.395332296718069 -3.484065024224867 0
8.045766728709433 -6.652462140297955 0
7.577387444673365 -7.456504018163823 0
-1.756263346865319 -5.280726602821551 0
-1.292612616095917 -5.767202041749721 0
2.652105866820111 -3.707018332907775 0
-3.838272981921752 -8.046400813324329 0
-1.389672467671502 -4.351304059052896 0
-1.484755698503871 -4.188506791998922 0
3.024922425191138 -8.663214761256405 0
-0.3708379989215981 -2.544863661347009 0
1.088826204998082 -5.758740543694145 0
1.596114580779023 -3.992962789748198 0
1.363596756510166 -4.042369676352284 0
-2.195383457933799 -5.075609204089427 0
4.601531162047419 -2.380900153631889 0
1.681772103672418 -6.064880623732626 0
2.088280706798956 -6.02800436994076 0
1.532360215068297 -5.784184838452086 0
0.980149192417294 -5.959108122152982 0
-3.014698307975372 -3.91079232273639 0
1.184236788228854 -2.841576612493959 0
0.4027209774418541 -2.559153072175531 0
0.6500000000000002 -2.813397459621556 0
-5.26878077141813 -8.390573714970413 0
-2.282830227866578 -4.568689203720133 0
-3.44393795682826 -0.7252823973274536 0
6.362258204756198 -8.020665708625634 0
0.7656310209277123 -1.942959882877671 0
3.183242817959013 -4.61265164451766 0
1.165371088714292 -2.695228226288202 0
1.009334262329197 -2.66379028129437 0
1.562534959515576 -4.54302799193198 0
1.395194426958828 -4.386477429264893 0
1.565937836310941 -4.707971751849708 0
1.408948201744956 -4.624719340596004 0
0.5294583474115364 -5.961419276236285 0
-0.2111597330021455 -5.29945732385781 0
3.94859077065574 -6.965930651863252 0
-1.859597149018543 -1.405916332107736 0
-1.457518583438338 -1.031052002669201 0
-0.04265490168033916 -2.577268711645829 0
-1.340439008542684 -3.526852956494797 0
-1.603047601746949 -4.782168217533266 0
-1.34810452056466 -4.719025822193534 0
-3.636750849858557 -9.277910050194743 0
-1.287318946325702 -3.05127260962351 0
-8.231029155236071 -5.005797928061156 0
5.585673078935902 -0.8014701802317266 0
6.09608389880215 -1.595538707824051 0
-5.462277309192832 -0.8337414019210243 0
-5.959689882166397 -1.661290373683361 0
-7.001007516849602 -1.699632641977529 0
-5.011460062475055 -1.551457347471378 0
1.784600873666105 -1.77547760515928 0
1.172518685132017 -5.580289194103056 0
5.459460902061448 -9.238747899081705 0
5.264783376758321 -5.966258322573355 0
0.1247480162936972 -5.305076996354641 0
-2.516207966535932 -3.995661090826569 0
0.5564257038158533 -9.160330389841175 0
0.9500033904128513 -8.446550554474817 0
0.1797651226390958 -8.405526139551323 0
-0.2770505163371071 -9.001574569513545 0
-0.5394571946776252 -8.292656193427943 0
-0.1242689431486097 -7.739049893656145 0
-0.8045786419569976 -7.643644027970294 0
-1.209465389875215 -8.171689219126002 0
0.5572797762385886 -7.880456024112908 0
-1.446580543526438 -7.634714680774477 0
1.774179350552489 -8.387879072466768 0
-0.4158674741488135 -7.298670972082046 0
-7.503923740749198 -0.8665867912385661 0
-7.968918038875366 -1.761955238820196 0
-7.374668365489353 -2.637648881987276 0
-8.308096899402887 -2.622351893788373 0
4.526382293140044 -5.871724851237332 0
-5.713015123464842 -5.423701330209637 0
4.996422498200609 -5.291971358799316 0
9.178764168908588 -4.532084695566123 0
8.425277834135001 -4.992141782524447 0
-9.152935270372863 -4.532840850986208 0
-8.360126529057725 -5.962166318930086 0
-9.158125852702478 -6.414249951861572 0
4.712892258490911 -1.736830876150667 0
1.305444944041199 -2.902425336776556 0
1.180620568973751 -7.774013015966422 0
-2.775685858183945 -4.999926567507477 0
9.033776424836141 -6.57803686176905 0
-2.058100216703771 -7.451299453295662 0
-1.315521054839011 -4.485981885248297 0
-0.1930521724059932 -6.015402192001747 0
-7.80724154583656 -3.403622266322909 0
-4.199691312442342 -1.714218099858802 0
-5.149174097906674 -4.799798109805151 0
7.496892834340455 -0.8235666454848545 0
1.548162553739565 -3.380052008263504 0
1.376777879848812 -3.299350634725825 0
-7.508350624606205 -9.143351124803967 0
-7.860560729091658 -8.21832214308218 0
7.479607368542348 -9.145748287477122 0
3.167596740058009 -2.009370516187237 0
-8.955248821885426 -1.904363323471022 0
-1.808571461527191 -3.139328114229141 0
7.980297886713218 -8.31602076445963 0
9.033095207232851 -2.61118487951819 0
-4.317706300277129 -6.979852361719621 0
1.965242623065679 -3.535185359195238 0
-6.075872485880211 -8.38092713687203 0
-1.322565834019899 -4.208878755105211 0
-1.379928236999594 -4.071425103529987 0
0.04427787216290111 -5.713898649567818 0
1.272170366422101 -3.560746789907936 0
-0.7651322354203635 -5.32147002359637 0
0.340037861580696 -5.32718906747358 0
2.523930016346513 -4.014138591501895 0
3.726494456150332 -8.756720212354656 0
8.418043585366883 -4.11617349944995 0
7.611920140190692 -4.587403068197939 0
0.4731141515860882 -5.292135252476575 0
0.5821239585252832 -5.424777797030516 0
0.7436409233496485 -5.404823830868866 0
-0.5826262338388598 -5.319040967809564 0
-0.4389394991178787 -5.298163324232218 0
-8.154589693309394 -7.369897402340028 0
4.709699397682354 -3.618803537054476 0
4.297898346960827 -3.066977206651772 0
-0.2509794904248565 -0.7222533455474913 0
1.842105743815596 -5.758471945349922 0
2.203396972405887 -5.644697308173701 0
2.171375577487865 -2.809228094738964 0
-2.091442097703569 -5.771072939210715 0
2.795044286770049 -4.609248251646152 0
0.6501460180227545 -5.281520079099362 0
-2.090951089227168 -5.380044263721416 0
-4.036995173978136 -5.890999993113173 0
-4.888150916077186 -5.593909258532445 0
-1.18642374122853 -4.75 0
-1.196951640332856 -4.447498676266213 0
1.186872678856532 -4.35 0
1.188145131424481 -4.55 0
1.262980709980544 -4.500889634379591 0
1.18787517176158 -4.75 0
1.285655431128239 -4.806228775348747 0
1.2821414928759 -4.916258631550898 0
-0.965077521244514 -2.782113015723708 0
-0.8839423377287516 -2.660393769263463 0
-0.9440521281366457 -6.010944529182124 0
-4.491934762656244 -2.8859013921918 0
-1.284788234478553 -3.662427846543696 0
8.467402239980604 -0.7483627386360743 0
6.745069963101055 -2.188263616072994 0
0.009400372848185928 -5.308282411246642 0
-0.9850507363757499 -5.305490545822583 0
1.188854134258602 -4.250000000000001 0
1.284460233832077 -4.200000000000001 0
1.187041506190516 -4.050000000000001 0
-0.6747152648015926 -5.736206847882475 0
-6.954939902528176 -8.312119830760572 0
-6.430291427405344 -7.558783503572828 0
9.265718360574365 -8.481245539783089 0
-9.205231484848237 -8.448628150181975 0
-5.946774677384031 -2.524709444975921 0
-1.196589625974906 -4.251812181118707 0
-1.190292695794019 -4.050332388601173 0
-1.186602540378444 -4.65 0
4.174676086531407 -8.207226510608445 0
1.189449604763071 -3.850000000000001 0
0.6501668448047389 -5.18150081786213 0
0.744084864622321 -5.187889723490512 0
-0.2499999999999985 -5.186602540378444 0
-0.7577951378853706 -5.206955467236275 0
-0.4477878998235749 -5.174273680997821 0
0.05595251965831982 -5.199100245470523 0
0.3497412613591435 -5.208359380503794 0
-0.1515988340323511 -5.194508174356096 0
0.1539927935070001 -5.188859027426091 0
-1.187759888514438 -3.849771703361536 0
-0.5499999999999992 -5.186602540378444 0
0.4549997011286986 -5.179077816494191 0
-2.193574701791539 -3.895035219077276 0
8.336517196425525 -5.840777768007551 0
-5.618612261009665 -9.202455417038683 0
2.43367873457333 -9.096360539118852 0
6.754363104077638 -7.337063438340742 0
1.185970826340133 -3.64345779831799 0
1.290820031326229 -3.041406508588777 0
-1.173358808840596 -3.651433140069144 0
1.840579194801485 -1.230894446506997 0
0.9500000000000008 -5.186602540378442 0
1.663460390477823 -5.53587448302068 0
-0.7255696920785303 -2.70240063074337 0
-0.5635669456325455 -2.617441037414638 0
7.124913119103242 -5.341865800609844 0
6.412684791977413 -4.128656461545178 0
-1.311243143351354 -4.609153121001596 0
1.173141316074036 -3.361279760303666 0
1.221928155124616 -3.268523099666684 0
-1.803427578482235 -5.566894227350623 0
-1.547186762834416 -5.641553246207643 0
-1.189756066684086 -3.350386369049108 0
-1.304652570887517 -3.38878342843682 0
-1.190815409023331 -3.250064394841519 0
-1.200357779339986 -3.565876273854191 0
1.192809972362183 -4.960610874899264 0
2.442074868790407 -5.927112232202593 0
-7.074515587202425 -3.652268944626877 0
2.200679651249986 -3.644253905532156 0
-1.186602540378444 -4.95 0
-8.411106270772288 -4.0176547123982 0
0.1183750852155643 -2.65464864136612 0
-3.007388817056646 -1.47159342427346 0
0.5907232768419015 -2.407963346198463 0
0.595598786794997 -2.598100947739679 0
-1.297211296735139 -3.194121070362906 0
1.175218489923407 -3.048522202300794 0
1.322369166593207 -3.172876847460149 0
-1.186602540378441 -3.050000000000001 0
2.469185700895206 -7.395871254777369 0
-1.01898134126756 -2.400173302919534 0
-1.552524577168075 -2.889933948937408 0
1.409406554894641 -4.756044022856437 0
4.157277469535766 -3.764167308762955 0
-0.3499999999999996 -2.808404362038262 0
-0.2499999999999983 -2.808122292529172 0
-0.1565090996893647 -2.695337036455018 0
-1.277984501247901 -4.796203269340384 0
-0.03938749715947928 -2.824057252857015 0
-0.95 -5.186602540378443 0
0.3500000000000004 -2.807258604395012 0
0.2689264374182954 -2.679925778994458 0
0.1518229251205925 -2.805375666391279 0
0.5500000000000003 -2.806787961479679 0
0.7354634598025365 -2.696394116245071 0
0.7470926919605078 -2.824637807097636 0
-0.5502582422667796 -2.812686017659186 0
7.126968991154721 -8.333093712592092 0
1.286301140623153 -3.401317337843055 0
-2.911481990280984 -2.236103761939735 0
4.054277663301275 -5.557877320841801 0
2.45433200754209 -4.395766313658815 0
-0.02653508049004063 -1.32971943633804 0
-1.422757604786763 -4.860218545347085 0
0.9496836047358501 -2.795734361516287 0
2.822476788398034 -5.268153688835836 0
-1.343698531973441 -5.574624807039956 0
-0.1041062075815744 -5.283277140692854 0
-1.192712462359727 -5.967987495906698 0
-1.516468531564998 -5.220293862785643 0
-0.4000000000000018 -2.70334241658768 0
-0.9465518803447508 -0.8257788023049537 0
1.943506756953566 -3.285092270780923 0
0.6060033130152487 -7.092407828051344 0
-2.363317563336518 -1.380703107560786 0
-1.297261309627356 -3.788646558172778 0
-4.453888004407454 -4.731699067170652 0
4.419627550441183 -5.143665754226289 0
2.195365790096678 -4.617243960193893 0
1.471595551826836 -7.278255666127362 0
3.836490070976316 -3.377977861948558 0
-0.8473188541674446 -5.784973026488855 0
-1.255993529352523 -6.85830034522384 0
4.367491108172254 -7.470420286007259 0
-4.728762413905928 -2.215952006579574 0
-1.448033296008782 -5.969434683623147 0
8.434709167826105 -2.030705434016856 0
1.527329004823904 -5.361758815784876 0
1.915104478659768 -5.474810625796049 0
1.373172455332914 -1.472234937550919 0
-0.1277621803523026 -5.752168160189536 0
-0.4290587536573486 -5.963486707649968 0
-3.261934223996859 -6.460269501957643 0
-1.274975322401646 -4.390683517223915 0
1.276577329011856 -4.596965550242675 0
1.292519368518341 -4.69732628150731 0
-2.117115629932672 -4.347170277070469 0
-0.4909986033208092 -5.752317087381362 0
0.2087992299756012 -5.751333784844161 0
3.427588611440793 -2.454868750501929 0
3.9860199513545 -2.465275416247747 0
1.304180882805204 -5.742366349369585 0
3.629081620675437 -6.47594334118904 0
0.3856432061849278 -1.995002170273755 0
0.4594280840058639 -1.542430363311109 0
2.398551114534093 -5.359311055034455 0
1.299662820388983 -5.029770194895018 0
1.287698369917419 -3.800000000000002 0
2.212932974268378 -4.173803257699683 0
0.7546604750777497 -5.963652378336977 0
1.273510437453301 -4.399999999999999 0
0.3095610848165613 -5.954802928263128 0
-1.833472641753895 -8.618491136246433 0
0.8334477561201956 -6.176081176831363 0
4.22612670662347 -6.482160413715362 0
-0.2364444520461181 -1.689883486206586 0
2.212054315100039 -3.151452661281176 0
-4.44946615432453 -8.399271592572159 0
0.4999999999999998 -2.696538705782362 0
1.288015215461056 -4.308337368737659 0
1.415097510296839 -4.264677928954971 0
1.498831012067145 -4.125262792395725 0
1.71412210966237 -3.240905992879642 0
-2.306138898307088 -9.325221685645708 0
-1.273717960775896 -4.302742529805327 0
8.362278797147193 -7.387345079181164 0
-1.283899587692559 -4.000000000000003 0
1.937207416055674 -5.23877594040567 0
1.789295314309241 -7.790080251098402 0
-1.032569933233559 -8.802593411910554 0
-1.140666373243104 -7.260590844050107 0
1.278348801066353 -4.09952754444069 0
5.863709537108694 -8.596717327882041 0
1.169121453131294 -3.552120677948851 0
-0.3212914650499678 -5.28637579010706 0
6.057070538053217 -2.358914216962269 0
5.016597621355093 -8.53696835537913 0
0.5912770962229174 -2.190633912416628 0
1.514887934252602 -3.224904182632751 0
-1.783617647021092 -7.985221360950623 0
-2.438571665527923 -4.872888889752939 0
-9.180505495929008 -2.722424051186857 0
1.257759017015876 -4.008379444158596 0
-0.186823382638293 -6.971284702822261 0
1.054213946371943 -5.428552105103305 0
-1.604347594792755 -3.046235724052471 0
-2.085369861333947 -1.745500769983078 0
-1.961584806089688 -6.91217848180212 0
1.30430648545767 -3.918963868598329 0
-1.27445343909771 -4.09652611576868 0
-1.45725875232177 -5.030970095706472 0
0.7940410367382682 -5.283115161144752 0
3.298062019360043 -9.340269972946555 0
7.026123247713095 -1.45119467081683 0
-1.270022143576739 -3.894956440188525 0
-0.5530359468652459 -6.940949162939254 0
1.269499204696903 -3.693772274677376 0
7.063889984725135 -4.123204043825081 0
-3.952380942368262 -6.440556293792802 0
1.957418826875906 -0.6891387904919632 0
-1.518826017237172 -4.04219758625102 0
-6.608837776398108 -2.341157565508895 0
-1.234823044388185 -2.276450162014132 0
-9.272083795719428 -1.194334016620219 0
1.402629219462804 -5.540395186282223 0
-0.7445348799051229 -2.823196372013865 0
-1.421729343933718 -2.454677217872792 0
0.3258106283339355 -7.420159592665539 0
-3.941705284627647 -7.431955177748295 0
-2.709776962776545 -3.590857568277842 0
0.8929932293698619 -5.389950512308514 0
0.9119491864239446 -2.530465641406009 0
1.232605115588429 -5.416515178102662 0
-3.361877236710694 -8.631589985186007 0
7.993958819025239 -1.430514275020587 0
9.26794919243112 -0.7320508075688794 0
9.267949192431123 -9.267949192431123 0
-9.267949192431123 -9.267949192431123 0
-1.277607587859034 -3.293250419578977 0
-0.2018591596807399 -2.583589943558522 0
0.8644298299629593 -2.669990707038798 0
-1.972377388068366 -0.8899339145872993 0
7.810732138737518 -5.351757285786958 0
-1.416379470712447 -3.41327307460273 0
-0.0131871901792387 -2.715340633873654 0
1.390620141858751 -4.501319639076312 0
1.094550071802884 -1.837997615232754 0
0.7435093041349192 -2.528307839701343 0
-1.422232891108604 -2.778797274927792 0
-1.355102022651158 -2.624461357810184 0
-2.541651105710953 -5.274081751756771 0
2.15447781143001 -3.408846153838523 0
-0.04026007655804192 -7.289956909398331 0
-8.455068024794116 -6.705528214823431 0
-3.707393296935576 -1.346396977436916 0
-1.607382233545497 -5.448662297609747 0
2.144775383330807 -5.401984654398473 0
3.000000092324303 -4.910574205335279 0
8.453623119813239 -3.395584482009444 0
-5.375880892631195 -2.133818765176753 0
-1.426961025520621 -2.968872881351563 0
-0.815846525500583 -9.378572934640884 0
0.4143520604807638 -6.158702901159995 0
-3.957273444563107 -8.69782940749856 0
0.8969434164036345 -5.268515409140913 0
-7.690753116354133 -5.704032186642051 0
-0.8634844441756754 -5.286822432953487 0
-0.77921131778182 -7.240061609855392 0
-1.055734309261341 -1.303257116093647 0
0.8269814569845032 -5.481710357490313 0
1.299233098834353 -2.775105148309243 0
-2.373153106257575 -4.306237750051675 0
-1.471534632809478 -4.677519185233336 0
-0.6766316485583622 -5.284381158556055 0
-1.995465670424555 -2.979327635393009 0
-1.296365461102134 -2.774551541336399 0
-0.288201043048617 -2.690609952085945 0
1.542233088186993 -4.849946832180939 0
0.6000000000000002 -2.722878060544438 0
-1.475289570370291 -0.5493529439122904 0
0.3943294829720301 -2.710157940855416 0
-1.499392380741717 -3.811782548432619 0
-0.5767498249666562 -2.430408809723087 0
0.1986128122135785 -2.730815815833943 0
-2.211176738764197 -4.130544241647632 0
4.49871626320436 -6.945148254599776 0
-0.5990694521860463 -2.734210836983098 0
-0.5125789280170745 -2.735414105078308 0
4.228433042981748 -2.020117707148686 0
3.730439018463652 -2.012027302804366 0
-8.54889476732389 -3.28019169830368 0
1.383992060679591 -4.153661696949506 0
0.2423394519078839 -5.270836533625698 0
8.649428282070501 -8.119545752951888 0
3.942723897458609 -0.9831746080876274 0
-1.581248553397245 -7.153038228544269 0
-1.262071689354178 -4.704876442507103 0
-4.690434969252322 -5.104873042781422 0
2.411312427792276 -3.754861987335954 0
1.453577045502821 -3.953468733338033 0
-2.963755979649329 -9.219145343194086 0
-0.9306283295554633 -2.546197701115299 0
0.7374394329569972 -7.468201374028231 0
-1.533301771410482 -3.357220345401311 0
2.80360899720652 -3.941185177097567 0
0.0575949593707288 -5.885660126877079 0
-1.269738261220372 -4.893903722639867 0
3.530820407766924 -1.47041844935868 0
-8.596498954528494 -8.04204697595029 0
0.6350214817231625 -6.128570889972329 0
1.530727007877018 -4.39492725505721 0
5.311246800902956 -1.448192704878026 0
0.9323630188790586 -1.019587619824879 0
1.385474542634732 -2.970547173467572 0
-9.422897975731964 -0.5649587217866401 0
$EndNodes
$Elements
9 1872 1 1872
1 1 1 20
1 2 9 
2 9 10 
3 10 11 
4 11 12 
5 12 13 
6 13 14 
7 14 15 
8 15 16 
9 16 17 
10 17 18 
11 18 19 
12 19 20 
13 20 21 
14 21 22 
15 22 23 
16 23 24 
17 24 25 
18 25 26 
19 26 27 
20 27 1 
1 2 1 10
21 1 28 
22 28 29 
23 29 30 
24 30 31 
25 31 32 
26 32 33 
27 33 34 
28 34 35 
29 35 36 
30 36 4 
1 3 1 20
31 4 37 
32 37 38 
33 38 39 
34 39 40 
35 40 41 
36 41 42 
37 42 43 
38 43 44 
39 44 45 
40 45 46 
41 46 47 
42 47 48 
43 48 49 
44 49 50 
45 50 51 
46 51 52 
47 52 53 
48 53 54 
49 54 55 
50 55 3 
1 4 1 10
51 3 56 
52 56 57 
53 57 58 
54 58 59 
55 59 60 
56 60 61 
57 61 62 
58 62 63 
59 63 64 
60 64 2 
1 5 1 22
61 7 65 
62 65 66 
63 66 67 
64 67 68 
65 68 69 
66 69 70 
67 70 71 
68 71 72 
69 72 73 
70 73 74 
71 74 75 
72 75 76 
73 76 77 
74 77 78 
75 78 79 
76 79 80 
77 80 81 
78 81 82 
79 82 83 
80 83 84 
81 84 85 
82 85 6 
1 6 1 22
83 6 86 
84 86 87 
85 87 88 
86 88 89 
87 89 90 
88 90 91 
89 91 92 
90 92 93 
91 93 94 
92 94 95 
93 95 96 
94 96 97 
95 97 98 
96 98 99 
97 99 100 
98 100 101 
99 101 102 
100 102 103 
101 103 104 
102 104 105 
103 105 106 
104 106 5 
1 7 1 22
105 7 107 
106 107 108 
107 108 109 
108 109 110 
109 110 111 
110 111 112 
111 112 113 
112 113 114 
113 114 115 
114 115 116 
115 116 117 
116 117 118 
117 118 119 
118 119 120 
119 120 121 
120 121 122 
121 122 123 
122 123 124 
123 124 125 
124 125 126 
125 126 127 
126 127 8 
1 8 1 22
127 8 128 
128 128 129 
129 129 130 
130 130 131 
131 131 132 
132 132 133 
133 133 134 
134 134 135 
135 135 136 
136 136 137 
137 137 138 
138 138 139 
139 139 140 
140 140 141 
141 141 142 
142 142 143 
143 143 144 
144 144 145 
145 145 146 
146 146 147 
147 147 148 
148 148 5 
2 1 2 1724
149 520 708 233 
150 401 810 721 
151 733 905 713 
152 514 783 284 
153 369 533 370 
154 786 934 201 
155 170 706 545 
156 304 709 577 
157 238 520 233 
158 523 562 275 
159 600 740 700 
160 369 370 332 
161 547 894 698 
162 331 369 332 
163 454 803 515 
164 669 818 167 
165 242 522 284 
166 528 822 275 
167 381 741 714 
168 824 830 516 
169 270 523 275 
170 721 810 326 
171 743 760 460 
172 364 904 476 
173 159 636 622 
174 459 803 454 
175 593 698 403 
176 774 840 266 
177 317 318 316 
178 383 513 374 
179 623 624 433 
180 284 522 514 
181 577 709 595 
182 485 935 367 
183 404 850 509 
184 686 834 43 
185 322 371 320 
186 336 389 337 
187 401 686 573 
188 333 367 331 
189 479 639 638 
190 264 637 634 
191 14 529 172 
192 529 876 172 
193 275 893 528 
194 315 317 316 
195 42 834 167 
196 619 669 167 
197 591 807 504 
198 389 406 337 
199 638 639 271 
200 44 686 43 
201 570 811 794 
202 168 685 527 
203 206 207 205 
204 408 733 713 
205 531 786 201 
206 315 316 299 
207 210 798 633 
208 525 733 408 
209 374 904 364 
210 367 369 331 
211 728 866 385 
212 336 337 335 
213 677 682 622 
214 242 795 522 
215 486 840 774 
216 208 296 207 
217 202 204 187 
218 345 510 403 
219 652 706 690 
220 318 336 335 
221 406 757 500 
222 171 587 203 
223 408 544 383 
224 563 564 179 
225 472 818 669 
226 509 799 404 
227 223 879 532 
228 593 641 152 
229 545 706 652 
230 204 206 205 
231 204 205 187 
232 555 577 576 
233 637 872 517 
234 264 872 637 
235 169 740 615 
236 365 374 364 
237 281 798 210 
238 296 333 331 
239 700 719 600 
240 296 331 330 
241 346 894 546 
242 573 810 401 
243 375 383 374 
244 342 511 345 
245 368 485 367 
246 251 773 594 
247 277 581 231 
248 242 284 240 
249 482 760 743 
250 589 810 573 
251 698 894 403 
252 464 501 465 
253 206 208 207 
254 652 757 406 
255 742 759 579 
256 171 933 587 
257 545 704 170 
258 389 545 406 
259 785 786 531 
260 384 408 383 
261 371 478 320 
262 348 546 351 
263 745 832 351 
264 505 739 687 
265 537 538 535 
266 564 589 573 
267 587 910 203 
268 626 681 675 
269 430 623 433 
270 383 861 513 
271 231 581 221 
272 51 685 168 
273 464 502 501 
274 293 763 660 
275 281 920 710 
276 747 787 468 
277 249 292 246 
278 625 681 626 
279 299 523 273 
280 546 745 351 
281 454 515 458 
282 157 584 550 
283 533 534 370 
284 531 819 785 
285 45 563 179 
286 240 519 238 
287 617 677 622 
288 318 335 334 
289 743 790 618 
290 354 656 355 
291 476 694 649 
292 259 634 280 
293 337 341 338 
294 512 686 401 
295 253 293 251 
296 579 759 581 
297 555 576 575 
298 551 933 171 
299 251 594 249 
300 613 842 500 
301 512 834 686 
302 560 581 277 
303 458 515 464 
304 284 521 519 
305 345 403 346 
306 780 927 614 
307 21 202 187 
308 186 529 15 
309 420 540 423 
310 334 683 562 
311 446 537 450 
312 830 921 516 
313 156 666 612 
314 363 364 324 
315 567 568 565 
316 562 851 334 
317 333 633 474 
318 193 807 591 
319 450 535 452 
320 452 459 454 
321 19 934 195 
322 418 626 420 
323 367 892 369 
324 423 749 655 
325 590 872 265 
326 195 934 786 
327 458 464 462 
328 476 695 694 
329 212 281 210 
330 223 532 218 
331 563 565 564 
332 530 739 182 
333 794 821 570 
334 23 551 171 
335 296 633 333 
336 471 788 647 
337 618 790 463 
338 504 684 591 
339 346 546 348 
340 399 661 602 
341 319 320 317 
342 403 894 346 
343 19 195 18 
344 714 756 381 
345 608 880 483 
346 793 927 780 
347 356 751 473 
348 501 503 465 
349 519 520 238 
350 21 187 20 
351 16 186 15 
352 569 574 568 
353 565 571 564 
354 623 636 624 
355 268 590 265 
356 567 569 568 
357 322 848 371 
358 626 816 420 
359 364 844 324 
360 228 234 225 
361 423 655 425 
362 478 896 320 
363 553 554 181 
364 510 593 403 
365 314 315 299 
366 239 240 238 
367 270 275 268 
368 527 799 168 
369 342 842 511 
370 502 921 830 
371 650 763 293 
372 7 491 107 
373 422 772 594 
374 10 575 197 
375 212 508 281 
376 333 368 367 
377 460 790 743 
378 58 586 194 
379 584 712 550 
380 450 537 535 
381 714 741 387 
382 769 846 456 
383 564 573 179 
384 550 585 157 
385 409 525 408 
386 237 238 233 
387 342 345 344 
388 336 925 389 
389 695 908 694 
390 296 330 207 
391 474 804 368 
392 672 833 636 
393 464 465 462 
394 794 811 178 
395 687 739 530 
396 273 523 270 
397 12 553 181 
398 348 351 350 
399 11 575 10 
400 284 783 521 
401 182 814 530 
402 275 822 590 
403 576 605 197 
404 255 650 253 
405 622 636 623 
406 5 438 437 
407 293 773 251 
408 320 896 317 
409 501 615 503 
410 507 767 702 
411 558 854 846 
412 233 708 228 
413 660 779 293 
414 298 299 273 
415 40 559 182 
416 568 571 565 
417 216 230 214 
418 752 909 695 
419 317 896 318 
420 241 242 240 
421 446 899 537 
422 214 508 212 
423 284 519 240 
424 508 920 281 
425 476 923 722 
426 325 782 629 
427 20 841 200 
428 630 753 17 
429 46 566 563 
430 286 560 277 
431 207 557 205 
432 225 747 223 
433 318 334 316 
434 442 788 471 
435 602 627 399 
436 674 888 190 
437 586 875 194 
438 425 561 427 
439 621 696 303 
440 200 934 19 
441 473 496 352 
442 615 815 169 
443 205 691 187 
444 553 556 554 
445 761 810 589 
446 299 851 523 
447 187 841 20 
448 575 576 197 
449 476 722 364 
450 331 332 330 
451 275 590 268 
452 107 648 108 
453 371 723 478 
454 337 903 341 
455 243 244 242 
456 288 761 589 
457 676 679 561 
458 161 681 625 
459 345 511 510 
460 399 662 661 
461 665 843 554 
462 20 200 19 
463 466 470 436 
464 725 762 629 
465 502 789 501 
466 59 586 58 
467 499 747 468 
468 390 488 487 
469 764 917 294 
470 437 466 436 
471 693 846 769 
472 629 782 518 
473 655 676 561 
474 245 246 244 
475 452 932 459 
476 45 179 44 
477 48 178 47 
478 168 548 50 
479 179 686 44 
480 713 734 175 
481 46 563 45 
482 337 338 335 
483 16 863 186 
484 180 552 551 
485 321 322 320 
486 224 225 223 
487 172 553 13 
488 620 621 413 
489 172 556 553 
490 535 932 452 
491 23 171 22 
492 414 416 415 
493 14 172 13 
494 353 473 352 
495 247 249 246 
496 488 717 487 
497 255 750 650 
498 391 629 518 
499 728 898 861 
500 302 580 309 
501 230 743 618 
502 249 594 292 
503 433 891 435 
504 201 868 531 
505 588 892 367 
506 812 917 764 
507 500 842 341 
508 355 656 358 
509 628 725 629 
510 615 740 503 
511 302 597 580 
512 677 914 165 
513 487 925 390 
514 42 167 41 
515 51 168 50 
516 671 672 636 
517 571 589 564 
518 250 251 249 
519 167 559 41 
520 186 714 529 
521 31 582 184 
522 185 584 61 
523 554 843 555 
524 393 639 479 
525 566 567 565 
526 172 596 556 
527 607 739 505 
528 393 479 394 
529 475 579 560 
530 527 685 611 
531 582 620 184 
532 414 616 416 
533 311 560 286 
534 382 475 311 
535 6 354 353 
536 597 639 580 
537 632 787 234 
538 792 801 536 
539 634 701 280 
540 184 880 608 
541 216 532 230 
542 252 253 251 
543 363 365 364 
544 341 342 338 
545 195 630 18 
546 180 551 24 
547 358 414 372 
548 172 876 596 
549 22 202 21 
550 15 529 14 
551 475 560 311 
552 552 835 654 
553 365 375 374 
554 255 767 750 
555 661 662 611 
556 496 711 352 
557 515 921 464 
558 237 239 238 
559 552 817 392 
560 158 583 582 
561 611 685 183 
562 289 597 291 
563 511 612 510 
564 442 471 444 
565 416 418 417 
566 392 933 552 
567 483 768 608 
568 152 698 593 
569 22 916 202 
570 315 319 317 
571 754 804 474 
572 500 903 406 
573 195 786 744 
574 316 851 299 
575 345 346 344 
576 326 810 761 
577 360 751 356 
578 194 875 627 
579 227 228 225 
580 25 598 180 
581 222 223 218 
582 46 883 566 
583 538 867 535 
584 193 591 34 
585 406 903 337 
586 427 617 429 
587 390 925 336 
588 438 439 437 
589 500 808 613 
590 181 575 11 
591 550 712 400 
592 433 435 434 
593 338 683 335 
594 378 393 380 
595 521 631 519 
596 450 452 451 
597 577 578 576 
598 579 581 560 
599 540 749 423 
600 202 929 204 
601 375 384 383 
602 257 767 255 
603 418 420 419 
604 416 625 418 
605 158 582 32 
606 60 584 157 
607 208 633 296 
608 157 586 59 
609 309 580 378 
610 33 158 32 
611 60 157 59 
612 425 427 426 
613 503 600 599 
614 423 425 424 
615 420 423 421 
616 472 765 382 
617 53 601 183 
618 772 927 594 
619 635 743 230 
620 570 572 569 
621 519 631 520 
622 220 628 226 
623 201 934 771 
624 358 656 414 
625 24 551 23 
626 298 314 299 
627 747 879 223 
628 609 850 404 
629 393 394 380 
630 254 255 253 
631 427 429 428 
632 293 779 773 
633 18 630 17 
634 259 280 257 
635 33 591 158 
636 291 597 302 
637 210 633 208 
638 736 869 862 
639 446 450 449 
640 343 683 338 
641 378 580 393 
642 292 927 793 
643 318 606 336 
644 549 717 488 
645 368 820 485 
646 50 548 49 
647 199 930 602 
648 765 907 382 
649 253 650 293 
650 351 506 350 
651 384 409 408 
652 203 916 171 
653 214 926 508 
654 266 840 638 
655 626 675 166 
656 158 684 583 
657 846 854 456 
658 554 555 181 
659 25 180 24 
660 12 181 11 
661 211 212 210 
662 768 856 196 
663 605 845 197 
664 513 752 695 
665 792 867 644 
666 63 845 605 
667 516 921 803 
668 577 595 578 
669 244 795 242 
670 38 603 198 
671 264 634 261 
672 40 182 39 
673 53 183 52 
674 630 744 366 
675 13 553 12 
676 537 724 538 
677 151 719 700 
678 470 692 436 
679 603 607 198 
680 239 241 240 
681 430 433 432 
682 204 604 206 
683 180 835 552 
684 41 559 40 
685 213 214 212 
686 745 894 547 
687 452 454 453 
688 196 856 653 
689 394 609 404 
690 538 777 776 
691 182 603 39 
692 29 608 196 
693 267 268 265 
694 171 916 22 
695 722 844 364 
696 199 602 601 
697 454 458 457 
698 31 184 30 
699 62 185 61 
700 26 598 25 
701 388 524 8 
702 612 831 156 
703 545 652 406 
704 544 866 728 
705 370 853 498 
706 261 634 259 
707 479 609 394 
708 631 770 632 
709 635 879 499 
710 184 608 30 
711 32 582 31 
712 61 584 60 
713 315 741 319 
714 652 690 153 
715 199 601 54 
716 222 224 223 
717 154 717 549 
718 602 661 601 
719 282 391 312 
720 226 628 282 
721 724 777 538 
722 54 601 53 
723 664 930 199 
724 391 518 392 
725 464 921 502 
726 282 628 391 
727 263 264 261 
728 633 798 474 
729 593 775 641 
730 279 829 592 
731 621 839 413 
732 562 893 275 
733 209 210 208 
734 801 802 536 
735 458 462 461 
736 64 845 63 
737 34 591 33 
738 793 884 292 
739 309 378 377 
740 802 932 536 
741 215 216 214 
742 394 404 395 
743 256 257 255 
744 35 193 34 
745 58 194 57 
746 505 807 607 
747 585 586 157 
748 361 382 311 
749 420 816 540 
750 378 380 379 
751 503 740 600 
752 241 243 242 
753 354 731 656 
754 39 603 38 
755 583 620 582 
756 568 849 571 
757 592 917 572 
758 30 608 29 
759 621 864 696 
760 151 718 689 
761 563 566 565 
762 29 196 28 
763 10 197 9 
764 310 311 286 
765 491 648 107 
766 583 621 620 
767 38 198 37 
768 55 199 54 
769 622 682 159 
770 185 712 584 
771 319 321 320 
772 174 737 736 
773 292 884 246 
774 597 919 639 
775 607 915 198 
776 234 708 632 
777 182 739 603 
778 224 227 225 
779 246 884 244 
780 397 472 382 
781 159 671 636 
782 471 647 646 
783 243 245 244 
784 702 767 280 
785 435 852 826 
786 218 532 216 
787 715 716 525 
788 280 767 257 
789 435 558 514 
790 229 796 784 
791 616 888 674 
792 234 787 747 
793 414 415 372 
794 370 498 480 
795 523 851 562 
796 736 737 526 
797 784 796 541 
798 341 842 342 
799 567 570 569 
800 245 247 246 
801 559 814 182 
802 532 635 230 
803 396 797 744 
804 689 719 151 
805 160 676 655 
806 247 250 249 
807 269 270 268 
808 394 395 380 
809 744 786 396 
810 378 379 377 
811 229 742 579 
812 408 713 544 
813 625 895 161 
814 594 773 422 
815 861 898 513 
816 289 758 597 
817 578 605 576 
818 52 685 51 
819 291 302 301 
820 844 848 322 
821 577 843 304 
822 693 769 447 
823 228 708 234 
824 354 355 353 
825 814 818 397 
826 572 821 592 
827 250 252 251 
828 206 604 209 
829 521 693 631 
830 232 233 228 
831 211 213 212 
832 405 763 650 
833 27 653 26 
834 684 864 583 
835 153 757 652 
836 323 324 322 
837 617 914 677 
838 36 663 35 
839 57 664 56 
840 580 639 393 
841 555 575 181 
842 601 661 183 
843 341 903 500 
844 429 623 430 
845 234 747 225 
846 252 254 253 
847 108 648 177 
848 416 417 415 
849 710 873 281 
850 719 820 600 
851 631 632 520 
852 302 309 308 
853 305 541 327 
854 310 361 311 
855 26 653 598 
856 213 215 214 
857 183 661 611 
858 324 844 322 
859 644 867 776 
860 206 209 208 
861 637 701 634 
862 302 308 301 
863 729 928 745 
864 572 812 569 
865 591 684 158 
866 450 451 449 
867 625 626 418 
868 628 629 391 
869 376 400 308 
870 404 527 395 
871 276 277 231 
872 309 376 308 
873 605 823 63 
874 309 377 376 
875 198 915 663 
876 789 838 501 
877 376 550 400 
878 361 397 382 
879 236 237 233 
880 215 217 216 
881 319 741 381 
882 265 872 264 
883 379 399 398 
884 217 218 216 
885 511 613 612 
886 230 926 214 
887 274 298 273 
888 300 339 290 
889 771 934 200 
890 409 715 525 
891 391 392 312 
892 589 924 288 
893 386 387 314 
894 646 724 471 
895 494 649 648 
896 549 720 154 
897 395 662 380 
898 400 712 595 
899 399 627 398 
900 297 402 329 
901 291 301 300 
902 307 486 287 
903 35 663 193 
904 194 664 57 
905 379 398 377 
906 418 419 417 
907 503 599 465 
908 289 291 290 
909 504 505 329 
910 328 401 306 
911 595 709 400 
912 209 211 210 
913 425 655 561 
914 272 273 270 
915 579 796 229 
916 254 256 255 
917 425 426 424 
918 84 162 83 
919 144 188 145 
920 143 643 144 
921 145 645 146 
922 81 152 80 
923 142 149 143 
924 146 155 147 
925 423 424 421 
926 420 421 419 
927 536 932 867 
928 335 683 334 
929 558 846 783 
930 536 867 792 
931 301 304 300 
932 729 745 547 
933 360 748 702 
934 351 751 506 
935 412 413 411 
936 581 759 221 
937 342 344 343 
938 447 770 693 
939 274 651 298 
940 435 891 852 
941 518 587 392 
942 166 816 626 
943 916 929 202 
944 561 914 427 
945 279 592 295 
946 295 592 407 
947 367 935 588 
948 313 411 283 
949 267 269 268 
950 654 817 552 
951 285 286 277 
952 826 852 470 
953 339 651 290 
954 412 484 483 
955 435 514 434 
956 611 662 395 
957 527 611 395 
958 427 428 426 
959 862 869 853 
960 80 641 79 
961 532 879 635 
962 183 685 52 
963 291 300 290 
964 433 434 432 
965 380 662 379 
966 452 453 451 
967 289 290 274 
968 313 654 412 
969 617 622 429 
970 297 310 286 
971 744 797 366 
972 272 289 274 
973 366 753 630 
974 63 823 62 
975 235 276 231 
976 465 469 462 
977 226 282 235 
978 402 504 329 
979 666 806 612 
980 459 932 802 
981 482 743 635 
982 650 750 405 
983 79 189 78 
984 509 885 799 
985 412 483 413 
986 226 231 221 
987 636 833 624 
988 429 430 428 
989 276 303 285 
990 557 691 205 
991 827 882 488 
992 276 285 277 
993 691 771 200 
994 47 883 46 
995 397 818 472 
996 82 668 81 
997 282 312 283 
998 835 856 484 
999 313 412 411 
1000 48 805 178 
1001 466 854 826 
1002 707 788 438 
1003 330 557 207 
1004 361 530 397 
1005 219 222 218 
1006 256 258 257 
1007 297 329 310 
1008 285 297 286 
1009 298 651 386 
1010 829 917 592 
1011 78 666 77 
1012 695 904 513 
1013 175 866 713 
1014 295 407 340 
1015 290 651 274 
1016 220 725 628 
1017 379 662 399 
1018 401 721 306 
1019 556 881 554 
1020 227 232 228 
1021 693 770 631 
1022 139 163 140 
1023 386 596 387 
1024 632 878 787 
1025 400 709 308 
1026 463 920 618 
1027 305 784 541 
1028 867 932 535 
1029 505 687 329 
1030 140 657 141 
1031 494 648 491 
1032 355 358 357 
1033 300 665 339 
1034 555 843 577 
1035 454 457 453 
1036 458 461 457 
1037 141 642 142 
1038 77 156 76 
1039 217 219 218 
1040 566 811 567 
1041 573 686 179 
1042 534 853 370 
1043 585 887 398 
1044 526 900 736 
1045 263 265 264 
1046 312 313 283 
1047 318 896 606 
1048 346 348 347 
1049 809 878 770 
1050 402 684 504 
1051 649 923 476 
1052 28 857 1 
1053 1 857 27 
1054 673 816 166 
1055 3 859 55 
1056 56 859 3 
1057 4 858 36 
1058 37 858 4 
1059 412 654 484 
1060 301 709 304 
1061 138 659 139 
1062 226 235 231 
1063 282 283 235 
1064 332 481 330 
1065 178 883 47 
1066 613 831 612 
1067 308 709 301 
1068 168 885 548 
1069 298 386 314 
1070 83 640 82 
1071 76 667 75 
1072 465 599 469 
1073 751 832 473 
1074 267 638 271 
1075 569 889 574 
1076 543 901 753 
1077 328 619 512 
1078 147 707 148 
1079 297 696 402 
1080 272 274 273 
1081 137 191 138 
1082 776 867 538 
1083 220 221 219 
1084 304 665 300 
1085 550 887 585 
1086 85 711 84 
1087 267 271 269 
1088 609 840 486 
1089 105 164 104 
1090 102 159 101 
1091 89 674 88 
1092 93 166 92 
1093 96 160 95 
1094 99 165 98 
1095 88 190 87 
1096 90 161 89 
1097 753 901 17 
1098 75 192 74 
1099 439 442 441 
1100 485 820 719 
1101 203 929 916 
1102 803 921 515 
1103 266 638 267 
1104 197 936 9 
1105 95 678 94 
1106 220 226 221 
1107 321 323 322 
1108 91 681 90 
1109 167 818 559 
1110 49 805 48 
1111 98 679 97 
1112 486 850 609 
1113 101 682 100 
1114 94 673 93 
1115 444 899 446 
1116 402 864 684 
1117 104 672 103 
1118 92 675 91 
1119 97 676 96 
1120 269 272 270 
1121 370 480 332 
1122 310 687 361 
1123 305 327 306 
1124 136 670 137 
1125 328 512 401 
1126 100 677 99 
1127 603 739 607 
1128 348 350 349 
1129 568 874 849 
1130 358 372 359 
1131 74 680 73 
1132 258 259 257 
1133 103 671 102 
1134 435 826 558 
1135 106 692 105 
1136 362 363 324 
1137 188 645 145 
1138 144 643 188 
1139 146 645 155 
1140 149 643 143 
1141 616 895 416 
1142 513 904 374 
1143 382 907 475 
1144 333 474 368 
1145 43 834 42 
1146 217 220 219 
1147 624 891 433 
1148 211 325 213 
1149 481 557 330 
1150 646 777 724 
1151 135 150 136 
1152 327 669 328 
1153 224 229 227 
1154 314 741 315 
1155 329 687 310 
1156 587 933 392 
1157 73 153 72 
1158 629 762 325 
1159 327 328 306 
1160 552 933 551 
1161 237 326 239 
1162 482 635 499 
1163 411 697 283 
1164 388 533 524 
1165 266 267 265 
1166 152 641 80 
1167 340 509 307 
1168 134 688 135 
1169 484 768 483 
1170 407 497 340 
1171 442 444 443 
1172 387 741 314 
1173 5 436 106 
1174 596 766 556 
1175 574 874 568 
1176 455 482 468 
1177 427 914 617 
1178 195 744 630 
1179 622 623 429 
1180 517 872 822 
1181 271 758 269 
1182 444 446 445 
1183 72 690 71 
1184 594 927 292 
1185 467 878 809 
1186 446 449 448 
1187 500 836 808 
1188 295 307 287 
1189 455 760 482 
1190 328 669 619 
1191 608 768 196 
1192 276 697 303 
1193 475 796 579 
1194 361 687 530 
1195 548 922 49 
1196 702 748 507 
1197 71 706 70 
1198 81 668 152 
1199 295 340 307 
1200 236 721 237 
1201 513 898 752 
1202 802 803 459 
1203 416 895 625 
1204 79 641 189 
1205 647 788 707 
1206 232 236 233 
1207 131 699 132 
1208 69 703 68 
1209 132 169 133 
1210 673 678 540 
1211 70 170 69 
1212 303 839 621 
1213 285 696 297 
1214 303 696 285 
1215 376 887 550 
1216 148 438 5 
1217 235 697 276 
1218 691 841 187 
1219 462 610 461 
1220 499 879 747 
1221 745 928 496 
1222 87 731 86 
1223 215 725 217 
1224 142 642 149 
1225 336 606 390 
1226 486 774 287 
1227 342 343 338 
1228 655 749 160 
1229 130 700 131 
1230 68 705 67 
1231 6 352 85 
1232 455 467 448 
1233 305 306 236 
1234 241 288 243 
1235 388 746 534 
1236 702 877 360 
1237 221 759 219 
1238 398 887 377 
1239 327 765 669 
1240 369 892 533 
1241 598 835 180 
1242 559 818 814 
1243 162 640 83 
1244 189 666 78 
1245 506 701 637 
1246 245 248 247 
1247 588 689 373 
1248 756 863 542 
1249 413 839 411 
1250 313 817 654 
1251 232 305 236 
1252 155 707 147 
1253 479 840 609 
1254 678 749 540 
1255 65 489 7 
1256 66 720 65 
1257 8 373 128 
1258 128 718 129 
1259 346 347 344 
1260 129 151 130 
1261 67 154 66 
1262 262 263 261 
1263 84 711 162 
1264 283 697 235 
1265 386 766 596 
1266 263 266 265 
1267 571 924 589 
1268 307 850 486 
1269 269 758 272 
1270 501 838 615 
1271 639 919 271 
1272 713 905 734 
1273 583 864 621 
1274 654 835 484 
1275 716 800 525 
1276 165 914 679 
1277 540 816 673 
1278 272 758 289 
1279 482 499 468 
1280 77 666 156 
1281 163 657 140 
1282 237 721 326 
1283 213 762 215 
1284 260 261 259 
1285 252 278 254 
1286 541 765 327 
1287 510 775 593 
1288 339 766 651 
1289 578 912 823 
1290 640 668 82 
1291 453 460 451 
1292 430 432 431 
1293 141 657 642 
1294 701 702 280 
1295 125 174 126 
1296 117 175 118 
1297 108 177 109 
1298 121 173 122 
1299 112 176 113 
1300 807 915 607 
1301 398 875 585 
1302 139 659 163 
1303 190 888 731 
1304 447 809 770 
1305 598 856 835 
1306 440 466 437 
1307 632 708 520 
1308 417 660 415 
1309 578 823 605 
1310 113 726 114 
1311 534 862 853 
1312 461 463 457 
1313 116 730 117 
1314 260 279 262 
1315 260 262 261 
1316 120 732 121 
1317 118 734 119 
1318 358 359 357 
1319 114 727 115 
1320 612 806 510 
1321 124 737 125 
1322 122 735 123 
1323 219 759 222 
1324 111 738 112 
1325 372 405 359 
1326 392 817 312 
1327 620 880 184 
1328 493 882 870 
1329 115 385 116 
1330 518 910 587 
1331 86 354 6 
1332 119 410 120 
1333 258 260 259 
1334 156 667 76 
1335 592 821 407 
1336 646 647 155 
1337 5 437 436 
1338 444 445 443 
1339 123 526 124 
1340 62 823 185 
1341 455 468 467 
1342 651 766 386 
1343 506 637 350 
1344 736 862 174 
1345 446 448 445 
1346 110 477 111 
1347 356 473 353 
1348 449 455 448 
1349 845 936 197 
1350 421 422 419 
1351 279 295 287 
1352 126 746 127 
1353 781 782 325 
1354 222 742 224 
1355 133 815 134 
1356 17 901 16 
1357 496 832 745 
1358 191 659 138 
1359 413 880 620 
1360 442 443 441 
1361 149 644 643 
1362 489 549 493 
1363 683 906 562 
1364 498 531 480 
1365 404 799 527 
1366 426 614 424 
1367 804 820 368 
1368 389 865 545 
1369 350 517 349 
1370 405 507 359 
1371 478 827 606 
1372 348 349 347 
1373 75 667 192 
1374 439 440 437 
1375 306 721 236 
1376 823 912 185 
1377 414 888 616 
1378 217 725 220 
1379 445 447 443 
1380 758 919 597 
1381 469 610 462 
1382 127 388 8 
1383 88 674 190 
1384 161 674 89 
1385 469 804 754 
1386 279 287 262 
1387 160 678 95 
1388 90 681 161 
1389 165 679 98 
1390 645 646 155 
1391 349 528 347 
1392 159 682 101 
1393 430 431 428 
1394 137 670 191 
1395 558 783 514 
1396 405 750 507 
1397 93 673 166 
1398 164 672 104 
1399 546 894 745 
1400 166 675 92 
1401 723 882 827 
1402 96 676 160 
1403 489 720 549 
1404 325 762 213 
1405 94 678 673 
1406 99 677 165 
1407 675 681 91 
1408 610 710 461 
1409 97 679 676 
1410 222 759 742 
1411 514 522 434 
1412 102 671 159 
1413 192 680 74 
1414 604 781 209 
1415 100 682 677 
1416 339 881 766 
1417 360 877 751 
1418 105 692 164 
1419 323 362 324 
1420 689 718 373 
1421 344 778 343 
1422 439 788 442 
1423 674 895 616 
1424 224 742 229 
1425 750 767 507 
1426 521 846 693 
1427 103 672 671 
1428 533 892 524 
1429 6 353 352 
1430 694 908 477 
1431 468 787 467 
1432 570 821 572 
1433 432 539 431 
1434 679 914 561 
1435 319 381 321 
1436 211 781 325 
1437 647 707 155 
1438 656 888 414 
1439 469 754 610 
1440 439 441 440 
1441 150 670 136 
1442 388 534 533 
1443 215 762 725 
1444 715 819 498 
1445 602 930 627 
1446 163 658 657 
1447 407 794 497 
1448 826 854 558 
1449 49 922 805 
1450 363 366 365 
1451 73 680 153 
1452 347 778 344 
1453 178 805 794 
1454 669 765 472 
1455 27 857 653 
1456 504 807 505 
1457 209 781 211 
1458 375 396 384 
1459 724 899 471 
1460 436 692 106 
1461 668 698 152 
1462 658 802 801 
1463 664 859 56 
1464 36 858 663 
1465 350 637 517 
1466 161 895 674 
1467 148 707 438 
1468 135 688 150 
1469 16 901 863 
1470 822 872 590 
1471 544 861 383 
1472 256 294 258 
1473 109 847 110 
1474 384 785 409 
1475 467 809 448 
1476 229 784 227 
1477 323 542 362 
1478 461 710 463 
1479 243 755 245 
1480 153 690 72 
1481 174 862 746 
1482 326 761 239 
1483 190 731 87 
1484 485 719 689 
1485 728 861 544 
1486 263 774 266 
1487 162 729 640 
1488 441 456 440 
1489 638 840 479 
1490 352 711 85 
1491 731 888 656 
1492 451 760 449 
1493 506 877 701 
1494 537 899 724 
1495 312 817 313 
1496 438 788 439 
1497 497 922 855 
1498 483 880 413 
1499 773 779 422 
1500 355 357 356 
1501 641 775 189 
1502 489 490 7 
1503 387 876 714 
1504 697 839 303 
1505 411 839 697 
1506 690 706 71 
1507 357 360 356 
1508 196 857 28 
1509 198 858 37 
1510 55 859 199 
1511 415 763 372 
1512 239 761 241 
1513 227 784 232 
1514 490 491 7 
1515 530 814 397 
1516 160 749 678 
1517 473 832 496 
1518 372 763 405 
1519 618 920 508 
1520 355 356 353 
1521 186 756 714 
1522 449 760 455 
1523 567 811 570 
1524 288 755 243 
1525 8 524 373 
1526 70 706 170 
1527 471 899 444 
1528 766 881 556 
1529 134 815 688 
1530 600 820 599 
1531 419 779 417 
1532 627 875 398 
1533 557 771 691 
1534 232 784 305 
1535 812 889 569 
1536 150 789 670 
1537 132 699 169 
1538 294 917 829 
1539 424 772 421 
1540 170 703 69 
1541 643 776 188 
1542 497 855 340 
1543 554 881 665 
1544 262 774 263 
1545 247 825 250 
1546 599 804 469 
1547 680 757 153 
1548 131 700 699 
1549 703 705 68 
1550 525 902 733 
1551 254 764 256 
1552 188 777 645 
1553 245 755 248 
1554 649 694 177 
1555 542 543 362 
1556 615 838 688 
1557 619 834 512 
1558 169 815 133 
1559 627 930 194 
1560 595 912 578 
1561 781 911 782 
1562 496 928 711 
1563 648 649 177 
1564 248 825 247 
1565 528 778 347 
1566 428 780 426 
1567 606 827 390 
1568 186 863 756 
1569 585 875 586 
1570 351 832 751 
1571 653 857 196 
1572 746 862 534 
1573 460 760 451 
1574 466 826 470 
1575 407 821 794 
1576 287 774 262 
1577 667 808 192 
1578 2 936 64 
1579 9 936 2 
1580 653 856 598 
1581 663 858 198 
1582 199 859 664 
1583 241 761 288 
1584 434 791 432 
1585 359 748 357 
1586 250 837 252 
1587 699 740 169 
1588 572 917 812 
1589 151 700 130 
1590 67 705 154 
1591 457 790 453 
1592 524 588 373 
1593 665 881 339 
1594 470 886 692 
1595 409 819 715 
1596 480 481 332 
1597 481 868 771 
1598 481 771 557 
1599 463 790 457 
1600 509 850 307 
1601 495 722 494 
1602 334 851 316 
1603 65 720 489 
1604 495 848 844 
1605 373 718 128 
1606 660 763 415 
1607 129 718 151 
1608 154 720 66 
1609 170 704 703 
1610 714 876 529 
1611 642 792 149 
1612 86 731 354 
1613 417 779 660 
1614 511 842 613 
1615 498 819 531 
1616 794 805 497 
1617 260 829 279 
1618 252 837 278 
1619 453 790 460 
1620 507 748 359 
1621 390 827 488 
1622 432 791 539 
1623 705 717 154 
1624 422 779 419 
1625 447 769 443 
1626 421 772 422 
1627 377 887 376 
1628 357 748 360 
1629 173 800 735 
1630 371 870 723 
1631 474 798 754 
1632 304 843 665 
1633 164 833 672 
1634 855 922 548 
1635 604 911 781 
1636 644 776 643 
1637 614 772 424 
1638 475 907 796 
1639 443 769 441 
1640 278 764 254 
1641 596 876 387 
1642 176 726 113 
1643 489 493 490 
1644 800 902 525 
1645 117 730 175 
1646 121 732 173 
1647 175 734 118 
1648 663 915 193 
1649 884 931 244 
1650 125 737 174 
1651 173 735 122 
1652 492 494 491 
1653 112 738 176 
1654 696 864 402 
1655 694 847 177 
1656 726 727 114 
1657 426 780 614 
1658 149 792 644 
1659 278 812 764 
1660 189 806 666 
1661 566 883 811 
1662 498 869 715 
1663 385 730 116 
1664 701 877 702 
1665 115 727 385 
1666 657 801 642 
1667 410 732 120 
1668 119 734 410 
1669 174 746 126 
1670 526 737 124 
1671 123 735 526 
1672 431 780 428 
1673 477 847 694 
1674 340 855 509 
1675 477 738 111 
1676 659 813 163 
1677 870 882 723 
1678 645 777 646 
1679 495 844 722 
1680 522 795 791 
1681 448 809 445 
1682 539 793 431 
1683 522 791 434 
1684 194 930 664 
1685 441 769 456 
1686 736 900 716 
1687 494 923 649 
1688 796 907 541 
1689 713 866 544 
1690 723 827 478 
1691 803 913 516 
1692 365 797 375 
1693 396 785 384 
1694 508 926 618 
1695 802 913 803 
1696 177 847 109 
1697 366 797 365 
1698 825 837 250 
1699 771 868 201 
1700 445 809 447 
1701 754 873 610 
1702 492 495 494 
1703 756 828 381 
1704 606 896 478 
1705 366 890 753 
1706 658 801 657 
1707 258 829 260 
1708 127 746 388 
1709 785 819 409 
1710 599 820 804 
1711 431 793 780 
1712 776 777 188 
1713 110 847 477 
1714 688 815 615 
1715 476 904 695 
1716 156 831 667 
1717 191 824 659 
1718 163 813 658 
1719 484 856 768 
1720 618 926 230 
1721 363 890 366 
1722 770 878 632 
1723 855 885 509 
1724 396 786 785 
1725 349 822 528 
1726 321 828 323 
1727 323 828 542 
1728 176 752 726 
1729 727 728 385 
1730 510 806 775 
1731 517 822 349 
1732 256 764 294 
1733 410 733 732 
1734 751 877 506 
1735 343 906 683 
1736 542 828 756 
1737 670 830 191 
1738 490 492 491 
1739 716 869 736 
1740 755 849 248 
1741 658 913 802 
1742 853 869 498 
1743 787 878 467 
1744 545 865 704 
1745 487 860 704 
1746 775 806 189 
1747 288 924 755 
1748 712 912 595 
1749 192 836 680 
1750 381 828 321 
1751 849 874 248 
1752 488 882 549 
1753 789 830 670 
1754 722 923 494 
1755 813 913 658 
1756 798 873 754 
1757 362 890 363 
1758 642 801 792 
1759 375 797 396 
1760 610 873 710 
1761 688 838 150 
1762 837 889 278 
1763 516 913 813 
1764 440 854 466 
1765 730 866 175 
1766 811 883 178 
1767 667 831 808 
1768 150 838 789 
1769 204 929 604 
1770 185 912 712 
1771 162 928 729 
1772 668 918 698 
1773 680 836 757 
1774 294 829 258 
1775 456 854 440 
1776 704 865 487 
1777 541 907 765 
1778 200 841 691 
1779 729 918 640 
1780 755 924 849 
1781 813 824 516 
1782 659 824 813 
1783 808 836 192 
1784 543 890 362 
1785 698 918 547 
1786 524 892 588 
1787 640 918 668 
1788 542 863 543 
1789 799 885 168 
1790 191 830 824 
1791 502 830 789 
1792 692 886 164 
1793 717 860 487 
1794 711 928 162 
1795 715 869 716 
1796 689 935 485 
1797 704 860 703 
1798 531 868 480 
1799 703 860 705 
1800 164 886 833 
1801 549 882 493 
1802 870 897 493 
1803 705 860 717 
1804 783 846 521 
1805 848 871 371 
1806 710 920 463 
1807 271 919 758 
1808 278 889 812 
1809 753 890 543 
1810 539 931 884 
1811 492 871 495 
1812 193 915 807 
1813 574 837 825 
1814 588 935 689 
1815 574 889 837 
1816 248 874 825 
1817 782 910 518 
1818 778 906 343 
1819 477 908 738 
1820 805 922 497 
1821 539 884 793 
1822 757 836 500 
1823 495 871 848 
1824 480 868 481 
1825 547 918 729 
1826 795 931 791 
1827 492 897 871 
1828 528 893 778 
1829 833 852 624 
1830 173 902 800 
1831 562 906 893 
1832 800 900 735 
1833 791 931 539 
1834 833 886 852 
1835 371 871 870 
1836 852 891 624 
1837 808 831 613 
1838 863 901 543 
1839 493 897 490 
1840 281 873 798 
1841 548 885 855 
1842 64 936 845 
1843 726 898 727 
1844 732 902 173 
1845 735 900 526 
1846 825 874 574 
1847 871 897 870 
1848 727 898 728 
1849 734 905 410 
1850 752 898 726 
1851 176 909 752 
1852 733 902 732 
1853 490 897 492 
1854 410 905 733 
1855 738 909 176 
1856 604 929 911 
1857 893 906 778 
1858 782 911 910 
1859 852 886 470 
1860 695 909 908 
1861 849 924 571 
1862 865 925 487 
1863 910 911 203 
1864 908 909 738 
1865 244 931 795 
1866 911 929 203 
1867 614 927 772 
1868 389 925 865 
1869 716 900 800 
1870 167 834 619 
1871 385 866 730 
1872 700 740 699 
$EndElements
