$MeshFormat
4.1 0 8
$EndMeshFormat
$PhysicalNames
6
1 9 "top"
1 10 "left"
1 11 "bottom"
1 12 "right"
1 13 "wall"
2 14 "ground"
$EndPhysicalNames
$Entities
8 8 2 0
1 -10 0 0 0 
2 10 0 0 0 
3 10 -10 0 0 
4 -10 -10 0 0 
5 -0.8 -4.8 0 0 
6 -0.8 -3.2 0 0 
7 0.8 -3.2 0 0 
8 0.8 -4.8 0 0 
1 -10.0000001 -10.0000001 -1e-07 -9.999999900000001 1.000000002804313e-07 1e-07 1 10 2 1 -4 
2 -10.0000001 -10.0000001 -1e-07 10.0000001 -9.999999900000001 1e-07 1 11 2 4 -3 
3 9.999999900000001 -10.0000001 -1e-07 10.0000001 1.000000002804313e-07 1e-07 1 12 2 3 -2 
4 -10.0000001 -1e-07 -1e-07 10.0000001 1e-07 1e-07 1 9 2 2 -1 
5 -0.8000001 -4.8000001 -1e-07 -0.7999999000000001 -3.1999999 1e-07 1 13 2 6 -5 
6 -0.8000001 -4.8000001 -1e-07 0.8000001 -4.7999999 1e-07 1 13 2 5 -8 
7 0.7999999000000001 -4.8000001 -1e-07 0.8000001 -3.1999999 1e-07 1 13 2 8 -7 
8 -0.8000001 -3.2000001 -1e-07 0.8000001 -3.1999999 1e-07 1 13 2 6 -7 
1 -10.0000001 -10.0000001 -1e-07 10.0000001 1.000000002804313e-07 1e-07 0 4 4 1 2 3 
2 -10.0000001 -10.0000001 -1e-07 10.0000001 1.000000002804313e-07 1e-07 1 14 8 4 1 2 3 8 -7 -6 -5 
$EndEntities
$Nodes
17 770 1 770
0 1 0 1
1
-10 0 0
0 2 0 1
2
10 0 0
0 3 0 1
3
10 -10 0
0 4 0 1
4
-10 -10 0
0 5 0 1
5
-0.8 -4.8 0
0 6 0 1
6
-0.8 -3.2 0
0 7 0 1
7
0.8 -3.2 0
0 8 0 1
8
0.8 -4.8 0
1 1 0 9
9
10
11
12
13
14
15
16
17
-10 -1 0
-10 -2 0
-10 -3 0
-10 -4 0
-10 -5 0
-10 -6 0
-10 -7 0
-10 -8 0
-10 -9 0
1 2 0 19
18
19
20
21
22
23
24
25
26
27
28
29
30
31
32
33
34
35
36
-9 -10 0
-8 -10 0
-7 -10 0
-6 -10 0
-5 -10 0
-4 -10 0
-3 -10 0
-2 -10 0
-1 -10 0
0 -10 0
1 -10 0
2 -10 0
3 -10 0
4 -10 0
5 -10 0
6 -10 0
7 -10 0
8 -10 0
9 -10 0
1 3 0 9
37
38
39
40
41
42
43
44
45
10 -9 0
10 -8 0
10 -7 0
10 -6 0
10 -5 0
10 -4 0
10 -3 0
10 -2 0
10 -1 0
1 4 0 19
46
47
48
49
50
51
52
53
54
55
56
57
58
59
60
61
62
63
64
9 0 0
8 0 0
7 0 0
6 0 0
5 0 0
4 0 0
3 0 0
2 0 0
1 0 0
0 0 0
-1 0 0
-2 0 0
-3 0 0
-4 0 0
-5 0 0
-6 0 0
-7 0 0
-8 0 0
-9 0 0
1 5 0 15
65
66
67
68
69
70
71
72
73
74
75
76
77
78
79
-0.8 -3.3 0
-0.8 -3.4 0
-0.8 -3.500000000000001 0
-0.8 -3.600000000000001 0
-0.8 -3.700000000000001 0
-0.8 -3.800000000000001 0
-0.8 -3.900000000000001 0
-0.8 -4.000000000000001 0
-0.8 -4.100000000000001 0
-0.8 -4.200000000000001 0
-0.8 -4.300000000000001 0
-0.8 -4.4 0
-0.8 -4.5 0
-0.8 -4.6 0
-0.8 -4.7 0
1 6 0 15
80
81
82
83
84
85
86
87
88
89
90
91
92
93
94
-0.6999999999999998 -4.8 0
-0.5999999999999996 -4.8 0
-0.4999999999999995 -4.8 0
-0.3999999999999992 -4.8 0
-0.299999999999999 -4.8 0
-0.1999999999999993 -4.8 0
-0.09999999999999931 -4.8 0
5.551115123125783e-16 -4.8 0
0.1000000000000006 -4.8 0
0.2000000000000008 -4.8 0
0.3000000000000007 -4.8 0
0.4000000000000006 -4.8 0
0.5000000000000004 -4.8 0
0.6000000000000003 -4.8 0
0.7000000000000002 -4.8 0
1 7 0 15
95
96
97
98
99
100
101
102
103
104
105
106
107
108
109
0.8 -4.699999999999999 0
0.8 -4.6 0
0.8 -4.499999999999999 0
0.8 -4.399999999999999 0
0.8 -4.299999999999999 0
0.8 -4.199999999999999 0
0.8 -4.1 0
0.8 -4 0
0.8 -3.899999999999999 0
0.8 -3.799999999999999 0
0.8 -3.699999999999999 0
0.8 -3.6 0
0.8 -3.5 0
0.8 -3.4 0
0.8 -3.3 0
1 8 0 15
110
111
112
113
114
115
116
117
118
119
120
121
122
123
124
-0.6999999999999998 -3.2 0
-0.5999999999999996 -3.2 0
-0.4999999999999995 -3.2 0
-0.3999999999999992 -3.2 0
-0.299999999999999 -3.2 0
-0.1999999999999993 -3.2 0
-0.09999999999999931 -3.2 0
5.551115123125783e-16 -3.2 0
0.1000000000000006 -3.2 0
0.2000000000000008 -3.2 0
0.3000000000000007 -3.2 0
0.4000000000000006 -3.2 0
0.5000000000000004 -3.2 0
0.6000000000000003 -3.2 0
0.7000000000000002 -3.2 0
2 2 0 646
125
126
127
128
129
130
131
132
133
134
135
136
137
138
139
140
141
142
143
144
145
146
147
148
149
150
151
152
153
154
155
156
157
158
159
160
161
162
163
164
165
166
167
168
169
170
171
172
173
174
175
176
177
178
179
180
181
182
183
184
185
186
187
188
189
190
191
192
193
194
195
196
197
198
199
200
201
202
203
204
205
206
207
208
209
210
211
212
213
214
215
216
217
218
219
220
221
222
223
224
225
226
227
228
229
230
231
232
233
234
235
236
237
238
239
240
241
242
243
244
245
246
247
248
249
250
251
252
253
254
255
256
257
258
259
260
261
262
263
264
265
266
267
268
269
270
271
272
273
274
275
276
277
278
279
280
281
282
283
284
285
286
287
288
289
290
291
292
293
294
295
296
297
298
299
300
301
302
303
304
305
306
307
308
309
310
311
312
313
314
315
316
317
318
319
320
321
322
323
324
325
326
327
328
329
330
331
332
333
334
335
336
337
338
339
340
341
342
343
344
345
346
347
348
349
350
351
352
353
354
355
356
357
358
359
360
361
362
363
364
365
366
367
368
369
370
371
372
373
374
375
376
377
378
379
380
381
382
383
384
385
386
387
388
389
390
391
392
393
394
395
396
397
398
399
400
401
402
403
404
405
406
407
408
409
410
411
412
413
414
415
416
417
418
419
420
421
422
423
424
425
426
427
428
429
430
431
432
433
434
435
436
437
438
439
440
441
442
443
444
445
446
447
448
449
450
451
452
453
454
455
456
457
458
459
460
461
462
463
464
465
466
467
468
469
470
471
472
473
474
475
476
477
478
479
480
481
482
483
484
485
486
487
488
489
490
491
492
493
494
495
496
497
498
499
500
501
502
503
504
505
506
507
508
509
510
511
512
513
514
515
516
517
518
519
520
521
522
523
524
525
526
527
528
529
530
531
532
533
534
535
536
537
538
539
540
541
542
543
544
545
546
547
548
549
550
551
552
553
554
555
556
557
558
559
560
561
562
563
564
565
566
567
568
569
570
571
572
573
574
575
576
577
578
579
580
581
582
583
584
585
586
587
588
589
590
591
592
593
594
595
596
597
598
599
600
601
602
603
604
605
606
607
608
609
610
611
612
613
614
615
616
617
618
619
620
621
622
623
624
625
626
627
628
629
630
631
632
633
634
635
636
637
638
639
640
641
642
643
644
645
646
647
648
649
650
651
652
653
654
655
656
657
658
659
660
661
662
663
664
665
666
667
668
669
670
671
672
673
674
675
676
677
678
679
680
681
682
683
684
685
686
687
688
689
690
691
692
693
694
695
696
697
698
699
700
701
702
703
704
705
706
707
708
709
710
711
712
713
714
715
716
717
718
719
720
721
722
723
724
725
726
727
728
729
730
731
732
733
734
735
736
737
738
739
740
741
742
743
744
745
746
747
748
749
750
751
752
753
754
755
756
757
758
759
760
761
762
763
764
765
766
767
768
769
770
0.8866025403784435 -4.55 0
0.8880861118689072 -3.75 0
-0.8891273076920534 -4.550000000000001 0
-0.8917162669824459 -3.758425911365427 0
0.8943024342606201 -4.153487734010603 0
-0.8890089791715177 -4.15 0
0.4593981217104937 -4.886707913744142 0
-0.1499999999999993 -4.886602540378443 0
-0.5520947132135692 -4.902047911981366 0
4.553293496696693 -9.144928455216544 0
-4.613375686596637 -9.176984202244856 0
0.1471111715968198 -4.890879866569795 0
-0.886602540378444 -3.450000000000001 0
0.9038318194936733 -3.447706980552869 0
4.5 -0.8660254037844384 0
-4.523226617379017 -0.921552056426286 0
-9.09333352770774 -4.583560563661265 0
9.1614091955425 -4.470246090845306 0
0.5500000000000004 -3.104946160449548 0
0.06000000000000066 -3.126495384802332 0
-0.4499999999999991 -3.109522735093866 0
1.532907489093696 -9.177694724439252 0
-1.551297351495404 -9.16309018574826 0
-2.379827013872899 -0.7691338754515389 0
2.600785112378988 -0.7476130832284325 0
6.443106603105226 -0.8025672975411133 0
-6.457874977400732 -0.8867687686999091 0
-6.5 -9.133974596215563 0
6.470114919039514 -9.164829406435638 0
-9.079591320159272 -6.336183432313687 0
9.159302753413604 -6.492322224362947 0
0.8885564631772327 -4.345197181976652 0
-0.8859687358307324 -4.350000000000001 0
-0.3499999999999991 -4.886602540378444 0
0.8892466079484012 -3.95 0
-0.8866025403784438 -3.950000000000001 0
0.5980324031811384 -0.9322202854398212 0
-9.16901832679812 -2.564500561580752 0
9.058245768186202 -2.407968133444571 0
-9.090291169866283 -8.495689339927265 0
8.525337129404839 -9.228170560353119 0
8.434230464769717 -0.9005106442377633 0
-8.454442508154965 -0.8407939180737873 0
1.373507326142788 -0.80864681737628 0
1.051640340704293 -1.568878991961723 0
0.1581953971168172 -1.545635607803203 0
0.6672272399787117 -2.015185640437031 0
-0.1522815828216577 -1.030663201795135 0
-0.3938607775184755 -1.619208738006378 0
-0.799970230367144 -1.185930854090365 0
-0.9141901245752974 -1.754154448467412 0
-0.5609518667550442 -2.169982899675474 0
-1.062580038827197 -2.189706388146456 0
-0.75 -3.113397459621556 0
-0.8689952661861866 -3.114467035958443 0
-0.8032933962012569 -2.986569745799425 0
-0.9585942348565015 -2.979914942049469 0
-1.029242926625494 -3.161791965887233 0
-1.153478219959206 -2.977257641226639 0
-1.239972641847833 -3.168167428679695 0
-1.377848934699858 -2.982423181102593 0
-1.466292927857279 -3.248858863611796 0
-1.654133115482883 -2.987127766604338 0
-1.794654905296631 -3.280607757424987 0
-1.995128897551519 -2.988478786748635 0
-2.164578033746779 -3.340714420516556 0
-2.403704384318376 -2.992700539262291 0
-2.579019173887911 -3.390997003061623 0
-2.317939932364859 -3.75460792873728 0
-2.77718285777987 -3.785845360461168 0
-2.470608377421393 -4.190595391991407 0
-2.984728386754667 -4.260131108120089 0
-2.560314145791141 -4.689303714466834 0
-3.184377730715958 -4.790194360670022 0
-3.563143069726493 -4.301737438222803 0
-3.784013592269515 -4.903648126316907 0
-4.203429620703162 -4.379854721852753 0
-4.423485752234744 -5.053421818864581 0
-2.842479659725126 -5.224753946345137 0
-4.89892894810319 -4.460176275649377 0
-5.172930325815397 -5.144734814522233 0
-2.875191734037181 -2.996246215674582 0
-5.644789582539042 -4.546685260058311 0
-1.608848566163468 -3.534905000070176 0
-2.274226052976129 -5.166272628800799 0
-2.50780111711069 -5.66295812964692 0
-1.925553875101015 -5.541847927120926 0
-2.145594936006244 -6.076599668011262 0
-1.612659499826059 -5.974309815621736 0
-2.762584551490749 -6.183805891450975 0
-4.666989593234987 -5.7556719869606 0
-5.456266743399062 -5.843222102249738 0
-1.819375524506958 -6.487969570706793 0
-1.299531054034136 -6.351368618950792 0
-5.344592022331537 -3.837699634759767 0
-6.115650652805772 -3.924622381503844 0
-6.463243733123015 -4.605797732304281 0
-1.111589731815255 -5.901540805146745 0
-0.8197392664951502 -6.270736503667102 0
-1.01628550002304 -6.787508289537424 0
-0.4691304119944566 -6.620502246647254 0
-0.3103608048938082 -6.176405519307925 0
-0.00174757854619161 -6.511764055601365 0
-0.1017569541050195 -6.99636580560914 0
0.3389249410894962 -6.81053109854798 0
0.4299545385430474 -6.331120271438864 0
0.7514215873792516 -6.626993987483068 0
0.8444764251491523 -6.224554984304204 0
1.14239771583752 -6.482268930690318 0
1.202568931064761 -6.108778309347072 0
1.509494146986182 -6.348581565586052 0
1.556809562374293 -5.9661032347232 0
1.893508106588032 -6.218025238317659 0
1.951819249804159 -5.790687029248375 0
2.317119448510625 -6.083710501634055 0
2.395703570803747 -5.601612323096033 0
2.793027991943501 -5.928048514565238 0
2.875321190696296 -5.391575435494945 0
3.317101568862363 -5.754509984309671 0
3.407077379183113 -5.161549693100751 0
3.886872417829638 -5.554651446081634 0
2.956908540318861 -4.844484685296147 0
3.989864392769484 -4.910738248631392 0
4.51086456810442 -5.335253588814614 0
4.597934722418842 -4.680147517735739 0
2.675827180125129 -6.440079941566676 0
5.168012553048013 -5.100988494442867 0
5.18377353695145 -4.313501055073299 0
2.030010566189054 -5.367910911073818 0
4.026248640050545 -4.276003134421509 0
5.047454683793575 -5.813473442307127 0
1.451014329004614 -6.746097793610824 0
0.931547075987369 -5.892682568063297 0
5.758616364532306 -5.571043072554529 0
3.732325019604779 -6.173511995886127 0
0.7044845757176221 -7.092277030489524 0
5.615831599797684 -6.336255183945389 0
-1.816053912575014 -5.076155974635999 0
-4.960894909415906 -6.467197499169787 0
-5.776785634145204 -6.576825379705801 0
-1.809301053030579 -2.676231551257868 0
6.374008194986915 -6.074263651897805 0
6.505597347567335 -5.298420356328483 0
-1.374463000348739 -1.908778271255199 0
-5.795765866259697 -3.1880248063107 0
-5.01849183006003 -3.111921248022405 0
-6.642183085315953 -3.286942423789077 0
-2.646014889242831 -2.548853394791944 0
-3.189057992070957 -2.556840990731313 0
-2.066050810723168 -4.094374348711622 0
6.220644333985957 -6.864529037756165 0
5.450507287104021 -7.090815143864409 0
-5.251171615492427 -7.219562220957216 0
-4.465396202662192 -7.115291904703621 0
-3.454316435146952 -3.105281101176987 0
7.026779950823473 -6.602735849189026 0
-5.468224494772015 -2.456866623590228 0
-4.750438862456943 -2.34554324402271 0
-0.8686337240795639 -2.827035065874456 0
-0.6763418140888025 -2.868612994766464 0
-6.085846394694117 -7.359177510878973 0
-6.626782915859982 -6.680368755153163 0
-6.952287187722344 -7.499276276663895 0
6.887824776921999 -7.445416320926157 0
-1.250590955263069 -2.765743723941801 0
-5.55352606369865 -7.997882824654518 0
-2.9185865249105 -2.032405589493845 0
-3.538301208693925 -2.030524404936626 0
-0.7562703516276773 -2.654006370221341 0
-0.5337777698531336 -2.680330336455581 0
-0.1082448261323271 -1.999947284936817 0
-7.498832266025348 -6.795370394862207 0
-7.186713994086107 -5.984759472208667 0
7.707679290797489 -7.164304946423071 0
-2.311334694500549 -2.082072925008339 0
1.689994545669839 -1.461460962796469 0
1.409469686641441 -1.990635543641118 0
1.924502817845523 -1.958322727684609 0
1.648336267379016 -2.44780230915889 0
2.178325565721799 -2.401503432949639 0
1.94786395083266 -2.85062384224118 0
2.441018760138536 -2.82996497568524 0
2.186876706348426 -3.255002299392451 0
2.725784012241911 -2.364303390062084 0
3.019323796860812 -2.856936686574115 0
1.715970615225677 -3.234157252061677 0
1.899389579758962 -3.63800687478243 0
2.392073733162105 -3.669341167358923 0
2.112767127637926 -4.028286885018517 0
1.718206773379176 -4.01643614910307 0
3.328763008384811 -2.332883398387121 0
1.867293971672739 -4.345696802344222 0
1.501485300163349 -4.294053838521405 0
1.403472395591305 -3.996702974265659 0
1.66015541572595 -4.604264048344643 0
3.655138590464398 -2.888121789054122 0
1.335030842745038 -4.58079086476002 0
1.472191220660235 -4.827559719496993 0
1.222350067187013 -4.818777604371767 0
1.319706511134067 -5.031320206908951 0
1.102296013762348 -5.003580464843203 0
0.7646716715641423 -4.892804726632789 0
1.181048359440329 -5.226645661941699 0
0.958752865266197 -5.169567253603192 0
3.999289037223147 -2.311489656859892 0
4.359756146627548 -2.918927930640185 0
4.719845212107263 -2.278922421396702 0
5.117357499432062 -2.948521182226531 0
0.8949869577235439 -4.745260786305744 0
1.239659522696305 -4.352174553369809 0
3.284605788972425 -3.358129121317576 0
5.521516963872914 -2.26887070039197 0
5.938361389167548 -2.974879062597655 0
2.006524633085874 -4.652922065678694 0
1.280258284768865 -2.348898412461689 0
1.431537036202837 -5.259767217183583 0
6.374342652863222 -2.267596059662393 0
6.80603053914158 -3.005548395984717 0
7.256018311941613 -2.23627415039462 0
7.690358632110624 -3.017308285749834 0
7.23655350023708 -3.780085589503356 0
1.243496429300867 -5.467710459391424 0
3.574195889505372 -1.622230809920746 0
1.503916099500087 -3.728310101170189 0
1.24765640579182 -3.807050244581019 0
1.369162406062812 -3.519207658462182 0
-2.051045891995115 -4.762750148785711 0
-1.65901104527097 -4.752198016980015 0
-1.467564396752787 -4.981580965821662 0
-1.331252944570132 -4.725290866817556 0
-1.203249592810668 -4.95306658564037 0
-0.8866025403784435 -4.75 0
-1.276701747689609 -5.1750823240889 0
-1.008342429916971 -5.114941062369941 0
-1.505287698751289 -4.49461545793779 0
-1.233719896299458 -4.481977506778315 0
-1.381467840308082 -4.278414683859704 0
-1.141142516860176 -4.261997726891224 0
-1.275824473728499 -4.077216186626732 0
-1.08442893024943 -5.348463833129074 0
-0.8393546802513328 -5.296850623853871 0
-0.7648771803766575 -4.892335527393961 0
-1.506335221164205 -4.073769396500967 0
-1.344449772501053 -5.449931654878504 0
-1.120435582567858 -3.324228703999519 0
2.510760405859427 -4.123909731603561 0
-7.800897856330843 -7.664093671232807 0
1.13499882125084 -3.995584014341859 0
1.135344241454731 -3.544138499005697 0
1.238905398644301 -3.354686281177179 0
-0.888087918827358 -4.860455922335784 0
-1.384119700697601 -3.876725939972118 0
-1.150750149154746 -3.896360190530824 0
-1.260722490644926 -3.700321230426578 0
-1.112203585443806 -4.663516432444132 0
1.125604347448084 -4.521964374712055 0
-1.60775947567668 -3.812171992882512 0
7.789111364869886 -6.302479968111458 0
7.545746031427843 -8.068425489247456 0
8.431588174688395 -7.760523113963781 0
1.536897008629822 -2.868059680553196 0
0.8774255654271258 -4.863815911007784 0
-1.085781859428879 -4.089262350674797 0
-3.280848411392032 -1.452320755733704 0
-0.901398175164018 -5.525013203264922 0
-0.6542623714952984 -5.453431641931783 0
-0.6136077448564426 -5.183271322983956 0
-0.4285548281093732 -5.367367285855754 0
-0.3741160244524998 -5.139143849352705 0
-0.2106776557269952 -5.298139182285603 0
-0.2507637230017613 -5.523487498271268 0
-0.03019026293751691 -5.442822823685486 0
-0.02311457942014021 -5.222183311792611 0
0.176245412594157 -5.313741446420777 0
0.1605359899552526 -5.582083411503731 0
0.3813579781804807 -5.477495908905881 0
0.4011084866805976 -5.245825950040412 0
0.3825003393041826 -5.755590559376655 0
0.6057419117623284 -5.359042965720401 0
0.5749932086559019 -5.145495763358676 0
0.1383495244780976 -5.85791096261313 0
-0.709858956822055 -5.728600981666911 0
-5.111139214771121 -1.667052732295811 0
-3.899745779767628 -3.710501579878137 0
-0.4725780054126219 -2.890824388693577 0
-0.310339729119176 -2.726193721766886 0
-0.2499999999999993 -3.112817435245444 0
-1.518686686791926 -2.352283753407858 0
4.778449673110264 -3.567329718897992 0
-1.062267169988307 -4.413443850030468 0
-0.3801774401377068 -2.501079012655827 0
-0.1338145729602675 -2.563224431835676 0
-0.078880278366983 -2.804693810756183 0
0.1018149062206442 -2.639615802706314 0
0.1463877305285483 -2.858717087735684 0
0.3309647597800821 -2.713467789098093 0
0.346552608466862 -3.081279208194323 0
0.304748060843925 -2.520112405840734 0
0.5367395961490611 -2.564863885949456 0
0.5543616699542112 -2.82694487760029 0
0.7695407290838888 -2.673204440675125 0
0.7970764242852098 -2.927879911880823 0
0.9848970892675024 -2.776684844066182 0
1.009625021543005 -3.008800754082433 0
-8.074400993234104 -6.105499800180838 0
-7.756538494520676 -5.296771523377157 0
0.743031147405512 -3.089567396437092 0
-1.443732590169472 -0.7568915978997595 0
8.27961386153865 -3.912918680352346 0
7.678432328155005 -4.608881277360485 0
0.8361921351569681 -5.016315239990679 0
1.595402710464181 -5.54877154978745 0
-0.8636834974048286 -4.994203492801685 0
-0.8939813816789304 -3.241221309743533 0
3.518276780146857 -0.8053983793744592 0
-5.940588411645178 -1.685613814563193 0
-1.087108122489109 -3.709478054784795 0
1.075976358994398 -3.815643904053888 0
-0.9882688010033642 -2.639195070096556 0
-0.7164992816294433 -5.012022378434424 0
0.349548468195738 -2.914295309728964 0
-4.239263218886665 -2.968241985375705 0
-0.2660415964294068 -2.924905559143699 0
-0.09162994328387039 -2.985858543668193 0
-7.265935369838009 -8.366108674372258 0
0.4152097927030668 -5.070394941474811 0
0.2627030288162431 -5.120312467675272 0
0.3092534018766506 -4.987569496883377 0
1.075291766006647 -4.363415269265944 0
-1.82385135962903 -4.413628465400292 0
5.458612242066196 -0.8175682332253924 0
1.02666049420387 -4.818290159535876 0
0.9916569493322733 -4.65018975923079 0
5.508753490216183 -9.159453915355364 0
5.029618554218023 -8.406053200847278 0
4.147934415636115 -8.360013246146814 0
3.670498820641197 -9.110075088103379 0
3.356567627090787 -8.287881273368335 0
3.769698032324919 -7.647920807670668 0
2.97953531050786 -7.489120703779211 0
2.592592695915473 -8.157532153040499 0
2.249317862376584 -7.543158588372243 0
1.861986118859735 -8.06952374345407 0
1.651198675294488 -7.430468686868206 0
1.174373812623197 -7.988572313248903 0
3.5695023209147 -6.843578214791502 0
4.133961087000998 -7.049608847118033 0
2.32694632733628 -9.345504269592904 0
5.87047604705671 -8.418165336760124 0
-5.504357250124461 -9.240723472537946 0
-1.003758691496096 -4.799047776161987 0
-5.505471536866008 -0.860164561997534 0
-6.877151018473669 -1.742628307309292 0
-2.436172749352574 -9.184993529205823 0
-2.013319721162889 -8.43214365133676 0
-2.832660339107479 -8.426971005835096 0
-1.187036239320562 -8.389708619349797 0
-2.434602315487479 -7.755377995051097 0
-3.221460297961284 -7.753883068627129 0
-2.768486045277312 -7.160427058830289 0
-0.6345680965870292 -9.149936268414038 0
-0.3608485591260416 -8.350268504513467 0
-0.825599202795631 -7.749804062979338 0
0.176189959567813 -8.922675981440101 0
-3.597139901945783 -8.408555928652909 0
-1.564457563656207 -7.697651631386744 0
-0.1301356342927936 -7.644292009505447 0
0.3748054063717772 -8.196509117631525 0
-3.582187843231838 -7.006011024568284 0
-1.977636419398877 -7.087207931683114 0
-0.1639293712935986 -5.109142907305233 0
0.0002666862741496773 -5.025894781263762 0
-0.6011075645266941 -3.007576168307638 0
-7.440606628671725 -0.8799305132928383 0
-7.944803837110683 -1.64960376810623 0
-7.41942151839292 -2.578527814951656 0
0.6098408608873334 -5.962777107113338 0
0.6823154224213233 -5.643039840078406 0
0.8381822394563678 -5.423213622936446 0
1.052951821294888 -3.386090403240433 0
0.8872925458585673 -3.235819995562299 0
1.122569787800636 -4.199153711926308 0
2.469993108751953 -5.131701668766672 0
2.464112564171992 -4.645327137683531 0
-0.5125682792814178 -5.053584921802348 0
-1.158991490799633 -3.513528544636608 0
-8.603176063155878 -5.42501669435285 0
-4.148643055918665 -6.401514227085372 0
-3.428059544247741 -6.349772438863462 0
-3.860665649879762 -5.648588497069079 0
7.398246499779053 -0.8166224818621028 0
4.525354237194449 -7.729898711779363 0
1.11939160451471 -3.20308794144406 0
0.73993295009978 -2.365942877762957 0
7.503522391526859 -9.044284570158336 0
8.107177664832118 -2.305849373750447 0
1.962303776543608 -7.012799499062323 0
2.536233291448022 -7.001110118543925 0
9.225768259575233 -5.471690122112837 0
9.168477366371773 -3.466355287971514 0
-9.138685375621389 -3.508159309274145 0
-8.294004997383031 -3.957400170414086 0
-8.324352927202677 -3.069136867672209 0
6.35108422039032 -3.679050056823565 0
-0.9859279715633084 -3.573598008373695 0
-3.998014551986115 -7.750608033242912 0
-9.177350016816167 -7.440190347392869 0
3.493474908432423 -4.580610459095054 0
-7.507779558670675 -3.542619466596268 0
0.5428088144155423 -4.983424429024195 0
-2.014359589240886 -1.385525717399705 0
-1.428586510462149 -7.14000252396078 0
1.379098163527376 -3.144655546791651 0
2.695604801805869 -3.278985196932003 0
2.362773160172588 -1.441214650346426 0
5.545037680218067 -3.614793601448167 0
-6.317061582687575 -5.926622299879896 0
4.893411942683107 -6.4671170750938 0
-0.987097630190818 -3.841410149757164 0
4.033685950994091 -3.583919336452443 0
-3.954252345864288 -1.449004311017101 0
0.686824131077577 -5.019065245914377 0
-1.332160637787331 -1.430874497326619 0
-8.194114703527914 -8.514537369382221 0
6.672295295032279 -4.501219381627279 0
-3.636157336153503 -0.7889936278799743 0
4.377868614613177 -5.970861073167885 0
-4.600741903308702 -3.744732574256358 0
-1.899867252406561 -3.699286821976917 0
-6.390857270046698 -8.153017668726736 0
7.127345886942156 -5.799546380381775 0
-3.331866113670277 -3.665711126334767 0
9.195832895169726 -1.43411397114515 0
-9.072214626345691 -1.573634640751463 0
-0.5920726759645627 -7.181170253959982 0
0.2263197910722933 -3.014126359589814 0
0.4834104577694687 -3.005020995061136 0
-0.8862957764373065 -4.45 0
0.888980239887506 -4.449199530329442 0
0.8866025403784435 -4.649999999999999 0
-0.8895481022443215 -4.65 0
5.076217325921986 -1.578041189845148 0
0.7501144152292235 -5.188783348587295 0
0.8710327405727567 -3.103334199812012 0
0.6296466165690671 -3.011292800175074 0
5.945610293411541 -1.554817970325443 0
5.85719011670179 -4.84229982234441 0
0.0500000000000006 -4.886602540378444 0
-0.6499999999999997 -4.886602540378443 0
-0.4524438320824974 -4.904736870691636 0
-0.3950089700360742 -4.991796287384584 0
-0.2547220522545956 -4.983321836403275 0
-0.2509444104509185 -4.871305383432032 0
-0.04995555228764121 -4.897077008610953 0
0.5504413872252074 -4.871346976629356 0
-1.375311035609827 -3.501721332237856 0
-7.435995889168101 -4.477352151278708 0
-3.235697090398929 -9.110899983612605 0
-0.8893184639996169 -4.250000000000001 0
-0.9922372604037699 -4.191876679594337 0
-0.8892967460378651 -4.050000000000001 0
0.8776469017982045 -4.243922264010175 0
0.8866025403784429 -4.05 0
1.003005357120246 -4.103191977390399 0
1.749294181795167 -4.890923945851489 0
2.894637580556444 -1.822607622772047 0
9.097519922415124 -8.460468225703689 0
0.8866025403784438 -3.85 0
-0.8895232710481635 -3.647003986623187 0
0.8898969902830346 -3.649999999999999 0
0.9880722945454282 -3.71272298445885 0
-0.8730832875103416 -3.849967212224518 0
1.233873517125494 -2.940901573423358 0
2.214454180460442 -6.539092802731396 0
-6.357222399143237 -2.489767298419024 0
-0.9873594756790576 -4.600000000000001 0
-5.998639514980634 -5.216238076806269 0
0.6500000000000004 -4.886602540378444 0
-2.660595479367091 -1.438757251198314 0
-0.9000060695360506 -3.355566794822999 0
-0.8724107565979833 -3.554120398999377 0
0.8998563397424099 -3.346383021351858 0
0.8883416940018837 -3.549900518037314 0
1.260065585471545 -5.766148334355351 0
7.800799496396668 -5.445466346547197 0
-2.409019132817019 -6.598482139681913 0
0.8817471981260045 -8.641202955880456 0
0.6398527728947541 -7.629962492166332 0
-3.160455664422424 -5.768827835839367 0
-1.814770868139674 -2.049865195045899 0
1.152723936080895 -7.228992317677312 0
0.1560532985120495 -3.109950201463708 0
0.07455542333044061 -3.014286591659852 0
-0.04596845584970744 -3.111647026729992 0
-0.5501845940877815 -3.109202030128992 0
0.2484639721611671 -3.116193995418937 0
-0.1479330665222625 -3.105617094896018 0
-0.6157123127794113 -2.491338238753702 0
-0.6501538284064849 -3.110903882502265 0
-8.36196706643697 -7.006837822291791 0
-0.3499999999999993 -3.10911599540093 0
0.1826670295809157 -5.011279573628364 0
0.9855185008494889 -4.5 0
-7.519959134794787 -9.237057128170662 0
0.9913879786930231 -3.5 0
-4.770996015094423 -7.828482714001954 0
0.2902739402608119 -7.234685687263685 0
3.187508491364633 -6.316120476562761 0
-3.711802022699192 -2.554704683537561 0
0.6445355527949159 -3.121161271412343 0
0.4511591813098725 -2.298055186666921 0
0.2923973362614705 -1.961105049097895 0
1.020268261874862 -2.135830719571618 0
-1.00812007180832 -3.419487008638804 0
3.452530636223343 -3.973668909808997 0
9.233613356436873 -7.472421954511772 0
4.32869511009295 -1.707437602933581 0
-0.06600097751568733 -5.688860997277829 0
-0.3210541455721627 -5.787918527818276 0
3.000888822969939 -4.329075105368851 0
-2.194374117111969 -4.430130413871173 0
-1.591236232545389 -4.267610861838809 0
1.018942250643755 -5.606543260837297 0
1.806154907916576 -6.57291937986165 0
2.889410698165517 -3.788851538731652 0
-6.865757569236703 -3.980425067851867 0
-6.937545122319715 -5.23036625182315 0
-0.484929945693876 -5.635545597737021 0
-1.013782740468954 -4.932157243370252 0
1.588852516177022 -3.491457847392507 0
2.078312248343985 -5.003802532049262 0
1.731406134959125 -5.200203949254623 0
-0.3999999999999994 -3.005625673569199 0
1.458397819927438 -3.348832917177039 0
-4.31270260311876 -8.447847324316744 0
-0.1169057556516691 -4.981251921893116 0
1.048084428821503 -5.378736051742012 0
6.781703009499211 -8.361186047649376 0
0.9880916194557547 -3.899999999999999 0
-8.50480534282922 -9.289423945456953 0
0.08857236794377261 -2.348142742180722 0
0.1028956877271623 -6.160216676786447 0
0.2481719338423981 -4.894984903410093 0
6.099904286489533 -7.664377463656244 0
-2.183437635964309 -2.680858132358899 0
-3.366398459402557 -5.267202553248103 0
6.854933386543387 -1.546711761315464 0
0.4559926132472665 -3.118249272741002 0
1.028038255060908 -2.490780328023366 0
-1.568827269936962 -5.286334447241535 0
0.3327081901879647 -6.013523115465687 0
0.350714529736955 -4.883238862726554 0
0.116461262974221 -5.109955482477379 0
-0.6023308006549809 -4.991226422313954 0
-1.567614746810496 -5.604386493900394 0
-0.6791968806716547 -0.5946971307570523 0
-0.9955954432183917 -3.987838781827131 0
0.9763680921547794 -4.25833830551144 0
0.974842576553979 -3.170208578180161 0
-1.4473522537585 -3.685169099117848 0
8.475189688755444 -6.901710586344961 0
8.511595372963292 -3.006998823186863 0
-5.083964989456051 -8.540305610293363 0
-1.165689985283429 -5.598891624211703 0
1.137022142064829 -4.674889495449031 0
-1.471983208702716 -2.708677973260474 0
-4.13807125869746 -2.112634935467173 0
7.7441963789162 -1.561687108863348 0
-0.977802539681789 -4.49406329958854 0
1.112372214852919 -3.684356681329666 0
-0.9899022454112132 -4.311219709419339 0
1.280437165500487 -4.167533818485008 0
-1.749183392024172 -4.060140314551854 0
2.417204627307653 -1.997590364762961 0
-0.9921856548894149 -3.300327969013156 0
-0.9703840576520846 -4.093795562419253 0
8.439943020593779 -4.963003924690084 0
-1.189915637685294 -2.51781658060224 0
0.9741829474777663 -4.000000000000002 0
-1.288800860652876 -3.337853333424347 0
-9.388090294390597 -5.5 0
-0.2036924715678336 -2.300425138788633 0
0.9868681183608949 -3.277369991396974 0
7.156894070818689 -5.130706748449044 0
-0.09123414315527967 -5.934262536760722 0
1.310511635581062 -2.645121043372974 0
8.485099826339965 -5.912124243617034 0
1.505055405023908 -8.510283079721839 0
2.005412028872841 -0.8917871027495226 0
-0.8072099877949876 -5.127629649281713 0
5.921876169858781 -4.190172783463344 0
-0.9758944790483449 -4.692512841721224 0
-0.5573594638205799 -5.944664846807227 0
-1.043913187032341 -2.837829288637784 0
2.979536957172712 -6.810040965690648 0
2.074262406416905 -8.674421661586514 0
-8.236609794387084 -4.748020220616813 0
9.267949192431123 -0.7320508075688767 0
-9.267949192431123 -0.7320508075688767 0
5.276417246946679 -7.736492188469928 0
-0.8622831681129981 -2.443674257915962 0
-9.274750156151308 -9.274750156151308 0
1.000902568971836 -3.606853113805254 0
2.192291740485592 -4.359228524465705 0
9.273040735444942 -9.273040735444944 0
4.205481207494932 -6.512715496362739 0
-1.074670533418483 -4.530600217768291 0
3.980291944936295 -1.250273049003306 0
1.542640851534728 -5.046193965609297 0
1.04040842880398 -6.835326011990209 0
-8.417086546453003 -2.297363728140038 0
8.2002082379705 -8.487477466960559 0
-4.495425659833766 -1.699157455845817 0
2.930240094093915 -8.902869645107049 0
0.967968770376636 -4.391443906845252 0
0.3949405601596769 -4.962173743814324 0
-5.856994768012932 -8.619998274329909 0
-2.983946833046668 -6.618504070641528 0
-0.2111209212471077 -3.031185752290084 0
-1.927506187685407 -2.368262311415773 0
0.01260823305203388 -2.915889008454978 0
-0.4947740328054193 -3.024550199158655 0
-3.000762129652228 -3.404157187429617 0
2.99013370455205 -1.287812909128422 0
-1.137605232586739 -4.804407588763268 0
-0.2967375025252158 -3.033872953234785 0
-1.36788148137301 -5.724011091862518 0
0.8892640958549796 -9.238439950004555 0
0.09930123008522135 -4.984922448863549 0
-3.951783056412022 -9.028857487765423 0
-8.526193828990463 -7.875818777007428 0
-0.9604472934698697 -4.40374537180767 0
4.69953163127221 -7.106553754754133 0
-0.9716906933378131 -3.701557481825504 0
4.578290822998587 -4.12685114401887 0
-0.6999999999999998 -3.029263051869102 0
-0.8168035636392705 -5.977750163758418 0
0.9610939302574555 -4.957986813011148 0
-1.496398020902359 -6.752744927868532 0
-1.633938523879158 -1.693760920256856 0
-1.009528352576436 -7.288549109481288 0
8.4622069909086 -1.644700978695487 0
1.263359726090285 -3.641904956404671 0
0.9653657850485864 -3.805673377702547 0
-2.991485648157105 -0.8898411020527064 0
0.5995924981082936 -1.62323682008598 0
$EndNodes
$Elements
9 1540 1 1540
1 1 1 10
1 1 9 
2 9 10 
3 10 11 
4 11 12 
5 12 13 
6 13 14 
7 14 15 
8 15 16 
9 16 17 
10 17 4 
1 2 1 20
11 4 18 
12 18 19 
13 19 20 
14 20 21 
15 21 22 
16 22 23 
17 23 24 
18 24 25 
19 25 26 
20 26 27 
21 27 28 
22 28 29 
23 29 30 
24 30 31 
25 31 32 
26 32 33 
27 33 34 
28 34 35 
29 35 36 
30 36 3 
1 3 1 10
31 3 37 
32 37 38 
33 38 39 
34 39 40 
35 40 41 
36 41 42 
37 42 43 
38 43 44 
39 44 45 
40 45 2 
1 4 1 20
41 2 46 
42 46 47 
43 47 48 
44 48 49 
45 49 50 
46 50 51 
47 51 52 
48 52 53 
49 53 54 
50 54 55 
51 55 56 
52 56 57 
53 57 58 
54 58 59 
55 59 60 
56 60 61 
57 61 62 
58 62 63 
59 63 64 
60 64 1 
1 5 1 16
61 6 65 
62 65 66 
63 66 67 
64 67 68 
65 68 69 
66 69 70 
67 70 71 
68 71 72 
69 72 73 
70 73 74 
71 74 75 
72 75 76 
73 76 77 
74 77 78 
75 78 79 
76 79 5 
1 6 1 16
77 5 80 
78 80 81 
79 81 82 
80 82 83 
81 83 84 
82 84 85 
83 85 86 
84 86 87 
85 87 88 
86 88 89 
87 89 90 
88 90 91 
89 91 92 
90 92 93 
91 93 94 
92 94 8 
1 7 1 16
93 8 95 
94 95 96 
95 96 97 
96 97 98 
97 98 99 
98 99 100 
99 100 101 
100 101 102 
101 102 103 
102 103 104 
103 104 105 
104 105 106 
105 106 107 
106 107 108 
107 108 109 
108 109 7 
1 8 1 16
109 6 110 
110 110 111 
111 111 112 
112 112 113 
113 113 114 
114 114 115 
115 115 116 
116 116 117 
117 117 118 
118 118 119 
119 119 120 
120 120 121 
121 121 122 
122 122 123 
123 123 124 
124 124 7 
2 2 2 1416
125 448 618 617 
126 509 574 133 
127 274 697 553 
128 279 446 408 
129 469 615 612 
130 470 730 259 
131 169 301 300 
132 468 615 469 
133 215 514 202 
134 517 597 428 
135 156 739 682 
136 439 732 139 
137 468 521 256 
138 202 514 200 
139 334 380 321 
140 256 615 468 
141 161 169 168 
142 400 502 403 
143 295 636 170 
144 27 488 485 
145 353 355 354 
146 167 558 499 
147 253 436 238 
148 636 665 635 
149 169 637 301 
150 349 372 318 
151 353 354 352 
152 174 680 432 
153 259 632 470 
154 429 511 154 
155 493 513 512 
156 558 735 499 
157 451 677 398 
158 173 295 170 
159 175 176 173 
160 317 334 321 
161 576 660 132 
162 314 318 317 
163 143 569 561 
164 323 456 325 
165 537 658 310 
166 175 177 176 
167 493 512 278 
168 171 637 169 
169 262 353 352 
170 338 655 508 
171 639 649 644 
172 354 379 360 
173 504 606 138 
174 580 704 186 
175 469 612 492 
176 132 577 576 
177 440 476 151 
178 433 701 142 
179 485 488 486 
180 211 262 209 
181 385 537 310 
182 311 348 314 
183 446 552 408 
184 391 678 444 
185 612 631 491 
186 253 656 436 
187 445 560 421 
188 434 701 433 
189 222 406 389 
190 509 678 391 
191 597 710 427 
192 317 321 319 
193 487 490 481 
194 488 492 486 
195 169 300 168 
196 351 645 197 
197 471 730 470 
198 397 496 495 
199 427 710 673 
200 314 317 316 
201 401 451 398 
202 495 576 393 
203 208 553 381 
204 209 351 197 
205 432 547 174 
206 537 597 517 
207 581 651 221 
208 274 553 193 
209 177 725 176 
210 27 485 26 
211 402 502 400 
212 55 172 161 
213 408 556 279 
214 363 387 377 
215 461 738 30 
216 262 352 351 
217 140 476 407 
218 349 442 372 
219 161 770 169 
220 561 569 424 
221 301 339 303 
222 328 762 435 
223 362 584 387 
224 51 439 139 
225 417 745 419 
226 211 674 262 
227 348 349 318 
228 354 360 359 
229 303 385 305 
230 421 561 445 
231 436 608 236 
232 377 681 543 
233 321 323 322 
234 397 495 394 
235 305 310 307 
236 176 295 173 
237 305 385 310 
238 407 737 140 
239 420 445 424 
240 612 615 260 
241 334 453 380 
242 360 414 362 
243 512 514 215 
244 431 568 426 
245 445 561 424 
246 500 599 477 
247 387 681 377 
248 511 705 154 
249 508 655 507 
250 142 524 433 
251 447 448 417 
252 318 696 317 
253 240 507 253 
254 31 461 30 
255 509 575 574 
256 131 740 534 
257 161 168 54 
258 254 759 544 
259 487 765 490 
260 503 567 403 
261 424 569 426 
262 502 647 503 
263 196 556 199 
264 27 752 488 
265 228 559 491 
266 362 387 363 
267 360 362 361 
268 148 432 57 
269 355 749 354 
270 669 744 299 
271 270 552 446 
272 410 447 417 
273 502 503 403 
274 311 314 313 
275 381 684 208 
276 394 495 393 
277 414 695 362 
278 392 393 391 
279 413 759 252 
280 194 556 196 
281 529 605 137 
282 221 650 581 
283 303 710 385 
284 646 697 454 
285 234 257 232 
286 390 391 365 
287 633 691 446 
288 170 770 161 
289 208 580 186 
290 238 436 236 
291 218 222 213 
292 222 751 213 
293 311 654 348 
294 457 627 125 
295 582 754 23 
296 407 476 440 
297 295 665 636 
298 424 426 425 
299 321 689 323 
300 232 501 230 
301 417 419 418 
302 271 599 500 
303 188 553 208 
304 379 731 360 
305 426 568 428 
306 492 612 491 
307 444 714 391 
308 262 351 209 
309 435 567 328 
310 492 611 469 
311 252 540 413 
312 491 559 487 
313 288 668 662 
314 372 588 506 
315 328 567 503 
316 151 477 440 
317 481 490 479 
318 363 377 376 
319 24 582 23 
320 393 509 391 
321 55 161 54 
322 404 450 401 
323 450 452 451 
324 389 688 222 
325 167 499 498 
326 147 479 478 
327 346 608 436 
328 393 576 575 
329 53 149 52 
330 58 148 57 
331 284 497 409 
332 172 173 170 
333 666 709 226 
334 482 494 484 
335 601 651 541 
336 458 459 134 
337 496 660 495 
338 544 759 413 
339 176 706 295 
340 464 719 522 
341 301 303 302 
342 257 647 502 
343 231 232 230 
344 133 678 509 
345 546 567 435 
346 229 230 227 
347 138 629 504 
348 486 487 481 
349 398 677 397 
350 310 311 307 
351 500 735 527 
352 32 458 134 
353 169 770 171 
354 403 404 401 
355 174 175 173 
356 380 627 457 
357 148 535 432 
358 195 274 193 
359 380 689 321 
360 396 397 394 
361 447 743 448 
362 272 669 299 
363 323 325 324 
364 301 302 300 
365 317 319 316 
366 30 738 472 
367 464 522 466 
368 314 316 313 
369 149 439 52 
370 426 569 431 
371 432 680 56 
372 501 502 402 
373 211 679 674 
374 617 745 448 
375 325 762 328 
376 225 226 223 
377 289 702 690 
378 720 738 465 
379 400 401 398 
380 167 498 63 
381 147 481 479 
382 354 359 352 
383 662 668 473 
384 348 767 349 
385 28 752 27 
386 446 691 282 
387 572 578 496 
388 49 455 150 
389 527 533 500 
390 335 649 639 
391 182 438 179 
392 299 614 535 
393 410 417 416 
394 53 713 149 
395 125 564 457 
396 506 696 372 
397 459 460 134 
398 147 478 25 
399 244 532 246 
400 458 473 459 
401 63 498 62 
402 168 713 53 
403 420 424 423 
404 479 490 482 
405 362 695 584 
406 151 476 61 
407 154 624 429 
408 495 660 576 
409 466 468 467 
410 494 763 217 
411 463 470 464 
412 463 464 462 
413 21 474 152 
414 614 764 535 
415 152 554 449 
416 221 651 601 
417 490 765 536 
418 321 322 319 
419 176 725 622 
420 377 441 378 
421 486 491 487 
422 456 762 325 
423 464 466 465 
424 227 666 226 
425 26 485 147 
426 210 211 209 
427 55 680 172 
428 682 739 453 
429 29 472 146 
430 724 757 516 
431 314 348 318 
432 197 645 195 
433 500 533 271 
434 560 620 421 
435 477 599 440 
436 203 209 197 
437 490 494 482 
438 479 482 480 
439 54 168 53 
440 257 502 501 
441 460 463 462 
442 57 432 56 
443 278 530 493 
444 391 714 365 
445 26 147 25 
446 29 146 28 
447 460 516 463 
448 134 461 31 
449 233 234 232 
450 514 670 200 
451 350 374 373 
452 218 223 222 
453 463 516 471 
454 163 766 520 
455 257 501 232 
456 51 139 50 
457 60 140 59 
458 543 596 128 
459 604 638 137 
460 270 446 282 
461 534 579 131 
462 415 706 176 
463 374 504 373 
464 494 610 484 
465 139 455 50 
466 203 613 210 
467 499 735 500 
468 160 596 543 
469 225 227 226 
470 549 571 267 
471 543 681 160 
472 449 628 152 
473 360 361 359 
474 23 135 22 
475 32 134 31 
476 507 655 253 
477 482 484 483 
478 284 409 294 
479 644 649 370 
480 369 704 510 
481 265 690 412 
482 246 507 242 
483 135 474 22 
484 403 567 404 
485 470 719 464 
486 390 392 391 
487 276 757 724 
488 513 514 512 
489 60 476 140 
490 214 613 513 
491 372 703 588 
492 357 358 355 
493 522 598 521 
494 210 613 214 
495 128 758 543 
496 377 378 376 
497 466 521 468 
498 504 707 606 
499 549 715 571 
500 479 480 478 
501 454 697 274 
502 325 328 327 
503 336 570 566 
504 153 473 458 
505 303 305 304 
506 362 363 361 
507 419 445 420 
508 373 767 350 
509 557 766 163 
510 212 213 211 
511 240 253 238 
512 278 512 263 
513 450 740 452 
514 508 644 370 
515 491 631 228 
516 176 622 415 
517 229 231 230 
518 317 696 334 
519 539 698 590 
520 153 458 33 
521 426 428 427 
522 626 667 136 
523 25 478 24 
524 310 654 311 
525 485 486 481 
526 309 538 335 
527 62 498 151 
528 383 662 519 
529 441 529 510 
530 184 369 182 
531 460 462 461 
532 590 748 539 
533 369 699 182 
534 226 717 223 
535 242 507 240 
536 352 454 351 
537 140 550 59 
538 199 556 408 
539 263 512 215 
540 412 744 265 
541 353 357 355 
542 137 638 529 
543 58 769 148 
544 439 748 347 
545 354 749 379 
546 5 375 366 
547 33 458 32 
548 392 394 393 
549 501 675 230 
550 231 233 232 
551 482 483 480 
552 459 516 460 
553 396 398 397 
554 30 472 29 
555 534 740 450 
556 455 570 150 
557 372 696 318 
558 34 519 153 
559 270 282 281 
560 217 610 494 
561 409 447 410 
562 141 526 525 
563 400 403 401 
564 450 451 401 
565 336 566 331 
566 255 551 542 
567 223 761 222 
568 464 465 462 
569 244 246 242 
570 268 412 177 
571 525 527 162 
572 466 467 465 
573 52 439 51 
574 337 540 528 
575 47 515 166 
576 49 150 48 
577 62 151 61 
578 526 527 525 
579 50 455 49 
580 430 651 581 
581 305 307 306 
582 453 627 380 
583 323 689 456 
584 219 270 269 
585 484 493 483 
586 246 644 508 
587 277 278 263 
588 40 523 155 
589 21 152 20 
590 34 153 33 
591 342 528 345 
592 22 474 21 
593 460 461 134 
594 499 500 477 
595 345 549 434 
596 419 420 418 
597 493 530 483 
598 150 515 48 
599 326 386 8 
600 216 541 264 
601 11 525 162 
602 163 524 43 
603 330 544 413 
604 685 711 382 
605 535 764 547 
606 472 738 720 
607 377 543 441 
608 222 761 406 
609 591 640 384 
610 350 767 348 
611 61 476 60 
612 246 508 507 
613 323 324 322 
614 544 639 254 
615 219 552 270 
616 161 172 170 
617 417 418 416 
618 149 748 439 
619 142 523 41 
620 493 742 513 
621 673 710 339 
622 42 524 142 
623 141 525 12 
624 279 633 446 
625 468 469 467 
626 13 141 12 
627 42 142 41 
628 165 519 35 
629 690 702 412 
630 35 519 34 
631 442 663 372 
632 419 560 445 
633 358 714 437 
634 59 550 58 
635 217 218 213 
636 490 536 494 
637 247 532 244 
638 164 531 16 
639 190 553 188 
640 463 471 470 
641 15 154 14 
642 40 155 39 
643 337 528 342 
644 526 533 527 
645 443 725 702 
646 313 728 370 
647 11 162 10 
648 44 163 43 
649 535 547 432 
650 15 531 154 
651 264 541 286 
652 41 523 40 
653 309 335 320 
654 203 210 209 
655 342 345 344 
656 12 525 11 
657 43 524 42 
658 48 515 47 
659 515 692 166 
660 254 532 247 
661 358 653 355 
662 364 365 358 
663 47 166 46 
664 64 167 63 
665 330 413 332 
666 16 531 15 
667 408 552 201 
668 17 164 16 
669 36 165 35 
670 505 568 7 
671 345 434 433 
672 301 637 339 
673 213 679 211 
674 151 498 477 
675 513 742 214 
676 270 281 269 
677 230 666 227 
678 286 297 296 
679 147 485 481 
680 521 648 256 
681 297 430 429 
682 478 582 24 
683 193 553 190 
684 483 530 489 
685 404 534 450 
686 23 754 135 
687 519 662 153 
688 236 608 234 
689 311 313 312 
690 234 608 257 
691 249 254 247 
692 139 566 455 
693 261 542 276 
694 498 499 477 
695 172 174 173 
696 255 542 261 
697 152 628 20 
698 412 702 177 
699 334 506 453 
700 486 492 491 
701 424 425 423 
702 484 742 493 
703 192 193 190 
704 155 711 685 
705 385 597 537 
706 441 510 378 
707 278 630 530 
708 536 763 494 
709 339 710 303 
710 260 631 612 
711 286 541 297 
712 456 689 457 
713 384 736 591 
714 235 236 234 
715 188 208 186 
716 233 235 234 
717 345 433 344 
718 201 552 204 
719 175 268 177 
720 277 630 278 
721 488 611 492 
722 143 634 569 
723 444 573 366 
724 436 656 340 
725 250 598 522 
726 261 276 275 
727 453 739 627 
728 347 732 439 
729 272 299 291 
730 545 550 140 
731 182 699 438 
732 393 575 509 
733 347 748 590 
734 297 429 296 
735 10 558 9 
736 45 557 44 
737 365 714 358 
738 228 229 227 
739 506 682 453 
740 604 699 638 
741 409 410 294 
742 179 438 6 
743 508 728 338 
744 205 215 202 
745 370 728 508 
746 298 382 280 
747 548 628 449 
748 528 549 345 
749 371 449 287 
750 426 427 425 
751 519 736 383 
752 150 671 515 
753 430 511 429 
754 466 522 521 
755 224 225 223 
756 141 705 511 
757 282 407 281 
758 483 489 480 
759 513 613 514 
760 342 344 343 
761 473 724 459 
762 389 390 365 
763 383 384 298 
764 532 644 246 
765 546 602 534 
766 566 570 455 
767 266 267 258 
768 632 719 470 
769 286 296 287 
770 550 769 58 
771 155 640 39 
772 598 648 521 
773 216 263 215 
774 548 664 628 
775 204 219 207 
776 285 290 277 
777 344 520 343 
778 264 277 263 
779 413 540 332 
780 586 682 129 
781 210 212 211 
782 296 371 287 
783 264 286 285 
784 335 544 320 
785 569 634 431 
786 243 259 245 
787 535 603 299 
788 303 304 302 
789 541 651 297 
790 220 221 207 
791 250 632 241 
792 371 548 449 
793 474 741 152 
794 288 383 298 
795 194 195 193 
796 248 255 251 
797 337 342 341 
798 199 408 201 
799 44 557 163 
800 162 558 10 
801 452 667 626 
802 325 327 324 
803 663 703 372 
804 409 657 447 
805 286 287 285 
806 219 269 220 
807 342 343 341 
808 538 649 335 
809 180 760 284 
810 196 197 195 
811 526 581 533 
812 212 217 213 
813 652 717 643 
814 205 216 215 
815 204 207 205 
816 406 717 652 
817 269 271 220 
818 332 337 336 
819 264 285 277 
820 692 766 166 
821 13 705 141 
822 135 687 474 
823 219 220 207 
824 212 610 217 
825 457 689 380 
826 332 540 337 
827 382 555 280 
828 255 261 258 
829 216 264 263 
830 305 306 304 
831 174 547 175 
832 326 435 386 
833 275 288 280 
834 639 644 532 
835 261 275 266 
836 288 298 280 
837 472 720 146 
838 694 727 595 
839 154 705 14 
840 275 280 266 
841 204 205 202 
842 531 624 154 
843 395 396 394 
844 261 266 258 
845 437 653 358 
846 524 686 433 
847 38 591 37 
848 248 251 249 
849 375 437 366 
850 255 258 251 
851 449 554 287 
852 337 341 336 
853 251 252 249 
854 284 760 497 
855 363 376 367 
856 510 704 580 
857 399 400 398 
858 330 332 331 
859 510 638 369 
860 204 552 219 
861 353 674 357 
862 241 632 243 
863 164 664 548 
864 248 249 247 
865 214 610 212 
866 216 601 541 
867 266 555 267 
868 503 661 328 
869 245 248 247 
870 285 554 290 
871 496 753 572 
872 201 204 202 
873 259 551 245 
874 407 440 281 
875 429 624 296 
876 198 203 197 
877 315 590 308 
878 267 571 258 
879 162 735 558 
880 329 347 315 
881 332 336 331 
882 452 626 451 
883 224 763 536 
884 288 662 383 
885 578 660 496 
886 221 601 207 
887 551 730 542 
888 237 238 236 
889 245 247 244 
890 96 125 97 
891 77 127 78 
892 139 641 566 
893 248 551 255 
894 9 723 1 
895 1 723 64 
896 2 722 45 
897 46 722 2 
898 528 715 549 
899 341 570 336 
900 320 544 330 
901 155 685 640 
902 320 330 329 
903 335 639 544 
904 671 692 515 
905 287 554 285 
906 97 563 98 
907 76 562 77 
908 218 224 223 
909 146 752 28 
910 239 250 241 
911 38 640 591 
912 195 645 274 
913 702 725 177 
914 262 674 353 
915 75 157 76 
916 98 156 99 
917 83 158 84 
918 88 136 89 
919 85 132 86 
920 82 574 83 
921 84 577 85 
922 91 131 92 
923 81 133 82 
924 397 677 496 
925 428 683 517 
926 180 284 283 
927 589 656 655 
928 37 729 3 
929 3 729 36 
930 207 601 205 
931 280 555 266 
932 497 746 409 
933 4 726 17 
934 18 726 4 
935 313 370 312 
936 74 583 75 
937 99 586 100 
938 311 312 307 
939 330 331 329 
940 243 245 244 
941 465 738 462 
942 536 765 224 
943 614 744 412 
944 100 129 101 
945 73 130 74 
946 196 198 197 
947 269 599 271 
948 86 578 87 
949 205 601 216 
950 20 628 19 
951 539 748 149 
952 72 585 73 
953 101 587 102 
954 309 320 315 
955 289 718 443 
956 192 194 193 
957 245 551 248 
958 258 571 251 
959 306 309 308 
960 504 629 373 
961 201 202 200 
962 71 160 72 
963 102 159 103 
964 251 571 252 
965 533 650 271 
966 235 237 236 
967 281 599 269 
968 511 721 141 
969 239 240 238 
970 296 624 371 
971 87 572 88 
972 141 721 526 
973 103 592 104 
974 70 596 71 
975 360 731 414 
976 69 128 70 
977 104 126 105 
978 475 716 379 
979 199 201 200 
980 326 602 546 
981 347 590 315 
982 199 200 198 
983 243 244 242 
984 319 338 316 
985 95 564 96 
986 357 364 358 
987 480 582 478 
988 78 565 79 
989 320 329 315 
990 290 630 277 
991 273 279 206 
992 475 749 653 
993 225 228 227 
994 388 545 292 
995 196 199 198 
996 243 632 259 
997 241 242 240 
998 237 239 238 
999 306 538 309 
1000 518 673 637 
1001 489 582 480 
1002 229 260 231 
1003 307 538 306 
1004 404 546 534 
1005 274 645 454 
1006 237 598 239 
1007 382 609 555 
1008 92 579 93 
1009 440 599 281 
1010 590 698 308 
1011 437 444 366 
1012 194 196 195 
1013 628 664 19 
1014 68 593 69 
1015 80 573 81 
1016 298 685 382 
1017 210 214 212 
1018 241 243 242 
1019 220 650 221 
1020 67 605 68 
1021 374 517 504 
1022 309 315 308 
1023 291 388 292 
1024 549 708 434 
1025 66 137 67 
1026 107 138 108 
1027 584 700 387 
1028 106 607 107 
1029 105 594 106 
1030 364 389 365 
1031 239 241 240 
1032 591 736 165 
1033 373 727 694 
1034 224 559 225 
1035 228 631 229 
1036 414 756 695 
1037 730 757 542 
1038 275 668 288 
1039 39 640 38 
1040 183 184 182 
1041 540 715 528 
1042 165 736 519 
1043 327 346 340 
1044 471 757 730 
1045 233 256 235 
1046 396 399 398 
1047 609 701 434 
1048 191 272 206 
1049 129 682 588 
1050 359 454 352 
1051 268 614 412 
1052 456 457 333 
1053 272 291 273 
1054 299 603 291 
1055 322 589 319 
1056 302 539 300 
1057 306 308 304 
1058 291 292 273 
1059 8 333 95 
1060 410 416 415 
1061 523 711 155 
1062 388 550 545 
1063 239 598 250 
1064 203 670 613 
1065 108 606 109 
1066 79 356 5 
1067 399 402 400 
1068 375 653 437 
1069 297 651 430 
1070 254 639 532 
1071 152 741 554 
1072 153 662 473 
1073 113 145 112 
1074 118 144 117 
1075 123 143 122 
1076 119 616 118 
1077 543 758 441 
1078 120 620 119 
1079 121 421 120 
1080 110 178 6 
1081 117 618 116 
1082 111 623 110 
1083 114 625 113 
1084 112 619 111 
1085 116 621 115 
1086 115 411 114 
1087 122 672 121 
1088 433 686 344 
1089 326 546 435 
1090 517 707 504 
1091 420 423 422 
1092 404 567 546 
1093 5 366 80 
1094 386 762 456 
1095 520 686 163 
1096 392 395 394 
1097 252 759 249 
1098 109 505 7 
1099 363 367 361 
1100 402 675 501 
1101 284 294 293 
1102 148 603 535 
1103 272 273 206 
1104 341 671 570 
1105 229 631 260 
1106 65 604 66 
1107 124 634 123 
1108 441 758 529 
1109 185 186 184 
1110 510 580 378 
1111 566 641 331 
1112 389 406 390 
1113 357 674 368 
1114 610 742 484 
1115 312 538 307 
1116 191 192 190 
1117 89 667 90 
1118 331 641 329 
1119 518 637 171 
1120 457 564 333 
1121 19 664 18 
1122 329 641 347 
1123 93 602 94 
1124 505 683 568 
1125 56 680 55 
1126 561 672 143 
1127 640 685 384 
1128 421 672 561 
1129 531 755 624 
1130 125 563 97 
1131 77 562 127 
1132 163 686 524 
1133 459 724 516 
1134 271 650 220 
1135 575 576 158 
1136 225 559 228 
1137 677 753 496 
1138 191 206 192 
1139 90 676 91 
1140 570 671 150 
1141 98 563 156 
1142 157 562 76 
1143 273 633 279 
1144 529 638 510 
1145 581 650 533 
1146 395 642 396 
1147 7 431 124 
1148 516 757 471 
1149 637 673 339 
1150 83 574 158 
1151 133 574 82 
1152 85 577 132 
1153 158 577 84 
1154 346 436 340 
1155 376 381 367 
1156 140 737 545 
1157 194 747 556 
1158 399 405 402 
1159 534 602 579 
1160 75 583 157 
1161 156 586 99 
1162 396 642 399 
1163 319 589 338 
1164 250 719 632 
1165 428 597 427 
1166 344 686 520 
1167 291 603 388 
1168 187 265 189 
1169 292 633 273 
1170 132 578 86 
1171 198 670 203 
1172 130 583 74 
1173 100 586 129 
1174 164 726 664 
1175 542 757 276 
1176 655 656 253 
1177 139 732 641 
1178 146 712 611 
1179 282 737 407 
1180 214 742 610 
1181 73 585 130 
1182 129 587 101 
1183 88 572 136 
1184 444 678 573 
1185 96 564 125 
1186 624 755 371 
1187 327 340 324 
1188 276 668 275 
1189 181 182 179 
1190 127 565 78 
1191 187 188 186 
1192 189 191 190 
1193 576 577 158 
1194 164 755 531 
1195 6 438 65 
1196 443 702 289 
1197 454 645 351 
1198 545 691 292 
1199 171 635 518 
1200 405 709 666 
1201 160 585 72 
1202 102 587 159 
1203 142 701 523 
1204 186 704 184 
1205 87 578 572 
1206 189 190 188 
1207 448 745 417 
1208 343 671 341 
1209 191 669 272 
1210 395 643 642 
1211 218 763 224 
1212 159 592 103 
1213 71 596 160 
1214 626 753 677 
1215 131 579 92 
1216 185 187 186 
1217 279 747 206 
1218 522 719 250 
1219 300 713 168 
1220 267 708 549 
1221 530 659 489 
1222 539 713 300 
1223 420 422 418 
1224 588 682 506 
1225 81 573 133 
1226 327 661 346 
1227 104 592 126 
1228 128 596 70 
1229 653 749 355 
1230 384 685 298 
1231 527 735 162 
1232 181 183 182 
1233 608 647 257 
1234 183 289 185 
1235 348 654 350 
1236 8 386 333 
1237 252 715 540 
1238 94 326 8 
1239 659 687 135 
1240 406 652 390 
1241 183 185 184 
1242 45 722 557 
1243 558 723 9 
1244 200 670 198 
1245 425 518 423 
1246 629 727 373 
1247 467 720 465 
1248 14 705 13 
1249 171 770 636 
1250 316 728 313 
1251 136 667 89 
1252 626 677 451 
1253 91 676 131 
1254 410 415 294 
1255 69 593 128 
1256 357 368 364 
1257 346 647 608 
1258 343 692 671 
1259 376 684 381 
1260 226 709 643 
1261 717 761 223 
1262 295 706 665 
1263 187 189 188 
1264 175 547 268 
1265 126 594 105 
1266 581 721 430 
1267 237 648 598 
1268 224 765 559 
1269 520 692 343 
1270 630 659 530 
1271 17 726 164 
1272 559 765 487 
1273 448 621 618 
1274 172 680 174 
1275 64 723 167 
1276 166 722 46 
1277 36 729 165 
1278 603 769 388 
1279 148 769 603 
1280 149 713 539 
1281 328 661 327 
1282 68 605 593 
1283 294 622 293 
1284 260 734 231 
1285 462 738 461 
1286 333 564 95 
1287 137 605 67 
1288 529 758 593 
1289 556 747 279 
1290 609 708 555 
1291 284 293 283 
1292 107 607 138 
1293 594 607 106 
1294 593 605 529 
1295 379 749 475 
1296 79 565 356 
1297 370 649 312 
1298 235 648 237 
1299 378 684 376 
1300 613 670 514 
1301 125 627 563 
1302 526 721 581 
1303 687 741 474 
1304 574 575 158 
1305 399 642 405 
1306 356 375 5 
1307 130 584 583 
1308 647 661 503 
1309 423 635 422 
1310 359 646 454 
1311 548 755 164 
1312 430 721 511 
1313 138 606 108 
1314 256 734 615 
1315 171 636 635 
1316 419 617 560 
1317 127 600 565 
1318 368 751 688 
1319 184 704 369 
1320 361 646 359 
1321 611 712 469 
1322 129 588 587 
1323 366 573 80 
1324 187 690 265 
1325 180 283 181 
1326 386 456 333 
1327 434 708 609 
1328 379 716 600 
1329 230 675 666 
1330 667 676 90 
1331 293 443 283 
1332 290 741 687 
1333 374 537 517 
1334 557 722 166 
1335 167 723 558 
1336 611 752 146 
1337 256 648 235 
1338 555 708 267 
1339 390 652 392 
1340 349 694 442 
1341 159 663 592 
1342 322 733 589 
1343 312 649 538 
1344 334 696 506 
1345 383 736 384 
1346 160 681 585 
1347 579 602 93 
1348 643 717 226 
1349 66 604 137 
1350 308 698 304 
1351 132 660 578 
1352 118 616 144 
1353 144 618 117 
1354 469 712 467 
1355 119 620 616 
1356 421 620 120 
1357 113 625 145 
1358 145 619 112 
1359 110 623 178 
1360 178 180 179 
1361 143 672 122 
1362 618 621 116 
1363 560 617 616 
1364 121 672 421 
1365 619 623 111 
1366 192 747 194 
1367 411 625 114 
1368 679 751 368 
1369 115 621 411 
1370 691 737 282 
1371 109 606 505 
1372 233 734 256 
1373 135 754 659 
1374 126 595 594 
1375 568 683 428 
1376 580 684 378 
1377 356 475 375 
1378 178 179 6 
1379 249 759 254 
1380 350 658 374 
1381 283 718 181 
1382 615 734 260 
1383 123 634 143 
1384 666 675 405 
1385 181 718 183 
1386 609 711 701 
1387 475 653 375 
1388 346 661 647 
1389 231 734 233 
1390 607 629 138 
1391 505 707 683 
1392 415 622 294 
1393 371 755 548 
1394 136 753 626 
1395 165 729 591 
1396 416 706 415 
1397 395 652 643 
1398 674 679 368 
1399 259 730 551 
1400 659 754 489 
1401 573 678 133 
1402 518 635 423 
1403 7 568 431 
1404 591 729 37 
1405 427 673 425 
1406 392 652 395 
1407 367 646 361 
1408 571 715 252 
1409 589 655 338 
1410 418 665 416 
1411 290 687 630 
1412 304 698 302 
1413 189 669 191 
1414 554 741 290 
1415 616 617 144 
1416 668 724 473 
1417 625 657 145 
1418 431 634 124 
1419 302 698 539 
1420 166 766 557 
1421 437 714 444 
1422 405 675 402 
1423 382 711 609 
1424 265 669 189 
1425 217 763 218 
1426 701 711 523 
1427 616 620 560 
1428 438 604 65 
1429 292 691 633 
1430 208 684 580 
1431 636 770 170 
1432 497 623 619 
1433 183 718 289 
1434 324 733 322 
1435 654 658 350 
1436 630 687 659 
1437 419 745 617 
1438 665 706 416 
1439 656 733 340 
1440 364 688 389 
1441 338 728 316 
1442 641 732 347 
1443 562 693 127 
1444 340 733 324 
1445 425 673 518 
1446 94 602 326 
1447 438 699 604 
1448 657 750 447 
1449 545 737 691 
1450 583 695 157 
1451 489 754 582 
1452 385 710 597 
1453 146 720 712 
1454 180 181 179 
1455 422 665 418 
1456 563 739 156 
1457 589 733 656 
1458 442 694 595 
1459 299 744 614 
1460 206 747 192 
1461 388 769 550 
1462 213 751 679 
1463 585 700 130 
1464 374 658 537 
1465 435 762 386 
1466 688 751 222 
1467 600 731 379 
1468 276 724 668 
1469 185 690 187 
1470 443 718 283 
1471 368 688 364 
1472 664 726 18 
1473 587 703 159 
1474 683 707 517 
1475 289 690 185 
1476 381 697 367 
1477 127 693 600 
1478 712 720 467 
1479 606 707 505 
1480 643 709 642 
1481 157 756 562 
1482 584 695 583 
1483 627 739 563 
1484 638 699 369 
1485 130 700 584 
1486 268 764 614 
1487 310 658 654 
1488 178 760 180 
1489 681 700 585 
1490 588 703 587 
1491 593 758 128 
1492 159 703 663 
1493 547 764 268 
1494 356 716 475 
1495 676 740 131 
1496 572 753 136 
1497 448 743 621 
1498 452 676 667 
1499 367 697 646 
1500 622 725 293 
1501 594 727 607 
1502 663 768 592 
1503 126 768 595 
1504 592 768 126 
1505 488 752 611 
1506 565 716 356 
1507 600 716 565 
1508 293 725 443 
1509 595 768 442 
1510 595 727 594 
1511 607 727 629 
1512 642 709 405 
1513 265 744 669 
1514 619 746 497 
1515 621 743 411 
1516 562 756 693 
1517 695 756 157 
1518 409 746 657 
1519 406 761 717 
1520 145 746 619 
1521 657 746 145 
1522 520 766 692 
1523 625 750 657 
1524 411 750 625 
1525 623 760 178 
1526 414 731 693 
1527 693 731 600 
1528 497 760 623 
1529 452 740 676 
1530 693 756 414 
1531 447 750 743 
1532 743 750 411 
1533 387 700 681 
1534 694 767 373 
1535 442 768 663 
1536 349 767 694 
1537 617 618 144 
1538 156 682 586 
1539 553 697 381 
1540 635 665 422 
$EndElements
