$MeshFormat
4.1 0 8
$EndMeshFormat
$PhysicalNames
6
1 8 "top"
1 9 "left"
1 10 "bottom"
1 11 "right"
1 12 "wall"
2 13 "ground"
$EndPhysicalNames
$Entities
10 7 1 0
1 0 -4 0 0 
2 0 -3 0 0 
3 1 -4 0 0 
4 -1 -4 0 0 
5 0.9281613938 -4.3721779508 0 0 
6 -0.9281613938 -4.3721779508 0 0 
7 -10 0 0 0 
8 10 0 0 0 
9 10 -10 0 0 
10 -10 -10 0 0 
1 -1.000000002249202e-07 -4.372178050799545 -1e-07 1.0000001 -2.9999999 1e-07 1 12 2 2 -5 
2 -1.0000001 -4.372178050799545 -1e-07 1.000000002249202e-07 -2.9999999 1e-07 1 12 2 2 -6 
3 -0.9281614937999999 -4.372178050800001 -1e-07 0.9281614937999999 -4.3721778508 1e-07 1 12 2 6 -5 
4 -10.0000001 -1e-07 -1e-07 10.0000001 1e-07 1e-07 1 8 2 7 -8 
5 9.999999900000001 -10.0000001 -1e-07 10.0000001 1.000000002804313e-07 1e-07 1 11 2 8 -9 
6 -10.0000001 -10.0000001 -1e-07 10.0000001 -9.999999900000001 1e-07 1 10 2 9 -10 
7 -10.0000001 -10.0000001 -1e-07 -9.999999900000001 1.000000002804313e-07 1e-07 1 9 2 10 -7 
1 -10.0000001 -10.0000001 -1e-07 10.0000001 1.000000002804313e-07 1e-07 1 13 7 4 5 6 7 2 3 -1 
$EndEntities
$Nodes
15 784 1 784
0 2 0 1
1
0 -3 0
0 5 0 1
2
0.9281613938 -4.3721779508 0
0 6 0 1
3
-0.9281613938 -4.3721779508 0
0 7 0 1
4
-10 0 0
0 8 0 1
5
10 0 0
0 9 0 1
6
10 -10 0
0 10 0 1
7
-10 -10 0
1 1 0 19
8
9
10
11
12
13
14
15
16
17
18
19
20
21
22
23
24
25
26
0.09745262396263679 -3.004759834973087 0
0.1939775311097608 -3.018994027834406 0
0.2886558361837462 -3.042567073765968 0
0.3805862329692255 -3.075254565150876 0
0.4688935744307799 -3.116745327859781 0
0.5527372038238716 -3.166644383525876 0
0.6313189574695887 -3.224476709608595 0
0.7038907630094325 -3.289691761451411 0
0.769761760807266 -3.361668713285259 0
0.8283048807050284 -3.439722368284947 0
0.8789628115236737 -3.523109681416787 0
0.9212533064816525 -3.611036832982065 0
0.9547737740251042 -3.702666785518571 0
0.9792051103665738 -3.797127252120976 0
0.9943147372477468 -3.893519000324263 0
0.9999588160077043 -3.990924412500002 0
0.9960836168795014 -4.088416221273309 0
0.982726030479814 -4.185066336802207 0
0.960013216622445 -4.279954681886598 0
1 2 0 19
27
28
29
30
31
32
33
34
35
36
37
38
39
40
41
42
43
44
45
-0.09745262396263679 -3.004759834973087 0
-0.1939775311097608 -3.018994027834406 0
-0.2886558361837462 -3.042567073765968 0
-0.3805862329692255 -3.075254565150876 0
-0.4688935744307799 -3.116745327859781 0
-0.5527372038238716 -3.166644383525876 0
-0.6313189574695887 -3.224476709608595 0
-0.7038907630094325 -3.289691761451411 0
-0.769761760807266 -3.361668713285259 0
-0.8283048807050284 -3.439722368284947 0
-0.8789628115236737 -3.523109681416787 0
-0.9212533064816525 -3.611036832982065 0
-0.9547737740251042 -3.702666785518571 0
-0.9792051103665738 -3.797127252120976 0
-0.9943147372477468 -3.893519000324263 0
-0.9999588160077043 -3.990924412500002 0
-0.9960836168795014 -4.088416221273309 0
-0.982726030479814 -4.185066336802207 0
-0.960013216622445 -4.279954681886598 0
1 3 0 18
46
47
48
49
50
51
52
53
54
55
56
57
58
59
60
61
62
63
-0.8304601944526315 -4.3721779508 0
-0.732758995105263 -4.3721779508 0
-0.6350577957578944 -4.3721779508 0
-0.537356596410526 -4.3721779508 0
-0.4396553970631578 -4.3721779508 0
-0.3419541977157892 -4.3721779508 0
-0.2442529983684207 -4.3721779508 0
-0.1465517990210522 -4.3721779508 0
-0.04885059967368388 -4.3721779508 0
0.04885059967368433 -4.3721779508 0
0.1465517990210528 -4.3721779508 0
0.2442529983684214 -4.3721779508 0
0.3419541977157898 -4.3721779508 0
0.4396553970631583 -4.3721779508 0
0.5373565964105269 -4.3721779508 0
0.6350577957578953 -4.3721779508 0
0.7327589951052635 -4.3721779508 0
0.8304601944526318 -4.3721779508 0
1 4 0 19
64
65
66
67
68
69
70
71
72
73
74
75
76
77
78
79
80
81
82
-9 0 0
-8 0 0
-7 0 0
-6 0 0
-5 0 0
-4 0 0
-3 0 0
-2 0 0
-1 0 0
0 0 0
1 0 0
2 0 0
3 0 0
4 0 0
5 0 0
6 0 0
7 0 0
8 0 0
9 0 0
1 5 0 9
83
84
85
86
87
88
89
90
91
10 -1 0
10 -2 0
10 -3 0
10 -4 0
10 -5 0
10 -6 0
10 -7 0
10 -8 0
10 -9 0
1 6 0 19
92
93
94
95
96
97
98
99
100
101
102
103
104
105
106
107
108
109
110
9 -10 0
8 -10 0
7 -10 0
6 -10 0
5 -10 0
4 -10 0
3 -10 0
2 -10 0
1 -10 0
0 -10 0
-1 -10 0
-2 -10 0
-3 -10 0
-4 -10 0
-5 -10 0
-6 -10 0
-7 -10 0
-8 -10 0
-9 -10 0
1 7 0 9
111
112
113
114
115
116
117
118
119
-10 -9 0
-10 -8 0
-10 -7 0
-10 -6 0
-10 -5 0
-10 -4 0
-10 -3 0
-10 -2 0
-10 -1 0
2 1 0 665
120
121
122
123
124
125
126
127
128
129
130
131
132
133
134
135
136
137
138
139
140
141
142
143
144
145
146
147
148
149
150
151
152
153
154
155
156
157
158
159
160
161
162
163
164
165
166
167
168
169
170
171
172
173
174
175
176
177
178
179
180
181
182
183
184
185
186
187
188
189
190
191
192
193
194
195
196
197
198
199
200
201
202
203
204
205
206
207
208
209
210
211
212
213
214
215
216
217
218
219
220
221
222
223
224
225
226
227
228
229
230
231
232
233
234
235
236
237
238
239
240
241
242
243
244
245
246
247
248
249
250
251
252
253
254
255
256
257
258
259
260
261
262
263
264
265
266
267
268
269
270
271
272
273
274
275
276
277
278
279
280
281
282
283
284
285
286
287
288
289
290
291
292
293
294
295
296
297
298
299
300
301
302
303
304
305
306
307
308
309
310
311
312
313
314
315
316
317
318
319
320
321
322
323
324
325
326
327
328
329
330
331
332
333
334
335
336
337
338
339
340
341
342
343
344
345
346
347
348
349
350
351
352
353
354
355
356
357
358
359
360
361
362
363
364
365
366
367
368
369
370
371
372
373
374
375
376
377
378
379
380
381
382
383
384
385
386
387
388
389
390
391
392
393
394
395
396
397
398
399
400
401
402
403
404
405
406
407
408
409
410
411
412
413
414
415
416
417
418
419
420
421
422
423
424
425
426
427
428
429
430
431
432
433
434
435
436
437
438
439
440
441
442
443
444
445
446
447
448
449
450
451
452
453
454
455
456
457
458
459
460
461
462
463
464
465
466
467
468
469
470
471
472
473
474
475
476
477
478
479
480
481
482
483
484
485
486
487
488
489
490
491
492
493
494
495
496
497
498
499
500
501
502
503
504
505
506
507
508
509
510
511
512
513
514
515
516
517
518
519
520
521
522
523
524
525
526
527
528
529
530
531
532
533
534
535
536
537
538
539
540
541
542
543
544
545
546
547
548
549
550
551
552
553
554
555
556
557
558
559
560
561
562
563
564
565
566
567
568
569
570
571
572
573
574
575
576
577
578
579
580
581
582
583
584
585
586
587
588
589
590
591
592
593
594
595
596
597
598
599
600
601
602
603
604
605
606
607
608
609
610
611
612
613
614
615
616
617
618
619
620
621
622
623
624
625
626
627
628
629
630
631
632
633
634
635
636
637
638
639
640
641
642
643
644
645
646
647
648
649
650
651
652
653
654
655
656
657
658
659
660
661
662
663
664
665
666
667
668
669
670
671
672
673
674
675
676
677
678
679
680
681
682
683
684
685
686
687
688
689
690
691
692
693
694
695
696
697
698
699
700
701
702
703
704
705
706
707
708
709
710
711
712
713
714
715
716
717
718
719
720
721
722
723
724
725
726
727
728
729
730
731
732
733
734
735
736
737
738
739
740
741
742
743
744
745
746
747
748
749
750
751
752
753
754
755
756
757
758
759
760
761
762
763
764
765
766
767
768
769
770
771
772
773
774
775
776
777
778
779
780
781
782
783
784
-0.4885059967368418 -4.456316489703936 0
0.1970706302517283 -4.463758387019198 0
0.69284257358454 -4.469983673042385 0
9.243117466032631 -4.458230540881463 0
-9.228557167307116 -4.453863651638908 0
-4.620131820529455 -9.146387945378113 0
4.456748206282912 -9.194953219027717 0
-0.1872899658121805 -4.46148178914979 0
4.48956525859657 -0.9642318445451146 0
-4.5073879216257 -0.7548805884578975 0
-1.456459891817916 -9.29242799448345 0
1.532191028129701 -9.342613082233122 0
2.551298425823769 -0.7155985309638453 0
-2.672590409353076 -0.808108722288936 0
-6.475457012082976 -0.8591062632515936 0
6.522099018335249 -0.7855192325896905 0
6.441901906290221 -9.194323363616492 0
-6.502148364738233 -9.13856364490811 0
9.126003661401116 -6.48913997854824 0
-9.151044980254179 -6.502233254083927 0
0.4885059967368426 -4.458958116253065 0
-0.008171100342005177 -4.46143925912116 0
-0.6839083954315788 -4.456789671415029 0
-0.5974775096864963 -0.9318267206334285 0
-0.1592499037195168 -2.928629267992817 0
9.228177883708391 -2.532272895843493 0
-9.19292585393389 -2.530929479370975 0
9.036288290321115 -8.458210326389324 0
-8.495376059014887 -9.159711690662219 0
-8.5 -0.8660254037844384 0
8.497067984522802 -0.8480054427349426 0
-1.325951138057016 -0.7761197147267733 0
-1.897050606857757 -1.583946143477614 0
-0.4707195471821701 -3.007415318823582 0
-0.6283065056601083 -3.130408865508546 0
-1.016291970922958 -1.466374106682871 0
-0.1823982042425667 -1.492464397886243 0
-0.6684334432934 -2.006097636426555 0
0.1325380245421726 -1.037186806352324 0
0.3316896569728089 -1.651771917288129 0
0.3591766441848294 -2.969164472815708 0
0.1580422501564683 -2.928283909716403 0
0.7152143202799168 -1.183622920264434 0
0.8558945943523836 -1.737492770349855 0
0.5683337859698494 -2.116602152550719 0
0.9727561291403486 -2.182170254087967 0
0.7219382380168421 -3.188101389131621 0
0.5651357598863892 -3.065261252535543 0
1.322595065174245 -1.876472619583057 0
1.360477331553247 -2.353754958403486 0
1.74938751402252 -2.052738738823725 0
1.818785912117947 -2.477541026899565 0
1.073106279006383 -4.148309288193133 0
1.057051766044378 -3.832850395306203 0
0.9762552059405982 -3.530448614227198 0
1.023954998909334 -4.353650804065142 0
2.182928611228904 -2.210749781139972 0
2.230320727350898 -2.700423747718065 0
2.641304374984919 -2.357488324673131 0
2.730240286317656 -2.862510118681457 0
2.311727776915075 -3.175155520380041 0
2.788196910177652 -3.360796019748303 0
3.258353571148587 -3.057514073420647 0
3.232206902113739 -3.687613319350984 0
3.81638237008106 -3.305194880294123 0
3.866856881925252 -3.949825749086391 0
3.339658523128052 -4.329547158750424 0
3.926633633996792 -4.622073924550988 0
3.370243048293264 -5.044807111731648 0
4.49710170578845 -4.261424225007209 0
4.545055693997366 -4.963668308307938 0
5.162876162459806 -4.584893372351025 0
5.192010616197431 -5.34527834717222 0
2.36751088144152 -3.635846555038108 0
4.569612306835834 -5.75196788776909 0
5.859664775643489 -4.921180509049082 0
5.879690595823941 -5.730260527006573 0
5.796953199442159 -4.152251425077366 0
1.497975780229978 -2.732243126389496 0
6.580341556529117 -5.284260852029275 0
6.599952593588156 -6.105334997560344 0
5.884919654776152 -6.554856157528466 0
1.977170010389583 -3.504562929236409 0
2.01903385887485 -3.870049602925384 0
6.631970628343513 -6.962330859733169 0
3.754991452028927 -2.662210363839022 0
4.383689956730189 -2.916443875323999 0
1.678127165981586 -3.768067959419373 0
1.744805238239508 -4.092064910747782 0
2.033862121150506 -4.224923158274425 0
1.751388684148343 -4.393478156357131 0
2.024929346285096 -4.559557244466663 0
1.760037411143076 -4.707732440244037 0
0.990182622382844 -4.467558490291122 0
2.039215811533007 -4.906806921004749 0
1.688465635475665 -5.057395806704656 0
2.062802961139096 -5.301184959087687 0
1.704118529019786 -5.522852279575845 0
2.091704299002434 -5.750927433578642 0
1.698610461400542 -5.981885789117452 0
1.321827993844501 -5.73957592664302 0
2.108946557716268 -6.228107867308993 0
1.302320270383546 -6.208393114198254 0
0.9016825744217578 -5.971540822258694 0
0.8984413997938632 -6.436206518594361 0
0.4983222593784568 -6.196270671565366 0
0.4918754431649054 -6.662295382117057 0
0.09784517580687653 -6.416636484783488 0
0.08776684202896297 -5.983423719593676 0
-0.2782353816130328 -6.176426608686263 0
-0.2348785799722484 -5.784569955309095 0
-0.6002382863547635 -5.905014328462485 0
-0.6318112214411162 -6.345495925042872 0
-0.9495916805680233 -6.106560045136341 0
-0.9539561346810329 -5.730663465657456 0
-1.267083144810077 -5.878252446466663 0
-1.306898040304318 -6.26968462435963 0
-1.609517631064109 -6.020963622252304 0
-1.55441663657416 -5.645691887735677 0
-1.90263319314515 -5.77788733645937 0
-1.82783156672065 -5.361298098532 0
-2.186247179076668 -5.52801803114366 0
-2.139298072284992 -5.128965144964218 0
-2.486372208995074 -5.30778336746906 0
-2.417338676801983 -4.81174949477931 0
-2.831903183684285 -5.03585099863351 0
-2.775444204697326 -4.539011204874313 0
-1.0223842287238 -3.627433041824764 0
-3.216718548430404 -4.707758039906702 0
-1.085814379711426 -3.938727541405419 0
-3.274387489484426 -5.239919066504211 0
-3.702662965859066 -4.869483108101841 0
-2.265952062070109 -5.921350606803342 0
-1.057285468976874 -4.254780298907654 0
-3.777370114144772 -5.43245024191295 0
-4.240050785304268 -5.043411588456906 0
-0.9296070877527104 -3.433650945555382 0
-4.326436064931517 -5.634984183432094 0
-4.816778226108053 -5.25461308304253 0
-3.123602287391383 -4.221845268933857 0
-4.704805790516966 -4.618780316138164 0
0.07490749872365648 -6.899246811552185 0
-2.636784163640833 -4.070635760566337 0
-3.011951687798537 -3.74135124224168 0
-2.49238781457987 -3.591461429934012 0
-5.329768923321131 -4.841712104065586 0
-5.389088246575815 -5.558108373349757 0
-2.918373925221923 -3.238280775512965 0
-3.842465969045919 -6.016334308285545 0
0.0552439786024026 -5.607126433823201 0
-5.197397017261471 -4.162597950702387 0
-1.48057781634303 -5.306100467570699 0
-0.2072480623254011 -5.442923122032576 0
-5.873954842722779 -4.397379297626066 0
-4.390321072749241 -6.263536835303698 0
-3.915458778689994 -6.642652605238723 0
-1.699919739661168 -6.424280453246217 0
0.02930636209618612 -5.294162626669803 0
-1.340954328847408 -6.71149279380809 0
-1.807444624529638 -6.893528594430104 0
1.304836099997858 -6.687667261465611 0
-2.024889093631725 -4.738566749214505 0
-0.2022079048626355 -5.144847275281461 0
-5.735254802372435 -3.682758163432228 0
-5.065075350387053 -3.484586924007791 0
-6.452822218737738 -3.92061905507793 0
-6.584357200558756 -4.676618352072372 0
0.5208433259317116 -7.192662562794135 0
-4.50109971724522 -6.924849891107955 0
0.03823016084791242 -7.468695578985086 0
-1.386402353388156 -7.211161858919318 0
-1.901011890114177 -7.438944796127766 0
1.118958146411985 -4.439985048972173 0
1.075237868391501 -4.580898591804825 0
0.008530375646169017 -5.023088635854804 0
0.2318133990933723 -5.144022008737702 0
-2.438280497150374 -3.087398943531143 0
-2.838555973223857 -2.691534142420804 0
-2.061954864066284 -3.379701951610499 0
-1.994377238508109 -2.962580695955264 0
-0.4307006695322538 -5.278318949816404 0
-0.4238540834172478 -5.027130908992675 0
-0.6249226638683587 -5.127919764059039 0
-3.390971231854728 -2.873681375000603 0
-5.556719762511239 -2.936742763277759 0
-3.996592436548302 -7.281485286535553 0
0.2065956079952465 -4.912528992390529 0
0.4256960398035687 -4.973965647468521 0
0.4526821257712839 -5.238392523542242 0
0.6445760732295116 -5.087567328675211 0
-1.645349539570896 -3.264534676921832 0
-1.751452666474599 -3.608952126829271 0
-1.571425031951795 -2.865939387647717 0
-3.281738520918911 -2.261452405451624 0
-0.5967019666867724 -4.883446648495327 0
-0.8040111814496076 -4.995530910989159 0
2.552131000841671 -5.971775479388564 0
2.569212657374019 -6.539147585083224 0
-2.341028603165507 -7.072344768240574 0
-2.470217237864138 -7.669646512204971 0
-3.88612216868153 -2.471030895810012 0
-0.3999748289707842 -4.831733614546522 0
0.9252820592240375 -4.595005590200134 0
0.9942508791166993 -4.748637833305091 0
-3.484366705276699 -3.871969037793597 0
-0.7795141140491507 -4.785261263512743 0
-0.9691089963049506 -4.880719023560235 0
-0.8752009903539362 -4.463792741597845 0
-0.9830306580323573 -4.460266924605081 0
5.894220907422877 -7.406271310699488 0
-7.19636859015795 -4.181518482359572 0
-7.050654416486076 -3.382596042114479 0
-7.331095433662079 -4.981782254773414 0
0.03798128056345131 -4.8117693998133 0
3.076650555205207 -6.219082213150481 0
3.111480107661691 -6.836443488754905 0
2.549234702373828 -7.166486912507287 0
3.126873440774571 -7.48504130257268 0
3.710159561486376 -7.133888687663665 0
7.323707598053204 -5.664929739094349 0
7.288424310432501 -4.815781102825932 0
0.6052479745839799 -4.851365666155999 0
-0.9923777012593756 -5.083523743774431 0
0.558228881230854 -7.788363806406908 0
-0.009657950534909764 -8.111645686117591 0
0.7161878636494291 -2.487649605446862 0
0.3240689066804364 -2.447806584778973 0
-3.335456272078585 -6.361328414886685 0
1.635272479239994 -3.410434926857442 0
2.530337785125221 -7.841398484106771 0
-4.638963661139821 -7.621150860877336 0
-5.285893516600196 -7.121102904730337 0
3.15649021244243 -8.153467446983388 0
-1.170100168899744 -4.956572623480989 0
-1.464522237829373 -3.536172916208327 0
-1.527680201940007 -3.792640940495608 0
-1.776565078589803 -3.903942179385127 0
-1.549197299052108 -4.033841084164292 0
1.18837729984934 -4.720872992485915 0
1.092909521925125 -4.927729890547346 0
-1.863990987329648 -2.567816436940755 0
-1.448947560324918 -2.479278711455448 0
-1.180019868921634 -2.769786532570977 0
-0.8056848078448786 -3.260296224064799 0
1.482480562390129 -4.243919816586031 0
1.413641795979512 -3.625501618875098 0
1.372673648989304 -3.341901873872744 0
0.8666297688441035 -3.349995711736842 0
-1.138221389253556 -4.727844054979654 0
-1.341639951188905 -4.819863344649167 0
-1.326255900117506 -4.597871530821076 0
2.396855128328349 -4.385162066870889 0
-6.698505091700967 -5.487368068701192 0
-7.463209199810429 -5.803601679324929 0
-6.806133484507153 -6.330434410931555 0
-7.599512045976658 -6.648535412864838 0
-6.924676363341073 -7.193764306118517 0
-7.810689284338314 -3.648826724376901 0
-1.780277131686626 -4.178044722596026 0
0.7120842003002418 -5.352137167988099 0
-7.676252064244778 -2.770124557687856 0
-6.897178703779291 -2.588717475350107 0
-5.364862173127527 -7.972672734912789 0
-7.741815631013083 -7.516647614531031 0
-1.287166168510158 -7.824059074326534 0
-0.9127084366909047 -4.573272241693366 0
0.1965312229202039 -4.69791369588291 0
5.165780849231707 -6.999100815866786 0
1.705830824212295 -1.559762763191305 0
4.303926635032952 -2.212975261853584 0
4.981051985379827 -2.494643017672399 0
3.666977555971176 -2.051664220400317 0
2.003838447156554 -7.48404360815341 0
-1.285235833123561 -3.711943970930848 0
0.392253721450639 -5.759622037775403 0
5.23281385324666 -7.707362945640186 0
-1.534574009885137 -4.681455937411031 0
-1.213523253386568 -3.497595765305662 0
-2.916487233487524 -7.287556681537847 0
-3.112454305616779 -7.91511628682652 0
-2.552035572883116 -8.349670256054722 0
-3.351115070113308 -8.572905853412809 0
1.44775829956918 -3.872848924375973 0
-3.974648428392517 -3.123491014153736 0
0.1858071928581417 -2.14309004225783 0
-0.02046391599300744 -2.422597640014298 0
-7.511462957369559 -1.926553321230847 0
-0.8857377328365003 -6.978961322366808 0
2.438851707867439 -5.080799681689637 0
-1.473681679850675 -4.485489329512878 0
-2.044233295513619 -4.016564031912981 0
0.4733293975664932 -2.705311900771116 0
0.6920507921795461 -2.80485027994987 0
1.186228498040246 -2.675659221645648 0
1.279967083157466 -2.908692860153201 0
2.527275347272404 -1.849040661897676 0
-0.672472281830679 -5.360588995791281 0
1.526599078953379 -4.528186116996793 0
0.2618835157004883 -2.678410338464599 0
-0.0462183111279018 -2.685987067103097 0
-1.315571560515167 -3.096222373324216 0
-1.018223280513138 -3.057052301287628 0
-0.9066492770336789 -2.830135144707515 0
-1.059977081374708 -2.383495074292783 0
-0.7192632534732954 -2.512467004788854 0
-0.5913299727117494 -2.757328641056152 0
-0.4610407521141491 -2.551368461966396 0
6.682603520152213 -7.801986572437466 0
7.452037019128634 -7.379497248991838 0
7.468895986633801 -8.202735967965303 0
-1.270583747640077 -4.365864774074886 0
8.048753207042743 -5.202235414163338 0
-3.747451028043742 -1.767215103053114 0
-4.469460097740217 -2.091414423670697 0
1.146279833506415 -4.276258601869576 0
7.946070376371559 -4.359298139362551 0
7.225493204178361 -3.937729580667155 0
7.904835902622627 -3.478337745199326 0
7.03073639701186 -2.991282366411073 0
-0.3618801273509415 -2.787009844076638 0
5.03770161627675 -3.195444179625551 0
5.671547445358855 -2.77587334392395 0
5.589345381603565 -2.062215540402082 0
-2.701054246331851 -2.086714431990868 0
-0.1604259725854582 -2.148271715129658 0
-8.130387174670712 -5.274818848382212 0
0.5729730767063815 -8.457204294149756 0
1.156271797877914 -8.067316769318118 0
1.376497062721189 -5.299257421659234 0
-0.6093415508909519 -4.697014647594881 0
-0.4543049973896378 -4.628283098298901 0
1.85697929653297 -3.168737785610177 0
2.517533014423822 -8.518235659682416 0
0.03927511166091892 -4.653796661929588 0
-0.106754150649073 -4.718333936807522 0
-0.2607067733054775 -4.941817408536474 0
7.917508638564485 -2.548225063975639 0
7.101287643650113 -2.135338624518829 0
-1.579101125516747 -4.917283292167405 0
1.203543130074856 -3.513760849869414 0
1.158749747191108 -3.32583796468166 0
0.3556931807294711 -4.781344484361156 0
0.3438067121646137 -4.630475479162283 0
-0.7761368568006816 -4.545084432445684 0
0.8340529900698742 -4.890565239705297 0
0.9111883204575704 -5.140011689188706 0
-1.359168516386464 -2.142069059782271 0
-0.03945552248306046 -8.906813905515818 0
-0.6906174161277607 -8.391583208844937 0
-3.621133886437332 -0.9104859989877179 0
3.43114228030818 -0.732666562519082 0
1.253342049016404 -3.677381109168357 0
0.5041283967198018 -4.68389630251766 0
3.503672466013431 -9.297209892114561 0
-6.980073295982816 -8.221668262352903 0
-3.901923630976855 -7.991910759705983 0
-1.324072746573035 -3.952312656617526 0
1.5283727326995 -3.072446154841828 0
8.225172045553425 -6.042286174229671 0
1.350885870801723 -4.935159569862767 0
-1.239154972850411 -5.520617702078304 0
1.261574454437835 -3.905259131660241 0
-2.074672375353573 -4.331666634856356 0
-1.341852835136842 -4.152853600951438 0
1.022207403340798 -5.469698162555207 0
-1.734967941358254 -4.49097109424742 0
8.247563575409121 -7.799685107332243 0
-0.09787720172571644 -4.569819704078097 0
-0.227586513924489 -4.637171594796763 0
-5.471732732558414 -0.7836353000877212 0
-5.861937713680462 -1.586260219108683 0
5.611874757900351 -0.7953971702111495 0
-6.113197478683915 -6.840741509920592 0
-5.567666913055351 -9.2172526417177 0
5.423101615197514 -9.18480107086531 0
-0.8161847045228268 -3.009898090248707 0
1.679468443821305 -0.7624092494331647 0
-1.12030154088149 -3.280058079061419 0
0.8802902656713829 -4.477644654254446 0
0.778340562178319 -4.57581266605965 0
9.023496962456441 -5.419276988940046 0
-9.042564888704854 -5.44390920065225 0
-1.205938451899985 -5.213396477957474 0
-0.9645324285859255 -5.379323127849038 0
0.8434566315696758 -4.707502095291169 0
-9.232846372537503 -3.507120711847451 0
9.274412572268048 -3.494572486042332 0
3.032477698902623 -5.612847492387777 0
3.579158493565171 -5.848901557080611 0
4.002497796634532 -8.409816858174082 0
-3.30400185021134 -5.797226672735748 0
-2.772431270950074 -6.044916312460546 0
-1.08188176221451 -4.151357959825141 0
-1.180610436222399 -4.226239774764064 0
-1.023954998909334 -4.353650804065142 0
-1.107352055516939 -4.444320451396443 0
-1.074470768336207 -3.832485652415154 0
-1.086533306826453 -4.04339346597091 0
-1.204301553045887 -4.103710581815775 0
1.307997731340481 -4.414832209304893 0
1.01750131370241 -3.62770832643992 0
7.494319268012 -0.7833214383552054 0
-7.47018464720343 -0.8959613284246251 0
-0.3733330652976493 -2.956103216722155 0
-0.5599219717120741 -3.06143374262281 0
-7.496290498054479 -9.150814511237439 0
-4.861437875668497 -2.756123377628231 0
-6.045310255296565 -5.928394515343599 0
2.796356793404101 -4.686024213436756 0
2.810380532656542 -4.144598381228342 0
-9.193154901176619 -7.446693370327674 0
-0.9811499840904887 -3.527688891272211 0
-1.053238024274843 -3.726731743954676 0
-1.136530225592905 -3.644464157664765 0
-2.780577197455422 -9.162351432530354 0
0.9347478688340426 -3.432139121722216 0
1.052125359773589 -3.440498239128313 0
0.9827515819208523 -3.323016193849315 0
0.8977438136812731 -3.22052469432445 0
6.42750711953649 -3.664613222050077 0
-0.2621041064765456 -2.916330477310912 0
-0.05933736307464809 -2.906713974571393 0
-0.47642510783175 -2.875585765097003 0
-0.8666297688441034 -3.349995711736842 0
-0.9385179775456521 -3.23707459369562 0
-0.72838949869176 -3.15160924834647 0
0.4650995524598352 -3.010100024411629 0
0.5688003347393431 -2.934866304258696 0
0.6896073839346021 -3.025661950291671 0
0.8841165791074015 -2.927116221529504 0
0.455679059814744 -2.880764151804837 0
0.2980588202434467 -2.845750130303408 0
1.086891685392193 -4.043242637893067 0
1.190659303988571 -4.125080525466475 0
-6.238733163766943 -7.715880419910406 0
1.109493987136797 -3.923224527132319 0
1.050976848352487 -3.733129909628459 0
4.427071068749415 -7.585337007066319 0
4.424041722366776 -6.605734084413042 0
5.896525497514253 -8.295938443781631 0
9.127881147486013 -7.444922504015 0
-4.566257125263602 -3.984021733024036 0
1.962568522795963 -6.815556350680545 0
0.6908263760999964 -5.667651898205131 0
-0.2462362123341085 -2.604678451624369 0
-5.296946715866516 -2.217183008545021 0
0.05360574778788352 -2.911417907782601 0
5.176112240374072 -6.187352765712155 0
-1.183726606793228 -3.877842733578764 0
-0.5696462568193024 -7.735154484930015 0
-4.13715251810551 -4.472191198206022 0
-2.165393553751716 -6.575966005893148 0
-2.773186320127413 -6.648666539331698 0
4.828636780136788 -1.78059865279236 0
1.023932686843012 -7.468954631855912 0
-9.058173207861353 -8.434506304782573 0
7.431711873741944 -6.51281310523826 0
-3.135203979708263 -1.608390958537945 0
6.537362436894298 -4.468339045906847 0
1.301411365601561 -4.228174998635624 0
1.344144216099527 -4.05774265616153 0
1.826813888910629 -8.151007801566813 0
-7.934236862549312 -4.466264856134855 0
-9.19464236742586 -1.535162646789784 0
9.071982885437727 -1.555523356226436 0
0.1372802937037209 -4.559037019212901 0
-1.717409717082126 -2.072486727306397 0
4.019906595775977 -5.391072558110354 0
-0.6737343507627626 -3.028080059968523 0
0.7829385181984275 -4.453559378991296 0
0.6430812976026042 -4.586154127764606 0
0.586207196084211 -4.456789671415029 0
-0.5862071960842101 -4.458781368101802 0
-0.6514573064245819 -4.557063482249385 0
-0.7802406602431409 -4.446228869984088 0
0.3908047973894739 -4.456789671415029 0
-0.3908047973894734 -4.457771628194385 0
-0.09774813331492765 -4.44741933078981 0
0.09507213699697759 -4.461578528862011 0
-8.298405352362465 -6.104888245712712 0
0.434426116189508 -4.550067624080357 0
-2.860520682484279 -5.516790718774685 0
-6.291793615120985 -3.192071844365701 0
-0.2921378322227531 -4.4588945690562 0
-0.3413219098103855 -4.561476173254939 0
0.2933816366349374 -4.455683115176946 0
-0.4700236853671032 -5.577080193476705 0
7.934196181607615 -1.634770419959326 0
7.47878523434566 -9.120247623320452 0
8.486265505421283 -9.226490899144203 0
-0.779543119636726 -9.176308095326815 0
-5.986830760029335 -5.148263451859762 0
-5.42819338064135 -6.302862465402473 0
3.18042472810104 -2.50275952903403 0
0.1166937568682094 -2.778346473162202 0
-0.2961067124588542 -6.603821487459077 0
-0.4315357628968803 -7.099079450020711 0
0.6990492385783381 -9.230647266442718 0
8.293833878738527 -6.938374188895681 0
-8.000145268590938 -8.384943469501405 0
-1.051341264252067 -3.438309309033792 0
-8.405170610002148 -6.987642725904673 0
3.67170447304211 -6.459844431714092 0
-4.674979500407463 -8.339993861152127 0
-3.592041698110155 -4.378198441604455 0
-8.393347458526785 -2.002047546826009 0
4.447478885888297 -3.589804333708304 0
-5.963017966128773 -8.467424420570769 0
6.333875364971457 -2.342346941905001 0
4.170170749858852 -1.677321794776834 0
0.2672927544816236 -5.415411334891295 0
2.888469738624123 -1.345763629168255 0
1.042867557764044 -3.186656212048596 0
-0.1608740546305514 -2.806938486425946 0
-0.4989414390750043 -2.242022499411093 0
1.841829964158078 -2.834176949928344 0
-8.472083735150553 -3.069173075596596 0
-2.352498248051363 -2.58894106839788 0
1.233890244393495 -1.31819641769024 0
-0.9315319952261905 -4.722849261925647 0
-2.015818888510284 -6.163264663690031 0
1.675456382458835 -6.384322076554171 0
-0.8210634478937585 -5.204641875325978 0
-1.967792843130497 -8.070041061442389 0
-1.047421765134526 -4.576068847518656 0
-6.724358686976293 -1.724011746631241 0
-0.2844959814789915 -2.383580877349959 0
-1.374241312563793 -8.591168876884018 0
0.7988989680650694 -3.263698589415279 0
0.839748039728085 -3.09531740290665 0
-3.716444105576409 -9.258938658834609 0
0.9585173894248837 -6.935343393658886 0
-0.959439086323937 -6.520229405885294 0
1.037216071704878 -4.248647942563331 0
3.70469846669233 -7.785571972029944 0
2.241360756753152 -1.336568944929723 0
0.6321475086262587 -3.134029137018661 0
-3.430010156089032 -6.939413634817279 0
5.104111847306934 -3.877119566828669 0
-6.10482253298913 -2.374164509546419 0
-4.867368425710627 -5.922491867642883 0
0.9557353289636342 -2.722395683665125 0
-2.079366704755925 -3.728007690323583 0
-2.328122923976116 -3.890067388389955 0
-1.35609080171692 -3.337183844548577 0
0.2595822163756503 -2.960951922887179 0
-4.982128174633642 -1.478030026741025 0
-1.863440103603152 -4.995363069573388 0
4.781845104087362 -8.426792830832852 0
0.5655633584363344 -0.5393483986111622 0
3.077699877418406 -1.913975893244368 0
6.217462209552364 -1.570060026670833 0
-1.408640999610088 -5.058889732167963 0
-2.43933597007913 -4.381194551649919 0
-0.7204816033975373 -2.878482829314659 0
1.194741781632136 -4.004719365439488 0
2.396400251997101 -4.000499331721386 0
1.239991411341137 -3.139233612182347 0
-0.1134190415523063 -4.870877469992536 0
2.514879952252415 -5.474808878399529 0
2.508835663803 -9.245302963363651 0
-0.7290258739654663 -4.650732063160899 0
-1.748749848950026 -4.768606124817122 0
-2.455868536362364 -1.487551901791921 0
-0.2533406393514528 -4.775692015219435 0
-1.507454467411058 -4.251603403337544 0
-0.5373565964105259 -4.542113354417021 0
-8.536296818505217 -3.985406915992964 0
0.537356596410527 -4.542174536918538 0
-3.381623821707321 -3.415655503024607 0
5.720301576958613 -3.43642303896801 0
1.459859688333542 -7.183600672223875 0
-0.03564823701216085 -1.861048880121294 0
-1.176889718590006 -3.983197395877679 0
-0.7995562741128222 -2.230318608502786 0
-1.15477437410384 -3.753769031312398 0
0.6968052207317773 -4.719198815564287 0
-2.052930988260065 -8.823401158031718 0
-1.127757250320207 -4.328871433009493 0
1.057317698245401 -2.999866607496056 0
0.2516707822318323 -4.555829889111635 0
1.211110486364806 -4.560410257482709 0
-1.400639500334864 -1.753630337163253 0
-2.164645390335851 -2.064576118317573 0
2.339241757483598 -4.723670025493739 0
-4.011148737716818 -3.943286419929454 0
-0.8542629112491136 -3.13843917274328 0
2.830561840143968 -5.17985747552907 0
-1.083568605133637 -3.547730564345954 0
8.56803634139882 -3.015550886006492 0
0.4984129530761806 -5.523099926218339 0
-0.2403456905619559 -4.540259323374282 0
1.03882727338621 -0.7607153971998004 0
-0.9120976548901991 -7.369683238112678 0
2.081356610697855 -1.80177217799648 0
0.04885059967368444 -4.540880606218805 0
-0.7186256229542023 -5.597252960658928 0
-0.3632885894866745 -4.694322268342731 0
-8.479691923728828 -7.754086697009472 0
-3.471493552543699 -7.483096529884637 0
1.539911114524399 -4.03967215652497 0
-0.9812795278552047 -3.347817727816611 0
0.9961459085750743 -2.475554084174247 0
-0.5821020922663405 -2.934721059480455 0
7.053872864231469 -1.381801948418777 0
-1.961960031592588 -0.990161624859109 0
9.26794919243112 -9.267949192431121 0
-9.267949192431123 -9.267949192431123 0
-9.267949192431123 -0.7320508075688767 0
9.267949192431123 -0.7320508075688767 0
-0.4416578702661685 -4.531665917517466 0
-0.3550968309498682 -1.877642149640835 0
-4.407667224316254 -3.383410961394798 0
1.364981385830721 -4.645462444845739 0
-2.432203881585368 -6.263401206811587 0
4.052884718317173 -6.011504103817438 0
-7.984895654764809 -1.390683618546621 0
3.59181047393064 -1.413090523110584 0
8.603462383793524 -3.964756330961674 0
-4.265512221696127 -1.40040522818209 0
1.130383260987287 -3.649447677629556 0
0.001584212238002322 -2.818871628921161 0
-1.65276901368284 -5.133828689641355 0
-0.7789649724094009 -2.717915406770017 0
1.075961654095748 -3.55237274145888 0
-0.8286795416619656 -4.669236490001802 0
-1.520378649553037 -1.314046385381924 0
8.534435044853007 -2.224178861220966 0
1.288827229182311 -8.667926366521833 0
8.143559718426195 -8.561473984830304 0
-2.514304680715241 -5.663771807330258 0
1.150737635849281 -5.154371346762652 0
-0.6416415139462557 -6.709181724598019 0
-0.9906271456706239 -1.954583037185548 0
0.6192116564984633 -5.918500621201845 0
-4.052918825520698 -8.662027415696729 0
-2.284721431781074 -4.152354266590539 0
6.796601489683036 -8.509116424283377 0
-0.6219525040101213 -1.652273328757166 0
8.558252158575323 -4.69855586340347 0
-8.564396841433462 -4.736949775075333 0
3.082316343532862 -8.780643353158043 0
-2.229744896579836 -4.557134888307396 0
1.319574513000676 -3.779481676072765 0
1.49414330182433 -7.670984696623625 0
-1.184148865491772 -4.54739382200217 0
0.1144453170603973 -2.595979910921285 0
2.073290492721116 -2.979948038720144 0
2.750758989530842 -3.742416225991166 0
0.5474648960750316 -2.83144815919613 0
-5.238131674649715 -8.6287463207463 0
6.250277767356893 -3.016715986551857 0
1.945664344890905 -8.758768985420478 0
1.172496182364841 -3.792027247878457 0
-0.1419508360185626 -4.995157697416318 0
0.4761594938674142 -4.818619554625909 0
-0.4937739429894543 -4.739425553488725 0
-0.9427508244163556 -2.627284035739601 0
5.347376877557927 -1.434500646924308 0
1.097267980294141 -2.831493435770267 0
-3.811092606697066 -3.533595262716971 0
0.3419541977157894 -4.528111638215569 0
1.533218376746185 -4.772243228548694 0
-4.882809034208888 -6.510933784977263 0
-4.319867158959803 -2.765094134531495 0
$EndNodes
$Elements
8 1568 1 1568
1 1 1 20
1 1 8 
2 8 9 
3 9 10 
4 10 11 
5 11 12 
6 12 13 
7 13 14 
8 14 15 
9 15 16 
10 16 17 
11 17 18 
12 18 19 
13 19 20 
14 20 21 
15 21 22 
16 22 23 
17 23 24 
18 24 25 
19 25 26 
20 26 2 
1 2 1 20
21 1 27 
22 27 28 
23 28 29 
24 29 30 
25 30 31 
26 31 32 
27 32 33 
28 33 34 
29 34 35 
30 35 36 
31 36 37 
32 37 38 
33 38 39 
34 39 40 
35 40 41 
36 41 42 
37 42 43 
38 43 44 
39 44 45 
40 45 3 
1 3 1 19
41 3 46 
42 46 47 
43 47 48 
44 48 49 
45 49 50 
46 50 51 
47 51 52 
48 52 53 
49 53 54 
50 54 55 
51 55 56 
52 56 57 
53 57 58 
54 58 59 
55 59 60 
56 60 61 
57 61 62 
58 62 63 
59 63 2 
1 4 1 20
60 4 64 
61 64 65 
62 65 66 
63 66 67 
64 67 68 
65 68 69 
66 69 70 
67 70 71 
68 71 72 
69 72 73 
70 73 74 
71 74 75 
72 75 76 
73 76 77 
74 77 78 
75 78 79 
76 79 80 
77 80 81 
78 81 82 
79 82 5 
1 5 1 10
80 5 83 
81 83 84 
82 84 85 
83 85 86 
84 86 87 
85 87 88 
86 88 89 
87 89 90 
88 90 91 
89 91 6 
1 6 1 20
90 6 92 
91 92 93 
92 93 94 
93 94 95 
94 95 96 
95 96 97 
96 97 98 
97 98 99 
98 99 100 
99 100 101 
100 101 102 
101 102 103 
102 103 104 
103 104 105 
104 105 106 
105 106 107 
106 107 108 
107 108 109 
108 109 110 
109 110 7 
1 7 1 10
110 7 111 
111 111 112 
112 112 113 
113 113 114 
114 114 115 
115 115 116 
116 116 117 
117 117 118 
118 118 119 
119 119 4 
2 1 2 1449
120 362 421 420 
121 378 685 485 
122 351 554 492 
123 188 508 507 
124 345 411 346 
125 384 569 468 
126 538 649 632 
127 144 633 541 
128 478 500 138 
129 172 553 434 
130 431 500 478 
131 165 345 164 
132 412 548 547 
133 557 668 509 
134 143 155 151 
135 494 668 559 
136 354 393 355 
137 492 612 351 
138 382 554 351 
139 310 354 311 
140 637 703 360 
141 414 779 413 
142 360 703 586 
143 476 693 518 
144 245 601 250 
145 128 737 470 
146 509 654 557 
147 448 479 215 
148 413 722 169 
149 633 741 541 
150 133 683 577 
151 345 346 164 
152 629 737 128 
153 163 164 159 
154 223 563 484 
155 540 633 144 
156 362 420 312 
157 203 207 202 
158 474 627 137 
159 223 484 220 
160 137 525 474 
161 439 542 425 
162 243 601 245 
163 310 311 298 
164 401 475 399 
165 188 587 508 
166 464 504 323 
167 411 551 418 
168 354 355 311 
169 434 653 172 
170 482 485 281 
171 559 668 395 
172 449 686 450 
173 432 739 469 
174 103 697 130 
175 142 593 463 
176 309 465 379 
177 207 365 348 
178 143 758 155 
179 534 697 103 
180 128 470 77 
181 444 646 634 
182 412 769 411 
183 359 464 323 
184 411 418 346 
185 439 540 523 
186 73 158 143 
187 101 610 467 
188 198 414 413 
189 220 484 448 
190 419 564 405 
191 590 696 472 
192 469 739 129 
193 365 459 366 
194 193 202 180 
195 156 758 143 
196 210 364 208 
197 163 165 164 
198 610 647 468 
199 393 476 355 
200 476 518 483 
201 468 647 384 
202 495 588 545 
203 417 519 364 
204 378 485 482 
205 519 579 364 
206 384 713 569 
207 354 397 393 
208 464 465 309 
209 393 568 476 
210 164 404 159 
211 497 620 397 
212 483 513 430 
213 421 497 420 
214 133 577 469 
215 475 719 399 
216 207 402 365 
217 312 420 310 
218 480 503 234 
219 366 477 348 
220 448 751 479 
221 426 439 425 
222 207 720 402 
223 421 544 497 
224 69 469 129 
225 593 686 449 
226 333 453 386 
227 420 664 310 
228 299 310 298 
229 298 662 264 
230 235 480 234 
231 166 649 648 
232 465 751 484 
233 522 645 406 
234 161 614 551 
235 272 282 277 
236 469 577 432 
237 649 699 632 
238 198 413 169 
239 467 617 101 
240 372 611 527 
241 282 294 277 
242 155 746 151 
243 203 208 207 
244 333 386 306 
245 430 685 483 
246 230 272 269 
247 527 612 492 
248 412 549 548 
249 439 633 540 
250 272 277 269 
251 476 483 357 
252 386 700 462 
253 193 203 202 
254 325 449 314 
255 207 348 202 
256 527 611 266 
257 143 151 72 
258 280 641 562 
259 496 655 388 
260 463 594 142 
261 166 656 548 
262 294 333 306 
263 397 533 393 
264 171 198 169 
265 355 476 357 
266 314 321 301 
267 296 298 264 
268 365 366 348 
269 128 778 573 
270 554 627 474 
271 371 529 528 
272 134 645 522 
273 345 412 411 
274 494 559 136 
275 230 269 228 
276 445 599 501 
277 402 763 365 
278 141 715 487 
279 361 362 312 
280 501 599 139 
281 487 711 127 
282 472 688 590 
283 585 700 386 
284 632 699 677 
285 489 666 490 
286 169 722 165 
287 208 720 207 
288 484 751 448 
289 304 659 565 
290 104 650 534 
291 250 601 510 
292 551 665 161 
293 479 782 215 
294 368 644 639 
295 130 647 610 
296 395 668 557 
297 489 490 134 
298 380 636 625 
299 135 671 491 
300 386 462 461 
301 553 579 434 
302 365 471 459 
303 576 618 428 
304 300 301 282 
305 229 230 228 
306 487 597 141 
307 572 657 347 
308 76 470 132 
309 127 597 487 
310 73 143 72 
311 165 722 345 
312 202 451 180 
313 159 692 156 
314 422 495 421 
315 301 455 282 
316 362 422 421 
317 490 666 565 
318 409 430 370 
319 220 448 217 
320 271 502 480 
321 525 619 474 
322 194 567 558 
323 158 159 156 
324 671 778 491 
325 228 394 225 
326 534 650 401 
327 388 638 496 
328 564 646 405 
329 240 271 238 
330 106 493 125 
331 393 695 568 
332 491 778 128 
333 509 761 352 
334 294 306 295 
335 431 759 500 
336 662 663 264 
337 210 417 364 
338 345 661 412 
339 338 558 557 
340 135 491 79 
341 67 489 134 
342 71 133 70 
343 76 132 75 
344 634 731 444 
345 472 696 341 
346 310 664 354 
347 562 691 280 
348 315 325 314 
349 227 228 225 
350 302 314 301 
351 545 706 495 
352 459 536 460 
353 438 771 628 
354 511 750 252 
355 304 565 526 
356 528 704 371 
357 73 669 158 
358 416 716 503 
359 397 664 497 
360 486 560 147 
361 346 766 405 
362 186 529 183 
363 341 696 464 
364 338 622 558 
365 155 753 702 
366 271 480 238 
367 346 405 404 
368 233 234 231 
369 639 644 385 
370 438 628 457 
371 459 460 366 
372 307 341 309 
373 133 469 70 
374 231 606 230 
375 454 487 453 
376 95 494 136 
377 282 774 294 
378 465 484 379 
379 231 716 606 
380 238 480 235 
381 162 163 159 
382 569 616 289 
383 702 753 466 
384 198 477 414 
385 511 572 347 
386 464 696 504 
387 678 684 454 
388 348 477 451 
389 585 598 121 
390 341 775 472 
391 503 716 234 
392 361 423 362 
393 217 448 215 
394 614 741 419 
395 306 461 307 
396 151 725 71 
397 478 618 576 
398 551 614 418 
399 499 590 122 
400 296 299 298 
401 138 618 478 
402 104 534 103 
403 418 766 346 
404 69 129 68 
405 78 128 77 
406 129 489 68 
407 78 491 128 
408 272 300 282 
409 648 649 538 
410 359 465 464 
411 590 591 122 
412 72 151 71 
413 71 725 133 
414 680 761 473 
415 584 607 150 
416 550 551 411 
417 212 417 210 
418 250 510 254 
419 510 511 347 
420 581 748 447 
421 565 659 490 
422 227 229 228 
423 333 454 453 
424 409 685 430 
425 97 473 126 
426 168 169 165 
427 544 721 497 
428 132 496 75 
429 455 774 282 
430 103 130 102 
431 100 131 99 
432 539 578 197 
433 317 562 221 
434 229 231 230 
435 450 776 449 
436 380 625 406 
437 529 768 183 
438 244 281 242 
439 473 509 126 
440 138 500 88 
441 114 501 139 
442 558 735 194 
443 575 619 148 
444 126 668 494 
445 122 589 499 
446 493 770 125 
447 321 455 301 
448 173 773 555 
449 268 510 347 
450 97 126 96 
451 106 125 105 
452 299 312 310 
453 314 776 321 
454 126 494 96 
455 209 210 208 
456 436 578 539 
457 266 612 527 
458 386 461 306 
459 198 635 477 
460 502 503 480 
461 462 472 461 
462 632 677 460 
463 233 235 234 
464 547 769 412 
465 254 510 268 
466 149 736 625 
467 355 357 356 
468 471 740 459 
469 453 585 386 
470 181 193 180 
471 196 567 192 
472 398 657 572 
473 548 649 166 
474 77 470 76 
475 575 718 619 
476 519 733 701 
477 98 680 473 
478 454 684 488 
479 294 295 277 
480 424 426 425 
481 496 712 74 
482 584 747 607 
483 401 755 475 
484 342 503 502 
485 149 625 583 
486 137 493 107 
487 470 631 132 
488 146 505 117 
489 85 506 145 
490 408 704 528 
491 430 765 370 
492 473 761 509 
493 255 570 251 
494 80 521 135 
495 371 676 529 
496 667 742 240 
497 131 680 99 
498 300 302 301 
499 449 776 314 
500 192 567 194 
501 625 636 146 
502 457 724 607 
503 179 180 177 
504 593 681 463 
505 419 766 614 
506 368 639 326 
507 620 708 397 
508 569 713 616 
509 269 630 394 
510 87 123 86 
511 116 124 115 
512 102 610 101 
513 87 500 123 
514 124 501 115 
515 325 681 449 
516 234 716 231 
517 75 496 74 
518 237 238 235 
519 170 171 169 
520 268 347 275 
521 555 773 481 
522 259 262 246 
523 477 635 451 
524 108 525 137 
525 364 720 208 
526 131 772 680 
527 269 394 228 
528 423 777 362 
529 272 606 300 
530 366 677 477 
531 123 506 86 
532 116 505 124 
533 558 567 387 
534 581 772 748 
535 481 675 555 
536 415 655 631 
537 307 775 341 
538 252 734 511 
539 631 737 670 
540 107 493 106 
541 353 368 326 
542 587 735 508 
543 132 655 496 
544 315 326 325 
545 205 613 391 
546 125 770 623 
547 300 606 416 
548 612 783 351 
549 302 315 314 
550 222 223 220 
551 147 560 90 
552 573 629 128 
553 65 522 149 
554 67 134 66 
555 80 135 79 
556 98 473 97 
557 419 741 633 
558 306 307 295 
559 673 762 244 
560 152 702 586 
561 219 220 217 
562 487 715 453 
563 2 498 63 
564 372 527 374 
565 457 607 456 
566 147 749 486 
567 79 491 78 
568 68 489 67 
569 454 488 487 
570 143 158 156 
571 329 387 201 
572 108 137 107 
573 95 136 94 
574 428 618 486 
575 616 713 407 
576 134 522 66 
577 341 464 309 
578 280 691 651 
579 180 767 177 
580 689 780 403 
581 443 703 637 
582 263 264 262 
583 96 494 95 
584 717 776 450 
585 70 469 69 
586 374 492 376 
587 139 530 113 
588 557 654 338 
589 683 725 152 
590 89 138 88 
591 114 139 113 
592 503 642 416 
593 515 765 430 
594 374 527 492 
595 404 692 159 
596 224 225 223 
597 488 711 487 
598 150 521 81 
599 549 699 649 
600 303 689 403 
601 88 500 87 
602 115 501 114 
603 81 521 80 
604 148 525 109 
605 670 737 391 
606 284 561 270 
607 523 542 439 
608 557 558 387 
609 499 696 590 
610 294 678 333 
611 109 525 108 
612 239 240 238 
613 501 760 445 
614 357 685 378 
615 336 562 317 
616 270 561 260 
617 86 506 85 
618 117 505 116 
619 185 186 183 
620 329 395 387 
621 113 530 112 
622 322 504 499 
623 305 719 475 
624 118 146 117 
625 85 145 84 
626 740 773 556 
627 346 404 164 
628 405 766 419 
629 136 608 94 
630 100 617 131 
631 490 659 645 
632 474 619 383 
633 394 754 225 
634 549 649 548 
635 406 736 522 
636 66 522 65 
637 421 706 544 
638 286 611 372 
639 201 567 196 
640 392 562 336 
641 91 147 90 
642 110 148 109 
643 436 539 438 
644 65 149 64 
645 82 150 81 
646 402 580 481 
647 492 554 376 
648 526 565 433 
649 536 537 460 
650 483 518 513 
651 349 392 336 
652 462 600 472 
653 461 775 307 
654 344 569 289 
655 340 436 435 
656 651 691 574 
657 89 560 138 
658 194 735 587 
659 607 724 521 
660 355 356 311 
661 295 630 277 
662 242 667 240 
663 90 560 89 
664 395 557 387 
665 260 570 255 
666 226 227 225 
667 468 569 344 
668 369 370 368 
669 628 671 457 
670 586 703 152 
671 281 667 242 
672 279 571 276 
673 112 575 111 
674 561 570 260 
675 267 296 264 
676 510 601 511 
677 340 578 436 
678 283 284 270 
679 163 168 165 
680 286 372 332 
681 188 528 186 
682 199 340 339 
683 232 233 231 
684 329 559 395 
685 436 438 437 
686 304 526 284 
687 380 381 331 
688 387 567 201 
689 372 374 373 
690 438 457 456 
691 381 602 331 
692 490 645 134 
693 105 650 104 
694 192 194 190 
695 559 757 136 
696 157 731 634 
697 303 403 320 
698 528 529 186 
699 230 606 272 
700 204 329 201 
701 709 738 437 
702 93 609 92 
703 299 637 360 
704 215 782 212 
705 200 201 196 
706 340 435 431 
707 158 162 159 
708 84 584 83 
709 119 583 118 
710 171 635 198 
711 313 443 297 
712 376 554 474 
713 101 617 100 
714 211 212 210 
715 296 637 299 
716 614 766 418 
717 195 578 199 
718 187 188 186 
719 585 715 598 
720 237 239 238 
721 504 696 499 
722 374 376 375 
723 205 391 389 
724 197 578 195 
725 340 431 339 
726 436 437 435 
727 530 575 112 
728 246 673 244 
729 219 222 220 
730 376 474 383 
731 146 636 505 
732 177 635 171 
733 349 581 392 
734 556 773 173 
735 562 641 221 
736 438 456 437 
737 526 732 284 
738 428 486 429 
739 203 209 208 
740 129 666 489 
741 372 373 332 
742 168 170 169 
743 486 618 560 
744 417 733 519 
745 380 406 381 
746 427 559 329 
747 153 542 523 
748 426 564 439 
749 204 427 329 
750 200 204 201 
751 281 762 482 
752 254 268 257 
753 398 572 318 
754 560 618 138 
755 431 478 339 
756 191 197 195 
757 264 663 262 
758 204 428 427 
759 236 237 235 
760 374 375 373 
761 163 638 168 
762 390 440 206 
763 130 610 102 
764 360 361 312 
765 485 682 281 
766 428 429 427 
767 382 627 554 
768 17 535 18 
769 179 181 180 
770 199 339 200 
771 283 304 284 
772 225 754 223 
773 259 263 262 
774 41 516 40 
775 118 583 146 
776 145 584 84 
777 376 383 375 
778 373 445 332 
779 32 524 31 
780 467 468 344 
781 199 578 340 
782 262 673 246 
783 195 199 196 
784 191 195 192 
785 222 224 223 
786 348 451 202 
787 308 630 295 
788 342 642 503 
789 241 242 240 
790 580 675 481 
791 185 187 186 
792 477 677 414 
793 451 767 180 
794 425 743 424 
795 194 587 190 
796 318 571 279 
797 568 693 476 
798 44 512 43 
799 189 191 190 
800 199 200 196 
801 352 654 509 
802 286 332 330 
803 330 331 285 
804 601 750 511 
805 273 286 285 
806 195 196 192 
807 507 707 188 
808 191 192 190 
809 239 241 240 
810 732 780 705 
811 137 627 493 
812 268 275 274 
813 150 607 521 
814 316 679 507 
815 571 640 276 
816 19 520 20 
817 396 409 370 
818 38 531 37 
819 343 574 447 
820 170 176 171 
821 430 698 515 
822 189 190 187 
823 34 545 33 
824 377 380 331 
825 278 407 290 
826 500 759 123 
827 275 305 288 
828 277 630 269 
829 343 447 446 
830 286 330 285 
831 176 177 171 
832 345 722 661 
833 330 377 331 
834 443 637 297 
835 645 659 381 
836 287 574 343 
837 390 442 441 
838 136 757 608 
839 613 670 391 
840 390 441 440 
841 271 672 502 
842 570 624 251 
843 258 260 255 
844 218 219 217 
845 319 398 318 
846 139 621 530 
847 677 699 414 
848 187 587 188 
849 27 541 1 
850 240 742 271 
851 94 608 93 
852 326 639 325 
853 679 707 507 
854 321 776 717 
855 631 670 415 
856 335 336 317 
857 273 283 270 
858 273 285 283 
859 405 646 444 
860 478 576 339 
861 506 738 709 
862 590 688 591 
863 30 523 29 
864 265 273 270 
865 405 444 404 
866 671 724 457 
867 599 621 139 
868 148 619 525 
869 265 270 260 
870 339 576 200 
871 209 211 210 
872 204 576 428 
873 350 351 288 
874 313 577 443 
875 291 318 279 
876 316 507 334 
877 321 684 455 
878 368 765 644 
879 233 236 235 
880 258 266 265 
881 224 226 225 
882 305 475 350 
883 190 587 187 
884 495 706 421 
885 307 309 308 
886 200 576 204 
887 229 232 231 
888 185 189 187 
889 357 378 356 
890 243 244 242 
891 125 650 105 
892 216 217 215 
893 389 573 390 
894 370 765 368 
895 257 258 255 
896 332 582 330 
897 268 274 257 
898 320 433 432 
899 445 582 332 
900 214 215 212 
901 124 760 501 
902 630 710 394 
903 350 382 351 
904 455 684 678 
905 353 369 368 
906 62 122 61 
907 61 591 60 
908 48 142 47 
909 60 140 59 
910 49 592 48 
911 57 121 56 
912 53 127 52 
913 56 598 55 
914 50 120 49 
915 54 597 53 
916 55 141 54 
917 254 255 251 
918 6 726 91 
919 92 726 6 
920 7 727 110 
921 111 727 7 
922 64 728 4 
923 4 728 119 
924 5 729 82 
925 83 729 5 
926 512 518 517 
927 287 651 574 
928 423 753 694 
929 258 265 260 
930 311 662 298 
931 608 609 93 
932 52 603 51 
933 182 205 184 
934 245 246 244 
935 330 582 377 
936 58 605 57 
937 389 390 206 
938 335 338 337 
939 241 243 242 
940 51 596 50 
941 243 245 244 
942 305 350 288 
943 245 248 246 
944 624 705 324 
945 337 349 336 
946 553 675 580 
947 390 573 442 
948 205 389 206 
949 373 599 445 
950 11 546 12 
951 59 595 58 
952 526 784 732 
953 440 626 206 
954 47 594 46 
955 320 432 313 
956 248 259 246 
957 275 288 274 
958 352 452 349 
959 356 662 311 
960 375 599 373 
961 319 399 398 
962 342 353 326 
963 266 660 612 
964 507 508 334 
965 184 185 183 
966 245 250 248 
967 631 655 132 
968 275 657 305 
969 226 261 227 
970 331 602 285 
971 626 658 189 
972 254 257 255 
973 337 352 349 
974 334 335 317 
975 383 621 375 
976 335 337 336 
977 182 183 181 
978 46 327 3 
979 570 705 624 
980 300 416 302 
981 622 735 558 
982 289 616 261 
983 250 251 248 
984 740 744 459 
985 293 322 213 
986 197 690 539 
987 303 320 313 
988 273 611 286 
989 250 254 251 
990 484 563 379 
991 278 652 407 
992 205 206 184 
993 212 782 417 
994 168 638 388 
995 283 602 304 
996 391 629 389 
997 191 658 197 
998 440 658 626 
999 408 707 679 
1000 433 784 526 
1001 452 581 349 
1002 579 580 364 
1003 285 602 283 
1004 216 218 217 
1005 318 572 571 
1006 182 184 183 
1007 319 400 399 
1008 506 709 145 
1009 400 401 399 
1010 244 762 281 
1011 497 664 420 
1012 600 688 472 
1013 397 708 533 
1014 442 628 441 
1015 499 589 498 
1016 608 757 429 
1017 316 334 317 
1018 45 253 44 
1019 185 626 189 
1020 265 611 273 
1021 42 249 41 
1022 369 396 370 
1023 261 615 227 
1024 26 175 2 
1025 553 580 579 
1026 271 742 672 
1027 239 252 241 
1028 528 707 408 
1029 182 613 205 
1030 327 463 385 
1031 434 579 519 
1032 263 267 264 
1033 389 629 573 
1034 303 313 297 
1035 218 221 219 
1036 467 610 468 
1037 291 319 318 
1038 18 174 19 
1039 31 153 30 
1040 63 589 62 
1041 323 504 322 
1042 375 621 599 
1043 505 687 124 
1044 33 154 32 
1045 178 179 177 
1046 583 625 146 
1047 299 360 312 
1048 400 534 401 
1049 539 771 438 
1050 564 633 439 
1051 266 611 265 
1052 432 577 313 
1053 449 681 593 
1054 322 498 213 
1055 222 280 224 
1056 509 668 126 
1057 133 725 683 
1058 315 342 326 
1059 316 317 221 
1060 267 297 296 
1061 259 324 263 
1062 360 586 361 
1063 261 616 615 
1064 354 664 397 
1065 43 517 42 
1066 307 308 295 
1067 179 182 181 
1068 343 344 289 
1069 343 446 344 
1070 530 718 575 
1071 287 289 261 
1072 287 343 289 
1073 377 636 380 
1074 378 482 410 
1075 513 698 430 
1076 446 467 344 
1077 640 734 252 
1078 226 287 261 
1079 218 316 221 
1080 178 613 179 
1081 350 623 382 
1082 475 623 350 
1083 290 384 291 
1084 227 615 229 
1085 347 657 275 
1086 446 617 467 
1087 410 662 356 
1088 39 247 38 
1089 121 700 585 
1090 327 594 463 
1091 604 711 488 
1092 308 710 630 
1093 609 749 147 
1094 672 742 458 
1095 236 276 237 
1096 267 303 297 
1097 37 256 36 
1098 31 524 153 
1099 16 367 17 
1100 392 691 562 
1101 363 706 545 
1102 258 660 266 
1103 521 724 135 
1104 251 624 248 
1105 40 532 39 
1106 396 485 409 
1107 184 626 185 
1108 381 659 602 
1109 176 178 177 
1110 406 645 381 
1111 427 757 559 
1112 580 720 364 
1113 203 676 209 
1114 233 652 236 
1115 162 638 163 
1116 28 144 27 
1117 512 517 43 
1118 206 626 184 
1119 335 622 338 
1120 342 502 353 
1121 15 648 16 
1122 290 291 279 
1123 74 669 73 
1124 337 654 352 
1125 498 589 63 
1126 248 624 259 
1127 177 767 635 
1128 14 166 15 
1129 309 379 308 
1130 18 535 174 
1131 647 697 643 
1132 320 784 433 
1133 278 290 279 
1134 334 622 335 
1135 25 653 26 
1136 516 532 40 
1137 35 363 34 
1138 508 622 334 
1139 122 591 61 
1140 60 591 140 
1141 179 613 182 
1142 10 160 11 
1143 48 592 142 
1144 617 748 131 
1145 120 592 49 
1146 369 458 396 
1147 55 598 141 
1148 141 597 54 
1149 121 598 56 
1150 53 597 127 
1151 24 172 25 
1152 3 514 45 
1153 232 652 233 
1154 36 543 35 
1155 249 516 41 
1156 419 633 564 
1157 351 783 288 
1158 229 615 232 
1159 29 540 28 
1160 20 556 21 
1161 23 552 24 
1162 127 603 52 
1163 189 658 191 
1164 259 624 324 
1165 57 605 121 
1166 253 512 44 
1167 571 734 640 
1168 50 596 120 
1169 379 710 308 
1170 13 656 14 
1171 243 750 601 
1172 213 498 2 
1173 21 173 22 
1174 361 466 423 
1175 429 749 608 
1176 140 595 59 
1177 193 676 203 
1178 322 499 498 
1179 51 603 596 
1180 437 738 435 
1181 142 594 47 
1182 154 524 32 
1183 99 680 98 
1184 522 736 149 
1185 412 661 549 
1186 33 545 154 
1187 595 605 58 
1188 643 697 400 
1189 22 555 23 
1190 658 690 197 
1191 211 214 212 
1192 278 279 276 
1193 676 768 529 
1194 193 768 676 
1195 174 520 19 
1196 378 410 356 
1197 274 660 257 
1198 214 216 215 
1199 577 683 443 
1200 9 665 10 
1201 236 278 276 
1202 511 734 572 
1203 219 641 222 
1204 367 535 17 
1205 483 685 357 
1206 183 768 181 
1207 257 660 258 
1208 674 723 588 
1209 168 388 170 
1210 424 634 426 
1211 608 749 609 
1212 176 415 178 
1213 338 654 337 
1214 702 746 155 
1215 175 434 292 
1216 123 738 506 
1217 175 653 434 
1218 488 717 604 
1219 753 758 157 
1220 403 780 732 
1221 46 594 327 
1222 565 666 433 
1223 361 586 466 
1224 247 531 38 
1225 575 727 111 
1226 42 517 249 
1227 549 779 699 
1228 37 531 256 
1229 365 763 471 
1230 520 556 20 
1231 424 777 423 
1232 547 548 167 
1233 572 734 571 
1234 153 523 30 
1235 524 723 153 
1236 466 753 423 
1237 237 640 239 
1238 367 538 537 
1239 12 167 13 
1240 377 687 636 
1241 319 643 400 
1242 209 371 211 
1243 328 514 3 
1244 1 566 8 
1245 297 637 296 
1246 302 642 315 
1247 152 703 683 
1248 533 695 393 
1249 460 677 366 
1250 602 659 304 
1251 221 641 219 
1252 62 589 122 
1253 561 732 705 
1254 384 647 643 
1255 603 604 596 
1256 548 656 167 
1257 214 408 216 
1258 144 541 27 
1259 537 632 460 
1260 363 545 34 
1261 592 593 142 
1262 523 540 29 
1263 416 642 302 
1264 293 323 322 
1265 333 678 454 
1266 609 726 92 
1267 153 723 542 
1268 8 161 9 
1269 209 676 371 
1270 327 328 3 
1271 119 728 583 
1272 584 729 83 
1273 581 764 392 
1274 385 745 639 
1275 367 648 538 
1276 26 653 175 
1277 140 600 595 
1278 45 514 253 
1279 160 551 550 
1280 513 518 512 
1281 222 641 280 
1282 442 671 628 
1283 680 772 452 
1284 291 643 319 
1285 236 652 278 
1286 384 643 291 
1287 623 755 125 
1288 362 777 422 
1289 441 690 440 
1290 459 744 536 
1291 475 755 623 
1292 155 758 753 
1293 402 720 580 
1294 294 774 678 
1295 290 713 384 
1296 425 723 674 
1297 158 669 162 
1298 39 532 247 
1299 661 779 549 
1300 463 745 385 
1301 276 640 237 
1302 328 515 514 
1303 446 748 617 
1304 91 726 147 
1305 110 727 148 
1306 82 729 150 
1307 149 728 64 
1308 440 690 658 
1309 321 717 684 
1310 241 750 243 
1311 358 479 359 
1312 145 747 584 
1313 410 663 662 
1314 16 648 367 
1315 239 640 252 
1316 224 651 226 
1317 218 679 316 
1318 160 546 11 
1319 502 672 353 
1320 650 755 401 
1321 160 665 551 
1322 426 646 564 
1323 636 687 505 
1324 621 718 530 
1325 535 537 536 
1326 315 642 342 
1327 447 764 581 
1328 284 732 561 
1329 256 543 36 
1330 690 771 539 
1331 544 706 363 
1332 604 717 450 
1333 166 648 15 
1334 541 566 1 
1335 267 689 303 
1336 226 651 287 
1337 450 730 604 
1338 280 651 224 
1339 582 687 377 
1340 28 540 144 
1341 456 709 437 
1342 353 672 369 
1343 453 715 585 
1344 383 718 621 
1345 452 761 680 
1346 249 568 516 
1347 148 727 575 
1348 327 385 328 
1349 606 716 416 
1350 293 358 323 
1351 518 693 517 
1352 532 533 247 
1353 172 653 25 
1354 535 536 174 
1355 725 746 152 
1356 35 543 363 
1357 358 359 323 
1358 14 656 166 
1359 253 513 512 
1360 358 733 479 
1361 423 694 424 
1362 24 552 172 
1363 274 783 660 
1364 683 703 443 
1365 442 778 671 
1366 292 293 213 
1367 367 537 535 
1368 147 726 609 
1369 583 728 149 
1370 150 729 584 
1371 542 723 425 
1372 21 556 173 
1373 175 213 2 
1374 568 695 516 
1375 12 546 167 
1376 538 632 537 
1377 563 710 379 
1378 657 719 305 
1379 471 773 740 
1380 638 712 496 
1381 178 670 613 
1382 434 519 292 
1383 325 745 681 
1384 23 555 552 
1385 10 665 160 
1386 561 705 570 
1387 479 751 359 
1388 173 555 22 
1389 552 553 172 
1390 619 718 383 
1391 369 672 458 
1392 216 679 218 
1393 732 784 403 
1394 748 772 131 
1395 400 697 534 
1396 616 752 615 
1397 324 689 263 
1398 444 692 404 
1399 170 714 176 
1400 391 737 629 
1401 407 713 290 
1402 667 682 458 
1403 441 771 690 
1404 429 757 427 
1405 181 768 193 
1406 154 588 524 
1407 508 735 622 
1408 634 646 426 
1409 167 656 13 
1410 486 749 429 
1411 531 620 256 
1412 385 644 328 
1413 543 544 363 
1414 399 719 398 
1415 435 759 431 
1416 625 736 406 
1417 160 550 546 
1418 394 710 563 
1419 497 721 620 
1420 422 674 495 
1421 546 550 547 
1422 687 760 124 
1423 188 707 528 
1424 328 644 515 
1425 531 708 620 
1426 433 739 432 
1427 607 747 456 
1428 495 674 588 
1429 586 702 466 
1430 176 714 415 
1431 458 682 396 
1432 546 547 167 
1433 120 686 592 
1434 161 665 9 
1435 415 670 178 
1436 175 292 213 
1437 396 682 485 
1438 444 731 692 
1439 403 784 320 
1440 214 704 408 
1441 263 689 267 
1442 566 614 161 
1443 127 711 603 
1444 388 714 170 
1445 655 714 388 
1446 598 715 141 
1447 684 717 488 
1448 458 742 667 
1449 8 566 161 
1450 686 730 450 
1451 591 688 140 
1452 660 783 612 
1453 605 700 121 
1454 359 751 465 
1455 582 760 687 
1456 517 693 249 
1457 603 711 604 
1458 516 695 532 
1459 447 748 446 
1460 652 752 407 
1461 592 686 593 
1462 481 763 402 
1463 555 675 552 
1464 408 679 216 
1465 417 782 733 
1466 604 730 596 
1467 281 682 667 
1468 411 769 550 
1469 445 760 582 
1470 424 694 634 
1471 472 775 461 
1472 232 752 652 
1473 482 762 673 
1474 252 750 241 
1475 293 701 358 
1476 520 744 740 
1477 140 688 600 
1478 673 756 482 
1479 596 730 120 
1480 415 714 655 
1481 352 761 452 
1482 74 712 669 
1483 407 752 616 
1484 574 764 447 
1485 628 771 441 
1486 515 698 514 
1487 288 783 274 
1488 563 754 394 
1489 152 746 702 
1490 514 698 253 
1491 663 756 262 
1492 692 731 156 
1493 382 770 627 
1494 262 756 673 
1495 639 745 325 
1496 600 781 595 
1497 456 747 709 
1498 552 675 553 
1499 371 704 211 
1500 520 740 556 
1501 661 722 413 
1502 669 712 162 
1503 573 778 442 
1504 130 697 647 
1505 398 719 657 
1506 247 708 531 
1507 615 752 232 
1508 211 704 214 
1509 666 739 433 
1510 125 755 650 
1511 410 756 663 
1512 532 695 533 
1513 249 693 568 
1514 470 737 631 
1515 482 756 410 
1516 452 772 581 
1517 120 730 686 
1518 691 764 574 
1519 462 781 600 
1520 709 747 145 
1521 763 773 471 
1522 135 724 671 
1523 256 721 543 
1524 253 698 513 
1525 292 701 293 
1526 623 770 382 
1527 588 723 524 
1528 481 773 763 
1529 223 754 563 
1530 162 712 638 
1531 533 708 247 
1532 627 770 493 
1533 634 694 157 
1534 700 781 462 
1535 392 764 691 
1536 681 745 463 
1537 733 782 479 
1538 635 767 451 
1539 129 739 666 
1540 174 744 520 
1541 543 721 544 
1542 519 701 292 
1543 738 759 435 
1544 595 781 605 
1545 151 746 725 
1546 605 781 700 
1547 123 759 738 
1548 541 741 566 
1549 743 777 424 
1550 536 744 174 
1551 620 721 256 
1552 644 765 515 
1553 705 780 324 
1554 701 733 358 
1555 550 769 547 
1556 566 741 614 
1557 678 774 455 
1558 324 780 689 
1559 157 758 731 
1560 694 753 157 
1561 674 743 425 
1562 422 777 743 
1563 413 779 661 
1564 699 779 414 
1565 422 743 674 
1566 731 758 156 
1567 545 588 154 
1568 485 685 409 
$EndElements
