$MeshFormat
4.1 0 8
$EndMeshFormat
$PhysicalNames
6
1 8 "top"
1 9 "left"
1 10 "right"
1 11 "bottom"
1 12 "wall"
2 13 "ground"
$EndPhysicalNames
$Entities
8 7 1 0
1 -10 0 0 0 
2 -10 -10 0 0 
3 10 -10 0 0 
4 10 0 0 0 
5 0 -4 0 0 
6 1.39224209 -4.55826692 0 0 
7 -1.39224209 -4.55826692 0 0 
8 0 -2.5 0 0 
1 -1.500000097044619 -4.558267020000001 -1e-07 9.999999972531981e-08 -2.499999902955382 1e-07 1 12 2 7 -8 
2 -1.000000002804313e-07 -4.558267021099928 -1e-07 1.5000001 -2.4999999 1e-07 1 12 2 8 -6 
3 -1.39224219 -4.558267020000001 -1e-07 1.39224219 -4.55826682 1e-07 1 12 2 7 -6 
4 -10.0000001 -1e-07 -1e-07 10.0000001 1e-07 1e-07 1 8 2 1 -4 
5 9.999999900000001 -10.0000001 -1e-07 10.0000001 1.000000002804313e-07 1e-07 1 10 2 4 -3 
6 -10.0000001 -10.0000001 -1e-07 10.0000001 -9.999999900000001 1e-07 1 11 2 3 -2 
7 -10.0000001 -10.0000001 -1e-07 -9.999999900000001 1.000000002804313e-07 1e-07 1 9 2 2 -1 
1 -10.0000001 -10.0000001 -1e-07 10.0000001 1.000000002804313e-07 1e-07 1 13 7 4 5 6 7 3 -2 -1 
$EndEntities
$Nodes
15 941 1 941
0 1 0 1
1
-10 0 0
0 2 0 1
2
-10 -10 0
0 3 0 1
3
10 -10 0
0 4 0 1
4
10 0 0
0 6 0 1
5
1.39224209 -4.55826692 0
0 7 0 1
6
-1.39224209 -4.55826692 0
0 8 0 1
7
0 -2.5 0
1 1 0 29
8
9
10
11
12
13
14
15
16
17
18
19
20
21
22
23
24
25
26
27
28
29
30
31
32
33
34
35
36
-1.425597268720281 -4.466553768124459 0
-1.452918134835324 -4.372865772900248 0
-1.474089043730482 -4.277599499797115 0
-1.489020382521939 -4.181158194868663 0
-1.497648949372923 -4.083950077879874 0
-1.499938221016407 -3.986386614381749 0
-1.495878507351944 -3.888880774047077 0
-1.485486992462215 -3.791845282639529 0
-1.468807661875718 -3.695690875015154 0
-1.445911116383441 -3.600824556551076 0
-1.41689427319764 -3.50764788036042 0
-1.381879955717628 -3.416555247585771 0
-1.34101637363907 -3.327932237965714 0
-1.294476495607347 -3.242153977740875 0
-1.242457317070482 -3.159583551807871 0
-1.185179026430663 -3.080570466842226 0
-1.122884073023894 -3.005449171895611 0
-1.055836140872889 -2.934537642729458 0
-0.9843190325571085 -2.868136035877238 0
-0.9086354679243448 -2.806525418132518 0
-0.8291058027287038 -2.749966576840664 0
-0.7460666726187719 -2.698698916030033 0
-0.6598695682157422 -2.652939443055129 0
-0.5708793473129377 -2.612881850041097 0
-0.4794726904943614 -2.578695694017656 0
-0.3860365067093701 -2.550525679212811 0
-0.2909662955523925 -2.528491044544284 0
-0.1946644731799086 -2.512685058901295 0
-0.09753866895078318 -2.503174626353106 0
1 2 0 29
37
38
39
40
41
42
43
44
45
46
47
48
49
50
51
52
53
54
55
56
57
58
59
60
61
62
63
64
65
0.09753866914295861 -2.503174623403979 0
0.1946644735634452 -2.512685055970906 0
0.2909662961256683 -2.528491041645037 0
0.3860365074699584 -2.550525676356978 0
0.479472691439044 -2.578695691217324 0
0.5708793484377134 -2.612881847308121 0
0.6598695695158514 -2.652939440401076 0
0.7460666740887114 -2.698698913466139 0
0.8291058043622505 -2.749966574377779 0
0.9086354697145851 -2.806525415781067 0
0.9843190344964661 -2.868136033647176 0
1.055836142953153 -2.934537640630225 0
1.12288407523626 -3.005449169936091 0
1.185179028765766 -3.080570465030715 0
1.242457319518438 -3.159583550152035 0
1.294476498157794 -3.242153976247725 0
1.341016376281213 -3.327932236641568 0
1.381879958440283 -3.416555246436235 0
1.416894275989281 -3.50764787939036 0
1.445911119232254 -3.600824555764597 0
1.468807664769642 -3.695690874415588 0
1.485486995389002 -3.79184528222941 0
1.495878510299205 -3.888880773828144 0
1.499938223971667 -3.986386614354926 0
1.497648952323672 -4.083950078045277 0
1.489020385455688 -4.181158195225591 0
1.474089046634812 -4.277599500344056 0
1.452918137697942 -4.372865773634888 0
1.42559727152907 -4.466553769043689 0
1 3 0 27
66
67
68
69
70
71
72
73
74
75
76
77
78
79
80
81
82
83
84
85
86
87
88
89
90
91
92
-1.292796226428572 -4.55826692 0
-1.193350362857143 -4.55826692 0
-1.093904499285715 -4.55826692 0
-0.9944586357142864 -4.55826692 0
-0.8950127721428581 -4.55826692 0
-0.7955669085714298 -4.55826692 0
-0.6961210450000013 -4.55826692 0
-0.5966751814285729 -4.55826692 0
-0.4972293178571443 -4.55826692 0
-0.3977834542857155 -4.55826692 0
-0.2983375907142871 -4.55826692 0
-0.1988917271428583 -4.55826692 0
-0.0994458635714297 -4.55826692 0
-1.110223024625157e-15 -4.55826692 0
0.09944586357142748 -4.55826692 0
0.1988917271428561 -4.55826692 0
0.2983375907142845 -4.55826692 0
0.3977834542857135 -4.55826692 0
0.4972293178571421 -4.55826692 0
0.5966751814285709 -4.55826692 0
0.6961210449999993 -4.55826692 0
0.7955669085714281 -4.55826692 0
0.8950127721428569 -4.55826692 0
0.9944586357142857 -4.55826692 0
1.093904499285714 -4.55826692 0
1.193350362857142 -4.55826692 0
1.292796226428571 -4.55826692 0
1 4 0 19
93
94
95
96
97
98
99
100
101
102
103
104
105
106
107
108
109
110
111
-9 0 0
-8 0 0
-7 0 0
-6 0 0
-5 0 0
-4 0 0
-3 0 0
-2 0 0
-1 0 0
0 0 0
1 0 0
2 0 0
3 0 0
4 0 0
5 0 0
6 0 0
7 0 0
8 0 0
9 0 0
1 5 0 9
112
113
114
115
116
117
118
119
120
10 -1 0
10 -2 0
10 -3 0
10 -4 0
10 -5 0
10 -6 0
10 -7 0
10 -8 0
10 -9 0
1 6 0 19
121
122
123
124
125
126
127
128
129
130
131
132
133
134
135
136
137
138
139
9 -10 0
8 -10 0
7 -10 0
6 -10 0
5 -10 0
4 -10 0
3 -10 0
2 -10 0
1 -10 0
0 -10 0
-1 -10 0
-2 -10 0
-3 -10 0
-4 -10 0
-5 -10 0
-6 -10 0
-7 -10 0
-8 -10 0
-9 -10 0
1 7 0 9
140
141
142
143
144
145
146
147
148
-10 -9 0
-10 -8 0
-10 -7 0
-10 -6 0
-10 -5 0
-10 -4 0
-10 -3 0
-10 -2 0
-10 -1 0
2 1 0 793
149
150
151
152
153
154
155
156
157
158
159
160
161
162
163
164
165
166
167
168
169
170
171
172
173
174
175
176
177
178
179
180
181
182
183
184
185
186
187
188
189
190
191
192
193
194
195
196
197
198
199
200
201
202
203
204
205
206
207
208
209
210
211
212
213
214
215
216
217
218
219
220
221
222
223
224
225
226
227
228
229
230
231
232
233
234
235
236
237
238
239
240
241
242
243
244
245
246
247
248
249
250
251
252
253
254
255
256
257
258
259
260
261
262
263
264
265
266
267
268
269
270
271
272
273
274
275
276
277
278
279
280
281
282
283
284
285
286
287
288
289
290
291
292
293
294
295
296
297
298
299
300
301
302
303
304
305
306
307
308
309
310
311
312
313
314
315
316
317
318
319
320
321
322
323
324
325
326
327
328
329
330
331
332
333
334
335
336
337
338
339
340
341
342
343
344
345
346
347
348
349
350
351
352
353
354
355
356
357
358
359
360
361
362
363
364
365
366
367
368
369
370
371
372
373
374
375
376
377
378
379
380
381
382
383
384
385
386
387
388
389
390
391
392
393
394
395
396
397
398
399
400
401
402
403
404
405
406
407
408
409
410
411
412
413
414
415
416
417
418
419
420
421
422
423
424
425
426
427
428
429
430
431
432
433
434
435
436
437
438
439
440
441
442
443
444
445
446
447
448
449
450
451
452
453
454
455
456
457
458
459
460
461
462
463
464
465
466
467
468
469
470
471
472
473
474
475
476
477
478
479
480
481
482
483
484
485
486
487
488
489
490
491
492
493
494
495
496
497
498
499
500
501
502
503
504
505
506
507
508
509
510
511
512
513
514
515
516
517
518
519
520
521
522
523
524
525
526
527
528
529
530
531
532
533
534
535
536
537
538
539
540
541
542
543
544
545
546
547
548
549
550
551
552
553
554
555
556
557
558
559
560
561
562
563
564
565
566
567
568
569
570
571
572
573
574
575
576
577
578
579
580
581
582
583
584
585
586
587
588
589
590
591
592
593
594
595
596
597
598
599
600
601
602
603
604
605
606
607
608
609
610
611
612
613
614
615
616
617
618
619
620
621
622
623
624
625
626
627
628
629
630
631
632
633
634
635
636
637
638
639
640
641
642
643
644
645
646
647
648
649
650
651
652
653
654
655
656
657
658
659
660
661
662
663
664
665
666
667
668
669
670
671
672
673
674
675
676
677
678
679
680
681
682
683
684
685
686
687
688
689
690
691
692
693
694
695
696
697
698
699
700
701
702
703
704
705
706
707
708
709
710
711
712
713
714
715
716
717
718
719
720
721
722
723
724
725
726
727
728
729
730
731
732
733
734
735
736
737
738
739
740
741
742
743
744
745
746
747
748
749
750
751
752
753
754
755
756
757
758
759
760
761
762
763
764
765
766
767
768
769
770
771
772
773
774
775
776
777
778
779
780
781
782
783
784
785
786
787
788
789
790
791
792
793
794
795
796
797
798
799
800
801
802
803
804
805
806
807
808
809
810
811
812
813
814
815
816
817
818
819
820
821
822
823
824
825
826
827
828
829
830
831
832
833
834
835
836
837
838
839
840
841
842
843
844
845
846
847
848
849
850
851
852
853
854
855
856
857
858
859
860
861
862
863
864
865
866
867
868
869
870
871
872
873
874
875
876
877
878
879
880
881
882
883
884
885
886
887
888
889
890
891
892
893
894
895
896
897
898
899
900
901
902
903
904
905
906
907
908
909
910
911
912
913
914
915
916
917
918
919
920
921
922
923
924
925
926
927
928
929
930
931
932
933
934
935
936
937
938
939
940
941
0.5452747489210178 -4.641896782015139 0
1.143627431071429 -4.646021480831844 0
-0.04972293178571539 -4.646593301078152 0
-0.6562040433311729 -4.644221014320164 0
-1.143627431071429 -4.644389564154139 0
-9.189247862612449 -5.427171697700593 0
9.185790014568287 -5.499606728812775 0
-0.3480605225000012 -4.646256568448224 0
0.2383655171207419 -4.643796333765365 0
0.8452898403571425 -4.644389564154139 0
-4.616209228370088 -9.136091983810207 0
4.531073790932561 -9.250207324433353 0
-1.290442637105648 -3.067289472503867 0
-1.077583065101128 -2.839401206696679 0
-0.8319853343283472 -2.652418750251987 0
-0.5610171917152229 -2.531210990590734 0
-0.2565391970725361 -2.43069964328326 0
0.04931215138351707 -2.421548482272008 0
0.3586913885241909 -2.452048815083386 0
0.6509454097886431 -2.55383337470593 0
0.9155695312395976 -2.717971066355768 0
1.154226139518749 -2.906423913016723 0
-4.518205793887833 -0.8266102676043143 0
4.689296584340017 -0.7776771140865826 0
1.4278288379867 -3.341233081037241 0
1.536251280229732 -9.193247216567261 0
-1.549321452506565 -9.039153032808915 0
1.339974995438288 -3.155818833014197 0
-1.392032587070351 -3.244738391188793 0
6.5 -0.8660254037844384 0
-6.427973272472743 -0.7749213573142093 0
6.5 -9.133974596215563 0
-6.509723041119914 -9.209188078622462 0
9.169500036146847 -3.534148944905576 0
-9.13792144671933 -3.536023178468546 0
-2.5 -0.8660254037844384 0
2.605267499486099 -0.8234254030168309 0
-0.9447357039285721 -4.643922561186083 0
9.237391672838918 -7.438545528984421 0
-9.225833163947385 -7.41938523257874 0
0.4044409680091017 -0.7471567008114981 0
-8.484573278131954 -0.770393662939215 0
8.496327944771989 -0.818276997726489 0
8.48699957389692 -9.189377611537397 0
-8.49587918424743 -9.154248441637352 0
1.474547346911431 -0.6799934285773599 0
0.9889170447078544 -1.451585618203105 0
3.332706630254133 -0.8215810191354702 0
3.989476438336353 -1.637365762137915 0
1.557226571177986 -4.339809028773836 0
1.571986536795828 -4.033861061043694 0
1.577506818941896 -3.72835824466776 0
1.488345599353818 -4.541296779073861 0
2.915732886094643 -1.475001115582003 0
2.317766483997306 -1.537824984478579 0
2.564906016402672 -2.056124923093655 0
2.055617440412052 -2.029526294604929 0
2.426220142224269 -2.535461658834756 0
2.874128708564066 -2.461537273248356 0
2.649351040233511 -2.858064726567258 0
3.092672933797385 -2.858839396333287 0
2.898601768333701 -3.233091836852926 0
3.315409301163792 -3.238136557468886 0
3.094010534439549 -3.606760625672256 0
3.530967804777982 -3.619987649917416 0
3.237979162668196 -4.025773861749506 0
3.744936897441996 -4.01438092186444 0
3.515127038988892 -4.400062087628839 0
3.98528027341029 -4.416109105950481 0
3.721892242421889 -4.858298312679514 0
4.245115765692447 -4.85479592739752 0
4.519782615940255 -4.384307789441324 0
4.78641007685799 -4.890107909291524 0
3.960736234351943 -5.307811078855134 0
3.437605871504932 -5.303844503929823 0
5.100825765285292 -4.344769389713693 0
3.681366516375258 -5.761325096790387 0
3.190238698647522 -5.734724577569579 0
5.399457931598613 -4.914314600715776 0
3.061788485432835 -4.45003992927175 0
3.394587114676457 -6.20063913876809 0
2.84267904504597 -6.111602962952281 0
3.95385642370817 -6.220362379320204 0
3.107991070661088 -6.65748878778518 0
2.557406623090002 -6.609081534721639 0
2.303578113232183 -6.149338356111971 0
2.026590136289237 -6.573788230603523 0
1.848415478258191 -6.149588991332823 0
1.562460369972976 -6.52428581435368 0
1.398069373845061 -6.077360392077236 0
1.119895988436332 -6.471868007196007 0
0.9216511940332125 -6.090309350402933 0
0.6874881599992279 -6.436935925388597 0
0.4977965117103751 -6.026103401651014 0
0.2761076264696924 -6.392796453916924 0
0.09386724871141484 -6.038728646763527 0
-0.1203661676115496 -6.359786057205348 0
-0.2940234379525886 -5.979532568962232 0
-0.502594271456443 -6.321557554314945 0
-0.672608805498264 -5.987075987862884 0
-0.8751348112949389 -6.29022160834106 0
-1.032413547980245 -5.955845515242141 0
-1.238728642766265 -6.259869409751461 0
-1.401577725146509 -5.937933358787347 0
-1.597579216170085 -6.225650908516443 0
-1.751579460964354 -5.904645805251427 0
-1.957815866355581 -6.205439345460767 0
-1.587103811297863 -4.137564007524618 0
-1.594687817738642 -3.834150504301865 0
-1.524587960828301 -4.44447698791363 0
-2.12773136385501 -5.851475510721571 0
-2.361351290149282 -6.213651333751173 0
-2.531459849140526 -5.808728606576313 0
-2.833539839458046 -6.176549579661355 0
-2.981619662698067 -5.650466387188546 0
-3.359502978949143 -6.14083727131404 0
-3.599093175172806 -5.612949981119023 0
-3.248145210046535 -5.137005605431444 0
-3.84441399432447 -5.0489000304966 0
-3.456607109488228 -4.610686021235397 0
-4.226644340969766 -5.553974213604871 0
-4.476550416377071 -4.920852769982605 0
-4.905158361768486 -5.477262335186029 0
-5.157117299498598 -4.783327510709942 0
0.06767631963605689 -6.660413761605194 0
-1.551706330892994 -3.613429369662569 0
-1.467704256699634 -3.432665585907269 0
5.742089768272664 -4.333357352466511 0
-2.569364121076553 -6.658882938959119 0
2.073952085479729 -5.740395722765307 0
-5.630249490027898 -5.353496489318572 0
-1.559593550576034 -5.643731898655099 0
-1.447947327293479 -6.57209340975836 0
5.392329597506592 -3.756732554980206 0
-5.894870757786565 -4.65200621924037 0
-0.8243858460798374 -5.681495113184896 0
-5.394556622609521 -4.065217055419738 0
6.086573861822858 -4.902959361136677 0
5.70331731461452 -5.512202828360601 0
-0.03592405844051144 -5.756760113878951 0
6.084656018515822 -3.735165036627715 0
0.7896179068725628 -5.776443216924396 0
-2.200004145278908 -5.480262996045402 0
-5.351670180059902 -6.061932288839642 0
-6.116304787561852 -5.937838946958588 0
3.77391050234827 -3.243262695763054 0
2.692405382960965 -3.571376214257389 0
-6.148849880626735 -3.934198597452733 0
6.438041519553609 -5.506325274985216 0
6.052034613396001 -6.136771912770209 0
2.808316121792331 -7.149472947718507 0
0.8589590818375084 -6.844695568765012 0
-0.7857231385758607 -6.717936496601483 0
3.416618254151464 -7.191062040025191 0
1.657264553841155 -7.071842257997496 0
-5.64241072855372 -3.327106558861286 0
6.797679849138806 -4.887222269565174 0
-4.913165149078259 -3.473343977115758 0
2.276680486523952 -2.837895538736891 0
-6.593466641519145 -3.173812145169225 0
6.820361902954724 -6.143661508324201 0
-6.671858038058454 -4.546822322691982 0
5.709229672268678 -3.141359947564559 0
6.447599553825759 -3.098815532048217 0
-5.831609794507137 -6.658063343490822 0
-5.055877675021918 -6.775774751101396 0
-6.625340809114022 -6.549293526813812 0
3.080206379433789 -7.737960662557083 0
-2.888016960163171 -4.686533000794565 0
-3.101173941522609 -4.226330275458237 0
-2.651361963854428 -4.266289713159495 0
-2.812331492442145 -3.889535236287307 0
-3.24276192281778 -3.781874617247905 0
-2.87080056768896 -3.434851620243783 0
-3.398217966165033 -3.313075330536329 0
-3.02654193832432 -2.946769387876368 0
-2.561950531546314 -3.041810044384886 0
-3.612124952340088 -2.754889533893382 0
-2.416668788478485 -3.977025067135251 0
-2.28351559943966 -4.273530444250826 0
-2.635177442360467 -2.521252488586402 0
-2.168126999673814 -2.801626870004728 0
6.425926508302914 -6.799345006675218 0
5.645444112843379 -6.771809148454614 0
3.011440531944743 -5.340601397978061 0
-2.103660693764621 -3.158866931430703 0
-1.812335799502624 -2.839711996626151 0
-1.903718640675958 -2.537802872097059 0
-5.117436190437425 -2.749248844619391 0
-1.613148282386492 -2.668191220556601 0
-1.592407476132263 -2.340521503065624 0
-1.970473633288253 -2.176134681930908 0
-1.652862174602441 -1.951976866373223 0
-1.316220128467031 -2.092980716369198 0
-1.320587351036609 -1.702249154162064 0
-0.9774160222481068 -1.941425783104939 0
-2.063016048825023 -4.053432885496259 0
-1.985600602359517 -4.321424412623924 0
-2.141187339273547 -4.528279512301125 0
-5.541197033330498 -7.390234565396318 0
7.228209420346387 -6.826361752609492 0
-4.760235849183211 -7.480923024559294 0
-0.9610436355520773 -1.464565834338815 0
-0.6096345978200053 -1.752692476316728 0
-0.4994659602583012 -1.229922936410977 0
3.786310812855147 -7.734013382482252 0
3.385484816509803 -8.376231124882285 0
6.016271394333117 -7.468444875237099 0
5.02218686458227 -3.186683986988172 0
5.328606559893431 -2.545332164885832 0
-1.446109852784344 -1.1651410171228 0
4.565761755992725 -2.656526012354998 0
-2.200236531162055 -3.761380946556641 0
5.252775536404675 -7.457319073390874 0
3.37732831086721 -2.474554918484712 0
-1.889841258766014 -4.538687730104284 0
-2.007437529866296 -4.749687622381369 0
-1.75112181966895 -4.735279091044812 0
-1.882013140681486 -4.959626485221509 0
-1.614985027145746 -4.948149995925124 0
-1.758179637842879 -5.1703233988506 0
-1.522665490235654 -5.172368689584642 0
-1.399546535037966 -4.999632125300903 0
-1.300754848650946 -5.175204793962511 0
-1.20216256531935 -5.012846017440237 0
-1.088533438722209 -5.161326704893033 0
-1.006237641109641 -5.015131947013264 0
-0.8950714871841372 -5.162582494582185 0
-0.8105410932351254 -4.98140455833256 0
-0.7032251507030384 -5.155442000104485 0
-0.6051960824988841 -4.991730312905202 0
-0.5108431445054256 -5.154793044016368 0
-0.4205855795831807 -4.992739239159363 0
-0.3219232060548615 -5.154034953753772 0
-0.2144263556675869 -4.971379641675339 0
-0.1322799154299966 -5.149223428148153 0
-0.02479091365627344 -4.990414618371135 0
0.05815579553900541 -5.150222337625848 0
0.1489775358597197 -4.989578280273527 0
0.2460996614806438 -5.150936622681575 0
0.3349785308351904 -4.96846924423485 0
0.4362608043169144 -5.146840825183213 0
0.5261308729614003 -4.983578018827567 0
0.6266412799954362 -5.14624143463739 0
0.3415293652588443 -5.325621750573278 0
0.7342737673985352 -4.966361863806078 0
0.8198708396207564 -5.145553425647075 0
0.927426368076365 -4.98669517722923 0
1.013167179675995 -5.147889701575999 0
1.132954423601098 -4.96618697617253 0
1.20711845353709 -5.146835357064393 0
1.327522827728888 -4.985351721498206 0
1.416097567045269 -5.155566152333043 0
1.510184808774216 -4.985438005982133 0
1.624630797421645 -5.154309642159355 0
1.715214646945665 -4.936644731642066 0
1.305616062571198 -5.343966267839463 0
1.342519158642143 -4.643586089960042 0
-0.4145774821718786 -5.32753966619493 0
-1.337872996906605 -4.651701453185081 0
1.857963581233711 -5.163104948519434 0
1.977736377367295 -4.948130764544464 0
1.852433299223668 -4.735292058434447 0
2.094418912895172 -4.729943437058047 0
1.937245565654971 -4.507286945977059 0
2.20167061194983 -4.510057613176678 0
2.068219286160449 -4.303924739885939 0
2.322194989412028 -4.29200671328108 0
2.175131449744617 -4.089377094598908 0
2.121637748197593 -5.177067059317841 0
2.377576819366243 -4.726067850663001 0
-1.181901887414048 -5.373128167871159 0
1.93474428439999 -4.104057323813625 0
2.035292554347108 -3.904047796185906 0
-1.4556949271564 -4.648927969726856 0
2.462124688307422 -7.687067202671802 0
-1.832688082348269 -3.220092403651945 0
-2.280629029462101 -4.783354678299016 0
7.59041256641018 -6.128102641323738 0
-3.758404898384093 -3.694861165874753 0
-6.917298090881602 -5.814506070264703 0
-7.451945171145761 -6.429779522199839 0
-7.138650386509148 -7.2188128891468 0
-1.900860828874213 -3.817632335045092 0
-2.00212037185914 -3.579968893008248 0
1.830837333177971 -3.928126817805101 0
1.91638385207234 -3.746179805917564 0
2.117040424040284 -3.706439965959716 0
1.950010182592295 -3.53520336895794 0
1.512988649156969 -3.528859893228041 0
2.211627974375188 -3.491583984818514 0
1.735804350327201 -5.359673796121708 0
2.520082737744575 -4.078935744422539 0
-4.229787532840426 -6.803192875627835 0
-3.99923224571085 -7.551187860972822 0
0.9109738304905377 -5.326580048324824 0
-0.5059945265078162 -4.839300109824022 0
6.826249895098275 -3.719512693962023 0
7.279563747974615 -3.051366028814304 0
7.60621079199557 -3.826405487302701 0
6.798501536611964 -2.382598664425778 0
7.658908398150443 -2.320763103305144 0
4.112021832608829 -7.073252414421566 0
5.571119710222414 -8.10542825595374 0
2.054177266102065 -3.305555712999593 0
1.82287436704565 -3.335593999120528 0
1.89713741054408 -3.131290037313962 0
1.669543622783617 -3.182885532538487 0
1.749743469004307 -2.971926708561365 0
-0.5016420314814727 -2.078054025598369 0
-0.2642501214647934 -1.905610920796636 0
-0.8501283940718616 -2.270955635977607 0
-1.145287449753069 -2.491131418570962 0
-1.820208750181497 -4.00451629597252 0
1.792992163567441 -1.653921406156793 0
1.622964775518938 -2.131778727383208 0
-7.775808992465615 -5.697738467435514 0
-1.542738522350793 -2.955133519447355 0
-1.370510630783552 -2.785809453502836 0
1.0113444870974 -4.828174276126484 0
1.556612212838572 -3.010640167946232 0
1.614587524842872 -2.813457522161379 0
1.828400257891565 -2.759669043344638 0
1.414248368993529 -2.870111504791844 0
1.475975847160658 -2.659217209133953 0
1.269121895839972 -2.704458584693475 0
1.337726282276473 -2.497765430421747 0
1.144971273885468 -2.5394113105374 0
1.19349304618672 -2.335226893297986 0
0.9747647433156509 -2.391881972325812 0
1.071186389983652 -2.127700685659291 0
0.8113809630594321 -2.16896783714912 0
2.319920596036099 -3.255355772354714 0
1.147738491667001 -5.80044397732992 0
-0.6824781083802738 -4.844995472010747 0
-2.052536037054416 -1.750633858697002 0
-5.303009691491028 -8.078475213977043 0
-0.8254286154288328 -4.832312254630943 0
0.2695519952331324 -5.77195202187565 0
0.4474755834451964 -4.850290512384734 0
0.6056278008611068 -4.826747267054266 0
0.06981647338469398 -4.854340222314019 0
-1.759108463391631 -4.348149003425595 0
1.711623839123906 -4.563365121312995 0
1.651252397212058 -4.735031501782032 0
-0.3358464204551646 -4.85005833746469 0
-0.20162511529868 -4.81351607451972 0
-1.023512590962646 -4.812143947407392 0
0.2195318221055558 -4.854578648703662 0
-0.5087007896714931 -5.703934055313883 0
4.926086488216878 -1.995546158239552 0
5.645637385226635 -1.903260408096232 0
-0.03680523972715654 -5.325016408031527 0
0.7708701922847551 -4.816806116720499 0
2.493828249638098 -5.76443395337967 0
1.857332422167175 -4.293552980056909 0
1.173337380008231 -4.817412539850135 0
-2.237452293924257 -3.482617064190801 0
-8.250891749731956 -6.367601155826095 0
2.828946920103677 -3.889626312604955 0
-6.048170263812594 -7.992194729524266 0
1.446772876148651 -5.756865482923239 0
-3.532581520209316 -7.042364874889816 0
-3.269980203132525 -7.668503031663997 0
-3.680188148472457 -8.239527523165961 0
-2.962502140119981 -8.318585672876097 0
-2.543424970152799 -7.739359630731484 0
1.323128819855364 -1.807558051775763 0
8.002381013497979 -6.874755852190403 0
7.626219096637125 -7.582619911748372 0
-1.791522336249911 -3.618405548740998 0
-3.392797792183365 -0.8179237535756085 0
-3.945601344409014 -1.542892557774985 0
-3.114425473534919 -1.479781636723586 0
-0.821960467285583 -5.384648796082874 0
4.781548714581217 -8.109291417645052 0
1.745325691883673 -4.142514641936431 0
-2.223058706720696 -8.363677349216404 0
-1.840253399702432 -7.767388831314436 0
2.588719295018919 -4.308734888886132 0
1.668473044744432 -3.3537163765473 0
1.728769408982754 -3.506918341601122 0
4.837109244097578 -6.805660026500124 0
-2.777758629956074 -5.147024937346358 0
-1.390734455981138 -4.755668186849978 0
-1.260622213100851 -4.737000113839891 0
-2.113844852908668 -7.152179401165935 0
-1.496347385842131 -7.287915571917909 0
-1.212961838608977 -7.801417767277491 0
-0.8691715374270603 -7.255263533229126 0
-0.5678665328292328 -7.800579709016522 0
-0.9568505001252796 -8.394040007183936 0
-0.2390520803613854 -8.36499075250472 0
0.09572024774478102 -7.706029929464931 0
0.409542993245168 -8.387659940280033 0
0.769206352218285 -7.791683332779201 0
-0.6174389522892885 -9.124241983933796 0
-3.362782670714779 -9.092894741574908 0
5.498966056484397 -9.300304605650396 0
3.181279084163349 -4.880651181629584 0
2.752757164413274 -4.715381706579594 0
-2.390728904467709 -2.066143876056902 0
1.412517353214795 -4.831107168595588 0
-1.544278396280429 -4.762453417483933 0
-1.59701641693592 -4.626632573604692 0
-4.357807247276411 -2.904815099310941 0
-4.612847709589889 -2.183238263250728 0
-5.287862465957497 -2.094666791811416 0
5.544801855711436 -0.7206809781372847 0
-5.452342800778352 -0.7798676435001557 0
-0.271206686193402 -2.187772236708664 0
-0.01046396100723783 -2.087789755128573 0
0.03824806485857424 -1.766880714138833 0
0.2648123828661484 -1.975464964868857 0
0.3567532645203306 -1.652949127565482 0
0.07124523612013998 -1.296221939728873 0
-1.241746202514902 -5.659202676223535 0
0.9099958273809939 -1.854994924512913 0
1.718016539127748 -3.776372370874104 0
-5.521547747417382 -9.184524390322187 0
1.456135380974918 -4.639493964387404 0
0.687151307413583 -4.720847169995563 0
5.292881687889403 -6.136739728204818 0
-3.457755235015382 -2.104613528078374 0
7.181151612097818 -1.604732379124165 0
2.371526394111711 -9.132843480534534 0
1.949041022856867 -8.265365912184652 0
1.129818211836309 -8.430440536098651 0
1.415890721744029 -7.721118351537652 0
9.182870682004467 -4.531519136398486 0
8.40921160987177 -5.060234235170273 0
-9.156375232498451 -4.521764405208313 0
-8.32934077502809 -4.024795968674093 0
-8.289561005087638 -3.095748865553544 0
-7.515388951619685 -3.552601864499633 0
-7.443841048349203 -2.667734137005223 0
-6.623922348726976 -2.236178699721409 0
-7.425292836346973 -1.818200729083969 0
-9.11171803494004 -2.564941240178374 0
-0.4600023530615545 -2.313261493712147 0
6.413400068041653 -8.17986845619596 0
1.483625122282211 -3.155642445100246 0
1.85393098232636 -2.422890857665939 0
9.266941219310471 -6.484949115835609 0
-2.516277495010336 -9.135718466079387 0
-1.73625106879122 -3.891075124941042 0
0.2061145555097968 -2.213281970886893 0
0.4449290001804855 -2.196894248420774 0
1.1143594757834 -2.708916613801376 0
1.683018363006512 -3.898817595134174 0
1.691799747879721 -4.288776752533998 0
7.524907511688881 -9.188577200401719 0
-7.506113904527283 -9.155881440582689 0
-8.030228795705705 -8.402947702340416 0
-6.90013827681825 -8.203685255377277 0
-4.622868638214408 -6.130093187577532 0
-7.485986986739186 -4.337491026957365 0
-8.330938003448626 -4.921035403720864 0
9.171769204574879 -2.55788159682608 0
8.262659116356318 -3.071135939092956 0
-4.632281989557048 -4.181137313565934 0
1.525998479216854 -4.443747887856378 0
1.642071680559047 -4.429976313361957 0
1.571183361791805 -4.239275361010852 0
0.6860338007614513 -9.159769300675194 0
-1.858170505958582 -5.606785157375073 0
0.1397457858423892 -4.725710992002938 0
4.774655304199201 -3.82619160670078 0
4.371481517703067 -3.306172873620797 0
4.596271708905953 -6.178921045190889 0
4.941646232584952 -5.536930058470905 0
-0.7535523059961847 -4.726091329041302 0
1.60485144768825 -4.129486753766119 0
0.5499138725638375 -7.255473809576762 0
1.415662475009413 -1.274061657943435 0
-1.383211517910919 -2.545460316359835 0
-0.1084255406758195 -2.280486197649301 0
-2.026053447544212 -5.174780855574956 0
-2.368524979860535 -5.121237746339228 0
-1.345670990960811 -3.15223036892814 0
-1.468911026807163 -3.138348005139921 0
-1.499607792197273 -3.248803426397271 0
-8.245074258986685 -2.200977461056679 0
1.47658262483959 -3.422279956069253 0
-0.1444597139823262 -0.7691229288143768 0
0.7771852145780453 -2.378410641506337 0
0.8664615951154935 -2.528545376717587 0
2.371491573373336 -3.682910550787244 0
1.561629168374149 -2.438605886131451 0
-7.450281176981072 -0.9086285221771062 0
1.397949875670198 -3.241527905350146 0
1.285270118455159 -3.068330309198961 0
1.082488996111556 -2.829847504200641 0
-1.227385579154494 -2.984151615239963 0
-1.350517574837145 -2.954590403570008 0
1.223073001063061 -2.985320373057771 0
-1.820138999032565 -3.438625656014991 0
-1.653449762469689 -3.537122432136907 0
3.634377956031246 -9.211557745303354 0
-1.586011739919861 -3.934889862629275 0
-1.572519898763869 -3.726609899488559 0
-0.2913653529179995 -7.275619434578985 0
-1.591238505931519 -4.034025625125387 0
0.5877225331220033 -1.960203390574939 0
-9.026228319999854 -1.532890515878695 0
0.8319853359675672 -2.652418747596908 0
1.589673745689257 -3.836427944490485 0
1.546644125465428 -3.627285452053705 0
9.050915009159779 -1.563410977576353 0
-1.156841875173719 -2.905052019033287 0
-1.188814922314856 -2.79033898611346 0
-1.070652471116448 -2.689358198803073 0
0.7488438214690054 -2.596736968193435 0
-1.512096063411845 -3.529106895119213 0
-9.157906101438417 -6.442236574778258 0
-1.565075333168371 -4.242309766038802 0
-1.550693123758778 -4.344759737791937 0
0.5567503180330575 -2.51118679304841 0
-6.407390412794594 -5.238177599129686 0
0.2655084447474094 -2.450755904552861 0
-4.481547684728092 -8.286195270535169 0
9.052066291783007 -8.434320554801911 0
-9.051319711074216 -8.417751241201412 0
1.664578059288697 -3.638199123076958 0
-7.96556565821035 -7.07442009518928 0
-3.968073738625951 -6.108422661105418 0
-0.6536993210108325 -2.55483268817384 0
-0.6335675275347159 -2.418282655468077 0
-0.7971369026428183 -2.500984596596832 0
-0.4666641105925849 -2.475978268499055 0
-0.04413117062255116 -2.39877679154675 0
0.3463523321986942 -4.646486457856691 0
-1.051635674228313 -4.649324943207608 0
-0.8382874065946029 -4.642753397029699 0
-1.24565384607292 -4.629924994235822 0
1.0441815675 -4.645763257515146 0
-0.4475063860714298 -4.646567735830572 0
-0.2486146589285728 -4.644389564154139 0
-0.5485865713290061 -4.646895732214993 0
1.243209093169466 -4.646428702847647 0
1.293546576954951 -4.749606617178046 0
0.9447357039285713 -4.6462393462292 0
0.8916220676309067 -4.750010717745192 0
-0.149168795357144 -4.646562318003002 0
0.05643958549754013 -4.642408398409333 0
8.395888790584344 -4.154569855312107 0
0.4469421042342372 -4.646146086460833 0
-0.9178520286938806 -2.709371287072694 0
-0.9374182786952565 -2.586665084247396 0
0.4593006164642414 -2.476789501299379 0
0.5422438016550349 -2.392622842836136 0
0.1697461991535094 -2.385974176100605 0
0.3129330966299257 -2.345768717383093 0
-1.495150008123864 -4.5434539048917 0
-0.1543378472530583 -2.423816428801784 0
-1.708603957807795 -3.756312911989395 0
-1.67930854175009 -4.204309160319027 0
-0.7391359673958762 -2.608887855557374 0
-6.316756779918639 -7.275796860377199 0
-5.898797117192881 -2.564700006887036 0
-0.5966751814285729 -4.742956768457315 0
-2.880878799457836 -7.168581331693542 0
-0.3638273873072193 -2.438103247824012 0
6.805677250075297 -7.504074849261102 0
-4.01320113434596 -4.478839166555707 0
-2.557377508946958 -3.657583485958832 0
4.245599673246132 -8.41667242178705 0
1.401167330704439 -3.038480162072529 0
-1.645904776911251 -5.392997618886595 0
8.043745517534219 -8.423075243829174 0
6.449680459694097 -4.317439886476781 0
-2.107881065587449 -6.647102788024998 0
7.500000000000001 -0.7561479828810596 0
7.152090247720876 -5.50019995232412 0
7.620077540701257 -4.746272277248703 0
8.436929096811438 -6.049221887432894 0
-1.609444355937794 -3.150912829186703 0
4.23293370423581 -3.996946070995429 0
2.706733674905548 -8.304746843105098 0
-1.129721777584481 -4.760191451467196 0
1.263287436834902 -2.878254097924772 0
0.2782438061827757 -4.741531235151516 0
-0.3194907765911321 -2.33406896528929 0
3.148796046828588 -2.024917435911645 0
3.696286325327839 -2.0669502107335 0
3.930531392912243 -2.513928593574748 0
2.242326807270956 -7.032517847350919 0
8.045241789707177 -1.552390557972179 0
1.584101983814989 -4.519019623463629 0
3.930846085301425 -3.636150042432227 0
-1.563563791202278 -8.336970812376402 0
6.040379813747644 -2.509960535968347 0
2.298708817057563 -3.884176107103241 0
1.960611584219552 -1.067278405387385 0
-5.897290986020736 -1.641155810360697 0
-1.408761126050473 -5.40277230753059 0
2.281539855033878 -5.450608664332548 0
-1.634656468791386 -4.419723934949522 0
0.1480498888319396 -5.504114638713602 0
3.597753226287417 -2.883694480457259 0
-0.1103685506375254 -4.737263708843376 0
-3.599074098849787 -4.127444491766797 0
1.249970595592858 -6.844285255041576 0
1.074316707035814 -7.270245438124684 0
3.679745659492261 -6.661661119392009 0
0.4460379821757758 -6.761494585962998 0
1.093383310708081 -4.732113358893337 0
-1.848300625886104 -0.7344861689635209 0
-1.1252913593523 -6.548218474461873 0
-0.3001767958586692 -6.779912603012543 0
1.795551608412767 -3.640574602085538 0
-1.00924277747651 -5.323224745347769 0
-4.952358516773886 -1.511405222383717 0
-1.835373634440352 -4.190628625503437 0
-3.887340356800655 -3.250510228272905 0
0.7438194447712508 -4.638869733463698 0
4.285270346044773 -2.054618786971163 0
1.002276656863126 -2.756759065474177 0
-0.2192992953837929 -5.331964656249495 0
-0.3053444929133515 -5.522196509268846 0
-0.6043624537920931 -5.339858439619094 0
6.422857111236881 -1.714760378359276 0
-2.473435948497265 -4.56206372168122 0
-2.557673109587829 -4.860042816892078 0
4.23642564618346 -5.749878134466133 0
-3.133603532906895 -6.605774007125268 0
0.5358811255945071 -5.31551108046482 0
0.4150770768873489 -5.527588158252444 0
0.6959506289877889 -5.496268586252235 0
0.1514058942766553 -5.291182351525166 0
2.247533848513211 -4.960402190278624 0
2.516384353452013 -4.937308288289297 0
-1.438197942369151 -3.336854842606081 0
-0.3977834542857153 -4.741131407699156 0
0.4972293178571423 -4.740889282487336 0
-4.31014671983765 -3.58491001174912 0
-3.997227297726158 -2.298089796461682 0
4.434066791134159 -5.267904621696244 0
-1.01786184792679 -5.527623059851342 0
2.506970994213176 -4.502482458615068 0
1.532764036584832 -5.31129166501648 0
-1.229205587027916 -2.645415743232316 0
-1.268547470575055 -2.87643349152455 0
7.181301262060837 -8.403647814241289 0
-0.991808413078582 -2.78255842931644 0
-0.6660217963550596 -5.519496767743448 0
2.155047147822757 -3.079307010913131 0
0.04369203895686913 -2.297976228930689 0
1.122794372528729 -5.347772376504603 0
0.9895718703534622 -5.556032924758924 0
1.322062241890853 -2.123240828558983 0
-7.232390603612574 -5.112818627716481 0
1.614849349637001 -3.551993199451156 0
0.987101370092156 -2.612402640630033 0
-2.117138317395997 -4.95639590287638 0
-2.501707867860739 -1.566506432210205 0
-2.028832117086315 -1.255039059237923 0
0.6710145091575956 -1.638877012555179 0
2.437949545126308 -3.444743503754355 0
1.317409251210218 -2.968099289409175 0
1.938741205835244 -7.458643443270232 0
1.268657080579436 -5.577506607350194 0
1.988075473725776 -5.412996906939322 0
1.186359571597138 -2.789283989144297 0
-1.688075781605333 -1.53806719231831 0
-1.279567759175686 -4.858732400524656 0
-0.7479463418986783 -4.625919916078233 0
0.007184604676771536 -4.74383714219308 0
-0.07439719278290574 -4.853195995374078 0
1.578135247371177 -3.934293400209317 0
1.691359505822757 -4.016873596695597 0
-0.2884703164351654 -4.737376549845473 0
-6.854634839829065 -3.855295055853715 0
-0.499309223924508 -4.723370350805212 0
0.3906545115769343 -4.745481399419287 0
0.1465776958349909 -4.625689912835528 0
1.996914202224241 -2.899211739304866 0
-1.700185553649458 -4.088037524797302 0
1.666904756119121 -2.618768103687472 0
2.090768162756126 -2.635281345971468 0
7.059979707325602 -4.299370522911077 0
-0.6985188137825716 -0.5723130671205396 0
-1.589453048801906 -3.373163063864856 0
-0.9029524516302199 -4.752409968692793 0
8.419316124821261 -7.679411620566501 0
0.7178635409378051 -5.286030915065269 0
-3.129118570958232 -2.466252615235597 0
-2.208661912620733 -2.408127833773803 0
4.521431496440717 -1.473941385208271 0
-2.883630640761858 -2.025419298508972 0
-1.758872542491934 -6.507137844773057 0
4.350469252106106 -6.591443872734728 0
2.557455450418195 -3.832151355547757 0
8.437898703589719 -2.213116434954543 0
-1.700636008492436 -6.844566743916209 0
7.841744212303105 -5.496806198699946 0
1.74816747564036 -5.812351562793467 0
4.502560968965597 -7.599368122704486 0
1.768014651076964 -4.416591622648584 0
-0.6420380968563073 -2.233907495264763 0
-0.9609832084010359 -2.425595164316308 0
-1.097148749356758 -2.261137770212919 0
1.40654807361376 -2.3035371169972 0
2.636800855382996 -5.411767077335527 0
1.529126403954273 -3.306899598661107 0
-1.717549081866417 -4.545796051293655 0
-0.7400142854603091 -2.071852756223158 0
2.398064073446575 -5.217263770869775 0
-1.99921208818577 -3.376034189659338 0
0.8783202042505234 -4.864667466930673 0
-0.5616092061948974 -7.007183016855533 0
-1.655560457236852 -3.650376032403686 0
0.04059031925749856 -8.947268111105211 0
2.582666010478338 -3.22644229168196 0
1.588464913552503 -3.445111227592997 0
0.6426086507719934 -4.640015512270197 0
-0.1996494873314175 -4.715821643073142 0
-0.2527714757128772 -1.59026579747841 0
0.5743581522183099 -1.295137239404056 0
1.563262527053765 -4.842581451346257 0
9.267949192431123 -0.7320508075688767 0
-9.267949192431123 -0.7320508075688767 0
9.267949192431123 -9.267949192431123 0
-9.267949192431123 -9.267949192431123 0
-8.491355524221792 -5.691099359435041 0
-0.9762371374636867 -1.000948232527703 0
1.56976710493363 -4.620482139791564 0
-1.738642108477074 -3.037563030542543 0
5.191439045898153 -1.363332154193147 0
2.396733056218932 -3.051413068050791 0
-6.752654941561265 -1.504811199778737 0
0.9963120583276472 -4.722532166147756 0
-1.257798684313739 -6.885679402171876 0
0.5168970933976568 -5.735535466204499 0
0.6338786035873941 -2.257082231312168 0
-1.399656150412312 -3.053518353917858 0
0.7877505704915276 -4.714184660415818 0
0.6497896153299902 -2.431186973280325 0
-8.126289974089309 -1.446218178227133 0
5.927872527602794 -8.697180761942942 0
2.749454343800491 -5.083828903780306 0
3.019624568311662 -9.005075838765055 0
0.4236195806907757 -2.372824825004554 0
-1.096982372823036 -4.890879723353275 0
1.189420758382431 -4.718316539920202 0
0.3323217293189675 -4.836491526320467 0
-0.2689730262651416 -5.717413610940327 0
-3.65600538277268 -6.531135844135982 0
1.652104313076347 -4.2009994212334 0
-1.311090576130238 -0.5646645451236552 0
-0.9944586357142855 -4.723413715287228 0
-7.661019361702602 -7.70257018651689 0
-5.077109879775215 -8.712931050804857 0
-0.1197160373163357 -5.526244322847124 0
-2.516857294318521 -3.374555177257259 0
-1.926288413225675 -3.025722655428237 0
4.071779550519859 -2.94654278746341 0
2.844142688261776 -4.20518035348926 0
3.504801929287906 -1.50144861896534 0
-0.495106173502274 -5.495308121922646 0
-8.429373142346112 -7.650449306592264 0
5.041333947632097 -8.681034192812081 0
-8.605913963134844 -6.990818472992927 0
0.5930160257171315 -4.71632673001658 0
-1.8881045699811 -5.365763465159045 0
-1.677798986084293 -3.987740740962132 0
1.825534158146382 -5.573672091049727 0
2.162462905346373 -2.356559237941715 0
-6.004784087483106 -8.685994974426574 0
-1.592091967610359 -4.521042318884411 0
1.560407752608451 -5.536282283638266 0
1.509185153980505 -4.731555759714609 0
-4.005072674199849 -8.826017192173326 0
4.006285513109853 -1.035335649922263 0
2.83320167535781 -5.675742194532519 0
2.750875725467997 -4.43636386736836 0
-1.637768386172051 -4.311850320504976 0
-4.083159614936736 -4.003203440070285 0
5.916252161717506 -1.320469536849924 0
0.9698801100909191 -0.9297159446528482 0
1.812711299909972 -4.049422145794928 0
-2.582186490595772 -5.472449872950186 0
1.402333533531035 -4.720230061763798 0
1.282577833402558 -4.862938468818522 0
-0.2174067245410893 -2.338925103162262 0
-1.306855064324008 -2.346246344915707 0
0.7379714296455731 -2.494963858867656 0
-1.452365800739673 -4.861835478373413 0
-1.028529801859036 -5.724652498524175 0
8.717312869368692 -6.974691353700265 0
-3.964151232620052 -0.7968566447387282 0
0.09463437889063038 -7.073157354033569 0
-0.9425204188128615 -4.883416840027856 0
$EndNodes
$Elements
8 1882 1 1882
1 1 1 30
1 6 8 
2 8 9 
3 9 10 
4 10 11 
5 11 12 
6 12 13 
7 13 14 
8 14 15 
9 15 16 
10 16 17 
11 17 18 
12 18 19 
13 19 20 
14 20 21 
15 21 22 
16 22 23 
17 23 24 
18 24 25 
19 25 26 
20 26 27 
21 27 28 
22 28 29 
23 29 30 
24 30 31 
25 31 32 
26 32 33 
27 33 34 
28 34 35 
29 35 36 
30 36 7 
1 2 1 30
31 7 37 
32 37 38 
33 38 39 
34 39 40 
35 40 41 
36 41 42 
37 42 43 
38 43 44 
39 44 45 
40 45 46 
41 46 47 
42 47 48 
43 48 49 
44 49 50 
45 50 51 
46 51 52 
47 52 53 
48 53 54 
49 54 55 
50 55 56 
51 56 57 
52 57 58 
53 58 59 
54 59 60 
55 60 61 
56 61 62 
57 62 63 
58 63 64 
59 64 65 
60 65 5 
1 3 1 28
61 6 66 
62 66 67 
63 67 68 
64 68 69 
65 69 70 
66 70 71 
67 71 72 
68 72 73 
69 73 74 
70 74 75 
71 75 76 
72 76 77 
73 77 78 
74 78 79 
75 79 80 
76 80 81 
77 81 82 
78 82 83 
79 83 84 
80 84 85 
81 85 86 
82 86 87 
83 87 88 
84 88 89 
85 89 90 
86 90 91 
87 91 92 
88 92 5 
1 4 1 20
89 1 93 
90 93 94 
91 94 95 
92 95 96 
93 96 97 
94 97 98 
95 98 99 
96 99 100 
97 100 101 
98 101 102 
99 102 103 
100 103 104 
101 104 105 
102 105 106 
103 106 107 
104 107 108 
105 108 109 
106 109 110 
107 110 111 
108 111 4 
1 5 1 10
109 4 112 
110 112 113 
111 113 114 
112 114 115 
113 115 116 
114 116 117 
115 117 118 
116 118 119 
117 119 120 
118 120 3 
1 6 1 20
119 3 121 
120 121 122 
121 122 123 
122 123 124 
123 124 125 
124 125 126 
125 126 127 
126 127 128 
127 128 129 
128 129 130 
129 130 131 
130 131 132 
131 132 133 
132 133 134 
133 134 135 
134 135 136 
135 136 137 
136 137 138 
137 138 139 
138 139 2 
1 7 1 10
139 2 140 
140 140 141 
141 141 142 
142 142 143 
143 143 144 
144 144 145 
145 145 146 
146 146 147 
147 147 148 
148 148 1 
2 1 2 1734
149 583 584 308 
150 577 809 575 
151 431 707 603 
152 301 881 757 
153 603 707 509 
154 462 762 345 
155 303 752 751 
156 728 814 534 
157 284 787 523 
158 461 697 660 
159 338 466 335 
160 575 809 424 
161 577 752 303 
162 630 831 725 
163 467 643 466 
164 175 593 526 
165 645 831 646 
166 216 548 228 
167 134 921 546 
168 694 723 448 
169 441 906 528 
170 338 467 466 
171 330 334 325 
172 492 875 737 
173 520 522 521 
174 425 831 645 
175 523 794 284 
176 354 846 715 
177 510 845 238 
178 479 566 516 
179 345 762 346 
180 432 462 345 
181 646 662 274 
182 538 881 301 
183 104 742 194 
184 327 345 328 
185 159 921 134 
186 204 205 203 
187 199 819 621 
188 725 831 425 
189 458 855 352 
190 308 821 583 
191 676 677 460 
192 202 204 203 
193 522 572 521 
194 441 841 508 
195 535 710 277 
196 345 346 328 
197 346 491 364 
198 723 829 448 
199 584 585 308 
200 585 743 708 
201 608 694 448 
202 196 202 185 
203 257 648 594 
204 134 546 133 
205 202 203 185 
206 131 545 130 
207 526 739 175 
208 330 904 334 
209 185 742 104 
210 327 328 319 
211 728 892 814 
212 506 903 334 
213 419 788 549 
214 545 861 130 
215 588 678 676 
216 437 530 454 
217 204 916 205 
218 495 817 383 
219 393 776 747 
220 287 619 227 
221 508 906 441 
222 516 799 479 
223 206 916 204 
224 708 743 556 
225 335 904 330 
226 447 608 448 
227 548 549 228 
228 567 655 200 
229 366 552 368 
230 654 802 169 
231 205 464 463 
232 421 929 434 
233 184 522 520 
234 318 319 317 
235 404 493 411 
236 489 502 394 
237 157 730 615 
238 218 548 216 
239 494 495 383 
240 277 720 535 
241 411 492 413 
242 377 486 483 
243 516 566 195 
244 590 639 176 
245 404 868 493 
246 437 759 530 
247 227 619 221 
248 182 694 608 
249 595 701 700 
250 361 432 345 
251 504 525 421 
252 715 846 524 
253 606 800 465 
254 576 613 543 
255 605 800 606 
256 726 738 617 
257 459 559 458 
258 236 278 234 
259 103 928 189 
260 152 709 620 
261 743 761 556 
262 208 307 206 
263 493 875 492 
264 175 545 131 
265 454 529 456 
266 411 493 492 
267 415 504 421 
268 466 876 335 
269 505 932 398 
270 519 704 432 
271 273 940 758 
272 555 761 521 
273 238 845 236 
274 565 744 420 
275 482 510 238 
276 320 327 319 
277 303 809 577 
278 521 785 555 
279 576 577 575 
280 174 613 576 
281 450 608 447 
282 621 819 525 
283 176 716 590 
284 558 761 743 
285 103 189 102 
286 716 808 472 
287 525 897 621 
288 242 290 240 
289 413 504 415 
290 319 771 317 
291 274 860 646 
292 396 468 398 
293 266 532 263 
294 432 594 462 
295 421 434 422 
296 571 619 287 
297 107 557 172 
298 154 873 663 
299 853 863 632 
300 451 840 531 
301 205 591 464 
302 777 798 290 
303 663 873 507 
304 383 817 385 
305 391 489 394 
306 489 570 502 
307 105 196 185 
308 184 520 99 
309 352 459 458 
310 240 482 238 
311 469 716 472 
312 540 545 175 
313 246 288 244 
314 466 884 629 
315 389 488 391 
316 381 494 383 
317 387 497 389 
318 549 780 419 
319 780 889 856 
320 377 483 379 
321 478 802 635 
322 526 593 514 
323 643 884 466 
324 175 739 540 
325 379 445 381 
326 244 487 242 
327 317 532 266 
328 250 284 248 
329 531 846 451 
330 166 796 700 
331 385 490 387 
332 413 847 504 
333 268 317 266 
334 681 728 153 
335 433 519 432 
336 248 498 246 
337 579 723 694 
338 534 683 153 
339 280 744 565 
340 336 338 335 
341 773 786 619 
342 234 503 230 
343 127 890 647 
344 415 421 417 
345 235 236 234 
346 454 456 455 
347 329 330 325 
348 662 831 275 
349 444 798 777 
350 198 612 599 
351 616 726 617 
352 105 185 104 
353 100 184 99 
354 681 899 728 
355 132 593 175 
356 135 568 159 
357 252 565 250 
358 214 906 508 
359 352 855 344 
360 488 489 391 
361 574 890 127 
362 223 548 218 
363 212 295 210 
364 502 858 394 
365 96 558 179 
366 445 494 381 
367 747 778 393 
368 379 483 445 
369 515 710 535 
370 490 497 387 
371 535 536 527 
372 468 505 398 
373 565 937 250 
374 546 593 133 
375 789 919 405 
376 746 854 491 
377 564 866 353 
378 368 371 370 
379 334 903 325 
380 718 833 670 
381 173 853 632 
382 515 535 527 
383 671 909 602 
384 509 917 603 
385 174 576 575 
386 254 280 252 
387 460 850 344 
388 456 590 469 
389 228 906 214 
390 346 364 347 
391 344 850 342 
392 572 785 521 
393 301 859 538 
394 189 633 102 
395 268 318 317 
396 366 553 552 
397 476 802 478 
398 290 482 240 
399 618 773 619 
400 492 847 413 
401 532 930 263 
402 288 487 244 
403 460 848 676 
404 357 617 360 
405 193 671 602 
406 645 857 425 
407 497 894 389 
408 521 761 171 
409 284 498 248 
410 371 373 372 
411 226 333 223 
412 758 940 650 
413 596 701 595 
414 334 857 506 
415 254 614 280 
416 486 620 483 
417 491 854 364 
418 494 820 495 
419 205 463 203 
420 432 704 594 
421 364 366 365 
422 650 859 758 
423 280 565 252 
424 237 238 236 
425 514 593 546 
426 318 320 319 
427 200 672 567 
428 327 361 345 
429 194 928 103 
430 298 571 287 
431 400 551 402 
432 212 508 295 
433 255 720 260 
434 437 454 453 
435 856 889 852 
436 124 547 180 
437 192 718 670 
438 451 846 354 
439 183 581 580 
440 290 798 482 
441 104 194 103 
442 471 827 591 
443 271 604 292 
444 333 548 223 
445 324 325 322 
446 461 849 697 
447 560 625 559 
448 326 763 554 
449 207 208 206 
450 174 575 574 
451 456 469 457 
452 629 725 466 
453 552 936 368 
454 174 574 128 
455 474 597 476 
456 373 375 374 
457 171 558 97 
458 604 674 442 
459 480 883 652 
460 107 172 106 
461 98 171 97 
462 233 234 230 
463 147 587 146 
464 472 729 474 
465 464 516 463 
466 239 240 238 
467 818 819 199 
468 615 730 497 
469 269 604 271 
470 490 615 497 
471 549 924 228 
472 394 858 396 
473 674 896 442 
474 660 697 696 
475 196 907 202 
476 334 904 425 
477 421 422 417 
478 241 242 240 
479 598 655 567 
480 129 174 128 
481 132 175 131 
482 398 932 400 
483 325 903 322 
484 115 578 182 
485 183 580 145 
486 620 709 483 
487 603 917 181 
488 747 776 487 
489 442 511 443 
490 405 919 810 
491 504 599 525 
492 700 796 595 
493 594 704 257 
494 126 160 125 
495 135 159 134 
496 601 603 181 
497 498 895 246 
498 425 857 334 
499 580 606 154 
500 243 244 242 
501 342 934 339 
502 454 530 529 
503 208 878 307 
504 130 861 613 
505 434 567 435 
506 178 557 108 
507 361 433 432 
508 332 571 298 
509 245 246 244 
510 375 377 376 
511 515 527 526 
512 216 228 214 
513 155 724 579 
514 531 571 332 
515 562 595 560 
516 364 854 366 
517 291 614 259 
518 184 804 522 
519 657 842 736 
520 106 196 105 
521 99 520 98 
522 557 877 172 
523 329 838 550 
524 247 248 246 
525 469 472 470 
526 487 882 242 
527 178 721 573 
528 599 611 198 
529 300 752 622 
530 153 728 534 
531 362 531 332 
532 155 579 578 
533 660 790 461 
534 578 694 182 
535 163 697 677 
536 214 508 212 
537 614 717 280 
538 160 547 125 
539 106 922 196 
540 734 765 360 
541 233 235 234 
542 327 714 361 
543 635 802 654 
544 536 538 537 
545 249 250 248 
546 181 568 136 
547 434 435 422 
548 337 554 306 
549 314 442 350 
550 529 853 456 
551 94 638 190 
552 251 252 250 
553 187 592 118 
554 411 413 412 
555 250 937 284 
556 696 793 660 
557 568 901 159 
558 520 939 98 
559 482 810 510 
560 366 368 367 
561 220 616 224 
562 404 411 410 
563 771 772 317 
564 626 913 291 
565 292 604 314 
566 472 474 473 
567 155 578 116 
568 144 580 154 
569 512 515 514 
570 677 706 163 
571 518 792 712 
572 117 155 116 
573 144 154 143 
574 434 598 567 
575 679 796 166 
576 108 557 107 
577 377 379 378 
578 278 503 234 
579 137 601 181 
580 445 782 494 
581 189 867 564 
582 639 853 173 
583 617 905 360 
584 575 727 574 
585 169 802 766 
586 225 226 223 
587 204 207 206 
588 379 381 380 
589 503 923 230 
590 558 743 179 
591 901 917 485 
592 602 603 601 
593 381 383 382 
594 272 609 270 
595 394 396 395 
596 383 385 384 
597 306 609 285 
598 371 372 370 
599 554 785 326 
600 117 592 155 
601 147 653 587 
602 539 650 542 
603 391 394 392 
604 154 663 143 
605 236 845 278 
606 591 637 464 
607 209 210 208 
608 389 391 390 
609 136 568 135 
610 355 715 647 
611 442 443 350 
612 330 336 335 
613 128 574 127 
614 405 810 797 
615 582 583 581 
616 387 389 388 
617 235 237 236 
618 753 840 451 
619 647 715 160 
620 385 387 386 
621 424 727 575 
622 314 604 442 
623 100 756 184 
624 454 455 453 
625 587 653 631 
626 368 936 371 
627 109 178 108 
628 96 179 95 
629 172 922 106 
630 645 646 519 
631 657 736 191 
632 146 587 183 
633 282 616 357 
634 304 306 285 
635 339 624 338 
636 361 714 506 
637 267 713 268 
638 521 939 520 
639 307 828 206 
640 538 650 539 
641 222 223 218 
642 346 347 328 
643 542 622 544 
644 584 586 585 
645 97 558 96 
646 183 582 581 
647 550 836 329 
648 559 588 458 
649 413 415 414 
650 588 711 678 
651 122 600 192 
652 124 180 123 
653 137 181 136 
654 603 900 431 
655 261 291 259 
656 531 618 571 
657 182 608 607 
658 317 772 532 
659 285 609 272 
660 530 863 529 
661 648 914 594 
662 98 939 171 
663 542 544 543 
664 171 761 558 
665 182 607 114 
666 188 909 671 
667 282 357 311 
668 193 602 601 
669 605 821 310 
670 488 783 489 
671 366 854 553 
672 396 398 397 
673 326 785 572 
674 483 709 445 
675 583 605 581 
676 590 716 469 
677 291 913 614 
678 224 616 282 
679 474 476 475 
680 653 887 631 
681 180 600 123 
682 464 799 516 
683 357 360 358 
684 115 182 114 
685 146 183 145 
686 265 266 263 
687 589 792 180 
688 343 344 342 
689 324 329 325 
690 253 254 252 
691 129 613 174 
692 148 653 147 
693 788 924 549 
694 211 212 210 
695 581 606 580 
696 116 578 115 
697 145 580 144 
698 536 537 527 
699 539 542 541 
700 193 601 138 
701 468 755 505 
702 373 374 372 
703 669 921 159 
704 341 342 339 
705 267 268 266 
706 138 601 137 
707 130 613 129 
708 544 577 576 
709 109 721 178 
710 371 814 373 
711 125 547 124 
712 114 607 113 
713 463 742 203 
714 582 584 583 
715 511 512 443 
716 622 754 300 
717 118 592 117 
718 159 901 669 
719 724 844 579 
720 646 831 662 
721 398 400 399 
722 360 905 734 
723 171 939 521 
724 620 832 682 
725 420 787 565 
726 511 774 710 
727 733 765 734 
728 362 846 531 
729 478 634 480 
730 119 187 118 
731 142 188 141 
732 242 882 290 
733 346 762 491 
734 529 863 853 
735 615 824 157 
736 618 619 571 
737 288 747 487 
738 123 600 122 
739 424 735 299 
740 237 239 238 
741 400 402 401 
742 304 337 306 
743 616 617 357 
744 213 214 212 
745 295 862 210 
746 111 191 110 
747 94 190 93 
748 515 526 514 
749 122 192 121 
750 139 193 138 
751 433 645 519 
752 402 868 404 
753 344 855 460 
754 585 879 743 
755 591 828 471 
756 292 314 313 
757 337 555 554 
758 617 738 294 
759 456 457 455 
760 356 362 332 
761 314 350 348 
762 239 241 240 
763 142 663 188 
764 820 865 495 
765 359 813 805 
766 496 941 892 
767 127 647 126 
768 535 843 536 
769 126 647 160 
770 331 332 298 
771 207 209 208 
772 797 810 798 
773 547 888 180 
774 375 376 374 
775 888 910 452 
776 241 243 242 
777 585 708 308 
778 814 892 373 
779 605 606 581 
780 222 225 223 
781 246 895 288 
782 204 732 207 
783 562 596 595 
784 620 815 152 
785 511 710 512 
786 368 370 369 
787 243 245 244 
788 351 352 344 
789 452 524 362 
790 364 365 347 
791 598 819 818 
792 113 657 112 
793 229 230 226 
794 179 638 95 
795 456 853 590 
796 396 858 468 
797 95 638 94 
798 572 835 326 
799 427 724 517 
800 353 633 564 
801 245 247 246 
802 907 922 197 
803 338 624 467 
804 183 587 582 
805 583 821 605 
806 133 593 132 
807 284 794 498 
808 375 941 377 
809 512 710 515 
810 196 922 907 
811 180 792 600 
812 247 249 248 
813 302 451 354 
814 373 892 375 
815 191 736 721 
816 377 941 486 
817 832 941 496 
818 459 560 559 
819 191 721 110 
820 724 938 517 
821 415 417 416 
822 480 652 566 
823 389 894 488 
824 712 792 589 
825 336 339 338 
826 249 251 250 
827 120 670 119 
828 141 671 140 
829 607 657 113 
830 251 253 252 
831 573 770 178 
832 314 348 313 
833 615 816 693 
834 411 412 410 
835 623 742 463 
836 225 229 226 
837 584 631 586 
838 536 881 538 
839 302 753 451 
840 377 378 376 
841 713 750 268 
842 496 899 832 
843 209 211 210 
844 582 631 584 
845 554 784 306 
846 231 840 753 
847 594 914 462 
848 202 732 204 
849 430 465 429 
850 366 367 365 
851 525 929 421 
852 64 610 65 
853 357 358 311 
854 667 800 310 
855 275 831 781 
856 283 285 272 
857 271 292 279 
858 331 356 332 
859 476 478 477 
860 260 720 277 
861 296 304 285 
862 721 736 573 
863 607 842 657 
864 609 713 270 
865 211 213 212 
866 538 539 537 
867 652 883 596 
868 591 827 637 
869 807 862 295 
870 508 841 295 
871 385 817 490 
872 359 805 756 
873 207 732 363 
874 270 713 267 
875 435 759 437 
876 587 631 582 
877 379 380 378 
878 315 429 293 
879 561 562 560 
880 286 287 227 
881 356 452 362 
882 381 382 380 
883 329 836 330 
884 430 507 465 
885 650 940 542 
886 383 384 382 
887 564 633 189 
888 350 485 348 
889 283 310 296 
890 542 543 541 
891 291 627 626 
892 278 811 745 
893 566 806 195 
894 215 216 214 
895 119 670 187 
896 188 671 141 
897 220 726 616 
898 544 752 577 
899 271 279 272 
900 309 427 349 
901 213 215 214 
902 306 784 609 
903 579 694 578 
904 394 395 392 
905 385 386 384 
906 265 267 266 
907 413 414 412 
908 524 910 715 
909 537 739 527 
910 391 392 390 
911 600 718 192 
912 544 576 543 
913 777 882 776 
914 517 518 349 
915 232 233 230 
916 283 296 285 
917 542 940 622 
918 634 886 883 
919 389 390 388 
920 143 663 142 
921 387 388 386 
922 568 917 901 
923 442 896 511 
924 471 828 825 
925 296 308 304 
926 315 431 430 
927 699 891 596 
928 279 283 272 
929 490 816 615 
930 292 313 293 
931 333 889 548 
932 592 724 155 
933 715 910 160 
934 304 708 337 
935 347 771 328 
936 402 404 403 
937 52 639 53 
938 835 838 329 
939 360 499 358 
940 292 293 279 
941 320 714 327 
942 670 833 187 
943 469 470 457 
944 467 790 659 
945 315 430 429 
946 271 272 270 
947 316 424 299 
948 224 282 276 
949 512 514 513 
950 313 315 293 
951 733 734 363 
952 312 446 289 
953 447 448 446 
954 741 841 441 
955 449 573 450 
956 259 614 254 
957 622 752 544 
958 372 744 370 
959 710 774 277 
960 485 509 348 
961 312 449 447 
962 269 674 604 
963 253 255 254 
964 297 298 287 
965 766 802 597 
966 276 286 227 
967 224 227 221 
968 190 887 653 
969 309 331 298 
970 485 917 509 
971 478 635 634 
972 633 830 102 
973 427 517 349 
974 203 742 185 
975 282 311 289 
976 396 397 395 
977 478 480 479 
978 517 833 518 
979 337 556 555 
980 337 708 556 
981 638 879 586 
982 310 800 605 
983 512 513 443 
984 269 271 270 
985 321 322 320 
986 636 841 741 
987 740 770 449 
988 356 589 452 
989 286 305 297 
990 472 473 470 
991 492 737 611 
992 449 450 447 
993 21 628 22 
994 179 879 638 
995 210 862 208 
996 538 859 650 
997 590 853 639 
998 435 437 436 
999 500 770 740 
1000 825 828 307 
1001 522 838 572 
1002 278 745 503 
1003 309 349 331 
1004 217 218 216 
1005 328 771 319 
1006 286 297 287 
1007 548 889 549 
1008 297 309 298 
1009 312 447 446 
1010 368 369 367 
1011 350 669 485 
1012 443 669 350 
1013 429 667 293 
1014 486 832 620 
1015 619 786 221 
1016 229 232 230 
1017 638 887 190 
1018 311 312 289 
1019 420 744 372 
1020 547 910 888 
1021 283 667 310 
1022 4 869 111 
1023 112 869 4 
1024 93 870 1 
1025 1 870 148 
1026 282 289 276 
1027 3 871 120 
1028 121 871 3 
1029 2 872 139 
1030 140 872 2 
1031 718 792 518 
1032 219 222 218 
1033 729 812 474 
1034 646 860 519 
1035 224 276 227 
1036 58 655 59 
1037 398 399 397 
1038 68 153 67 
1039 85 149 84 
1040 70 186 69 
1041 69 681 68 
1042 88 158 87 
1043 91 150 90 
1044 73 152 72 
1045 76 156 75 
1046 79 151 78 
1047 82 157 81 
1048 462 914 826 
1049 315 707 431 
1050 78 692 77 
1051 74 687 73 
1052 110 721 109 
1053 279 667 283 
1054 84 695 83 
1055 63 198 64 
1056 71 682 70 
1057 430 673 507 
1058 80 693 79 
1059 318 321 320 
1060 89 690 88 
1061 77 686 76 
1062 75 685 74 
1063 293 667 279 
1064 215 217 216 
1065 400 932 551 
1066 231 773 618 
1067 518 712 349 
1068 83 680 82 
1069 187 938 592 
1070 429 800 667 
1071 348 707 313 
1072 90 684 89 
1073 592 938 724 
1074 777 834 444 
1075 474 475 473 
1076 431 673 430 
1077 23 642 24 
1078 65 201 5 
1079 308 708 304 
1080 559 731 588 
1081 220 224 221 
1082 269 270 267 
1083 294 905 617 
1084 676 848 588 
1085 309 722 427 
1086 217 219 218 
1087 625 796 679 
1088 339 934 624 
1089 302 354 316 
1090 606 873 154 
1091 402 403 401 
1092 92 688 91 
1093 313 707 315 
1094 415 416 414 
1095 53 173 54 
1096 486 941 832 
1097 400 401 399 
1098 256 826 651 
1099 445 822 782 
1100 322 714 320 
1101 331 712 356 
1102 220 221 219 
1103 255 259 254 
1104 624 790 467 
1105 67 683 66 
1106 613 861 543 
1107 437 453 439 
1108 232 299 233 
1109 540 739 537 
1110 728 899 496 
1111 499 500 358 
1112 15 649 16 
1113 195 623 516 
1114 5 406 92 
1115 370 717 369 
1116 434 819 598 
1117 513 669 443 
1118 24 658 25 
1119 509 707 348 
1120 514 546 513 
1121 654 661 635 
1122 883 886 699 
1123 264 674 265 
1124 225 231 229 
1125 232 302 299 
1126 102 830 101 
1127 305 723 722 
1128 553 702 423 
1129 408 534 533 
1130 354 355 316 
1131 215 726 217 
1132 570 885 502 
1133 374 420 372 
1134 539 541 540 
1135 349 712 331 
1136 66 408 6 
1137 323 324 322 
1138 178 927 557 
1139 62 612 63 
1140 255 839 720 
1141 217 220 219 
1142 527 739 526 
1143 265 269 267 
1144 278 915 811 
1145 230 923 226 
1146 65 610 201 
1147 762 826 705 
1148 312 740 449 
1149 226 923 333 
1150 54 632 55 
1151 892 941 375 
1152 148 870 653 
1153 211 294 213 
1154 404 410 409 
1155 426 771 347 
1156 446 719 289 
1157 198 610 64 
1158 321 428 323 
1159 573 736 450 
1160 264 265 263 
1161 356 712 589 
1162 435 436 422 
1163 627 772 426 
1164 20 177 21 
1165 679 703 625 
1166 852 889 333 
1167 286 719 305 
1168 265 674 269 
1169 207 363 209 
1170 727 890 574 
1171 235 303 237 
1172 61 621 62 
1173 323 326 324 
1174 87 764 86 
1175 489 912 570 
1176 239 300 241 
1177 55 438 56 
1178 417 441 416 
1179 354 715 355 
1180 160 910 547 
1181 618 840 231 
1182 60 199 61 
1183 358 740 311 
1184 302 316 299 
1185 316 727 424 
1186 748 905 294 
1187 195 928 623 
1188 268 750 318 
1189 595 796 560 
1190 276 719 286 
1191 341 343 342 
1192 677 849 460 
1193 732 733 363 
1194 297 722 309 
1195 101 898 100 
1196 305 722 297 
1197 51 176 52 
1198 243 273 245 
1199 625 933 559 
1200 539 540 537 
1201 181 917 568 
1202 48 170 49 
1203 251 281 253 
1204 22 161 23 
1205 32 678 33 
1206 467 791 643 
1207 262 264 263 
1208 290 882 777 
1209 50 640 51 
1210 311 740 312 
1211 262 263 261 
1212 552 553 423 
1213 247 301 249 
1214 14 257 15 
1215 13 648 14 
1216 378 523 376 
1217 502 885 691 
1218 717 744 280 
1219 602 900 603 
1220 5 569 406 
1221 501 778 747 
1222 321 323 322 
1223 49 644 50 
1224 452 910 524 
1225 33 711 34 
1226 500 740 358 
1227 599 897 525 
1228 296 821 308 
1229 672 801 530 
1230 53 639 173 
1231 289 719 276 
1232 555 785 554 
1233 801 863 530 
1234 424 809 735 
1235 781 831 630 
1236 745 811 418 
1237 56 656 57 
1238 476 477 475 
1239 47 641 48 
1240 784 926 609 
1241 528 924 788 
1242 221 786 219 
1243 382 407 380 
1244 46 766 47 
1245 19 781 20 
1246 588 731 711 
1247 343 351 344 
1248 541 545 540 
1249 260 277 262 
1250 417 741 441 
1251 408 683 534 
1252 386 501 384 
1253 775 777 776 
1254 441 528 416 
1255 556 761 555 
1256 627 803 626 
1257 414 419 412 
1258 260 261 259 
1259 299 735 233 
1260 450 842 608 
1261 10 664 11 
1262 63 612 198 
1263 260 262 261 
1264 763 784 554 
1265 404 409 403 
1266 439 636 436 
1267 291 930 627 
1268 474 812 597 
1269 427 844 724 
1270 390 393 388 
1271 517 938 833 
1272 45 169 46 
1273 263 930 261 
1274 719 829 305 
1275 370 744 717 
1276 57 200 58 
1277 409 440 403 
1278 437 439 436 
1279 12 651 13 
1280 360 765 499 
1281 720 843 535 
1282 233 735 235 
1283 68 681 153 
1284 186 681 69 
1285 180 888 589 
1286 222 773 225 
1287 255 260 259 
1288 340 550 484 
1289 361 506 433 
1290 426 803 627 
1291 151 692 78 
1292 73 687 152 
1293 468 858 691 
1294 197 765 733 
1295 446 829 719 
1296 449 770 573 
1297 149 695 84 
1298 70 682 186 
1299 465 800 429 
1300 79 693 151 
1301 88 690 158 
1302 76 686 156 
1303 156 685 75 
1304 184 805 804 
1305 25 162 26 
1306 82 680 157 
1307 77 692 686 
1308 44 654 45 
1309 59 818 60 
1310 586 887 638 
1311 685 687 74 
1312 353 866 352 
1313 150 684 90 
1314 448 829 446 
1315 453 481 439 
1316 83 695 680 
1317 257 704 649 
1318 734 748 363 
1319 18 275 19 
1320 599 847 611 
1321 173 632 54 
1322 550 838 804 
1323 684 690 89 
1324 72 815 71 
1325 661 935 635 
1326 213 738 215 
1327 682 815 620 
1328 11 256 12 
1329 355 727 316 
1330 611 847 492 
1331 209 748 211 
1332 217 726 220 
1333 530 759 672 
1334 91 688 150 
1335 401 405 399 
1336 26 793 27 
1337 562 652 596 
1338 397 444 395 
1339 608 842 607 
1340 16 274 17 
1341 524 846 362 
1342 669 901 485 
1343 705 826 256 
1344 697 849 677 
1345 410 418 409 
1346 663 911 188 
1347 17 662 18 
1348 81 824 80 
1349 42 168 43 
1350 153 683 67 
1351 43 661 44 
1352 691 858 502 
1353 563 652 562 
1354 657 869 112 
1355 39 167 40 
1356 176 639 52 
1357 9 665 10 
1358 647 890 355 
1359 768 902 895 
1360 516 623 463 
1361 158 764 87 
1362 365 426 347 
1363 756 898 359 
1364 551 868 402 
1365 177 628 21 
1366 31 164 32 
1367 779 856 418 
1368 816 817 749 
1369 225 773 231 
1370 232 753 302 
1371 7 166 37 
1372 659 791 467 
1373 219 786 222 
1374 27 696 28 
1375 318 750 321 
1376 459 561 560 
1377 465 873 606 
1378 62 621 612 
1379 326 835 324 
1380 422 741 417 
1381 369 626 367 
1382 34 165 35 
1383 28 163 29 
1384 635 935 634 
1385 41 666 42 
1386 201 569 5 
1387 40 698 41 
1388 229 753 232 
1389 38 668 39 
1390 426 772 771 
1391 478 479 477 
1392 55 632 438 
1393 406 688 92 
1394 322 903 714 
1395 241 754 243 
1396 543 861 541 
1397 151 749 692 
1398 8 258 9 
1399 235 735 303 
1400 37 700 38 
1401 687 709 152 
1402 36 679 7 
1403 152 815 72 
1404 222 786 773 
1405 100 898 756 
1406 22 628 161 
1407 734 905 748 
1408 596 883 699 
1409 30 675 31 
1410 561 563 562 
1411 71 815 682 
1412 245 758 247 
1413 680 730 157 
1414 237 751 239 
1415 157 824 81 
1416 610 737 201 
1417 376 760 374 
1418 351 353 352 
1419 690 691 158 
1420 321 750 428 
1421 215 738 726 
1422 249 757 251 
1423 693 824 615 
1424 35 703 36 
1425 29 706 30 
1426 177 630 629 
1427 80 824 693 
1428 455 795 453 
1429 470 471 457 
1430 120 871 670 
1431 671 872 140 
1432 336 340 339 
1433 199 621 61 
1434 754 940 273 
1435 340 341 339 
1436 231 753 229 
1437 780 856 779 
1438 499 877 500 
1439 6 702 8 
1440 597 802 476 
1441 622 940 754 
1442 374 760 420 
1443 66 683 408 
1444 310 821 296 
1445 691 880 468 
1446 194 742 623 
1447 653 870 190 
1448 380 769 378 
1449 490 817 816 
1450 655 818 59 
1451 384 767 382 
1452 198 611 610 
1453 480 566 479 
1454 641 812 170 
1455 567 759 435 
1456 713 926 750 
1457 211 748 294 
1458 161 642 23 
1459 150 755 684 
1460 614 913 717 
1461 294 738 213 
1462 531 840 618 
1463 85 864 149 
1464 518 833 718 
1465 408 423 6 
1466 156 782 685 
1467 751 752 300 
1468 479 799 477 
1469 428 784 763 
1470 642 658 24 
1471 428 763 323 
1472 747 902 501 
1473 149 783 695 
1474 600 792 718 
1475 323 763 326 
1476 659 660 162 
1477 197 922 837 
1478 111 869 191 
1479 190 870 93 
1480 262 774 264 
1481 300 754 241 
1482 192 871 121 
1483 139 872 193 
1484 475 637 473 
1485 586 879 585 
1486 363 748 209 
1487 436 741 422 
1488 392 775 390 
1489 20 781 177 
1490 60 818 199 
1491 453 795 481 
1492 51 640 176 
1493 438 656 56 
1494 305 829 723 
1495 388 778 386 
1496 353 830 633 
1497 257 649 15 
1498 200 655 58 
1499 513 921 669 
1500 806 867 195 
1501 359 898 874 
1502 86 864 85 
1503 177 781 630 
1504 534 814 533 
1505 340 484 341 
1506 462 826 762 
1507 611 737 610 
1508 303 751 237 
1509 170 644 49 
1510 239 751 300 
1511 50 644 640 
1512 795 878 481 
1513 14 648 257 
1514 343 359 351 
1515 652 806 566 
1516 804 805 484 
1517 725 876 466 
1518 783 912 489 
1519 612 897 599 
1520 627 930 532 
1521 48 641 170 
1522 412 779 410 
1523 273 758 245 
1524 406 689 688 
1525 395 834 392 
1526 243 754 273 
1527 408 533 423 
1528 191 869 657 
1529 867 928 195 
1530 764 864 86 
1531 423 702 6 
1532 767 768 407 
1533 523 760 376 
1534 340 836 550 
1535 636 741 436 
1536 251 757 281 
1537 301 757 249 
1538 675 677 676 
1539 172 877 837 
1540 877 927 500 
1541 533 552 423 
1542 511 896 774 
1543 247 758 301 
1544 660 793 162 
1545 461 790 624 
1546 532 772 627 
1547 47 766 641 
1548 510 919 845 
1549 640 716 176 
1550 277 774 262 
1551 675 706 677 
1552 418 856 745 
1553 324 835 329 
1554 895 902 288 
1555 253 839 255 
1556 839 843 720 
1557 295 841 636 
1558 596 891 701 
1559 378 769 523 
1560 25 658 162 
1561 410 779 418 
1562 823 894 730 
1563 13 651 648 
1564 507 911 663 
1565 656 672 200 
1566 775 776 393 
1567 419 780 779 
1568 670 871 192 
1569 193 872 671 
1570 775 834 777 
1571 261 930 291 
1572 760 787 420 
1573 407 769 380 
1574 560 796 625 
1575 549 889 780 
1576 504 847 599 
1577 382 767 407 
1578 57 656 200 
1579 636 807 295 
1580 501 767 384 
1581 169 766 46 
1582 507 873 465 
1583 16 649 274 
1584 491 762 705 
1585 170 729 644 
1586 550 804 484 
1587 501 902 767 
1588 767 902 768 
1589 440 789 403 
1590 177 629 628 
1591 197 837 765 
1592 672 759 567 
1593 864 912 149 
1594 528 788 416 
1595 416 788 414 
1596 275 781 19 
1597 631 887 586 
1598 630 725 629 
1599 386 778 501 
1600 845 919 915 
1601 637 851 464 
1602 563 806 652 
1603 634 883 480 
1604 551 931 920 
1605 393 778 388 
1606 579 844 723 
1607 390 775 393 
1608 810 919 510 
1609 756 805 184 
1610 641 766 597 
1611 170 812 729 
1612 419 779 412 
1613 45 654 169 
1614 735 809 303 
1615 281 839 253 
1616 736 842 450 
1617 11 664 256 
1618 723 844 722 
1619 682 832 186 
1620 505 893 689 
1621 797 798 444 
1622 403 789 401 
1623 414 788 419 
1624 722 844 427 
1625 256 651 12 
1626 506 857 433 
1627 444 834 395 
1628 769 794 523 
1629 764 885 570 
1630 804 838 522 
1631 188 911 909 
1632 10 665 664 
1633 609 926 713 
1634 461 850 849 
1635 399 797 397 
1636 161 643 642 
1637 805 813 484 
1638 352 866 459 
1639 367 803 365 
1640 628 884 161 
1641 664 705 256 
1642 162 793 26 
1643 862 878 208 
1644 743 879 179 
1645 659 790 660 
1646 44 661 654 
1647 18 662 275 
1648 589 888 452 
1649 678 711 33 
1650 704 860 649 
1651 597 812 641 
1652 774 896 264 
1653 623 928 194 
1654 405 797 399 
1655 770 927 178 
1656 164 678 32 
1657 274 662 17 
1658 457 825 455 
1659 750 926 428 
1660 439 807 636 
1661 168 661 43 
1662 561 564 563 
1663 264 896 674 
1664 307 878 795 
1665 795 825 307 
1666 258 746 665 
1667 433 857 645 
1668 541 861 545 
1669 401 789 405 
1670 488 894 823 
1671 564 867 563 
1672 438 801 656 
1673 409 811 440 
1674 27 793 696 
1675 519 860 704 
1676 693 816 151 
1677 498 908 768 
1678 34 711 165 
1679 732 907 733 
1680 392 834 775 
1681 686 820 156 
1682 658 659 162 
1683 685 822 687 
1684 42 666 168 
1685 695 823 680 
1686 167 698 40 
1687 776 882 487 
1688 397 797 444 
1689 473 827 470 
1690 39 668 167 
1691 333 923 852 
1692 481 807 439 
1693 418 811 409 
1694 431 900 673 
1695 365 803 426 
1696 691 885 158 
1697 258 665 9 
1698 151 816 749 
1699 455 825 795 
1700 28 696 163 
1701 687 822 709 
1702 284 937 787 
1703 434 929 819 
1704 559 933 731 
1705 330 836 336 
1706 166 700 37 
1707 31 675 164 
1708 7 679 166 
1709 588 848 458 
1710 41 698 666 
1711 749 865 692 
1712 680 823 730 
1713 425 876 725 
1714 837 922 172 
1715 692 865 686 
1716 709 822 445 
1717 156 820 782 
1718 644 808 640 
1719 703 933 625 
1720 38 700 668 
1721 649 860 274 
1722 626 803 367 
1723 551 932 689 
1724 461 934 850 
1725 546 921 513 
1726 782 822 685 
1727 165 703 35 
1728 163 706 29 
1729 714 903 506 
1730 689 932 505 
1731 472 808 729 
1732 632 863 438 
1733 783 823 695 
1734 690 880 691 
1735 768 895 498 
1736 673 911 507 
1737 36 703 679 
1738 749 817 495 
1739 598 818 655 
1740 696 697 163 
1741 30 706 675 
1742 745 852 503 
1743 563 867 806 
1744 8 702 258 
1745 341 813 343 
1746 656 801 672 
1747 765 837 499 
1748 205 916 591 
1749 684 880 690 
1750 551 920 868 
1751 407 908 769 
1752 642 791 658 
1753 769 908 794 
1754 689 931 551 
1755 755 880 684 
1756 828 916 206 
1757 484 813 341 
1758 675 676 164 
1759 158 885 764 
1760 471 825 457 
1761 369 913 626 
1762 799 851 477 
1763 464 851 799 
1764 406 931 689 
1765 161 884 643 
1766 281 843 839 
1767 470 827 471 
1768 150 893 755 
1769 343 813 359 
1770 288 902 747 
1771 698 699 666 
1772 794 908 498 
1773 557 927 877 
1774 668 701 167 
1775 688 893 150 
1776 758 859 301 
1777 637 827 473 
1778 570 912 864 
1779 353 874 830 
1780 717 913 369 
1781 640 808 716 
1782 711 731 165 
1783 689 893 688 
1784 569 931 406 
1785 460 855 848 
1786 909 911 673 
1787 459 866 561 
1788 570 864 764 
1789 496 892 728 
1790 336 836 340 
1791 745 856 852 
1792 281 881 843 
1793 186 899 681 
1794 729 808 644 
1795 428 926 784 
1796 438 863 801 
1797 833 938 187 
1798 624 934 461 
1799 733 907 197 
1800 572 838 835 
1801 481 862 807 
1802 814 936 533 
1803 782 820 494 
1804 355 890 727 
1805 500 927 770 
1806 686 865 820 
1807 832 899 186 
1808 757 881 281 
1809 915 919 440 
1810 826 914 651 
1811 643 791 642 
1812 621 897 612 
1813 553 918 702 
1814 768 908 407 
1815 477 851 475 
1816 920 931 569 
1817 837 877 499 
1818 798 810 482 
1819 658 791 659 
1820 475 851 637 
1821 737 875 201 
1822 629 884 628 
1823 730 894 497 
1824 664 925 705 
1825 493 920 875 
1826 149 912 783 
1827 201 875 569 
1828 202 907 732 
1829 746 925 665 
1830 746 918 854 
1831 705 925 491 
1832 359 874 351 
1833 495 865 749 
1834 665 925 664 
1835 468 880 755 
1836 481 878 862 
1837 850 934 342 
1838 787 937 565 
1839 561 866 564 
1840 651 914 648 
1841 488 823 783 
1842 258 918 746 
1843 666 886 168 
1844 351 874 353 
1845 854 918 553 
1846 811 915 440 
1847 533 936 552 
1848 168 935 661 
1849 591 916 828 
1850 440 919 789 
1851 819 929 525 
1852 845 915 278 
1853 755 893 505 
1854 167 891 698 
1855 425 904 876 
1856 852 923 503 
1857 875 920 569 
1858 189 928 867 
1859 702 918 258 
1860 849 850 460 
1861 491 925 746 
1862 906 924 528 
1863 843 881 536 
1864 900 909 673 
1865 699 886 666 
1866 371 936 814 
1867 602 909 900 
1868 701 891 167 
1869 698 891 699 
1870 165 933 703 
1871 886 935 168 
1872 874 898 830 
1873 848 855 458 
1874 868 920 493 
1875 731 933 165 
1876 228 924 906 
1877 634 935 886 
1878 876 904 335 
1879 830 898 101 
1880 676 678 164 
1881 523 787 760 
1882 700 701 668 
$EndElements
