$MeshFormat
4.1 0 8
$EndMeshFormat
$PhysicalNames
6
1 9 "top"
1 10 "left"
1 11 "right"
1 12 "bottom"
1 13 "wall"
2 14 "ground"
$EndPhysicalNames
$Entities
10 8 1 0
1 10 0 0 0 
2 -10 0 0 0 
3 -10 -10 0 0 
4 10 -10 0 0 
5 0 -2.5 0 0 
6 0.8 -3.3 0 0 
7 -0.8 -3.3 0 0 
8 -0.8 -4.9 0 0 
9 0.8 -4.9 0 0 
10 0 -3.3 0 0 
1 -0.8000001 -3.3000001 -1e-07 0.8000001 -2.4999999 1e-07 1 13 2 7 -6 
2 -0.8000001 -4.900000100000001 -1e-07 -0.7999999000000001 -3.2999999 1e-07 1 13 2 7 -8 
3 -0.8000001 -4.900000100000001 -1e-07 0.8000001 -4.8999999 1e-07 1 13 2 8 -9 
4 0.7999999000000001 -4.900000100000001 -1e-07 0.8000001 -3.2999999 1e-07 1 13 2 9 -6 
5 -10.0000001 -1e-07 -1e-07 10.0000001 1e-07 1e-07 1 9 2 2 -1 
6 9.999999900000001 -10.0000001 -1e-07 10.0000001 1.000000002804313e-07 1e-07 1 11 2 1 -4 
7 -10.0000001 -10.0000001 -1e-07 10.0000001 -9.999999900000001 1e-07 1 12 2 4 -3 
8 -10.0000001 -10.0000001 -1e-07 -9.999999900000001 1.000000002804313e-07 1e-07 1 10 2 3 -2 
1 -10.0000001 -10.0000001 -1e-07 10.0000001 1.000000002804313e-07 1e-07 1 14 16 6 7 8 5 -3 -2 1 -4 -3 -2 1 -4 2 3 4 -1 
$EndEntities
$Nodes
17 857 1 857
0 1 0 1
1
10 0 0
0 2 0 1
2
-10 0 0
0 3 0 1
3
-10 -10 0
0 4 0 1
4
10 -10 0
0 6 0 1
5
0.8 -3.3 0
0 7 0 1
6
-0.8 -3.3 0
0 8 0 1
7
-0.8 -4.9 0
0 9 0 1
8
0.8 -4.9 0
1 1 0 25
9
10
11
12
13
14
15
16
17
18
19
20
21
22
23
24
25
26
27
28
29
30
31
32
33
-0.7941670992784432 -3.203570655795742 0
-0.7767534539408417 -3.108547468569954 0
-0.7480129941483319 -3.016316090365971 0
-0.708364820522568 -2.928221462364985 0
-0.6583870927149252 -2.845548202615075 0
-0.5988085985368811 -2.769501873407364 0
-0.5304981265926364 -2.701191401463119 0
-0.4544517973849247 -2.641612907285075 0
-0.3717785376350147 -2.591635179477432 0
-0.2836839096340287 -2.551987005851668 0
-0.1914525314300462 -2.523246546059158 0
-0.09642934420425886 -2.505832900721557 0
-1.469527624586853e-16 -2.5 0
0.09642934420425786 -2.505832900721557 0
0.1914525314300459 -2.523246546059158 0
0.2836839096340285 -2.551987005851668 0
0.3717785376350144 -2.591635179477432 0
0.4544517973849245 -2.641612907285074 0
0.5304981265926362 -2.701191401463119 0
0.5988085985368806 -2.769501873407363 0
0.6583870927149251 -2.845548202615075 0
0.7083648205225681 -2.928221462364985 0
0.7480129941483318 -3.016316090365971 0
0.7767534539408415 -3.108547468569953 0
0.7941670992784432 -3.203570655795741 0
1 2 0 15
34
35
36
37
38
39
40
41
42
43
44
45
46
47
48
-0.8 -3.4 0
-0.8 -3.5 0
-0.8 -3.600000000000001 0
-0.8 -3.700000000000001 0
-0.8 -3.800000000000001 0
-0.8 -3.900000000000001 0
-0.8 -4.000000000000001 0
-0.8 -4.100000000000001 0
-0.8 -4.200000000000001 0
-0.8 -4.300000000000001 0
-0.8 -4.400000000000001 0
-0.8 -4.500000000000001 0
-0.8 -4.600000000000001 0
-0.8 -4.700000000000001 0
-0.8 -4.800000000000001 0
1 3 0 15
49
50
51
52
53
54
55
56
57
58
59
60
61
62
63
-0.6999999999999998 -4.9 0
-0.5999999999999996 -4.9 0
-0.4999999999999995 -4.9 0
-0.3999999999999992 -4.9 0
-0.299999999999999 -4.9 0
-0.1999999999999993 -4.9 0
-0.09999999999999931 -4.9 0
5.551115123125783e-16 -4.9 0
0.1000000000000006 -4.9 0
0.2000000000000008 -4.9 0
0.3000000000000007 -4.9 0
0.4000000000000006 -4.9 0
0.5000000000000004 -4.9 0
0.6000000000000003 -4.9 0
0.7000000000000002 -4.9 0
1 4 0 15
64
65
66
67
68
69
70
71
72
73
74
75
76
77
78
0.8 -4.8 0
0.8 -4.7 0
0.8 -4.6 0
0.8 -4.499999999999999 0
0.8 -4.399999999999999 0
0.8 -4.299999999999999 0
0.8 -4.199999999999999 0
0.8 -4.1 0
0.8 -3.999999999999999 0
0.8 -3.899999999999999 0
0.8 -3.799999999999999 0
0.8 -3.699999999999999 0
0.8 -3.6 0
0.8 -3.5 0
0.8 -3.399999999999999 0
1 5 0 19
79
80
81
82
83
84
85
86
87
88
89
90
91
92
93
94
95
96
97
-9 0 0
-8 0 0
-7 0 0
-6 0 0
-5 0 0
-4 0 0
-3 0 0
-2 0 0
-1 0 0
0 0 0
1 0 0
2 0 0
3 0 0
4 0 0
5 0 0
6 0 0
7 0 0
8 0 0
9 0 0
1 6 0 9
98
99
100
101
102
103
104
105
106
10 -1 0
10 -2 0
10 -3 0
10 -4 0
10 -5 0
10 -6 0
10 -7 0
10 -8 0
10 -9 0
1 7 0 19
107
108
109
110
111
112
113
114
115
116
117
118
119
120
121
122
123
124
125
9 -10 0
8 -10 0
7 -10 0
6 -10 0
5 -10 0
4 -10 0
3 -10 0
2 -10 0
1 -10 0
0 -10 0
-1 -10 0
-2 -10 0
-3 -10 0
-4 -10 0
-5 -10 0
-6 -10 0
-7 -10 0
-8 -10 0
-9 -10 0
1 8 0 9
126
127
128
129
130
131
132
133
134
-10 -9 0
-10 -8 0
-10 -7 0
-10 -6 0
-10 -5 0
-10 -4 0
-10 -3 0
-10 -2 0
-10 -1 0
2 1 0 723
135
136
137
138
139
140
141
142
143
144
145
146
147
148
149
150
151
152
153
154
155
156
157
158
159
160
161
162
163
164
165
166
167
168
169
170
171
172
173
174
175
176
177
178
179
180
181
182
183
184
185
186
187
188
189
190
191
192
193
194
195
196
197
198
199
200
201
202
203
204
205
206
207
208
209
210
211
212
213
214
215
216
217
218
219
220
221
222
223
224
225
226
227
228
229
230
231
232
233
234
235
236
237
238
239
240
241
242
243
244
245
246
247
248
249
250
251
252
253
254
255
256
257
258
259
260
261
262
263
264
265
266
267
268
269
270
271
272
273
274
275
276
277
278
279
280
281
282
283
284
285
286
287
288
289
290
291
292
293
294
295
296
297
298
299
300
301
302
303
304
305
306
307
308
309
310
311
312
313
314
315
316
317
318
319
320
321
322
323
324
325
326
327
328
329
330
331
332
333
334
335
336
337
338
339
340
341
342
343
344
345
346
347
348
349
350
351
352
353
354
355
356
357
358
359
360
361
362
363
364
365
366
367
368
369
370
371
372
373
374
375
376
377
378
379
380
381
382
383
384
385
386
387
388
389
390
391
392
393
394
395
396
397
398
399
400
401
402
403
404
405
406
407
408
409
410
411
412
413
414
415
416
417
418
419
420
421
422
423
424
425
426
427
428
429
430
431
432
433
434
435
436
437
438
439
440
441
442
443
444
445
446
447
448
449
450
451
452
453
454
455
456
457
458
459
460
461
462
463
464
465
466
467
468
469
470
471
472
473
474
475
476
477
478
479
480
481
482
483
484
485
486
487
488
489
490
491
492
493
494
495
496
497
498
499
500
501
502
503
504
505
506
507
508
509
510
511
512
513
514
515
516
517
518
519
520
521
522
523
524
525
526
527
528
529
530
531
532
533
534
535
536
537
538
539
540
541
542
543
544
545
546
547
548
549
550
551
552
553
554
555
556
557
558
559
560
561
562
563
564
565
566
567
568
569
570
571
572
573
574
575
576
577
578
579
580
581
582
583
584
585
586
587
588
589
590
591
592
593
594
595
596
597
598
599
600
601
602
603
604
605
606
607
608
609
610
611
612
613
614
615
616
617
618
619
620
621
622
623
624
625
626
627
628
629
630
631
632
633
634
635
636
637
638
639
640
641
642
643
644
645
646
647
648
649
650
651
652
653
654
655
656
657
658
659
660
661
662
663
664
665
666
667
668
669
670
671
672
673
674
675
676
677
678
679
680
681
682
683
684
685
686
687
688
689
690
691
692
693
694
695
696
697
698
699
700
701
702
703
704
705
706
707
708
709
710
711
712
713
714
715
716
717
718
719
720
721
722
723
724
725
726
727
728
729
730
731
732
733
734
735
736
737
738
739
740
741
742
743
744
745
746
747
748
749
750
751
752
753
754
755
756
757
758
759
760
761
762
763
764
765
766
767
768
769
770
771
772
773
774
775
776
777
778
779
780
781
782
783
784
785
786
787
788
789
790
791
792
793
794
795
796
797
798
799
800
801
802
803
804
805
806
807
808
809
810
811
812
813
814
815
816
817
818
819
820
821
822
823
824
825
826
827
828
829
830
831
832
833
834
835
836
837
838
839
840
841
842
843
844
845
846
847
848
849
850
851
852
853
854
855
856
857
-0.8917427754983234 -4.650278488629224 0
-0.8864436883253781 -3.850000000000001 0
0.8885201314659927 -4.65 0
0.8866025403784438 -3.849999999999999 0
0.8886122527491024 -4.25 0
-0.8756260896370232 -3.448204583362438 0
0.8756772409262363 -3.449057854561023 0
-0.8857002510612266 -4.25170104290316 0
0.4500000000000005 -4.986602540378444 0
-0.1486128348107822 -4.988034705085409 0
-0.5537348922288658 -4.9714072374758 0
-0.8440438258063836 -3.037217246880615 0
0.8593336836801975 -3.025164067467531 0
-4.505986555211089 -9.103052239739077 0
4.48101650871423 -9.117384244590809 0
0.1404346170965825 -5.005444154007008 0
-4.537118932645844 -0.8445182444571522 0
4.623744907287939 -0.6398526025359859 0
-0.6999646406916386 -2.753964560636983 0
0.6975868759591518 -2.751133295254192 0
9.008773985958857 -4.506187480699147 0
-9.062304456143513 -4.463733293962854 0
-0.5271443924422199 -2.608648875935505 0
0.5455919070396738 -2.597122366125597 0
1.411313704421338 -9.127402946415643 0
-1.529316198275112 -9.159199668263813 0
-0.362067549208089 -2.495518906878756 0
-0.1700426815457608 -2.423712119378697 0
0.3620675492080887 -2.495518906878756 0
0.155609496381936 -2.445361278774301 0
-0.9055485008458488 -3.245714457144159 0
0.889704935259122 -3.251292672281108 0
-2.496107345263187 -0.807429811721307 0
2.522049287956075 -0.8748377514710501 0
-6.443380166887935 -0.7849711821042717 0
6.472891695498501 -0.812943729620577 0
6.464675006363439 -9.185475175990813 0
-6.469935059066948 -9.198044693573674 0
-9.170562361547464 -6.491351410379204 0
9.182313288586892 -6.517881823597456 0
-0.8866025403784435 -4.450000000000001 0
0.8882986343931154 -4.449999999999999 0
-0.3539340459551997 -4.997230048051963 0
0.8863844810978901 -4.049999999999999 0
-0.8987125551883424 -3.646637599419964 0
-0.9032389083329271 -4.053382372603498 0
0.8866025403784435 -3.649999999999999 0
9.177203918830076 -2.489234190210967 0
-9.13362624758571 -2.506544333519168 0
-0.4016381745349911 -0.6566408026475417 0
9.153025790599436 -8.494564187526773 0
-8.518961868438859 -9.187898246629253 0
-8.483187538457972 -0.7514984185511935 0
8.449572384505631 -0.961457189643057 0
-1.418026284072301 -0.7986028942560388 0
-0.9888417410275402 -1.450867794710743 0
-3.314478781565816 -0.8313470764078872 0
-3.967122674980593 -1.592832376713065 0
-2.963271459234194 -1.516786381587948 0
-3.426695125380041 -2.142326166011693 0
-2.305084049865972 -1.566843479168053 0
-2.69271336908609 -2.083140866058861 0
-2.998920129726708 -2.614994986967697 0
-3.591574502963419 -2.719279416389519 0
-3.149183471895652 -3.195374733999212 0
-3.751680121635087 -3.261289244979396 0
-3.422448779650808 -3.708558978157251 0
-3.93901414544073 -3.783296338324084 0
-3.606205572270428 -4.212271723160296 0
-4.124887122155253 -4.291359891199825 0
-3.770634979735024 -4.709520451535011 0
-4.320490101441375 -4.82392140133275 0
-3.266875371523787 -4.625915954432935 0
-3.41608839902846 -5.098321698471988 0
-2.929299079126249 -5.002160816558041 0
-3.078617544650361 -5.469655498897996 0
-4.705624263581161 -4.38026460519897 0
-4.913630608543286 -4.976687705642313 0
-2.795861773856767 -4.514510319523983 0
-2.559570366996075 -5.336691100060044 0
-2.755254197195769 -5.842093705414053 0
-2.201285621788464 -5.773502759796737 0
-3.271560348709903 -5.956151633514828 0
-5.337863478259455 -4.457187917792571 0
-5.56778142949693 -5.095887053156052 0
-2.624425357256247 -3.020586167940738 0
-2.429813515726939 -6.235034463032534 0
-1.918593295920389 -6.189058388286606 0
-5.116062767345669 -5.599096929629176 0
-5.797186107029238 -5.747657382302704 0
-2.100861314745273 -5.350007061119498 0
-2.133289409524785 -2.085133397217726 0
-6.020740794086358 -4.57346498708231 0
-2.106073515842468 -6.62533808773563 0
-1.596079644541742 -6.535378740912528 0
-1.457566873684107 -6.060720060866434 0
-1.147414377607415 -6.428380654267213 0
-5.759556971102726 -3.894741764676497 0
-4.158527594262701 -2.82936015596638 0
-0.9703837285791519 -5.978977164237066 0
-0.6989860822222198 -6.322079101341878 0
-0.8295114990611339 -6.757796657829999 0
-0.391036973698433 -6.636715410531219 0
-0.278687373746466 -6.170769283973227 0
0.02909866315692095 -6.506134984453759 0
-0.05773196965538938 -7.003815866072084 0
0.3719157686820924 -6.812902061883096 0
0.4517140221392296 -6.389668869314312 0
0.7749578573417139 -6.650554569484818 0
0.8294892123126143 -6.19544282933216 0
1.155191325871768 -6.496463547705721 0
1.211276570044451 -6.113248543394185 0
1.518234405345448 -6.362112607895559 0
1.570058770112444 -5.984405792810784 0
1.898102950495111 -6.232218513569681 0
1.95701186116358 -5.817713873783067 0
2.309329919552134 -6.092937308031393 0
2.385436495319335 -5.634628781209456 0
2.782886068503831 -5.941805622931092 0
2.857908422259357 -5.425782740380888 0
3.301340682612552 -5.768401787577076 0
3.369319727518992 -5.211660402199483 0
3.85448620817482 -5.56741917979715 0
2.89994504499991 -4.839013275234493 0
3.941582255818189 -4.962193995831394 0
4.478280990044098 -5.349736516911759 0
4.589215182695755 -4.683488141321061 0
2.67781308064119 -6.430416883576655 0
5.143980799154716 -5.108580935529053 0
5.248550034808491 -4.387235427370733 0
1.974913239615538 -5.348981229548729 0
3.996500876775039 -4.265209300644369 0
4.985086036823755 -5.822444320182411 0
1.462054891783254 -6.756384832623572 0
5.72058624430349 -5.571931790719422 0
3.806779174201071 -6.26581703385791 0
0.9993271149877928 -5.845674293528468 0
-1.23507300506215 -5.703485232151891 0
-5.305615017144969 -6.305701154033168 0
-6.070239066855963 -6.445360025819181 0
0.6943512698824233 -7.115977714450208 0
-6.49275196131299 -4.011501157850811 0
-2.645834113089508 -6.738111767645875 0
5.534434891469823 -6.346076428706822 0
-6.647719390873348 -4.630597512786565 0
6.327880121794825 -6.069486968189025 0
6.464623274731086 -5.27525001013124 0
-0.9252472822485071 -5.632365233270765 0
-1.116521298236569 -5.446519964094277 0
-1.758464864465291 -7.017332385720268 0
-5.530786042117947 -7.015774503859686 0
-4.781534702653051 -6.8646885805853 0
-6.207727329294202 -3.290556253580744 0
-7.000901891674837 -3.409994033351431 0
6.186072145640161 -6.871775167354879 0
5.3603919667935 -7.148027417508668 0
-0.8451109784239055 -5.379485419223233 0
-0.6734009931357328 -5.548074997045418 0
-0.7458484597993629 -4.993941580378035 0
-0.8596861066688208 -4.995431710544449 0
-6.316826671803975 -7.175823031740669 0
-6.86265540022773 -6.577722297933949 0
-0.9070374398130312 -4.890854647074334 0
-0.9890922669630344 -4.999927631129463 0
-1.041479560674536 -4.838972833400789 0
-1.151825191160687 -5.013062100045468 0
-1.222068221616407 -4.846669406210662 0
-1.343183591265679 -5.010938406839104 0
-1.415112012857668 -4.829159134336962 0
-1.302992911006632 -4.664268183632975 0
-1.504833308911365 -4.645179278124121 0
-1.356246899900619 -4.461536084544334 0
-1.591565806516435 -4.451447368287624 0
-1.465073736268277 -4.278237704347911 0
-1.690612030514247 -4.251765405898267 0
-1.556761281180725 -4.067657167528873 0
-1.796773126962001 -4.038084291068008 0
-1.616620997700583 -3.825827340596116 0
-1.90864361637517 -3.800219076626221 0
-1.744613338407917 -3.588883714716514 0
-1.497983412686177 -3.597945799316831 0
-1.583806232717766 -3.376295439632032 0
-1.828891063072501 -4.444255033221999 0
-1.341080749566987 -4.107974681085635 0
-1.847648911476418 -3.34028222530901 0
-1.673648913478642 -3.126306487530483 0
-1.399174328951766 -3.173134558066229 0
-1.501116666025851 -2.919810368221493 0
-2.074330693027086 -4.030681866622738 0
-1.678558143626968 -4.825756743536917 0
-7.152865134592812 -7.359635798522708 0
7.113481097088251 -5.788833768949777 0
-1.385958961780448 -5.450993394349035 0
7.241901421484511 -4.952044361984384 0
-2.210631123938907 -3.756632789171628 0
-1.765206830454386 -2.851036235773079 0
-1.564458301757935 -2.63637364568753 0
-1.284474454011036 -2.744921042835496 0
-1.354436503569247 -2.427480702167019 0
-1.079442714986741 -2.510036670793266 0
-0.6139396161468099 -5.350265657937394 0
-0.4511290352345758 -5.487563827768656 0
-6.698882722143788 -2.659582002902402 0
-5.904339791795346 -2.471847787321467 0
6.580219230463109 -4.435057100542037 0
7.368116897380157 -4.10332932539181 0
6.685845340437448 -3.569085491603872 0
7.500591256024816 -3.231730304241728 0
6.795848445458459 -2.682826634644172 0
5.97665127695406 -3.026560725868624 0
-1.17612423976715 -4.531421022660792 0
-4.988396000967533 -7.582892959424133 0
-4.259337649029222 -7.405898140620324 0
-1.164087858145163 -2.172100653140725 0
-0.8887509247272527 -2.33069757285232 0
-0.416873617461811 -5.279489533101339 0
-0.2449267915584493 -5.420824351565251 0
-0.2830415432714977 -5.640554221786909 0
-0.06622077716143612 -5.56688841042743 0
-0.05216156978507101 -5.356882965531564 0
0.1429010875087514 -5.452390607529307 0
0.1256775293631293 -5.738155538502008 0
0.3386880379297488 -5.616838107580416 0
0.3641423710147663 -5.386588420711693 0
0.5371814530236773 -5.511992108601569 0
0.5492871411835287 -5.307389957529733 0
0.7180399486545403 -5.41766523793213 0
0.6472821211681867 -5.005338997373108 0
7.624690100595896 -2.365163310678617 0
-2.397546218028306 -4.02330558102745 0
-2.544317605405282 -3.712293776804165 0
7.866061901401001 -5.486773953763183 0
0.7174012121289082 -5.23602214633666 0
0.887842538527825 -5.327792480990948 0
0.8749333516093509 -5.134685709700195 0
1.061897676243427 -5.246857791824634 0
1.064872181183146 -5.025554958591902 0
1.255312905085528 -5.163880961035285 0
1.274965436995309 -4.936800879844308 0
0.8866025403784437 -4.850000000000001 0
1.235993713093962 -5.392546899837533 0
1.474235698002112 -5.084612935438645 0
1.490199157755415 -4.833225013106724 0
1.285694803566068 -4.738717377417768 0
1.456244473906907 -4.570929390384856 0
1.723295439889953 -4.714843009716507 0
1.712881475804973 -4.434910531952285 0
1.474529449048161 -4.299967416662204 0
1.702674782708369 -4.159128098156067 0
1.44431760134609 -4.030929260149092 0
1.680091882151153 -3.894049750944322 0
1.96095634928169 -4.008639430577571 0
1.934311403933098 -3.68348036494922 0
2.257658855662542 -3.824065642342467 0
2.218451855388139 -3.441065136780415 0
1.839700788350962 -3.292458309265954 0
2.183738452207817 -3.016321697092804 0
1.75772320928963 -2.914397985714249 0
2.612812455467466 -3.154466602883539 0
1.478303218265222 -3.798284933139943 0
2.160264971231672 -2.579660842262916 0
1.705131833364934 -2.458891266698038 0
1.395855644751374 -2.74671164350669 0
1.278549060674006 -2.326130051894874 0
1.601260507864642 -2.069462857897992 0
1.186574361084808 -1.924635768488447 0
1.505426989976404 -1.615882273263163 0
1.042363805231728 -1.502422511040013 0
1.983711639741791 -4.576309326394987 0
0.7436483672486991 -1.874596575836529 0
1.2617929866705 -4.196379132655517 0
0.5534468672162225 -1.436835208336365 0
0.2999746298012752 -1.796513344330138 0
1.095657196734842 -2.603956667995619 0
1.946069672332721 -1.749787750506096 0
1.135922995966987 -2.846471020749926 0
-7.536534398333274 -2.773987182314171 0
-1.006700882297505 -2.778191215846347 0
7.773799075537972 -6.36313549033066 0
0.5288227516642257 -5.742104701525643 0
-7.777803108489104 -3.581607685680567 0
1.465680102288018 -3.078245018662297 0
6.080247978087012 -7.700925598496047 0
6.832923479504146 -7.410663914684925 0
-1.46792597992618 -2.100790517495628 0
-4.078258087465216 -6.693845526480516 0
-3.56161013379011 -7.237720369278931 0
-3.739089888842885 -7.933393598228095 0
-3.04970140465169 -7.770604832707384 0
-3.223269987150559 -8.47945033837715 0
-2.501732049578097 -8.25739087265605 0
-2.23526335791141 -4.271156433754168 0
1.402834731193634 -1.103899483284776 0
5.222692004098286 -7.922563380691537 0
4.553002681388742 -7.417421520411206 0
-0.7995449761370634 -5.102952849081607 0
6.071356816979696 -2.178209345259208 0
5.283638359086957 -2.490562362583488 0
-2.749064253917659 -4.040342954175341 0
-7.696962255730371 -6.725727965171702 0
-8.017082322884832 -7.515215979059451 0
-7.445564145906911 -5.928696041799883 0
-7.282027727411983 -2.044677753513006 0
0.3898250070322454 -5.209807110870563 0
-1.175800545773229 -2.928952212534925 0
-1.830540681801127 -5.57950327654379 0
0.2247368201407302 -5.263249969471457 0
0.4479072055115808 -2.129773346982065 0
0.7399185252268274 -2.196071447686449 0
0.1095612870571899 -2.054973085729889 0
-0.09292138572355743 -1.748818867151303 0
-0.2223316002283758 -2.098227632391782 0
-0.4252905814117781 -1.78754912893034 0
-2.530181108775142 -4.890420147749316 0
1.272202722559705 -4.39423880703824 0
1.096796474042532 -4.56362824663494 0
1.092802433326231 -4.296208078079805 0
1.079660940836865 -4.107059169998752 0
1.218601349221292 -4.008924408169106 0
2.251965894825571 -4.249267601642315 0
2.63732581933568 -4.017193300452577 0
1.077257986128487 -3.940343921656701 0
-7.414362858819684 -8.240379704253723 0
5.391361598895851 -1.633420949132651 0
4.632871563073057 -2.035701912278671 0
4.523780668594195 -2.785762821470397 0
3.903143263768865 -2.338108765820496 0
3.816749104465795 -3.023953893128076 0
3.204746010803975 -2.626222475886958 0
3.298235495455904 -1.954949838669003 0
1.301497704628017 -5.796046920164783 0
1.599098723118018 -5.601532923261087 0
0.9565064551587371 -2.748622403107256 0
0.8496131808858038 -2.570996657589118 0
1.52137642454472 -3.434480087221573 0
1.187476230653115 -3.840635055391293 0
0.8804625746011799 -5.58456109543783 0
-0.6712239777269995 -5.091676855805141 0
-2.367472334165099 -2.586037626251092 0
3.352937451610039 -0.6546764873527788 0
-2.340618728098397 -3.384437106264214 0
-1.251289419937765 -4.289203614686132 0
-1.152126395061451 -4.119148202991362 0
-1.216200123445155 -3.955257310201613 0
-1.078563370066663 -4.350447407368613 0
2.667063773752968 -2.21924270077711 0
0.1535107334592672 -6.072272769972896 0
1.099423936021972 -4.823714297667368 0
-0.8680476813997785 -2.586897219767638 0
0.5500195658047216 -5.114196411906303 0
-1.399831877609281 -3.914635751104271 0
-1.255497924385089 -3.787996670025366 0
-1.084869468657451 -3.831616498059559 0
-1.130251610064658 -3.665244642354597 0
-1.038830002322845 -3.991837483240408 0
-0.9119090503235974 -1.979296534758414 0
-1.127283158633651 -4.684493266563605 0
-1.022509036796466 -4.542703466216027 0
8.20624687328772 -3.784619461215576 0
-0.5835370371203569 -5.967101467677963 0
0.1247658249905083 -1.454833893328184 0
0.2099648941529812 -0.9132621938309695 0
-1.058306983792054 -5.149326977041301 0
4.365441756573481 -3.507822545526313 0
2.019466846061247 -4.923294738937785 0
2.335778901793082 -4.722143562685754 0
0.9026661838776501 -4.971368210054798 0
0.7884958470933708 -5.018832167752342 0
-2.235282892617468 -3.022313787798678 0
-0.9166463666714841 -4.767095399234945 0
-1.788092077246481 -5.2651714869296 0
-1.966414053143655 -4.990913907629905 0
-8.24733154987724 -2.19382450837796 0
-0.7171702729891851 -2.496064225959602 0
-0.6420806652708876 -2.282656462413981 0
-4.60996085463993 -6.14404829774132 0
-5.475651612328486 -0.8080591794700798 0
-4.994132727224683 -1.629096149994578 0
-5.90440540700493 -1.598681530022603 0
-2.413404490388616 -7.635416920261237 0
-1.858430827563221 -7.972726998744069 0
4.466543738738643 -8.193858480088025 0
3.820647794639221 -7.684344340789298 0
3.695013969422211 -8.420834808430445 0
3.107741248245198 -7.92881160942956 0
2.966396445308916 -8.659108197106946 0
2.415025065313767 -8.153479246160567 0
2.539780183332248 -7.487153097175724 0
1.896813517074251 -7.665587717608741 0
1.998629831510333 -7.039172160598904 0
3.216534806479435 -7.218257797016819 0
3.91046726811536 -6.98080846940641 0
4.570862379756715 -6.626586179809501 0
-1.892241137701027 -2.479641045899891 0
-5.531657640321468 -9.163572745748848 0
-6.037793054811258 -8.430631318393337 0
5.45545531132481 -9.180294664458803 0
0.2658718492682616 -5.097186396633005 0
0.1180724091590922 -5.141842753500594 0
0.02249429968722962 -5.055430628151703 0
1.023838921722933 -3.804359468319287 0
1.158272719295237 -3.673605227691231 0
-1.754211593384519 -1.706235500329881 0
-2.712106139454916 -8.989785326487032 0
0.5492363379255385 -9.15480998770073 0
0.9579521388048868 -8.414571770484731 0
0.1733911211349943 -8.387204277246964 0
-0.3003665046647417 -9.117196680792244 0
-0.5586227797868295 -8.304734739721408 0
-0.1374772013727326 -7.640552459954547 0
-0.7888523751146377 -7.634920411149152 0
0.6128269918543295 -7.698725551148671 0
2.425580858772672 -5.175056513885248 0
3.983353378119235 -1.686542956741666 0
5.144124219795029 -3.444221303285196 0
-0.1944439260955472 -5.217886287476395 0
-0.01813883903907189 -5.188260377987139 0
-1.348278550763375 -3.411084444054085 0
-1.190382475869069 -3.269780965506482 0
-1.133185688458899 -3.456635346588811 0
-1.027324895467567 -3.31987839527695 0
-1.027722089769975 -3.164076208803101 0
-4.445501469367266 -2.173462495730853 0
-0.8089751957465772 -2.936749892679803 0
-0.9209981345795196 -2.944095614572564 0
0.8790449114574133 -3.137538849495908 0
0.9923145778965214 -3.186179661091255 0
0.9971858808015042 -3.322455884550451 0
1.130199165361035 -3.254578347344705 0
1.125018638399135 -3.422910297793209 0
0.9649236101721549 -3.069018703206624 0
0.8092212652013374 -2.935031919692589 0
0.7574351942721005 -2.841286679367737 0
-0.75896995463929 -2.839807520251425 0
-0.6250933197519694 -2.639241126900577 0
0.6283241359113043 -2.670181000150059 0
0.6694708960648789 -2.556987148381972 0
0.5644042888737597 -2.459751617766815 0
-0.880039676268387 -3.139734752150021 0
0.9640611534441781 -2.364242667003643 0
3.177510850550725 -3.240374247421037 0
2.755022085860561 -1.59677819974984 0
7.436075129535691 -0.8580731476438537 0
-7.461243648204077 -0.7207389741153376 0
1.720040687400756 -8.329774452691947 0
-8.361537687720967 -5.965398114734364 0
-7.969681417274597 -5.204071440156928 0
7.436282257562617 -9.189114259621523 0
-1.002623041675334 -4.125415538924199 0
-4.445845173286149 -5.491108890656988 0
-3.915070176740182 -5.931466557759549 0
2.216952548686498 -8.934031197344435 0
9.202298436732727 -5.533840370451284 0
-9.205778365609895 -5.486460699120972 0
-9.181302742696523 -3.458238716206368 0
3.662480772753438 -3.667224796104849 0
3.420923832675197 -4.125788753291612 0
1.243427919677771 -7.767309820137097 0
-0.4563393736990074 -2.540872349820142 0
9.126677405908822 -3.457244847933756 0
-4.442965505120681 -8.160410452520097 0
9.155587207267917 -7.5156859091482 0
8.405348406308175 -8.035054944423587 0
0.4551497914621966 -2.522252188298457 0
-9.006861649757692 -7.532010630948166 0
-0.05780796709453043 -2.403792272533801 0
-0.1463227608145993 -2.309869011428296 0
-0.2936987892845224 -2.349920317707844 0
2.617340011472318 -4.405561179766992 0
-5.438690126184455 -3.20141947101433 0
-5.103610557712509 -2.504635177796097 0
-0.457754625932382 -2.399939739943044 0
5.908924652158042 -3.951331953002335 0
6.894813343354185 -1.70252891506779 0
6.86093720757937 -8.273446738546467 0
-3.358259487564871 -6.582309561990031 0
1.110985799088625 -3.066925134929164 0
-0.323604275731202 -5.137197921470075 0
-0.4767504499485792 -5.134312896568561 0
-5.079355932113972 -3.799591668023729 0
-4.739890842406098 -3.199685433437449 0
-6.612188803214648 -5.854405421276121 0
0.05405434639497456 -2.406375125673977 0
3.488561052186594 -9.255291598636617 0
0.2915672065935573 -7.276968265969433 0
0.4178870219124007 -2.372963682488722 0
0.2506743616519865 -2.24369889205152 0
-1.294111608490484 -3.608386908905704 0
-1.009694771584875 -3.580012277439766 0
1.346082956034126 -3.302305618813466 0
-3.498779022526574 -9.23437585451896 0
0.8889519194750093 -4.75 0
0.9847092630218097 -4.7 0
-0.8882804506909541 -4.551864759251582 0
0.8872862935882746 -4.55 0
-3.939054343939664 -5.22580102370051 0
-2.947604811728235 -3.70533061430134 0
-7.491376094720453 -9.072839499570382 0
8.044486468444651 -4.637657182903173 0
-0.8880703710267051 -4.350283507150527 0
0.2639185633381035 -2.435212825447028 0
4.34335019944155 -5.957001677539637 0
-0.1137856582656199 -5.841689106000987 0
0.337968169950374 -5.8384911131521 0
0.5431417973354993 -6.023084448179535 0
8.431875557869692 -9.107177828038004 0
-9.165163595236582 -8.502887617777526 0
0.8889162687906708 -4.35 0
0.9828941749485277 -4.399999999999999 0
-0.8931510220771253 -4.156784201974968 0
0.8889432621203555 -4.149999999999999 0
8.344165407343258 -2.888519744525982 0
1.283992479963411 -3.529375801142335 0
1.031599797157458 -3.566272942281111 0
-9.05844568341616 -1.519707741023273 0
9.220718064196507 -1.530978090049692 0
-0.5234649776782593 -7.14021855107624 0
6.979971221102865 -6.668074722975088 0
5.844480705936488 -4.78823120288247 0
0.2500000000000007 -4.986602540378444 0
-0.4647276927538533 -5.008536939257607 0
-0.6499999999999997 -4.986602540378444 0
-0.2543585260828635 -5.00148384158033 0
0.3500000000000007 -4.986602540378444 0
0.5500000000000004 -4.986602540378444 0
-1.004490867990679 -3.720533159463034 0
-0.902237475563112 -3.359136725432623 0
0.8851327202772484 -3.349999999999999 0
-1.883386687136742 -1.11920442643502 0
8.442772050486225 -6.995015841521116 0
0.885954045013181 -3.949999999999999 0
-0.9020404111667909 -3.949203309307319 0
-1.223963242420538 -5.217401481456095 0
-1.497071979578353 -5.155594558348626 0
-0.8866025403784434 -3.75 0
0.8934830914130487 -3.542399665786331 0
0.899623071670044 -3.746715256969179 0
2.225830606828789 -6.540980550235171 0
-6.234248861456517 -5.220466853396169 0
-5.213665606973682 -8.354485777642656 0
-0.8866025403784411 -3.549999999999998 0
1.674773366320663 -5.296389213763726 0
5.445862807122114 -0.8266152706779728 0
-7.220093170917194 -4.157492086371101 0
-4.480465602328765 -3.838976245966427 0
-0.2025393143170184 -5.084383666673809 0
1.479333680571374 -7.263965027379386 0
-0.7347680055047441 -5.224313436013613 0
-8.063146986716539 -4.496297414407621 0
1.717120545875992 -5.004592967048076 0
1.659799105403674 -3.638272232480082 0
-8.397539979185712 -3.062761419787648 0
0.9847758850844486 -4.199999999999999 0
3.183059700429336 -6.306971002242847 0
-1.291262564585279 -6.920766178132116 0
-1.382907089349058 -7.477531807611888 0
-3.906366096049088 -8.611726420713193 0
5.847074541795168 -8.481427943385214 0
1.108423239677574 -6.929557479019291 0
2.572657575235807 -6.92430429548215 0
-1.557622399138352 -5.691673813896124 0
-3.145355400334282 -4.156915118453229 0
-2.025466600648485 -3.526376285810741 0
-1.280101978242156 -1.776634548467132 0
-0.9985249819407137 -4.682924687260384 0
8.433671595624801 -1.969363819081456 0
3.071443688371469 -3.809952718447613 0
0.6789802303466342 -5.615365935105406 0
-0.8134435565817815 -2.738520453316602 0
-0.4099421439179458 -1.336307719596275 0
-2.892144332457398 -6.270740226319464 0
0.6963610449249031 -5.10106592028599 0
2.077647126068123 -2.164725373938639 0
2.583440073547003 -2.693503626275614 0
-0.9866122627320877 -4.407627516645672 0
0.8673042152571635 -1.004779129413047 0
1.820570537192587 -6.586173732984577 0
-0.5082273534771679 -5.712870480458577 0
-0.9773386410982059 -3.888951041515327 0
0.02251383872790248 -2.266144221283738 0
-1.71269667873144 -4.605868330519632 0
-1.906624757538242 -4.69111772473858 0
-1.937634629222975 -4.243991034747024 0
1.944270555798655 -4.27884034740709 0
-3.537557591752551 -5.554756538751239 0
-1.940937938518437 -3.068101782039663 0
-2.518843375266227 -4.286649864695113 0
2.662533920796003 -3.581186274721275 0
-1.28572820235274 -8.29793655851824 0
4.668766414129558 -4.057595343629535 0
1.271146798047264 -3.134311385084386 0
-8.268968064976349 -8.341871946373082 0
-0.4277596091123075 -2.230370098491408 0
1.109829952583398 -4.446928149976981 0
-0.9817252789187707 -3.449085991482124 0
-0.9789811098071698 -4.299697441462983 0
0.9897186624288513 -4.50175939943532 0
0.9936704580268039 -4.609703437872377 0
-6.601534857753228 -7.885923818964702 0
-2.396773009136336 -4.552867950384845 0
0.7366609152447632 -2.648053211883115 0
-0.04463259066470797 -4.980643194850322 0
7.619166017080947 -7.487329580642948 0
8.499339196738479 -6.006972757464877 0
-2.189051343406718 -4.777767137947871 0
0.9790547183947389 -3.443070345202904 0
-1.067596472563071 -4.22791891729097 0
-0.2624581888287941 -2.457742059404714 0
0.9676002029797961 -4.29924161561596 0
-1.998843248503445 -8.65973332539016 0
-0.09764553420664965 -5.085773143370796 0
-0.879517072880305 -5.225412870295847 0
-4.213915661214677 -3.382521483734747 0
-1.703445215568621 -5.042347721495815 0
1.433927868266423 -5.35258468087956 0
-1.198622039171848 -3.093457106582158 0
0.9854888846890044 -4.894127493262814 0
-8.469056361416248 -6.917793991336534 0
-5.756981826110199 -7.729991693414171 0
-2.963699333320818 -7.178391629232671 0
0.9621958842358641 -4.10141183399975 0
-2.703925297418749 -3.401185195364293 0
-0.3534557931762217 -5.866596911979532 0
-7.196909453288984 -5.109215363686523 0
-0.5681312582420361 -2.49242406502662 0
0.4000000000000005 -5.08074208209748 0
3.029008387002549 -6.71047478457444 0
1.000510385085316 -3.679123063072103 0
1.116777916265937 -4.673383130610366 0
1.853189711887697 -0.681558246217862 0
-3.933414652824728 -2.30955380669021 0
-1.608319601452602 -2.342680175987207 0
4.998439743318093 -8.625862102127622 0
-0.9432133368565369 -7.172387692777851 0
-0.5635914458406934 -2.01213616520436 0
-6.528855918069631 -2.038168443935963 0
-0.9172294812882555 -5.094610407618533 0
1.922714614953278 -1.24025670290421 0
0.9582284746864046 -2.934969535340899 0
7.767764510723241 -1.571317276422954 0
1.02903322825915 -5.438793809671203 0
1.119046937230811 -5.616127862287748 0
-0.8618175447689347 -2.847472939333348 0
-0.9348067370158848 -8.975813529459142 0
-0.7185539266444066 -1.701464340654151 0
3.409289484630339 -4.637020861345765 0
1.027672620332694 -7.355107118426931 0
1.275918268028454 -2.974532840586493 0
2.788939389674213 -9.334422341691504 0
-0.4047541160972085 -5.069319451337051 0
2.350503990877502 -1.829221747530798 0
6.05525725237007 -1.430743641951639 0
0.969035308717248 -4.803568358186037 0
-1.049691607931838 -3.001114134126759 0
1.335963767268087 -3.89524076534748 0
0.7276886575704851 -2.410420345271922 0
-9.267949192431123 -0.7320508075688767 0
9.267949192431123 -0.7320508075688767 0
9.26794919243112 -9.267949192431121 0
-9.267949192431123 -9.267949192431123 0
-0.7447438942828707 -2.64293751731628 0
-8.508641828132426 -3.862366092627655 0
-2.293338106043963 -7.09064834466685 0
0.8114180225095582 -2.735607624239104 0
-1.388542912382066 -1.270694823161696 0
0.08308198159688618 -5.280525334804012 0
-0.5992714117133812 -5.196086963738461 0
3.309451125647212 -1.299241904669796 0
1.222924390487425 -4.564637517010525 0
0.9810473367556962 -2.125775010565449 0
0.9712148520397618 -3.999999999999999 0
-0.7321592789121832 -5.767877868537957 0
0.1551870021074638 -2.355562771654909 0
3.009377980247485 -4.305755014756508 0
0.7303944237895478 -5.820506532029861 0
2.299271930396027 -1.458176430432399 0
-2.077991014271841 -3.268302237444461 0
0.9689736690565613 -3.908940677995197 0
0.6809898899889839 -0.5068030732376538 0
1.30071975805458 -0.5495066553588899 0
7.714832878283281 -8.455651562517783 0
8.527114615065459 -5.177658920785465 0
3.470994663997595 -6.681185560029662 0
-1.330625741421345 -2.998382540778833 0
-0.9444990668712209 -3.057247591306612 0
0.5786639009274633 -2.314472533203527 0
-2.105746073796583 -9.281360527671758 0
-2.082373026714697 -4.496859219132415 0
-1.771197544397823 -2.142896127386066 0
-7.92308436546274 -1.421319902021434 0
-1.090683459596988 -4.444241786267134 0
2.918099665840632 -2.934905178577935 0
-1.527474188579458 -4.972759312911485 0
0.04676493123664369 -4.965744246523198 0
-8.612210735739531 -5.0307966861521 0
0.8585618823656276 -2.839103632349517 0
-1.933255203588537 -0.5855985827674388 0
-2.280500342623406 -5.083297689510378 0
-1.021881279716188 -5.286985235865781 0
4.714054768161427 -1.3322007116113 0
-5.488073458139193 -2.058357771700766 0
-0.9502643112316144 -4.606942850339304 0
-0.964901599601422 -3.804193948881421 0
1.15735677013501 -3.54617372418243 0
-0.5688968650258719 -5.076884847723383 0
1.315725286268263 -3.721718920923772 0
-2.027629774437146 -2.786220293851255 0
-6.804122346300031 -8.530560833311267 0
-0.9344985426558072 -0.9188523390620489 0
-1.409562379806882 -3.750499373602711 0
-0.9664594661093469 -4.211276242670128 0
-4.611882615937143 -2.676785815732694 0
-1.779724721168372 -5.875062988080255 0
-1.91778539027973 -7.453971202670159 0
-1.190303452359191 -4.407838421773734 0
-3.477087803965293 -1.573640362322247 0
1.337912989267446 -5.551767857286142 0
-1.611857219908952 -5.428587306013434 0
1.614863004836947 -3.226091878617439 0
1.451411874110614 -3.615496494366915 0
-6.854623941992112 -1.416053145920337 0
-3.946583444190975 -0.9972227880301689 0
3.997256938470976 -0.9354191104852543 0
$EndNodes
$Elements
9 1714 1 1714
1 1 1 26
1 6 9 
2 9 10 
3 10 11 
4 11 12 
5 12 13 
6 13 14 
7 14 15 
8 15 16 
9 16 17 
10 17 18 
11 18 19 
12 19 20 
13 20 21 
14 21 22 
15 22 23 
16 23 24 
17 24 25 
18 25 26 
19 26 27 
20 27 28 
21 28 29 
22 29 30 
23 30 31 
24 31 32 
25 32 33 
26 33 5 
1 2 1 16
27 6 34 
28 34 35 
29 35 36 
30 36 37 
31 37 38 
32 38 39 
33 39 40 
34 40 41 
35 41 42 
36 42 43 
37 43 44 
38 44 45 
39 45 46 
40 46 47 
41 47 48 
42 48 7 
1 3 1 16
43 7 49 
44 49 50 
45 50 51 
46 51 52 
47 52 53 
48 53 54 
49 54 55 
50 55 56 
51 56 57 
52 57 58 
53 58 59 
54 59 60 
55 60 61 
56 61 62 
57 62 63 
58 63 8 
1 4 1 16
59 8 64 
60 64 65 
61 65 66 
62 66 67 
63 67 68 
64 68 69 
65 69 70 
66 70 71 
67 71 72 
68 72 73 
69 73 74 
70 74 75 
71 75 76 
72 76 77 
73 77 78 
74 78 5 
1 5 1 20
75 2 79 
76 79 80 
77 80 81 
78 81 82 
79 82 83 
80 83 84 
81 84 85 
82 85 86 
83 86 87 
84 87 88 
85 88 89 
86 89 90 
87 90 91 
88 91 92 
89 92 93 
90 93 94 
91 94 95 
92 95 96 
93 96 97 
94 97 1 
1 6 1 10
95 1 98 
96 98 99 
97 99 100 
98 100 101 
99 101 102 
100 102 103 
101 103 104 
102 104 105 
103 105 106 
104 106 4 
1 7 1 20
105 4 107 
106 107 108 
107 108 109 
108 109 110 
109 110 111 
110 111 112 
111 112 113 
112 113 114 
113 114 115 
114 115 116 
115 116 117 
116 117 118 
117 118 119 
118 119 120 
119 120 121 
120 121 122 
121 122 123 
122 123 124 
123 124 125 
124 125 3 
1 8 1 10
125 3 126 
126 126 127 
127 127 128 
128 128 129 
129 129 130 
130 130 131 
131 131 132 
132 132 133 
133 133 134 
134 134 2 
2 1 2 1580
135 278 527 267 
136 192 557 512 
137 397 410 408 
138 270 527 526 
139 290 527 278 
140 566 773 147 
141 349 508 483 
142 299 699 504 
143 197 473 220 
144 506 716 324 
145 196 197 194 
146 88 496 184 
147 217 610 585 
148 369 706 502 
149 192 512 151 
150 559 788 412 
151 348 698 490 
152 238 637 481 
153 442 621 444 
154 481 637 356 
155 484 706 367 
156 473 503 220 
157 466 676 265 
158 117 778 542 
159 193 196 194 
160 555 556 165 
161 410 467 408 
162 489 666 180 
163 585 610 420 
164 544 651 240 
165 264 724 549 
166 175 628 492 
167 454 500 403 
168 575 722 393 
169 549 607 264 
170 532 533 150 
171 491 699 299 
172 676 684 265 
173 244 809 271 
174 272 283 282 
175 324 716 715 
176 444 714 446 
177 360 484 367 
178 258 547 500 
179 433 721 213 
180 556 573 165 
181 484 659 362 
182 349 483 334 
183 609 692 417 
184 678 758 683 
185 220 503 475 
186 143 659 484 
187 270 636 527 
188 283 291 282 
189 404 442 407 
190 213 696 433 
191 413 737 652 
192 265 684 499 
193 392 416 397 
194 334 412 332 
195 250 466 265 
196 701 722 575 
197 499 547 265 
198 639 809 244 
199 471 809 702 
200 272 282 234 
201 569 795 508 
202 356 638 481 
203 395 707 480 
204 177 657 612 
205 160 744 723 
206 226 528 473 
207 400 804 404 
208 230 272 234 
209 240 619 544 
210 367 706 369 
211 196 473 197 
212 419 698 348 
213 443 820 442 
214 449 451 405 
215 195 226 196 
216 180 583 489 
217 488 622 554 
218 492 709 175 
219 621 807 714 
220 624 725 416 
221 508 759 569 
222 117 542 116 
223 416 782 397 
224 397 408 398 
225 167 195 193 
226 350 801 613 
227 533 534 150 
228 435 726 599 
229 149 518 516 
230 167 193 191 
231 524 681 268 
232 301 491 299 
233 539 540 159 
234 195 196 193 
235 275 781 546 
236 497 667 300 
237 48 504 47 
238 554 623 488 
239 495 704 496 
240 553 554 552 
241 723 778 160 
242 392 397 396 
243 484 760 143 
244 179 660 623 
245 199 756 631 
246 369 501 371 
247 8 502 63 
248 358 438 360 
249 490 509 349 
250 148 674 595 
251 379 449 382 
252 382 405 384 
253 324 748 506 
254 266 780 591 
255 565 773 611 
256 451 452 405 
257 362 706 484 
258 371 751 482 
259 476 741 479 
260 163 620 598 
261 545 651 544 
262 481 639 242 
263 7 297 48 
264 638 639 481 
265 268 711 524 
266 271 809 471 
267 184 843 87 
268 220 756 199 
269 63 502 362 
270 226 473 196 
271 355 441 358 
272 496 704 184 
273 616 758 673 
274 418 609 417 
275 442 444 407 
276 155 633 493 
277 379 803 449 
278 321 553 552 
279 624 853 469 
280 438 484 360 
281 149 618 518 
282 429 527 290 
283 440 847 216 
284 283 833 291 
285 480 708 395 
286 318 477 476 
287 490 769 509 
288 160 778 117 
289 259 780 266 
290 138 671 535 
291 190 779 490 
292 279 758 678 
293 416 853 624 
294 147 773 565 
295 412 439 332 
296 88 184 87 
297 181 670 648 
298 47 504 135 
299 189 831 87 
300 529 674 148 
301 209 448 214 
302 159 586 114 
303 673 758 279 
304 486 487 478 
305 168 802 576 
306 300 667 302 
307 404 443 442 
308 115 539 159 
309 291 335 292 
310 454 603 500 
311 599 726 641 
312 412 788 439 
313 214 225 216 
314 631 696 201 
315 500 603 258 
316 493 594 155 
317 339 653 607 
318 225 505 440 
319 183 649 507 
320 487 489 478 
321 238 757 637 
322 500 547 499 
323 351 550 354 
324 345 492 491 
325 478 489 477 
326 244 271 246 
327 477 741 476 
328 373 482 378 
329 471 776 271 
330 321 552 316 
331 297 504 48 
332 170 677 94 
333 150 654 532 
334 649 824 507 
335 165 661 555 
336 239 481 242 
337 230 234 231 
338 197 220 199 
339 334 483 412 
340 171 692 609 
341 371 482 373 
342 91 474 168 
343 167 191 85 
344 382 449 405 
345 207 213 209 
346 318 476 308 
347 723 744 515 
348 652 737 418 
349 405 453 384 
350 345 491 304 
351 490 698 190 
352 655 839 145 
353 527 636 267 
354 238 481 239 
355 574 804 398 
356 485 486 478 
357 546 619 275 
358 704 779 190 
359 403 718 454 
360 607 653 264 
361 433 696 631 
362 675 729 140 
363 577 608 170 
364 222 230 229 
365 335 350 336 
366 358 360 359 
367 528 823 766 
368 553 555 554 
369 541 546 540 
370 235 494 238 
371 304 491 301 
372 277 754 610 
373 308 476 306 
374 360 367 361 
375 266 590 498 
376 523 524 522 
377 86 167 85 
378 91 168 90 
379 474 802 168 
380 683 758 581 
381 539 541 540 
382 213 448 209 
383 335 801 350 
384 510 585 420 
385 234 494 235 
386 586 783 114 
387 517 526 429 
388 503 811 475 
389 543 544 541 
390 207 696 213 
391 225 440 216 
392 528 841 473 
393 610 705 277 
394 538 821 119 
395 497 833 667 
396 526 527 429 
397 350 550 351 
398 657 680 612 
399 318 485 478 
400 121 529 148 
401 462 463 461 
402 447 704 445 
403 489 583 477 
404 316 552 315 
405 439 818 332 
406 566 830 773 
407 306 345 304 
408 603 808 258 
409 355 800 441 
410 390 685 469 
411 544 546 541 
412 550 551 354 
413 258 808 780 
414 223 510 273 
415 225 506 505 
416 543 545 544 
417 680 745 550 
418 239 242 241 
419 620 635 621 
420 271 465 246 
421 554 622 552 
422 476 849 306 
423 501 751 371 
424 170 786 677 
425 460 462 461 
426 519 525 517 
427 242 639 244 
428 489 713 666 
429 734 822 739 
430 460 549 498 
431 207 209 208 
432 623 675 179 
433 540 579 159 
434 82 511 169 
435 185 640 597 
436 163 635 620 
437 310 318 308 
438 242 244 243 
439 664 737 413 
440 397 398 396 
441 739 822 716 
442 451 687 452 
443 441 532 438 
444 355 358 357 
445 521 522 519 
446 86 831 167 
447 511 513 169 
448 223 584 510 
449 460 461 459 
450 254 547 258 
451 351 354 353 
452 550 745 551 
453 148 625 120 
454 235 238 237 
455 116 542 539 
456 358 441 438 
457 87 843 189 
458 291 682 335 
459 404 407 406 
460 521 523 522 
461 546 781 592 
462 110 531 171 
463 299 504 297 
464 525 526 517 
465 199 631 201 
466 410 773 467 
467 151 512 511 
468 486 488 487 
469 432 549 460 
470 234 806 494 
471 579 592 523 
472 141 740 670 
473 400 404 402 
474 546 592 540 
475 88 813 496 
476 332 818 322 
477 314 315 312 
478 448 832 214 
479 161 606 602 
480 601 602 446 
481 318 478 477 
482 197 199 198 
483 193 850 191 
484 444 446 445 
485 557 605 512 
486 115 159 114 
487 118 160 117 
488 216 847 222 
489 382 384 383 
490 452 456 453 
491 522 525 519 
492 475 756 220 
493 190 843 704 
494 222 847 230 
495 116 539 115 
496 549 724 498 
497 548 857 834 
498 606 759 509 
499 320 321 316 
500 369 502 501 
501 266 591 590 
502 272 327 283 
503 350 612 550 
504 291 292 282 
505 611 773 410 
506 516 517 429 
507 84 151 83 
508 93 152 92 
509 206 584 212 
510 331 332 322 
511 373 378 377 
512 286 420 347 
513 387 685 390 
514 658 760 532 
515 432 460 459 
516 151 511 83 
517 483 703 412 
518 613 839 655 
519 273 510 286 
520 92 857 474 
521 112 149 111 
522 121 148 120 
523 203 207 205 
524 197 198 194 
525 544 619 546 
526 306 849 345 
527 244 246 245 
528 149 531 111 
529 187 824 649 
530 526 817 270 
531 119 821 118 
532 640 815 597 
533 172 530 529 
534 463 480 464 
535 522 694 525 
536 230 231 229 
537 654 658 532 
538 344 607 549 
539 465 466 248 
540 463 708 480 
541 648 762 181 
542 333 334 332 
543 824 855 437 
544 286 510 420 
545 156 796 683 
546 379 382 381 
547 523 681 524 
548 580 829 581 
549 195 537 226 
550 85 191 84 
551 92 474 91 
552 250 265 252 
553 173 588 580 
554 683 829 156 
555 112 618 149 
556 535 812 138 
557 194 850 193 
558 462 575 463 
559 452 805 456 
560 420 421 347 
561 310 485 318 
562 754 797 514 
563 423 514 425 
564 238 239 237 
565 467 798 468 
566 467 468 408 
567 623 729 675 
568 209 214 210 
569 218 614 211 
570 226 823 528 
571 700 774 188 
572 172 529 122 
573 428 429 290 
574 199 201 200 
575 191 856 84 
576 588 829 580 
577 408 574 398 
578 681 693 268 
579 194 765 192 
580 542 543 541 
581 246 465 248 
582 360 361 359 
583 438 760 484 
584 605 615 604 
585 534 828 150 
586 335 336 292 
587 344 549 432 
588 518 519 517 
589 212 584 223 
590 358 359 357 
591 242 243 241 
592 432 459 458 
593 508 795 483 
594 623 660 488 
595 367 369 368 
596 348 349 334 
597 584 630 585 
598 201 696 203 
599 552 622 315 
600 479 849 476 
601 152 857 92 
602 540 592 579 
603 234 235 231 
604 230 695 272 
605 95 577 170 
606 180 644 583 
607 513 835 338 
608 595 691 148 
609 418 737 609 
610 122 529 121 
611 632 726 457 
612 312 485 310 
613 455 722 701 
614 650 700 188 
615 423 754 514 
616 602 742 161 
617 392 853 416 
618 599 752 435 
619 509 759 508 
620 315 844 312 
621 155 594 101 
622 655 784 613 
623 498 724 266 
624 151 856 192 
625 344 432 431 
626 428 516 429 
627 578 855 824 
628 338 604 287 
629 148 691 625 
630 598 620 572 
631 384 394 385 
632 207 208 205 
633 214 832 225 
634 186 726 632 
635 498 590 462 
636 755 805 452 
637 287 604 232 
638 354 355 353 
639 447 779 704 
640 168 764 90 
641 520 521 519 
642 390 853 392 
643 214 216 215 
644 531 692 171 
645 314 316 315 
646 254 258 256 
647 449 728 451 
648 350 351 336 
649 274 616 224 
650 460 498 462 
651 87 831 86 
652 615 679 614 
653 512 513 511 
654 465 851 466 
655 662 740 141 
656 80 578 187 
657 82 169 81 
658 95 170 94 
659 412 777 559 
660 441 533 532 
661 83 511 82 
662 248 466 250 
663 463 464 461 
664 110 171 109 
665 123 172 122 
666 341 344 343 
667 174 587 103 
668 129 588 173 
669 111 531 110 
670 327 852 668 
671 201 203 202 
672 514 515 425 
673 390 392 391 
674 169 578 81 
675 384 789 394 
676 667 833 283 
677 216 222 221 
678 694 761 525 
679 185 597 596 
680 183 589 132 
681 84 856 151 
682 286 347 346 
683 397 782 410 
684 321 750 553 
685 468 790 574 
686 171 582 109 
687 488 660 487 
688 553 556 555 
689 834 857 152 
690 339 607 341 
691 320 322 321 
692 507 686 183 
693 584 585 510 
694 173 599 128 
695 188 577 96 
696 664 738 174 
697 96 577 95 
698 102 587 155 
699 156 588 130 
700 244 245 243 
701 131 589 156 
702 131 156 130 
703 102 155 101 
704 199 200 198 
705 413 738 664 
706 273 286 285 
707 456 535 470 
708 123 632 172 
709 493 646 594 
710 612 784 177 
711 604 614 232 
712 670 740 648 
713 312 844 485 
714 577 774 608 
715 338 605 604 
716 128 599 127 
717 494 757 238 
718 707 785 480 
719 281 653 339 
720 185 596 105 
721 387 390 389 
722 140 729 661 
723 850 856 191 
724 104 174 103 
725 129 173 128 
726 282 806 234 
727 487 713 489 
728 101 594 100 
729 104 596 174 
730 100 182 99 
731 133 183 132 
732 341 607 344 
733 490 779 769 
734 232 614 218 
735 548 834 459 
736 103 587 102 
737 130 588 129 
738 344 431 343 
739 303 304 301 
740 392 396 395 
741 420 610 421 
742 132 589 131 
743 81 578 80 
744 432 458 431 
745 109 582 108 
746 100 594 182 
747 516 518 517 
748 192 856 850 
749 265 547 252 
750 80 187 79 
751 97 188 96 
752 119 625 538 
753 296 616 274 
754 105 596 104 
755 155 816 633 
756 106 185 105 
757 125 186 124 
758 492 699 491 
759 421 423 422 
760 539 542 541 
761 445 704 495 
762 323 717 426 
763 167 663 195 
764 338 770 513 
765 452 453 405 
766 376 684 676 
767 192 850 194 
768 621 714 444 
769 461 548 459 
770 337 338 287 
771 305 306 304 
772 281 339 328 
773 259 266 261 
774 671 762 535 
775 434 436 296 
776 171 609 582 
777 661 729 555 
778 473 841 503 
779 186 632 124 
780 630 719 585 
781 113 618 112 
782 222 229 228 
783 209 210 208 
784 596 664 174 
785 613 784 612 
786 382 383 381 
787 246 248 247 
788 108 640 107 
789 506 748 505 
790 327 667 283 
791 594 646 182 
792 201 202 200 
793 580 581 436 
794 482 763 378 
795 737 815 609 
796 378 803 379 
797 246 247 245 
798 350 613 612 
799 463 826 708 
800 732 763 627 
801 417 428 290 
802 307 308 306 
803 339 341 340 
804 480 576 464 
805 780 808 591 
806 127 641 126 
807 289 290 278 
808 378 379 377 
809 286 346 285 
810 436 616 296 
811 206 630 584 
812 579 586 159 
813 99 650 98 
814 134 649 133 
815 354 800 355 
816 521 579 523 
817 341 343 342 
818 168 810 772 
819 203 205 204 
820 591 701 590 
821 309 310 308 
822 369 371 370 
823 502 706 362 
824 421 422 347 
825 518 520 519 
826 462 590 575 
827 419 823 537 
828 94 677 93 
829 703 777 412 
830 367 368 361 
831 339 340 328 
832 271 776 465 
833 327 668 667 
834 423 425 424 
835 203 204 202 
836 537 698 419 
837 398 804 400 
838 556 819 573 
839 179 669 660 
840 192 765 557 
841 343 363 342 
842 431 608 343 
843 592 681 523 
844 456 470 453 
845 434 580 436 
846 269 281 280 
847 582 640 108 
848 323 426 364 
849 341 342 340 
850 239 241 240 
851 604 615 614 
852 599 641 127 
853 513 855 169 
854 93 677 152 
855 203 696 207 
856 124 632 123 
857 426 822 734 
858 530 674 529 
859 281 328 326 
860 257 270 255 
861 410 782 611 
862 183 686 589 
863 9 573 10 
864 366 413 326 
865 289 417 290 
866 253 688 262 
867 311 312 310 
868 213 734 448 
869 635 807 621 
870 532 760 438 
871 343 608 363 
872 263 267 260 
873 325 457 435 
874 628 836 492 
875 235 237 236 
876 469 853 390 
877 347 595 346 
878 288 415 411 
879 133 649 183 
880 182 650 99 
881 342 493 340 
882 11 558 12 
883 212 223 219 
884 47 135 46 
885 66 137 65 
886 615 747 679 
887 610 754 421 
888 605 846 615 
889 668 852 505 
890 236 689 231 
891 295 296 274 
892 521 586 579 
893 404 406 402 
894 520 586 521 
895 466 749 676 
896 325 434 296 
897 436 758 616 
898 289 418 417 
899 231 689 229 
900 120 625 119 
901 46 628 45 
902 67 629 66 
903 281 326 280 
904 395 708 391 
905 114 783 113 
906 328 366 326 
907 32 560 33 
908 227 232 218 
909 295 753 733 
910 504 699 135 
911 29 567 30 
912 614 679 211 
913 597 664 596 
914 223 273 224 
915 269 278 267 
916 273 285 274 
917 690 723 515 
918 277 797 754 
919 325 435 434 
920 280 289 278 
921 295 325 296 
922 45 175 44 
923 68 176 67 
924 313 314 312 
925 355 357 356 
926 214 215 210 
927 608 786 170 
928 453 789 384 
929 605 835 512 
930 269 280 278 
931 365 475 329 
932 602 727 446 
933 261 263 260 
934 466 851 749 
935 263 269 267 
936 667 668 302 
937 261 264 263 
938 227 279 276 
939 411 507 437 
940 384 385 383 
941 411 437 337 
942 455 603 454 
943 188 774 577 
944 444 445 407 
945 533 551 534 
946 69 642 68 
947 44 634 43 
948 331 333 332 
949 288 337 287 
950 516 767 149 
951 285 295 274 
952 391 708 393 
953 206 211 204 
954 557 765 233 
955 585 719 217 
956 375 776 775 
957 288 411 337 
958 423 424 422 
959 340 633 328 
960 208 630 205 
961 255 688 253 
962 259 261 260 
963 212 218 211 
964 371 373 372 
965 43 142 42 
966 70 139 69 
967 223 224 219 
968 363 646 342 
969 205 206 204 
970 216 221 215 
971 222 228 221 
972 168 772 764 
973 273 274 224 
974 677 786 458 
975 276 287 232 
976 259 260 257 
977 219 227 218 
978 770 855 513 
979 14 569 15 
980 505 852 440 
981 303 305 304 
982 524 694 522 
983 492 836 699 
984 269 653 281 
985 212 219 218 
986 276 288 287 
987 590 701 575 
988 351 353 352 
989 422 595 347 
990 545 723 690 
991 393 826 575 
992 206 212 211 
993 71 645 70 
994 42 644 41 
995 319 320 316 
996 248 250 249 
997 266 724 261 
998 1 792 97 
999 98 792 1 
1000 79 791 2 
1001 2 791 134 
1002 375 851 776 
1003 256 259 257 
1004 4 793 106 
1005 107 793 4 
1006 3 794 125 
1007 126 794 3 
1008 469 647 624 
1009 257 636 270 
1010 413 652 326 
1011 328 633 366 
1012 342 646 493 
1013 486 622 488 
1014 253 262 251 
1015 118 821 160 
1016 493 633 340 
1017 305 307 306 
1018 41 180 40 
1019 72 178 71 
1020 217 705 610 
1021 53 177 52 
1022 58 150 57 
1023 55 144 54 
1024 51 145 50 
1025 52 655 51 
1026 54 657 53 
1027 61 143 60 
1028 227 276 232 
1029 616 673 224 
1030 288 678 415 
1031 464 548 461 
1032 267 636 260 
1033 289 652 418 
1034 450 763 732 
1035 425 538 424 
1036 456 812 535 
1037 60 658 59 
1038 256 257 255 
1039 40 666 39 
1040 73 665 72 
1041 595 674 346 
1042 475 697 329 
1043 229 284 228 
1044 62 659 61 
1045 545 768 651 
1046 181 762 671 
1047 59 654 58 
1048 307 309 308 
1049 398 400 399 
1050 200 233 198 
1051 263 653 269 
1052 326 652 280 
1053 233 846 557 
1054 390 391 389 
1055 280 652 289 
1056 248 249 247 
1057 537 823 226 
1058 537 799 698 
1059 535 536 470 
1060 39 136 38 
1061 74 138 73 
1062 264 653 263 
1063 482 787 627 
1064 252 547 254 
1065 337 770 338 
1066 250 252 251 
1067 345 825 492 
1068 20 600 21 
1069 63 362 62 
1070 632 842 172 
1071 38 669 37 
1072 75 671 74 
1073 235 236 231 
1074 251 672 249 
1075 66 629 137 
1076 135 628 46 
1077 260 636 257 
1078 411 686 507 
1079 65 626 64 
1080 538 625 424 
1081 562 740 662 
1082 571 790 468 
1083 373 377 376 
1084 37 179 36 
1085 76 181 75 
1086 254 256 255 
1087 50 656 49 
1088 333 348 334 
1089 525 817 526 
1090 369 370 368 
1091 34 661 6 
1092 77 670 76 
1093 36 675 35 
1094 415 686 411 
1095 322 818 321 
1096 205 630 206 
1097 252 254 253 
1098 518 618 520 
1099 446 447 445 
1100 270 688 255 
1101 227 673 279 
1102 314 319 316 
1103 250 251 249 
1104 681 781 693 
1105 35 140 34 
1106 78 141 77 
1107 239 240 237 
1108 309 311 310 
1109 325 733 457 
1110 535 762 536 
1111 392 395 391 
1112 176 629 67 
1113 45 628 175 
1114 379 381 380 
1115 149 767 531 
1116 686 796 589 
1117 348 490 349 
1118 555 729 554 
1119 524 711 672 
1120 254 255 253 
1121 243 275 241 
1122 612 680 550 
1123 204 679 202 
1124 228 277 221 
1125 330 331 322 
1126 672 694 524 
1127 302 303 301 
1128 580 752 173 
1129 5 662 78 
1130 252 253 251 
1131 582 815 640 
1132 23 635 24 
1133 279 678 276 
1134 311 313 312 
1135 359 414 357 
1136 49 293 7 
1137 219 673 227 
1138 355 356 353 
1139 300 301 299 
1140 247 268 245 
1141 175 634 44 
1142 68 642 176 
1143 398 399 396 
1144 536 762 648 
1145 276 678 288 
1146 388 454 386 
1147 506 739 716 
1148 224 673 219 
1149 717 822 426 
1150 211 679 204 
1151 678 683 415 
1152 417 692 428 
1153 431 786 608 
1154 492 825 709 
1155 215 217 210 
1156 262 672 251 
1157 363 700 646 
1158 701 808 455 
1159 293 472 430 
1160 237 651 236 
1161 233 747 615 
1162 241 619 240 
1163 415 796 686 
1164 676 749 376 
1165 173 752 599 
1166 457 842 632 
1167 307 317 309 
1168 174 738 587 
1169 733 753 530 
1170 21 617 22 
1171 90 814 89 
1172 574 790 443 
1173 43 634 142 
1174 139 642 69 
1175 364 433 365 
1176 434 752 580 
1177 507 824 437 
1178 433 631 365 
1179 256 780 259 
1180 425 744 538 
1181 311 323 313 
1182 407 495 406 
1183 514 848 515 
1184 285 753 295 
1185 357 638 356 
1186 323 364 329 
1187 421 754 423 
1188 351 352 336 
1189 294 297 7 
1190 313 697 314 
1191 641 726 186 
1192 589 796 156 
1193 137 626 65 
1194 10 146 11 
1195 31 147 32 
1196 704 843 184 
1197 70 645 139 
1198 142 644 42 
1199 450 731 728 
1200 371 372 370 
1201 728 731 643 
1202 543 723 545 
1203 606 727 602 
1204 320 330 322 
1205 89 813 88 
1206 364 365 329 
1207 403 499 380 
1208 533 800 551 
1209 620 621 442 
1210 323 329 313 
1211 674 753 346 
1212 399 707 396 
1213 497 771 746 
1214 563 564 562 
1215 608 774 363 
1216 561 562 166 
1217 64 374 8 
1218 728 803 450 
1219 576 810 168 
1220 13 153 14 
1221 28 154 29 
1222 646 700 182 
1223 349 509 508 
1224 33 166 5 
1225 6 165 9 
1226 272 695 327 
1227 298 497 300 
1228 30 566 31 
1229 353 637 352 
1230 557 846 605 
1231 229 689 284 
1232 293 294 7 
1233 373 376 372 
1234 450 803 763 
1235 303 324 305 
1236 692 767 428 
1237 41 644 180 
1238 178 645 71 
1239 208 719 630 
1240 275 619 241 
1241 501 502 8 
1242 394 685 385 
1243 587 816 155 
1244 298 299 297 
1245 388 455 454 
1246 182 700 650 
1247 12 568 13 
1248 714 807 617 
1249 404 804 443 
1250 468 735 571 
1251 10 573 146 
1252 381 403 380 
1253 401 409 399 
1254 468 798 735 
1255 400 402 401 
1256 379 380 377 
1257 581 758 436 
1258 177 655 52 
1259 144 657 54 
1260 53 657 177 
1261 51 655 145 
1262 240 651 237 
1263 414 639 638 
1264 543 778 723 
1265 663 799 537 
1266 180 666 40 
1267 72 665 178 
1268 293 656 472 
1269 300 302 301 
1270 414 638 357 
1271 56 736 55 
1272 143 658 60 
1273 512 835 513 
1274 551 800 354 
1275 172 842 530 
1276 330 528 331 
1277 391 393 389 
1278 61 659 143 
1279 356 637 353 
1280 554 729 623 
1281 422 691 595 
1282 627 763 482 
1283 58 654 150 
1284 454 718 386 
1285 368 471 361 
1286 385 387 386 
1287 625 691 424 
1288 314 697 319 
1289 387 389 388 
1290 403 500 499 
1291 558 568 12 
1292 113 783 618 
1293 33 560 166 
1294 640 793 107 
1295 442 820 620 
1296 225 832 506 
1297 59 658 654 
1298 175 709 634 
1299 396 707 395 
1300 195 663 537 
1301 24 163 25 
1302 17 161 18 
1303 169 855 578 
1304 480 785 576 
1305 372 375 370 
1306 562 662 166 
1307 138 665 73 
1308 39 666 136 
1309 262 694 672 
1310 27 570 28 
1311 319 720 320 
1312 451 743 687 
1313 261 724 264 
1314 689 690 284 
1315 424 691 422 
1316 145 656 50 
1317 611 782 725 
1318 30 567 566 
1319 457 726 435 
1320 515 848 690 
1321 578 824 187 
1322 26 158 27 
1323 15 157 16 
1324 362 659 62 
1325 385 386 383 
1326 145 839 656 
1327 426 721 364 
1328 377 684 376 
1329 364 721 433 
1330 19 162 20 
1331 146 558 11 
1332 575 826 463 
1333 165 573 9 
1334 298 300 299 
1335 136 669 38 
1336 74 671 138 
1337 400 401 399 
1338 245 693 243 
1339 641 794 126 
1340 200 747 233 
1341 647 840 536 
1342 16 593 17 
1343 769 779 447 
1344 387 388 386 
1345 25 598 26 
1346 37 669 179 
1347 181 671 75 
1348 366 738 413 
1349 147 560 32 
1350 468 574 408 
1351 531 767 692 
1352 295 733 325 
1353 472 682 430 
1354 551 745 534 
1355 642 643 176 
1356 134 791 649 
1357 650 792 98 
1358 409 707 399 
1359 154 567 29 
1360 515 744 425 
1361 624 647 564 
1362 277 705 221 
1363 428 767 516 
1364 202 747 200 
1365 179 675 36 
1366 76 670 181 
1367 333 419 348 
1368 329 697 313 
1369 198 765 194 
1370 55 736 144 
1371 542 778 543 
1372 689 768 690 
1373 645 687 139 
1374 672 711 249 
1375 321 818 750 
1376 156 829 588 
1377 679 747 202 
1378 560 565 561 
1379 18 742 19 
1380 141 670 77 
1381 35 675 140 
1382 530 753 674 
1383 565 611 561 
1384 648 740 564 
1385 346 753 285 
1386 435 752 434 
1387 459 834 458 
1388 258 780 256 
1389 210 719 208 
1390 361 702 359 
1391 153 569 14 
1392 581 829 683 
1393 499 684 380 
1394 187 791 79 
1395 97 792 188 
1396 49 656 293 
1397 597 815 737 
1398 450 732 731 
1399 563 624 564 
1400 688 761 262 
1401 106 793 185 
1402 125 794 186 
1403 509 727 606 
1404 221 705 215 
1405 144 680 657 
1406 243 693 275 
1407 162 742 602 
1408 414 809 639 
1409 215 705 217 
1410 233 765 198 
1411 597 737 664 
1412 564 740 562 
1413 137 627 626 
1414 293 430 294 
1415 446 769 447 
1416 615 846 233 
1417 437 770 337 
1418 677 834 152 
1419 449 803 728 
1420 631 756 365 
1421 158 598 572 
1422 140 661 34 
1423 553 750 556 
1424 15 569 157 
1425 31 566 147 
1426 359 702 414 
1427 249 711 247 
1428 690 768 545 
1429 6 661 165 
1430 561 563 562 
1431 715 716 317 
1432 451 728 643 
1433 150 828 57 
1434 380 684 377 
1435 217 719 210 
1436 464 802 548 
1437 764 814 90 
1438 320 720 330 
1439 78 662 141 
1440 311 717 323 
1441 458 834 677 
1442 749 851 375 
1443 166 662 5 
1444 618 783 520 
1445 268 693 245 
1446 383 718 381 
1447 230 847 695 
1448 583 741 477 
1449 305 715 307 
1450 307 715 317 
1451 13 568 153 
1452 560 561 166 
1453 495 496 406 
1454 727 769 446 
1455 458 786 431 
1456 185 793 640 
1457 666 713 136 
1458 291 746 682 
1459 660 837 487 
1460 336 712 292 
1461 402 427 401 
1462 284 848 797 
1463 381 718 403 
1464 385 685 387 
1465 426 734 721 
1466 682 746 430 
1467 64 626 374 
1468 643 743 451 
1469 284 797 228 
1470 186 794 641 
1471 158 572 571 
1472 162 602 601 
1473 294 298 297 
1474 247 711 268 
1475 374 501 8 
1476 649 791 187 
1477 188 792 650 
1478 365 756 475 
1479 262 761 694 
1480 393 722 389 
1481 736 745 144 
1482 298 771 497 
1483 559 777 558 
1484 763 803 378 
1485 22 164 23 
1486 28 570 154 
1487 317 717 309 
1488 366 816 738 
1489 561 611 563 
1490 486 844 622 
1491 309 717 311 
1492 146 559 558 
1493 746 833 497 
1494 505 748 668 
1495 162 600 20 
1496 147 565 560 
1497 469 854 647 
1498 485 844 486 
1499 471 702 361 
1500 609 815 582 
1501 176 731 629 
1502 534 745 736 
1503 647 854 840 
1504 738 816 587 
1505 143 760 658 
1506 629 732 137 
1507 167 831 663 
1508 57 828 56 
1509 761 817 525 
1510 528 766 331 
1511 802 857 548 
1512 24 635 163 
1513 568 703 153 
1514 634 730 142 
1515 388 722 455 
1516 520 783 586 
1517 506 832 739 
1518 487 837 713 
1519 324 715 305 
1520 441 800 533 
1521 303 827 324 
1522 479 741 730 
1523 600 617 21 
1524 764 772 427 
1525 389 722 388 
1526 338 835 605 
1527 158 570 27 
1528 352 712 336 
1529 406 710 402 
1530 56 828 736 
1531 591 808 701 
1532 324 827 748 
1533 644 845 583 
1534 445 495 407 
1535 386 718 383 
1536 455 808 603 
1537 17 593 161 
1538 228 797 277 
1539 144 745 680 
1540 163 598 25 
1541 292 806 282 
1542 139 743 642 
1543 157 593 16 
1544 236 768 689 
1545 26 598 158 
1546 576 802 464 
1547 363 774 700 
1548 656 839 472 
1549 270 817 688 
1550 647 838 564 
1551 475 811 697 
1552 536 838 647 
1553 161 742 18 
1554 709 730 634 
1555 776 851 465 
1556 317 822 717 
1557 788 819 556 
1558 733 842 457 
1559 375 775 370 
1560 470 789 453 
1561 496 710 406 
1562 622 844 315 
1563 19 742 162 
1564 592 781 681 
1565 721 734 213 
1566 530 842 733 
1567 443 804 574 
1568 720 811 503 
1569 570 735 154 
1570 699 836 135 
1571 331 766 333 
1572 651 768 236 
1573 158 571 570 
1574 178 755 645 
1575 374 751 501 
1576 564 838 648 
1577 611 725 563 
1578 734 739 448 
1579 697 811 319 
1580 668 827 302 
1581 648 838 536 
1582 683 796 415 
1583 633 816 366 
1584 572 790 571 
1585 372 749 375 
1586 376 749 372 
1587 394 854 685 
1588 472 801 682 
1589 643 731 176 
1590 142 845 644 
1591 750 788 556 
1592 593 606 161 
1593 798 830 567 
1594 698 799 190 
1595 164 635 23 
1596 687 743 139 
1597 137 732 627 
1598 333 766 419 
1599 642 743 643 
1600 797 848 514 
1601 177 784 655 
1602 563 725 624 
1603 744 821 538 
1604 401 772 409 
1605 637 757 352 
1606 669 837 660 
1607 712 806 292 
1608 645 755 687 
1609 402 710 427 
1610 22 617 164 
1611 746 771 430 
1612 712 757 494 
1613 775 776 471 
1614 370 775 368 
1615 665 805 178 
1616 291 833 746 
1617 368 775 471 
1618 474 857 802 
1619 319 811 720 
1620 162 601 600 
1621 479 730 709 
1622 558 777 568 
1623 720 841 330 
1624 157 759 593 
1625 135 836 628 
1626 731 732 629 
1627 663 831 189 
1628 302 827 303 
1629 189 799 663 
1630 600 714 617 
1631 799 843 190 
1632 427 814 764 
1633 430 771 294 
1634 716 822 317 
1635 138 812 665 
1636 693 781 275 
1637 708 826 393 
1638 713 837 136 
1639 536 840 470 
1640 748 827 668 
1641 352 757 712 
1642 509 769 727 
1643 330 841 528 
1644 294 771 298 
1645 695 852 327 
1646 710 814 427 
1647 427 772 401 
1648 685 854 469 
1649 567 830 566 
1650 494 806 712 
1651 687 755 452 
1652 690 848 284 
1653 741 845 730 
1654 345 849 825 
1655 702 809 414 
1656 825 849 479 
1657 682 801 335 
1658 409 785 707 
1659 154 798 567 
1660 571 735 570 
1661 470 840 789 
1662 409 810 785 
1663 736 828 534 
1664 573 819 146 
1665 178 805 755 
1666 153 795 569 
1667 559 819 788 
1668 725 782 416 
1669 688 817 761 
1670 583 845 741 
1671 164 807 635 
1672 627 787 626 
1673 568 777 703 
1674 496 813 710 
1675 136 837 669 
1676 626 787 374 
1677 472 839 801 
1678 601 714 600 
1679 840 854 394 
1680 374 787 751 
1681 665 812 805 
1682 703 795 153 
1683 467 830 798 
1684 730 845 142 
1685 146 819 559 
1686 593 759 606 
1687 750 818 439 
1688 620 820 572 
1689 503 841 720 
1690 773 830 467 
1691 772 810 409 
1692 785 810 576 
1693 695 847 440 
1694 440 852 695 
1695 801 839 613 
1696 735 798 154 
1697 813 814 710 
1698 160 821 744 
1699 439 788 750 
1700 739 832 448 
1701 483 795 703 
1702 437 855 770 
1703 709 825 479 
1704 766 823 419 
1705 751 787 482 
1706 617 807 164 
1707 572 820 790 
1708 789 840 394 
1709 189 843 799 
1710 805 812 456 
1711 790 820 443 
1712 89 814 813 
1713 569 759 157 
1714 446 714 601 
$EndElements
