$MeshFormat
4.1 0 8
$EndMeshFormat
$PhysicalNames
6
1 9 "top"
1 10 "left"
1 11 "right"
1 12 "bottom"
1 13 "wall"
2 14 "ground"
$EndPhysicalNames
$Entities
9 8 1 0
1 -10 0 0 0 
2 10 0 0 0 
3 10 -10 0 0 
4 -10 -10 0 0 
5 0 -4 0 0 
6 0 -2.5 0 0 
7 0 -5.5 0 0 
8 -1 -4 0 0 
9 1 -4 0 0 
1 -10.0000001 -1e-07 -1e-07 10.0000001 1e-07 1e-07 1 9 2 1 -2 
2 9.999999900000001 -10.0000001 -1e-07 10.0000001 1.000000002804313e-07 1e-07 1 11 2 2 -3 
3 -10.0000001 -10.0000001 -1e-07 10.0000001 -9.999999900000001 1e-07 1 12 2 3 -4 
4 -10.0000001 -10.0000001 -1e-07 -9.999999900000001 1.000000002804313e-07 1e-07 1 10 2 4 -1 
5 -1.0000001 -4.0000001 -1e-07 9.999999972531981e-08 -2.4999999 1e-07 1 13 2 8 -6 
6 -1.000000001138979e-07 -4.000000099999999 -1e-07 1.0000001 -2.4999999 1e-07 1 13 2 6 -9 
7 -9.999999972531981e-08 -5.5000001 -1e-07 1.0000001 -3.9999999 1e-07 1 13 2 9 -7 
8 -1.0000001 -5.5000001 -1e-07 1.000000001138979e-07 -3.9999999 1e-07 1 13 2 7 -8 
1 -10.0000001 -10.0000001 -1e-07 10.0000001 1.000000002804313e-07 1e-07 1 14 8 4 1 2 3 -8 -7 -6 -5 
$EndEntities
$Nodes
17 871 1 871
0 1 0 1
1
-10 0 0
0 2 0 1
2
10 0 0
0 3 0 1
3
10 -10 0
0 4 0 1
4
-10 -10 0
0 6 0 1
5
0 -2.5 0
0 7 0 1
6
0 -5.5 0
0 8 0 1
7
-1 -4 0
0 9 0 1
8
1 -4 0
1 1 0 19
9
10
11
12
13
14
15
16
17
18
19
20
21
22
23
24
25
26
27
-9 0 0
-8 0 0
-7 0 0
-6 0 0
-5 0 0
-4 0 0
-3 0 0
-2 0 0
-1 0 0
0 0 0
1 0 0
2 0 0
3 0 0
4 0 0
5 0 0
6 0 0
7 0 0
8 0 0
9 0 0
1 2 0 9
28
29
30
31
32
33
34
35
36
10 -1 0
10 -2 0
10 -3 0
10 -4 0
10 -5 0
10 -6 0
10 -7 0
10 -8 0
10 -9 0
1 3 0 19
37
38
39
40
41
42
43
44
45
46
47
48
49
50
51
52
53
54
55
9 -10 0
8 -10 0
7 -10 0
6 -10 0
5 -10 0
4 -10 0
3 -10 0
2 -10 0
1 -10 0
0 -10 0
-1 -10 0
-2 -10 0
-3 -10 0
-4 -10 0
-5 -10 0
-6 -10 0
-7 -10 0
-8 -10 0
-9 -10 0
1 4 0 9
56
57
58
59
60
61
62
63
64
-10 -9 0
-10 -8 0
-10 -7 0
-10 -6 0
-10 -5 0
-10 -4 0
-10 -3 0
-10 -2 0
-10 -1 0
1 5 0 19
65
66
67
68
69
70
71
72
73
74
75
76
77
78
79
80
81
82
83
-0.997814025464019 -3.9008731427846 0
-0.9912444058188419 -3.801940191232762 0
-0.9802559007217094 -3.703400386926065 0
-0.964789278611823 -3.605463933562119 0
-0.9447606159505137 -3.508358258754596 0
-0.9200604223921823 -3.412335263026683 0
-0.8905527353249061 -3.317679981524807 0
-0.8560744635712435 -3.224721241199195 0
-0.8164354450250794 -3.133844921945223 0
-0.7714200287275039 -3.04551057450822 0
-0.720791634672702 -2.96027229833087 0
-0.6643024476066592 -2.878804173779819 0
-0.6017120115651112 -2.801930313353559 0
-0.5328201304585868 -2.730657219542053 0
-0.4575213043944238 -2.666202010776461 0
-0.375887689394423 -2.610002157856397 0
-0.2882825374783588 -2.563681911338461 0
-0.1954874955883439 -2.528940708909276 0
-0.09879643920638752 -2.507338503511157 0
1 6 0 19
84
85
86
87
88
89
90
91
92
93
94
95
96
97
98
99
100
101
102
0.09879643920638892 -2.507338503511158 0
0.1954874955883479 -2.528940708909277 0
0.2882825374783623 -2.563681911338462 0
0.3758876893944268 -2.610002157856399 0
0.4575213043944262 -2.666202010776463 0
0.5328201304585888 -2.730657219542055 0
0.6017120115651123 -2.80193031335356 0
0.66430244760666 -2.87880417377982 0
0.720791634672703 -2.960272298330871 0
0.7714200287275048 -3.045510574508222 0
0.8164354450250797 -3.133844921945224 0
0.8560744635712443 -3.224721241199197 0
0.8905527353249068 -3.317679981524809 0
0.9200604223921826 -3.412335263026684 0
0.944760615950514 -3.508358258754596 0
0.9647892786118231 -3.605463933562119 0
0.9802559007217099 -3.703400386926068 0
0.9912444058188422 -3.801940191232765 0
0.9978140254640191 -3.9008731427846 0
1 7 0 19
103
104
105
106
107
108
109
110
111
112
113
114
115
116
117
118
119
120
121
0.997814025464019 -4.099126857215401 0
0.9912444058188419 -4.198059808767239 0
0.9802559007217094 -4.296599613073935 0
0.964789278611823 -4.394536066437881 0
0.9447606159505137 -4.491641741245404 0
0.9200604223921823 -4.587664736973317 0
0.8905527353249061 -4.682320018475193 0
0.8560744635712435 -4.775278758800805 0
0.8164354450250794 -4.866155078054777 0
0.7714200287275039 -4.95448942549178 0
0.720791634672702 -5.03972770166913 0
0.6643024476066592 -5.12119582622018 0
0.6017120115651112 -5.198069686646441 0
0.5328201304585868 -5.269342780457947 0
0.4575213043944238 -5.333797989223539 0
0.375887689394423 -5.389997842143604 0
0.2882825374783588 -5.436318088661539 0
0.1954874955883439 -5.471059291090724 0
0.09879643920638752 -5.492661496488843 0
1 8 0 19
122
123
124
125
126
127
128
129
130
131
132
133
134
135
136
137
138
139
140
-0.09879643920638892 -5.492661496488843 0
-0.1954874955883479 -5.471059291090723 0
-0.2882825374783623 -5.436318088661538 0
-0.3758876893944268 -5.389997842143601 0
-0.4575213043944262 -5.333797989223537 0
-0.5328201304585888 -5.269342780457945 0
-0.6017120115651123 -5.19806968664644 0
-0.66430244760666 -5.12119582622018 0
-0.720791634672703 -5.039727701669129 0
-0.7714200287275048 -4.954489425491778 0
-0.8164354450250797 -4.866155078054776 0
-0.8560744635712443 -4.775278758800804 0
-0.8905527353249068 -4.682320018475191 0
-0.9200604223921826 -4.587664736973316 0
-0.944760615950514 -4.491641741245404 0
-0.9647892786118231 -4.394536066437881 0
-0.9802559007217099 -4.296599613073932 0
-0.9912444058188422 -4.198059808767235 0
-0.9978140254640191 -4.0991268572154 0
2 1 0 731
141
142
143
144
145
146
147
148
149
150
151
152
153
154
155
156
157
158
159
160
161
162
163
164
165
166
167
168
169
170
171
172
173
174
175
176
177
178
179
180
181
182
183
184
185
186
187
188
189
190
191
192
193
194
195
196
197
198
199
200
201
202
203
204
205
206
207
208
209
210
211
212
213
214
215
216
217
218
219
220
221
222
223
224
225
226
227
228
229
230
231
232
233
234
235
236
237
238
239
240
241
242
243
244
245
246
247
248
249
250
251
252
253
254
255
256
257
258
259
260
261
262
263
264
265
266
267
268
269
270
271
272
273
274
275
276
277
278
279
280
281
282
283
284
285
286
287
288
289
290
291
292
293
294
295
296
297
298
299
300
301
302
303
304
305
306
307
308
309
310
311
312
313
314
315
316
317
318
319
320
321
322
323
324
325
326
327
328
329
330
331
332
333
334
335
336
337
338
339
340
341
342
343
344
345
346
347
348
349
350
351
352
353
354
355
356
357
358
359
360
361
362
363
364
365
366
367
368
369
370
371
372
373
374
375
376
377
378
379
380
381
382
383
384
385
386
387
388
389
390
391
392
393
394
395
396
397
398
399
400
401
402
403
404
405
406
407
408
409
410
411
412
413
414
415
416
417
418
419
420
421
422
423
424
425
426
427
428
429
430
431
432
433
434
435
436
437
438
439
440
441
442
443
444
445
446
447
448
449
450
451
452
453
454
455
456
457
458
459
460
461
462
463
464
465
466
467
468
469
470
471
472
473
474
475
476
477
478
479
480
481
482
483
484
485
486
487
488
489
490
491
492
493
494
495
496
497
498
499
500
501
502
503
504
505
506
507
508
509
510
511
512
513
514
515
516
517
518
519
520
521
522
523
524
525
526
527
528
529
530
531
532
533
534
535
536
537
538
539
540
541
542
543
544
545
546
547
548
549
550
551
552
553
554
555
556
557
558
559
560
561
562
563
564
565
566
567
568
569
570
571
572
573
574
575
576
577
578
579
580
581
582
583
584
585
586
587
588
589
590
591
592
593
594
595
596
597
598
599
600
601
602
603
604
605
606
607
608
609
610
611
612
613
614
615
616
617
618
619
620
621
622
623
624
625
626
627
628
629
630
631
632
633
634
635
636
637
638
639
640
641
642
643
644
645
646
647
648
649
650
651
652
653
654
655
656
657
658
659
660
661
662
663
664
665
666
667
668
669
670
671
672
673
674
675
676
677
678
679
680
681
682
683
684
685
686
687
688
689
690
691
692
693
694
695
696
697
698
699
700
701
702
703
704
705
706
707
708
709
710
711
712
713
714
715
716
717
718
719
720
721
722
723
724
725
726
727
728
729
730
731
732
733
734
735
736
737
738
739
740
741
742
743
744
745
746
747
748
749
750
751
752
753
754
755
756
757
758
759
760
761
762
763
764
765
766
767
768
769
770
771
772
773
774
775
776
777
778
779
780
781
782
783
784
785
786
787
788
789
790
791
792
793
794
795
796
797
798
799
800
801
802
803
804
805
806
807
808
809
810
811
812
813
814
815
816
817
818
819
820
821
822
823
824
825
826
827
828
829
830
831
832
833
834
835
836
837
838
839
840
841
842
843
844
845
846
847
848
849
850
851
852
853
854
855
856
857
858
859
860
861
862
863
864
865
866
867
868
869
870
871
-1.039840141372247 -4.460665779406024 0
-0.9126516498201933 -4.854216152856704 0
-1.099783134982906 -4.049539480711863 0
-1.070206943953568 -3.636134000265565 0
-0.9587071692709054 -3.23941923039656 0
1.040933753983491 -4.459042621793791 0
0.9025950623926833 -4.852125675033836 0
1.084903563712371 -4.060475622099873 0
1.061054785877931 -3.640458395772785 0
0.9577906962468503 -3.239694021907609 0
-0.7705532037615026 -5.125919181427558 0
0.7773025581463141 -5.135212167575906 0
-0.8107558038836775 -2.960689849154502 0
-0.6349902581241367 -2.698591897455885 0
0.8258801283087972 -2.961984451385741 0
0.6459781058115653 -2.697107303006024 0
-0.4660688451185316 -5.434014322863564 0
0.4653722189166111 -5.432590664437509 0
-9.196694657824105 -4.529049130274407 0
9.149248814259128 -4.523594339696027 0
0.1693031655857975 -5.567439560950897 0
-0.1635417103983068 -5.569856801347346 0
4.5430791216721 -9.23189325999231 0
-4.511814501943278 -9.185093768838309 0
-4.675279097011378 -0.7603445395303066 0
4.419090754308824 -0.8107894546080576 0
-1.471130449391728 -9.163403128399111 0
1.442808645408038 -9.154611702056542 0
0.3800346100577844 -2.504214996354172 0
0.1658494420472714 -2.434405309049276 0
-0.04872334759943686 -2.407349132191451 0
-0.287392315222556 -2.450118107499987 0
-0.468866981158264 -2.579333117488883 0
0.6289879339500797 -5.293365987546588 0
-0.6312597673940017 -5.29592531263978 0
0.9872799417159615 -4.660546623622314 0
-0.9867845786985525 -4.660414941641386 0
1.071675888872262 -4.247855982831219 0
-1.077443677882806 -4.255145549325876 0
-1.080907724492943 -3.845679456275667 0
1.083752648841909 -3.845506053103907 0
1.019671488698095 -3.437892277875421 0
-1.020917230804655 -3.437667661253871 0
-6.571076779006883 -0.7858342362236019 0
6.602155889435403 -0.8150373047404837 0
-2.496365315108453 -0.803468766846076 0
2.5 -0.8660254037844384 0
6.367356288695412 -9.159968128882689 0
-6.413263869094643 -9.049347970496427 0
9.162373872344954 -6.454031001797215 0
-9.10851774084292 -6.605801382231649 0
9.133974596215561 -2.5 0
-9.028344106972611 -2.36477263487077 0
-0.4197099939424205 -0.7151689018229845 0
9.015119753965637 -8.492779639668033 0
-8.525500666212301 -9.185903688216701 0
-8.405430446627152 -0.8223349205342068 0
8.496779658118633 -0.7555958998123442 0
-1.425574500655852 -0.8075965502899844 0
-0.9717969568091955 -1.573282027378304 0
-3.314481494961722 -0.8255738895003057 0
-4.07512012582783 -1.679407661575528 0
-2.930840979076355 -1.515220056276874 0
-3.436380570404845 -2.194760412817307 0
-2.299071592351095 -1.558775344679565 0
-2.547908858415764 -2.06048519865858 0
-3.118473835152736 -2.610623987113578 0
-2.054454392809598 -2.074881580538857 0
-1.74394084050284 -1.691527942955143 0
-1.617189574529043 -2.170009172275343 0
-1.85776307351721 -2.477312217485589 0
-1.476492469888499 -2.544120893467515 0
-1.696506160280983 -2.799094217215592 0
-1.263373917300165 -2.288880337342984 0
-1.391083643423357 -2.841083037836062 0
-1.548218133008557 -3.110657670464929 0
-1.872420700537213 -3.057146354047898 0
-1.744958854896499 -3.324471400921218 0
-2.051812419611745 -3.304517804842579 0
-1.917723974625905 -3.576326952251311 0
-2.243567742095326 -3.565211405785522 0
-2.066069003861936 -3.877641537367665 0
-2.445819191357023 -3.849316831018209 0
-2.285213551840388 -4.17035360007687 0
-2.655748057794812 -4.152490263397726 0
-2.491376391584217 -4.49052269851319 0
-2.887490779141519 -4.474363507507657 0
-2.690844279137872 -4.868099262728776 0
-3.142242778628619 -4.83685513469795 0
-2.921364050605137 -5.264458446919495 0
-3.416195415645455 -5.212189734696671 0
-3.631470722388205 -4.77129156749921 0
-3.946227628178229 -5.183889472707413 0
-4.187617784852882 -4.665725778711133 0
-4.532473521962286 -5.174846444745298 0
-4.7996728947346 -4.581636211125778 0
-3.244970795981488 -5.700114046448727 0
-2.696450191404464 -5.706080294979486 0
-2.949489971136772 -6.10990267948317 0
-2.385157108898907 -6.095243525473501 0
-5.178232010945269 -5.131840839490635 0
-5.464157367452334 -4.520452771262745 0
-2.703549606203956 -6.566427943892983 0
-2.198108559064407 -6.560492313957826 0
-3.238084696723261 -6.574983154751418 0
-2.259183884780886 -4.840726459123429 0
-1.920008207412566 -6.18273592384906 0
-1.73395108960745 -6.55419250190776 0
-4.887000730803587 -5.732457491895537 0
-5.562903686723326 -5.701755741095115 0
-2.975535785590508 -7.072485732303345 0
-1.514422184599061 -6.191904192578715 0
-1.318529774058434 -6.541363147358465 0
-5.053910649102685 -3.950469816652227 0
-5.757063985502343 -3.869633920655922 0
-6.191641916091989 -4.461188390810397 0
-3.061301027372449 -4.104599843883919 0
-5.250974634754908 -6.34387125374632 0
-5.986823156885095 -6.309133262105627 0
-1.088486587703378 -6.186141011055079 0
-0.9117417968758598 -6.536225464658224 0
-1.300121053443638 -5.899145408559563 0
-1.110061319391745 -6.936913664109047 0
-0.6897105417627705 -6.888389038263661 0
-1.951480389313738 -6.98320080702309 0
-0.5649393113751413 -6.523056245951696 0
-0.2597121447551146 -6.788687154469457 0
-0.4452910636255267 -7.240394452685186 0
0.002184672459386361 -7.173399040917346 0
0.185367966581529 -6.776776571069923 0
0.4458205209357333 -7.125527328032537 0
0.5993693164277838 -6.730102856482173 0
0.8739045295272054 -7.065035152873524 0
1.011523175160888 -6.609029894759283 0
1.30115074943348 -6.994878877432182 0
1.434625456469951 -6.607882771268439 0
1.733582480831307 -6.933241424767452 0
1.839666346570939 -6.462102154480294 0
2.202216847130223 -6.876558197150281 0
2.381800456631016 -6.407828989183175 0
2.054230891334084 -6.009559717214274 0
2.567560939439725 -5.895353701125678 0
2.94431817726085 -6.316313370057564 0
3.126873330990407 -5.739166826628765 0
3.553390644021935 -6.197701931498865 0
3.727632900986629 -5.577286949690462 0
3.298414408938883 -5.152667989278392 0
3.898797230702199 -4.941298598630337 0
3.344049568687185 -4.498362413062358 0
4.372152641074296 -5.475169251390735 0
4.076189130644996 -4.286820461412498 0
2.201986273641933 -5.5445303066528 0
3.582710187600785 -3.807989706399522 0
2.943578301390917 -3.960942157447232 0
4.274176719846924 -3.621480139927353 0
1.19315773473674 -6.276303847153622 0
3.119554570045589 -3.378007227483483 0
2.472091960106733 -3.526516383064759 0
2.403398342774114 -4.040299159779959 0
-1.942984778288174 -4.197451710390243 0
3.352705383507781 -6.807807520076512 0
4.018403426384033 -6.686527923682056 0
4.804389714178916 -4.123523024568345 0
5.011625649395972 -3.389571414269553 0
5.573301145335835 -3.954876258799013 0
-3.576713747192332 -7.061453795770072 0
-6.505279057758703 -3.767884986144449 0
0.2450488695528087 -7.535561050693788 0
1.146934874924888 -7.422280168449627 0
-5.31695875338687 -3.298371225491908 0
2.66698703596557 -3.000357964901628 0
2.152991573619178 -3.097483056622993 0
2.016453591975786 -7.33884239260849 0
3.263585058317493 -2.804175710252739 0
0.3440522530281164 -6.400901025495123 0
-0.9883680428754764 -5.88360541200534 0
-1.099126744266808 -5.627448080011932 0
-1.393311235088931 -5.625341055302103 0
-1.24345401704623 -5.404550663803461 0
2.283988386749979 -2.654353006970266 0
1.808405882356278 -2.779825665442974 0
1.936833445933434 -2.346445537315138 0
1.526537734195182 -2.481141264717278 0
1.618776149552932 -2.071465193854038 0
1.257863348705098 -2.181110646748898 0
-1.50097553572351 -5.385171912003702 0
-1.351274667345597 -5.182869266209219 0
-3.256915859526814 -7.621663119320492 0
5.784914876474885 -3.173224840375565 0
6.422153463489567 -3.758357737734765 0
6.146181297826698 -4.552568984035172 0
-4.623304099935175 -3.385272338667823 0
-5.644651941239998 -6.996265630245627 0
-6.433425907057674 -6.942658483203543 0
-6.771871188023807 -6.261378955926109 0
6.644118861144873 -2.919161383598564 0
1.720060878132833 -3.22510532782341 0
1.797677687830692 -5.656171779153546 0
1.883005744714776 -5.268603674143032 0
1.536096885716156 -5.38294220039806 0
1.62422084379428 -5.018184109541648 0
-1.591007746216262 -3.600455174285077 0
1.32218830666047 -1.78752872260422 0
0.9102207164618297 -1.898956149981603 0
-6.963557303233237 -4.400715498318938 0
1.975006050017631 -4.934047925520763 0
1.683900257554393 -4.693370194770277 0
6.960162781325888 -4.360885332026553 0
6.708180631375702 -5.155840944114002 0
3.78989866784847 -7.352419896476134 0
4.512618528261006 -7.196421689555251 0
-7.293815676715703 -3.662596979643557 0
-6.812750584966427 -3.034166841304565 0
-0.8489410117990686 -5.672243799995907 0
-0.7361765830520766 -5.85459088567465 0
-2.581104049884235 -3.531348566193532 0
1.335590331367907 -5.12820029188706 0
1.236628043180489 -5.359646002347373 0
2.386808781884681 -2.178921862710087 0
-1.604091502610806 -5.150912283102023 0
-1.422963087548348 -4.937557514968563 0
-1.824511672077259 -5.34957120548308 0
-7.265455026008237 -6.898281239629952 0
-3.865535942200403 -7.649623200126076 0
-4.875173944215937 -2.726607277594784 0
5.118003660277153 -2.53401309341708 0
1.15052105713527 -2.551944065872804 0
-2.194319105393804 -3.017775987261789 0
-1.124621083521581 -5.207007177861791 0
5.889266748005731 -5.350740020049921 0
6.447040068430372 -5.989985326964199 0
7.260891627219737 -5.76512390344226 0
7.011275386771782 -6.603171237679446 0
6.182588769328961 -6.805522903775699 0
1.017538220630564 -1.382374240708184 0
0.5885270009432039 -1.640953639914127 0
-1.293773429027699 -3.086385832807374 0
-1.163563136527507 -2.933888363507846 0
-1.705538069347732 -4.915570289104973 0
-1.544580101543692 -4.721046762120852 0
-1.793465803521987 -4.689692412756051 0
-1.327056885559841 -4.725251724451862 0
-1.407471380096373 -4.548937055099389 0
1.111619508869034 -5.163615003897529 0
1.034161159256591 -5.360419591944063 0
1.135517005371466 -5.561467878695205 0
0.9074477945771846 -5.546761017440076 0
-7.632977006312582 -6.132867415906731 0
6.782338374870147 -7.450254263031193 0
5.917323215891792 -7.60865119751973 0
7.593319732116492 -7.216675445457008 0
-3.862192832091572 -6.481677341777495 0
1.036527693603419 -5.768190256983769 0
0.7986950184558853 -5.784375704104882 0
-5.591713848655099 -2.609387769416544 0
1.157050821049116 -4.954898467308037 0
3.015080572163181 -7.459447708742022 0
3.538698400188885 -8.031276301718526 0
2.794541846753792 -8.189685721367685 0
4.705546683803854 -6.530913096229985 0
-2.606377139516023 -7.599991463818206 0
-2.912232526817575 -8.213484843153564 0
2.04553013746974 -3.761181709415861 0
1.983814192872011 -4.115958896134275 0
1.728111109406035 -3.893531346385087 0
1.66133145162717 -4.170140559503182 0
1.451948051722396 -3.990923572881961 0
1.510397998545805 -3.734372066497642 0
1.423881535590411 -4.237352033123208 0
-3.824741781124122 -4.238755814147842 0
-0.6164036131413212 -5.650158247662379 0
-0.5177712042268686 -5.838119950439316 0
0.3995286214069922 -1.998244988791383 0
0.156489572384853 -1.749980293488819 0
-6.039258412123861 -7.648234638344826 0
-5.283380323701608 -7.674039307034026 0
-7.623269143477531 -2.894910381721318 0
1.480004963254364 -2.94511488060483 0
1.397033728064579 -3.228194437589193 0
1.205010615052927 -3.042521481775519 0
1.505512486110622 -1.241228042812081 0
-2.246116895463625 -2.445584473714622 0
-0.4208938347561669 -5.683948934725522 0
-0.3118914182758442 -5.827438110878468 0
-0.3995030232905896 -6.010512344363886 0
-0.192578953400479 -5.987676614380567 0
-5.136983943960695 -2.033651181366214 0
-7.152150546659279 -2.23066699565023 0
-4.194779093006123 -2.871870984150852 0
2.714766349335698 -4.43779699699232 0
2.229721835479794 -4.414521940092624 0
0.682598725228955 -5.578400865810438 0
0.5801431909941317 -5.782822237262922 0
0.7085517541167631 -6.047890146786802 0
0.448613383806076 -5.982837219984627 0
0.3532465613346033 -5.768000498273568 0
0.2320871273120577 -5.96085576532029 0
1.30511991264577 -5.773211853012489 0
-0.7454685295252558 -5.487467875862349 0
7.413038194134769 -8.12207660510462 0
0.7840835961131642 -2.251340438618363 0
-1.028137755834667 -5.382407073004027 0
-2.238178793793757 -8.168214674035305 0
-7.786339616035165 -4.325442703814278 0
-1.201960499181109 -5.017336255416589 0
2.411984680832346 -4.825768612352447 0
0.6540029478031215 -1.090274492862007 0
-0.1414026044193921 -5.79639009945609 0
3.305953555349884 -8.736021404998677 0
-1.212506308413464 -4.569986591435411 0
-1.291260822269215 -4.403365077563029 0
-1.476311725891387 -4.368360751855058 0
-1.331021287639443 -4.230429089484002 0
-1.536563431504872 -4.187213495623385 0
-1.410447441806778 -4.039751516694983 0
-1.629964974247167 -4.001127180460939 0
-1.163483350940359 -2.580008230305271 0
-0.9844171207432026 -2.380450563043983 0
-0.8815382054239813 -2.606995603093397 0
-0.7452622957812043 -2.435500983040604 0
-0.8045081638536279 -2.205270859009156 0
-0.5862018290744622 -2.27611340890095 0
-0.6177519725286672 -2.03050204927183 0
-0.379212985339477 -2.137348392776945 0
-0.4109127547399781 -1.841916121452691 0
-1.014437604649604 -5.042219700140736 0
-2.556305100834796 -8.787126802428574 0
-3.308883763437719 -8.759595533575887 0
-8.022088787784778 -2.204805559660729 0
1.364515890204553 -4.893617346704715 0
1.200177095158919 -4.765326268065907 0
-0.02915530239198961 -6.441396719928765 0
0.1412356311259519 -2.093112007053882 0
1.748145017029745 -3.586489524982737 0
-0.9525981258378187 -5.2131376066498 0
1.593688509037554 -5.986962710989859 0
1.297391585612422 -3.811303650749362 0
1.32778264579436 -3.60164120921727 0
-5.897176522827122 -1.890538176985869 0
-6.629477300781531 -5.093735167803148 0
0.1382871332443821 -5.772000073698178 0
-2.152145531624936 -4.465743772237109 0
-3.914223723044824 -3.561672529828125 0
3.489099340262816 -0.8008885731004387 0
3.91894111644238 -1.548360928217738 0
3.122072641508093 -1.482757218119446 0
0.7751708228308516 -5.438016757819091 0
-1.280123888363845 -1.875957827973391 0
-1.475295821397341 -3.381841682825832 0
-1.361421450584962 -3.560360261240068 0
-1.253181245769144 -3.391391393592725 0
-1.512308200301582 -3.842037132793549 0
-1.275556029386722 -3.890346439544205 0
0.6921703380782014 -6.370764346056053 0
2.53905124588133 -8.780484795247254 0
2.102336758731203 -8.294439367749517 0
4.74648232593082 -1.664028817811593 0
4.242134441529368 -2.271955801953592 0
5.513172799366586 -1.797671542412636 0
-1.164638604846084 -4.734470054060562 0
1.180096640762712 -3.239026730519439 0
-5.687825786256828 -8.41164205150568 0
-0.8975779371312141 -1.934287331832194 0
0.5021291964358938 -5.625585459251353 0
1.567996350711096 -4.41498623545667 0
1.328543644486504 -4.437526334186207 0
1.417758581972287 -4.722214433565917 0
-1.12524451382764 -3.110779132409838 0
1.265347904250045 -3.996429975121105 0
-1.681150463252536 -4.329157902253493 0
-0.271202719036334 -6.204542269303673 0
-2.261463183281044 -5.670270890171181 0
-2.411359257470154 -5.319314870399154 0
-0.7473674274447957 -6.253038829202474 0
-5.311113714708276 -1.337046317942363 0
0.9824272950700312 -5.029148501131503 0
-1.68274724786519 -5.848971752317645 0
-0.05477598176086909 -5.586278127374017 0
0.05766700266530387 -5.584337364089846 0
-8.13458483732281 -6.785700420504165 0
-7.696507925195339 -7.578493467496683 0
-8.654656683038215 -7.597570252314609 0
-3.555648436620686 -3.008294989326692 0
-3.281017907701492 -3.558992868718889 0
-0.269311519094351 -5.53513723826658 0
0.2734608583253827 -5.537291778048122 0
-7.55122267392617 -1.391534650404937 0
0.9244869545134411 -5.156803408626177 0
5.503056261069745 -0.9415691733896656 0
5.452129058894986 -9.161612896948903 0
4.840433348407193 -8.492260409993408 0
0.562228610163008 -9.161656532698139 0
0.9829137084944772 -8.394335406105219 0
0.1990400845399674 -8.39145953218364 0
-0.2351460877396457 -9.029324460651278 0
-0.5592887948597554 -8.307887272929822 0
0.3721481382138605 -5.488461507096435 0
-0.3717803378211492 -5.488438527927615 0
0.008140583876547954 -5.930565174542734 0
0.1154595057704761 -6.156109549445969 0
-1.005249237867411 -3.013521205063017 0
-1.021550461289553 -2.794053701873709 0
9.162409006417462 -5.491020666647202 0
8.340786666264174 -4.999315062364948 0
8.332291073393119 -3.993891663455012 0
9.148342005324039 -3.504077558866916 0
8.30984192588771 -3.021404587556583 0
8.256475218171015 -2.110515880875568 0
7.426705303411143 -3.556337376919474 0
-9.182397938305138 -5.493575166929395 0
-0.2559790478923108 -5.667214547181649 0
-1.248466058556116 -4.091203021084335 0
7.456908740087098 -2.555395159437482 0
6.757512566177926 -2.224196500265052 0
1.852774428047773 -4.406708016056309 0
8.438147745767825 -5.930955897681737 0
7.431116623966009 -9.092651929455636 0
-9.035045337629246 -3.496453506590829 0
-0.169204033103255 -2.421879214332879 0
-0.1157822980493037 -2.301348729113554 0
0.05783759323082768 -2.305147348946718 0
-0.2682402110425149 -2.329092534992342 0
1.239967192027476 -4.292263064341637 0
-1.088501553053834 -4.881875133609868 0
0.2748749089204017 -2.459757127026158 0
0.3704077866740155 -2.36924344201239 0
0.4991771264060088 -2.435369999988293 0
7.569048205226515 -0.8003483458059675 0
-7.530087421342082 -9.145080582398023 0
-7.094649196406563 -8.313624450488094 0
-0.8402553895647102 -2.773196226664787 0
-0.5530311300459726 -5.369702481685753 0
-0.5854686418301768 -5.482325811355506 0
0.5563246595280973 -5.372291774305218 0
5.310307809645849 -7.014547158802059 0
5.486956734114614 -6.173836425094782 0
-1.179027368260291 -3.569125883282848 0
9.13961507500764 -7.44988352212606 0
-1.016516616972514 -4.561359612588586 0
1.020017222752466 -4.561083126477416 0
1.126134513675857 -4.528582232432599 0
-1.256955669666548 -3.700965305735526 0
0.4726660080906799 -2.556814674786894 0
0.6035143288981443 -2.547192210686278 0
5.353899557915518 -4.72046366363099 0
1.074362190561641 -4.823921629503766 0
-0.7036944611565703 -5.216037692291486 0
-0.7420259465273136 -5.322605940105746 0
0.7046997028457895 -5.216609587783649 0
-0.8102213789887351 -5.032926583265426 0
0.8420747921792897 -5.044589672270976 0
-0.8880051035300205 -4.969327016214742 0
0.8836743453951954 -4.945017713989913 0
0.9666379300000741 -4.776143209145101 0
-0.9501524789196811 -4.757379431292022 0
-4.918825935439932 -6.994333822892113 0
-4.553853394676818 -6.356518191824815 0
-8.334410634083866 -4.991886859634472 0
8.246110178064484 -7.779429094879546 0
1.16600324092495 -4.412020052286643 0
1.169948162253531 -4.149075592903584 0
0.5424999755306809 -2.639594683759543 0
0.7582809138265236 -2.614782207950001 0
0.7853487335907771 -2.755107852418582 0
0.9446468498806661 -2.6812896840531 0
-0.5576272250227516 -2.625465741608433 0
-1.060817023078829 -4.359094173090257 0
-1.182594158563804 -4.312765015174215 0
2.675817050715711 -5.30583574008844 0
0.8848824929904475 -2.46130813256895 0
1.125562145095396 -2.821185999376591 0
-4.226488451761922 -5.730191165937293 0
3.416090498839783 -2.180586966437857 0
-0.5551304214185078 -2.482575284964021 0
-2.079331863960044 -5.161697449593043 0
-1.771828691750936 -3.800054813032524 0
-0.3891918497404074 -2.502976884261825 0
-0.7096016853592448 -2.781959522054344 0
-7.439199812628694 -4.994156850306784 0
-1.101463999143799 -4.149171367065561 0
0.2063807806614833 -1.316353827335603 0
-1.088521462063021 -3.948305725852509 0
1.084753337973367 -3.948543463043496 0
5.063145775897609 -5.401692077000078 0
0.241223994147065 -5.651471302705535 0
-4.403982923694022 -4.048176559402757 0
1.105715612399385 -4.642947610508003 0
1.266305422853129 -4.589650370163895 0
1.044209419610368 -3.53835681472419 0
1.138809095482712 -3.468660511106447 0
-1.045529078984628 -3.538002803479871 0
-1.075549971058791 -3.742104268717088 0
1.075987239410754 -3.742542897197897 0
1.17201110180202 -3.681719998348237 0
2.484665864211662 -1.6229872685193 0
8.440370234453201 -9.196712479551787 0
-4.372296000841108 -2.198375409205073 0
-0.9219653970525923 -3.137238059417977 0
-0.8760078314232078 -3.047849515687744 0
0.9201443428035749 -3.137271306721689 0
1.051127084705664 -3.156851976263138 0
0.9863910391515935 -3.016801850955073 0
-1.975969295046395 -7.543506858404385 0
-1.603509914472535 -8.033863460071871 0
-1.343708158463447 -7.498052688091614 0
-0.7692041842932864 -2.866384935627532 0
1.358822371077432 -2.716658104990796 0
4.28346730685902 -7.890932695484574 0
-0.1318144066860243 -1.959724581522699 0
-0.1570456237810512 -1.578591830502253 0
0.9895395907680935 -3.338673334369048 0
-0.9958579654210613 -3.336721196311842 0
-9.185507582424258 -1.452074393881688 0
9.029084359387676 -1.497970825044346 0
-3.707112656304326 -5.944459955045397 0
0.86405419680331 -3.05908262110319 0
0.9051546221128695 -2.851164693522089 0
1.498370027918309 -3.460827608960144 0
7.465914271549839 -5.005518887627364 0
-1.88904251829331 -1.128051575634713 0
6.548309434824105 -8.281455162771714 0
-8.108443348489944 -3.565497815158592 0
-0.7474883998816838 -2.687045554483438 0
-0.8866028018517109 -7.323318192082164 0
-0.5707170352596936 -7.709436923656783 0
-5.877524805528741 -5.096583665563188 0
0.0006583701525001203 -5.708821671084101 0
-9.158504182345835 -8.412613383305032 0
-4.912664776035229 -8.414059573331294 0
-5.361995476733126 -9.213651544873077 0
-4.075801844925912 -8.438244975031377 0
0.8161340150640058 -5.234233753988798 0
-2.831442308340479 -3.779911267560179 0
2.733175444211792 -6.819766597352559 0
2.227669571850615 -5.162635725605815 0
-3.036554917660138 -3.121437630299383 0
-2.633741159435579 -2.893595078163915 0
0.9292672938099368 -5.987297160478066 0
0.5645653590588476 -5.489753048054546 0
-6.047267569408602 -3.177526572716867 0
4.182878348688215 -6.067434515193865 0
3.731946598753352 -3.197855523600883 0
-4.225122688821491 -7.017304147750852 0
-8.396534352800426 -5.853200202918206 0
-1.11101421665652 -3.353577468902274 0
-1.20099147757023 -3.245509258207038 0
-1.979997135945093 -4.898940800698143 0
1.178099453246968 -3.8979705377644 0
-2.463280630461977 -7.014767271684264 0
-0.6540170801737393 -5.395409508726915 0
-0.5679969574393096 -1.454075818437675 0
4.050499606660183 -8.608711182273176 0
-3.338357098401118 -4.395105392703051 0
1.059147165979326 -4.356803393370031 0
0.5233297251589141 -2.247407570184042 0
-0.8267929871504835 -5.220994560354981 0
-1.194032692158105 -4.201953485288657 0
-1.15043561146785 -4.439514061097395 0
-0.4710554567969373 -5.549436562333554 0
-0.8739706200263401 -5.353076537754806 0
0.3155125614778895 -2.191531573763356 0
1.833904976007839 -0.8045863535503708 0
4.594762341735589 -4.824827846105497 0
1.286799899942531 -3.389163087650613 0
7.275857789760281 -1.628083353190438 0
-1.07370453703567 -3.249530132580287 0
-2.037629089910992 -2.76070232396506 0
8.383128372435479 -6.864106988433472 0
0.2361782002658436 -0.7020765285762636 0
-0.619244998013142 -6.033238849204169 0
1.530650790136912 -7.305452208793659 0
1.546396801665185 -7.84096249640532 0
-1.507929516186226 -6.884603533715939 0
0.7260135539968073 -7.492233063903335 0
0.57855339433518 -7.956339782693302 0
-0.1267759815158352 -7.939255563595396 0
4.39929183636171 -2.946988652663864 0
-8.147025354678082 -8.360661362071511 0
-0.1245464414999233 -5.669075695206047 0
2.031938076975856 -1.916879044193075 0
6.009702470314669 -2.358620742370629 0
2.749475235861963 -2.509219100395219 0
2.500298600608386 -7.268133194490709 0
2.009814696511446 -3.427882265088198 0
-1.241024126037843 -4.859298136501489 0
-6.295135560156234 -5.67714535921439 0
1.063117209224205 -4.150918772763463 0
0.7630988366499876 -2.870618322943448 0
-4.642176175849712 -1.535831837475855 0
-1.63277185030725 -4.512452384106611 0
-3.482895501751795 -3.944766488481729 0
-6.373636584489536 -2.416999688281243 0
5.708459606629161 -8.394530223604487 0
-6.831694089761709 -7.59437790198804 0
-4.546888585187429 -7.697934171027622 0
-1.090781810979391 -4.632279790454877 0
0.05475202537701016 -2.430848058739721 0
1.346685220618776 -5.561277403694396 0
-8.379882033584542 -2.886646211249522 0
-0.8983089712606702 -5.503216313389141 0
3.692212176985327 -9.304660062426231 0
-2.382294580994949 -3.259652296800965 0
0.2209529872460596 -2.308866134641963 0
0.6558673788065277 -5.414930415842093 0
-1.730887765773961 -4.140886679813544 0
-3.77716560518191 -2.503375864393536 0
1.188302699379668 -6.009339197521207 0
-0.8258448248414176 -8.875789805889589 0
-0.4228149176922611 -2.351624850262502 0
2.32921395760818 -7.783649623851874 0
-1.102016097841093 -4.532761166996458 0
-1.662380621678466 -5.571082432556992 0
5.095434969282337 -7.766223895826585 0
2.90095611965073 -4.853530834339383 0
0.361523084674836 -5.604324380505752 0
0.3379689694806925 -6.138957794796077 0
-1.39633859150998 -1.339161372905 0
-1.176407673344576 -3.973791188334506 0
-1.937603478980678 -5.601632585144756 0
2.030677450386388 -4.654883337758484 0
1.161448405782815 -3.79580862743276 0
-1.057425121099127 -7.912137558482199 0
0.5338303771278565 -6.191966132717378 0
-0.05122595171403675 -2.161266896165245 0
1.165068334676773 -3.573534492707377 0
-8.492186718812466 -4.181666003094516 0
-0.4782475257446543 -6.245057277507533 0
1.165393905657599 -0.6686379456787632 0
-1.216708240428006 -2.76445681098395 0
-7.10208400749976 -5.61604669925339 0
-0.9775487004559049 -4.928151571502038 0
-0.6710564609363452 -2.574484523148778 0
7.686244361954869 -4.349550004620902 0
1.112608030179497 -3.355509235683589 0
1.058232408532563 -3.265951059748564 0
1.535560286253655 -4.830769900384658 0
0.9398929522489208 -6.242576739078563 0
-1.838694048788187 -5.095338405596253 0
-1.873830230452219 -4.478731154417933 0
-3.506228894226135 -8.157416769523479 0
1.696305385265929 -1.658258556904848 0
2.007118495886112 -1.329526779084535 0
-1.046000205478411 -2.136969383840341 0
-1.16928788711153 -3.790692590731396 0
-1.828580139792875 -8.638265912916264 0
2.831822604461237 -1.994894483236382 0
1.308552823920214 -4.122966543897999 0
7.762216928092482 -6.311088450255644 0
-6.59338827591829 -1.664311888866082 0
0.7398867021011777 -5.32207033186509 0
-2.878384476046584 -3.437215954409734 0
-9.416703314743911 -7.5 0
9.26794919243112 -9.267949192431121 0
-9.267949192431123 -0.7320508075688767 0
9.267949192431123 -0.7320508075688767 0
-9.273040735444942 -9.273040735444944 0
-2.657201601076629 -2.49532263011809 0
-7.5 -0.5768139751440646 0
1.585644197642754 -8.460434541083243 0
3.782079825660232 -2.654930901869894 0
-1.828347042784435 -4.003432384212983 0
-1.169711681734116 -3.889561274479618 0
-1.047843488460757 -4.750371042324812 0
-1.150205568010145 -3.687804409746485 0
-0.9014651078622081 -2.896621029131956 0
1.018936128224907 -2.295628483463446 0
-2.690812225330663 -3.233146914917272 0
-5.59542268988788 -0.6922537798911472 0
-3.694218330080937 -9.301996263911185 0
1.066834553967196 -4.733777068169018 0
6.276909629354101 -1.627529769394818 0
8.035114779228781 -8.564758496380637 0
1.455569589959796 -4.556842484231158 0
1.14164677801692 -4.31833077146078 0
0.1294022335809227 -5.66174422905368 0
0.6611056709509471 -2.392313445780331 0
1.005463201255266 -4.906464055617141 0
-1.121933828095047 -3.457953042102318 0
-6.376788321769023 -8.241655243470682 0
-1.019318235157707 -3.164072242216119 0
-0.1791101076777721 -7.5196094063097 0
-2.296203895486467 -9.325214353911544 0
-1.395044318401626 -3.720487672743567 0
2.928159249489599 -9.236802894901858 0
-3.822369570569106 -2.044598024499839 0
1.473536260536134 -6.310914103517208 0
-0.693207315729673 -1.766812669674539 0
-1.694771839752451 -7.227340971808757 0
-0.3053874791312973 -6.442092845885676 0
1.29235002362003 -2.881370116686934 0
-0.357804039272183 -5.584835162086984 0
0.6878642657399029 -2.795702831063032 0
1.515853643169789 -5.67211318944967 0
-1.354292021354594 -3.24315716757958 0
-0.07678553246397127 -6.146906172389166 0
-0.8771014006530273 -5.100754108008874 0
-2.129974878591301 -5.426716892067632 0
-3.685294792099342 -5.530730249030081 0
-0.9953395741420743 -4.834398666317089 0
1.234451555550994 -3.508855597143257 0
4.750138253613669 -5.93186589175023 0
-3.450885550589836 -1.647070774507749 0
-1.925700460773484 -0.5789129557374828 0
2.253061716069489 -9.339718816189066 0
0.8800938758850432 -5.344686589974367 0
7.877962263056371 -5.516667785752283 0
-2.011724517265024 -4.674766919846533 0
1.227458986439663 -4.489433050446467 0
-2.971122217967984 -9.234786590765438 0
0.9961624666833075 -7.821230183511361 0
1.156610484287256 -4.010499038186492 0
-7.82749529745425 -5.531955619426679 0
-0.9541197031752623 -0.9852726642503988 0
-4.026323740706747 -1.074704783764957 0
0.4582322796933094 -5.528300867236496 0
-0.830082878705009 -6.036976224050475 0
-3.356979949202036 -6.158511267821272 0
-0.707564750587791 -9.441992746354238 0
-2.037395845287677 -5.879770935391228 0
-3.023615232452694 -2.08724717658203 0
-0.1803682124930497 -1.150477288026893 0
8.125449046132823 -1.358502860945733 0
-0.198427799148101 -2.181653215297416 0
-6.01506654860075 -1.270297585650611 0
-1.224296540742906 -8.488557856448143 0
1.984580512746563 -8.805937844465124 0
-8.45962434807879 -1.583099389140299 0
1.543442737720814 -2.73068497893897 0
-1.311941926170055 -2.682417243148199 0
-2.355186437118125 -2.735368840193316 0
0.6612151644496658 -2.017042571581023 0
$EndNodes
$Elements
9 1742 1 1742
1 1 1 20
1 1 9 
2 9 10 
3 10 11 
4 11 12 
5 12 13 
6 13 14 
7 14 15 
8 15 16 
9 16 17 
10 17 18 
11 18 19 
12 19 20 
13 20 21 
14 21 22 
15 22 23 
16 23 24 
17 24 25 
18 25 26 
19 26 27 
20 27 2 
1 2 1 10
21 2 28 
22 28 29 
23 29 30 
24 30 31 
25 31 32 
26 32 33 
27 33 34 
28 34 35 
29 35 36 
30 36 3 
1 3 1 20
31 3 37 
32 37 38 
33 38 39 
34 39 40 
35 40 41 
36 41 42 
37 42 43 
38 43 44 
39 44 45 
40 45 46 
41 46 47 
42 47 48 
43 48 49 
44 49 50 
45 50 51 
46 51 52 
47 52 53 
48 53 54 
49 54 55 
50 55 4 
1 4 1 10
51 4 56 
52 56 57 
53 57 58 
54 58 59 
55 59 60 
56 60 61 
57 61 62 
58 62 63 
59 63 64 
60 64 1 
1 5 1 20
61 7 65 
62 65 66 
63 66 67 
64 67 68 
65 68 69 
66 69 70 
67 70 71 
68 71 72 
69 72 73 
70 73 74 
71 74 75 
72 75 76 
73 76 77 
74 77 78 
75 78 79 
76 79 80 
77 80 81 
78 81 82 
79 82 83 
80 83 5 
1 6 1 20
81 5 84 
82 84 85 
83 85 86 
84 86 87 
85 87 88 
86 88 89 
87 89 90 
88 90 91 
89 91 92 
90 92 93 
91 93 94 
92 94 95 
93 95 96 
94 96 97 
95 97 98 
96 98 99 
97 99 100 
98 100 101 
99 101 102 
100 102 8 
1 7 1 20
101 8 103 
102 103 104 
103 104 105 
104 105 106 
105 106 107 
106 107 108 
107 108 109 
108 109 110 
109 110 111 
110 111 112 
111 112 113 
112 113 114 
113 114 115 
114 115 116 
115 116 117 
116 117 118 
117 118 119 
118 119 120 
119 120 121 
120 121 6 
1 8 1 20
121 6 122 
122 122 123 
123 123 124 
124 124 125 
125 125 126 
126 126 127 
127 127 128 
128 128 129 
129 129 130 
130 130 131 
131 131 132 
132 132 133 
133 133 134 
134 134 135 
135 135 136 
136 136 137 
137 137 138 
138 138 139 
139 139 140 
140 140 7 
2 1 2 1602
141 346 760 446 
142 420 642 611 
143 143 620 552 
144 642 657 611 
145 476 747 438 
146 336 549 330 
147 166 485 484 
148 337 419 418 
149 591 593 516 
150 403 724 298 
151 584 816 603 
152 612 655 392 
153 313 750 712 
154 614 617 173 
155 453 697 608 
156 200 503 488 
157 406 407 405 
158 419 420 418 
159 321 868 323 
160 459 542 457 
161 246 513 228 
162 557 661 440 
163 262 517 318 
164 337 658 419 
165 188 661 557 
166 410 626 483 
167 366 498 497 
168 705 811 185 
169 539 667 481 
170 340 357 341 
171 312 337 321 
172 747 826 296 
173 528 591 516 
174 212 869 215 
175 448 667 539 
176 337 418 321 
177 483 731 410 
178 493 758 552 
179 299 403 298 
180 406 409 407 
181 330 549 348 
182 419 501 420 
183 484 486 187 
184 569 718 570 
185 404 405 403 
186 336 553 549 
187 624 703 585 
188 492 616 342 
189 290 703 624 
190 458 459 457 
191 523 746 207 
192 166 484 22 
193 554 811 705 
194 474 658 337 
195 298 724 312 
196 597 612 392 
197 524 673 257 
198 338 340 339 
199 532 533 168 
200 210 212 211 
201 439 573 411 
202 323 367 325 
203 294 299 298 
204 358 384 357 
205 453 608 451 
206 385 528 384 
207 299 404 403 
208 404 406 405 
209 657 728 604 
210 252 517 262 
211 446 760 431 
212 214 457 212 
213 445 466 369 
214 369 475 442 
215 205 208 206 
216 476 826 747 
217 489 490 342 
218 696 836 151 
219 384 396 357 
220 186 203 201 
221 669 735 671 
222 466 836 475 
223 317 354 316 
224 361 725 445 
225 186 205 203 
226 205 206 203 
227 383 450 382 
228 570 718 521 
229 262 317 316 
230 210 211 208 
231 262 316 260 
232 354 439 411 
233 489 491 490 
234 340 341 339 
235 207 746 204 
236 377 834 216 
237 212 215 213 
238 215 378 377 
239 671 735 364 
240 520 522 191 
241 473 743 561 
242 645 713 263 
243 502 670 189 
244 228 513 230 
245 342 823 492 
246 252 262 260 
247 709 768 447 
248 209 210 208 
249 568 705 185 
250 216 834 489 
251 442 740 317 
252 289 430 294 
253 278 476 281 
254 472 540 315 
255 407 477 408 
256 614 749 617 
257 493 552 455 
258 215 377 216 
259 424 551 448 
260 460 772 459 
261 361 445 327 
262 497 529 499 
263 313 712 711 
264 486 635 187 
265 438 833 476 
266 327 369 319 
267 152 591 528 
268 281 338 292 
269 270 315 272 
270 423 831 551 
271 561 743 170 
272 643 689 265 
273 423 551 424 
274 620 697 552 
275 384 516 396 
276 385 845 528 
277 194 853 17 
278 458 460 459 
279 317 740 354 
280 45 532 168 
281 712 750 496 
282 456 616 492 
283 505 555 347 
284 573 699 411 
285 432 487 387 
286 319 442 317 
287 475 700 442 
288 488 757 200 
289 371 576 370 
290 218 489 342 
291 497 499 366 
292 409 787 407 
293 314 722 613 
294 722 786 613 
295 357 470 341 
296 267 472 270 
297 413 473 414 
298 366 717 498 
299 504 679 432 
300 478 840 704 
301 466 475 369 
302 210 214 212 
303 378 508 377 
304 170 737 561 
305 191 684 520 
306 494 763 434 
307 347 813 505 
308 485 486 484 
309 411 423 412 
310 407 408 405 
311 338 339 292 
312 18 194 17 
313 450 500 382 
314 603 816 610 
315 340 358 357 
316 380 382 361 
317 166 529 497 
318 298 312 311 
319 436 504 433 
320 312 321 320 
321 214 458 457 
322 193 867 469 
323 482 847 246 
324 212 213 211 
325 278 826 476 
326 411 699 423 
327 327 445 369 
328 208 422 206 
329 294 298 297 
330 433 504 432 
331 532 534 533 
332 375 768 421 
333 354 411 355 
334 216 489 218 
335 642 656 155 
336 240 859 247 
337 21 484 187 
338 186 201 15 
339 321 323 322 
340 199 843 17 
341 469 739 193 
342 247 252 248 
343 413 701 473 
344 599 708 578 
345 446 675 346 
346 494 777 274 
347 545 549 547 
348 226 482 246 
349 512 859 240 
350 189 670 52 
351 505 506 409 
352 315 494 272 
353 434 777 494 
354 382 725 361 
355 289 754 430 
356 577 631 144 
357 151 836 590 
358 524 791 673 
359 281 476 338 
360 270 472 315 
361 477 634 478 
362 272 494 274 
363 358 385 384 
364 451 698 450 
365 19 768 709 
366 274 296 276 
367 368 742 677 
368 369 442 319 
369 376 871 413 
370 445 564 466 
371 246 615 513 
372 16 186 15 
373 21 187 20 
374 340 833 738 
375 155 728 657 
376 459 571 542 
377 506 563 409 
378 491 577 490 
379 261 514 266 
380 30 546 192 
381 367 611 605 
382 383 451 450 
383 435 436 433 
384 522 792 191 
385 230 513 238 
386 394 432 387 
387 292 609 282 
388 252 260 253 
389 267 829 472 
390 549 553 547 
391 380 383 382 
392 492 493 455 
393 407 509 477 
394 247 517 252 
395 523 524 483 
396 257 731 524 
397 218 342 220 
398 240 247 244 
399 238 512 240 
400 481 625 436 
401 546 547 192 
402 530 733 188 
403 457 869 212 
404 292 675 609 
405 215 216 213 
406 545 547 546 
407 638 820 541 
408 263 664 645 
409 289 294 293 
410 715 716 308 
411 478 704 658 
412 222 300 224 
413 601 814 178 
414 552 758 143 
415 234 626 410 
416 401 689 643 
417 605 657 604 
418 274 777 296 
419 641 642 420 
420 702 768 20 
421 501 641 420 
422 236 626 234 
423 46 535 532 
424 542 769 457 
425 601 851 509 
426 209 757 488 
427 658 704 419 
428 531 692 648 
429 594 817 147 
430 678 777 434 
431 483 626 332 
432 390 575 374 
433 341 776 347 
434 490 823 342 
435 430 431 299 
436 576 624 370 
437 429 523 483 
438 40 530 188 
439 396 586 471 
440 381 779 730 
441 396 471 470 
442 374 576 371 
443 397 750 723 
444 429 483 332 
445 575 576 374 
446 437 481 436 
447 611 657 605 
448 405 474 403 
449 515 808 165 
450 205 209 208 
451 447 768 375 
452 609 675 446 
453 424 448 426 
454 391 708 599 
455 733 753 390 
456 16 843 186 
457 17 853 199 
458 507 813 347 
459 487 845 387 
460 238 513 512 
461 466 771 592 
462 185 529 24 
463 207 676 523 
464 344 806 441 
465 413 414 376 
466 45 168 44 
467 48 167 47 
468 432 744 487 
469 617 749 172 
470 528 845 672 
471 318 319 317 
472 46 532 45 
473 477 478 408 
474 592 836 466 
475 439 700 588 
476 294 430 299 
477 397 674 301 
478 203 842 201 
479 590 836 592 
480 261 266 264 
481 18 709 194 
482 517 752 318 
483 14 165 13 
484 23 166 22 
485 148 851 601 
486 31 546 30 
487 190 556 543 
488 462 614 460 
489 163 692 531 
490 197 798 527 
491 506 600 563 
492 524 731 483 
493 323 325 324 
494 195 812 599 
495 341 347 346 
496 354 355 316 
497 166 497 485 
498 541 639 638 
499 639 805 153 
500 730 779 510 
501 163 531 530 
502 535 536 534 
503 645 828 713 
504 59 550 191 
505 190 543 33 
506 527 867 197 
507 42 163 41 
508 51 164 50 
509 163 530 41 
510 247 248 244 
511 209 488 210 
512 260 514 261 
513 270 272 271 
514 326 327 319 
515 504 855 679 
516 732 789 479 
517 520 684 388 
518 394 433 432 
519 430 446 431 
520 15 201 14 
521 22 484 21 
522 543 556 544 
523 323 647 367 
524 493 823 582 
525 411 412 355 
526 189 819 502 
527 360 361 327 
528 399 750 397 
529 19 709 18 
530 206 860 203 
531 300 482 224 
532 475 836 696 
533 336 554 553 
534 337 724 474 
535 558 739 662 
536 378 541 508 
537 636 812 195 
538 23 529 166 
539 267 270 269 
540 325 806 344 
541 202 825 637 
542 201 854 14 
543 185 811 529 
544 569 570 189 
545 497 498 485 
546 506 848 600 
547 193 558 62 
548 294 297 293 
549 529 811 499 
550 365 429 332 
551 25 568 185 
552 392 683 597 
553 338 833 340 
554 540 756 315 
555 312 320 311 
556 543 544 160 
557 298 311 297 
558 531 753 733 
559 643 645 644 
560 238 240 239 
561 299 431 404 
562 281 292 282 
563 387 845 385 
564 444 619 598 
565 252 253 248 
566 477 761 634 
567 32 160 31 
568 61 159 60 
569 159 550 60 
570 32 543 160 
571 503 783 488 
572 742 807 677 
573 53 569 189 
574 272 274 273 
575 321 322 320 
576 155 657 642 
577 144 804 577 
578 370 624 585 
579 423 424 412 
580 550 684 191 
581 406 505 409 
582 455 552 453 
583 679 744 432 
584 485 613 486 
585 61 558 159 
586 278 281 280 
587 165 808 13 
588 495 496 399 
589 310 332 254 
590 441 816 695 
591 534 715 533 
592 551 719 448 
593 226 246 228 
594 547 553 548 
595 160 546 31 
596 379 380 361 
597 304 717 366 
598 305 585 303 
599 262 318 317 
600 200 827 503 
601 528 672 152 
602 400 576 575 
603 12 184 11 
604 25 185 24 
605 547 548 192 
606 523 676 524 
607 284 287 286 
608 439 690 573 
609 49 849 822 
610 384 528 516 
611 344 871 376 
612 450 736 500 
613 43 844 824 
614 187 702 20 
615 14 854 165 
616 511 835 472 
617 196 718 569 
618 544 545 160 
619 701 743 473 
620 533 799 168 
621 40 188 39 
622 53 189 52 
623 431 555 404 
624 527 798 184 
625 156 602 584 
626 367 806 325 
627 331 585 305 
628 254 626 236 
629 222 801 300 
630 605 610 367 
631 41 530 40 
632 500 803 564 
633 397 723 674 
634 315 763 494 
635 370 585 331 
636 653 867 193 
637 195 578 35 
638 416 735 669 
639 548 862 654 
640 188 557 39 
641 664 762 645 
642 274 276 275 
643 266 267 264 
644 406 555 505 
645 34 190 33 
646 59 191 58 
647 260 261 253 
648 284 609 287 
649 662 766 558 
650 435 437 436 
651 195 599 578 
652 202 854 842 
653 428 789 732 
654 216 218 217 
655 198 568 26 
656 230 238 237 
657 386 387 385 
658 514 767 266 
659 452 453 451 
660 34 578 190 
661 33 543 32 
662 60 550 59 
663 436 755 504 
664 597 683 596 
665 196 569 54 
666 26 568 25 
667 316 856 260 
668 665 762 664 
669 159 598 550 
670 282 609 284 
671 165 729 515 
672 17 843 16 
673 333 596 416 
674 20 768 19 
675 54 569 53 
676 476 833 338 
677 203 860 842 
678 396 470 357 
679 604 832 156 
680 211 422 208 
681 747 777 678 
682 349 370 331 
683 441 871 344 
684 842 854 201 
685 544 773 545 
686 62 558 61 
687 534 716 715 
688 30 192 29 
689 63 193 62 
690 287 754 289 
691 498 613 485 
692 400 841 576 
693 220 616 222 
694 637 729 202 
695 188 733 661 
696 464 749 462 
697 258 597 596 
698 564 771 466 
699 287 289 288 
700 35 578 34 
701 389 390 374 
702 698 751 450 
703 578 708 190 
704 24 529 23 
705 365 637 429 
706 36 195 35 
707 55 196 54 
708 39 557 38 
709 373 374 371 
710 603 604 156 
711 10 197 9 
712 27 198 26 
713 532 535 534 
714 43 741 42 
715 410 693 232 
716 249 612 597 
717 193 739 558 
718 522 718 668 
719 390 753 575 
720 513 837 512 
721 258 596 333 
722 577 582 490 
723 44 844 43 
724 448 539 426 
725 332 626 254 
726 341 346 339 
727 43 824 741 
728 350 397 301 
729 362 837 615 
730 584 603 156 
731 211 707 422 
732 310 365 332 
733 548 654 192 
734 637 746 429 
735 809 849 49 
736 333 416 415 
737 562 749 464 
738 729 854 202 
739 659 773 544 
740 677 870 368 
741 454 455 453 
742 634 765 478 
743 330 331 305 
744 186 660 205 
745 492 823 493 
746 461 462 460 
747 49 822 48 
748 38 636 37 
749 342 616 220 
750 238 239 237 
751 668 792 522 
752 601 787 563 
753 842 860 204 
754 630 774 704 
755 312 724 337 
756 260 856 514 
757 323 324 322 
758 204 860 207 
759 404 555 406 
760 541 820 508 
761 472 835 540 
762 178 727 601 
763 654 862 198 
764 12 808 184 
765 270 271 269 
766 222 224 223 
767 509 787 601 
768 586 817 594 
769 349 371 370 
770 506 813 628 
771 545 546 160 
772 123 525 124 
773 808 864 184 
774 509 688 477 
775 536 716 534 
776 381 730 380 
777 446 754 609 
778 50 809 49 
779 46 858 535 
780 348 349 331 
781 471 810 627 
782 373 389 374 
783 256 480 345 
784 325 344 343 
785 347 776 507 
786 418 868 321 
787 516 817 396 
788 330 348 331 
789 29 654 28 
790 64 653 63 
791 121 519 6 
792 240 244 243 
793 52 670 51 
794 272 273 271 
795 218 220 219 
796 407 787 509 
797 541 805 639 
798 164 670 669 
799 601 727 148 
800 585 703 303 
801 256 666 480 
802 116 574 117 
803 669 670 502 
804 304 366 329 
805 266 829 267 
806 107 580 108 
807 118 537 119 
808 318 326 319 
809 234 410 232 
810 251 401 328 
811 224 482 226 
812 242 254 236 
813 249 597 258 
814 557 636 38 
815 51 670 164 
816 289 293 291 
817 184 798 11 
818 391 440 389 
819 456 492 455 
820 462 749 614 
821 329 330 305 
822 391 599 440 
823 416 502 415 
824 172 749 562 
825 576 841 624 
826 468 809 671 
827 372 373 371 
828 398 399 397 
829 326 360 327 
830 422 797 206 
831 130 590 131 
832 533 850 712 
833 393 394 387 
834 363 388 335 
835 304 305 303 
836 109 594 110 
837 300 745 510 
838 179 697 620 
839 334 335 259 
840 471 507 470 
841 349 372 371 
842 803 839 564 
843 207 677 676 
844 373 391 389 
845 287 288 286 
846 360 379 361 
847 314 682 297 
848 363 521 520 
849 274 275 273 
850 63 653 193 
851 192 654 29 
852 521 522 520 
853 350 398 397 
854 469 527 428 
855 114 589 115 
856 345 444 352 
857 480 619 345 
858 352 353 307 
859 215 769 378 
860 296 777 747 
861 329 336 330 
862 437 539 481 
863 191 792 58 
864 304 329 305 
865 302 400 351 
866 255 310 254 
867 184 789 527 
868 669 671 164 
869 111 593 112 
870 106 146 107 
871 136 141 137 
872 410 731 693 
873 417 428 353 
874 470 776 341 
875 235 249 241 
876 168 844 44 
877 525 538 124 
878 563 814 601 
879 420 830 418 
880 256 345 307 
881 521 734 570 
882 6 519 518 
883 276 826 278 
884 345 619 444 
885 295 304 303 
886 216 217 213 
887 297 682 293 
888 474 724 403 
889 276 277 275 
890 233 612 235 
891 401 443 402 
892 378 542 541 
893 363 520 388 
894 588 690 439 
895 577 804 582 
896 401 643 443 
897 281 282 280 
898 224 225 223 
899 416 669 502 
900 345 352 307 
901 417 469 428 
902 295 303 291 
903 400 575 351 
904 389 661 390 
905 334 363 335 
906 57 668 56 
907 395 427 365 
908 358 386 385 
909 333 415 334 
910 352 417 353 
911 635 786 359 
912 499 721 366 
913 469 867 527 
914 558 766 159 
915 348 659 349 
916 586 810 471 
917 224 226 225 
918 349 659 372 
919 285 301 283 
920 235 612 249 
921 242 255 254 
922 552 697 453 
923 258 333 259 
924 434 435 433 
925 553 705 548 
926 479 515 427 
927 220 222 221 
928 306 392 245 
929 383 452 451 
930 10 798 197 
931 249 258 250 
932 695 871 441 
933 135 579 136 
934 48 822 167 
935 242 256 255 
936 339 675 292 
937 276 278 277 
938 256 307 255 
939 333 334 259 
940 499 811 721 
941 608 698 451 
942 359 720 635 
943 427 637 365 
944 463 464 462 
945 440 661 389 
946 582 784 493 
947 302 350 301 
948 310 395 365 
949 137 607 138 
950 671 809 164 
951 240 243 239 
952 704 774 501 
953 615 778 362 
954 241 242 236 
955 167 858 47 
956 379 381 380 
957 235 241 236 
958 82 559 83 
959 258 259 250 
960 147 817 593 
961 249 250 241 
962 496 750 399 
963 293 295 291 
964 87 583 88 
965 421 768 702 
966 218 219 217 
967 759 837 362 
968 459 663 571 
969 108 176 109 
970 134 177 135 
971 3 793 36 
972 37 793 3 
973 289 291 288 
974 9 794 1 
975 1 794 64 
976 2 795 27 
977 28 795 2 
978 449 495 399 
979 251 689 401 
980 302 351 350 
981 267 269 268 
982 7 622 65 
983 395 479 427 
984 230 231 229 
985 119 537 526 
986 386 393 387 
987 628 848 506 
988 643 644 443 
989 146 580 107 
990 344 376 375 
991 625 755 436 
992 643 828 645 
993 56 796 4 
994 4 796 55 
995 284 286 285 
996 721 811 554 
997 222 223 221 
998 353 680 307 
999 564 725 500 
1000 255 680 310 
1001 288 290 286 
1002 133 595 134 
1003 261 264 263 
1004 452 454 453 
1005 301 674 283 
1006 444 662 352 
1007 230 237 231 
1008 231 232 229 
1009 210 488 214 
1010 132 142 133 
1011 110 147 111 
1012 104 178 105 
1013 138 179 139 
1014 136 579 141 
1015 439 740 700 
1016 401 402 328 
1017 408 474 405 
1018 235 236 234 
1019 350 648 398 
1020 108 580 176 
1021 66 632 67 
1022 228 230 229 
1023 228 229 227 
1024 117 158 118 
1025 125 157 126 
1026 80 617 81 
1027 354 740 439 
1028 467 468 402 
1029 72 638 73 
1030 510 779 300 
1031 396 817 586 
1032 226 227 225 
1033 248 265 244 
1034 648 753 531 
1035 458 461 460 
1036 120 161 121 
1037 122 162 123 
1038 531 733 530 
1039 619 852 598 
1040 472 829 511 
1041 471 628 507 
1042 141 607 137 
1043 311 314 297 
1044 693 731 257 
1045 431 760 555 
1046 549 773 348 
1047 285 302 301 
1048 233 235 234 
1049 296 826 276 
1050 366 721 329 
1051 328 364 306 
1052 428 732 353 
1053 335 726 259 
1054 577 818 631 
1055 300 779 482 
1056 117 574 158 
1057 307 680 255 
1058 351 648 350 
1059 68 631 69 
1060 113 152 114 
1061 129 151 130 
1062 226 228 227 
1063 398 449 399 
1064 139 620 140 
1065 131 592 132 
1066 424 426 425 
1067 473 649 414 
1068 302 681 400 
1069 364 780 671 
1070 352 662 417 
1071 392 857 245 
1072 571 663 618 
1073 581 628 627 
1074 668 718 196 
1075 105 694 106 
1076 75 646 76 
1077 491 818 577 
1078 78 606 79 
1079 282 284 283 
1080 284 285 283 
1081 627 628 471 
1082 363 734 521 
1083 242 666 256 
1084 70 652 71 
1085 608 697 179 
1086 8 148 103 
1087 140 143 7 
1088 335 770 726 
1089 190 708 556 
1090 73 639 74 
1091 42 741 163 
1092 290 681 286 
1093 765 840 478 
1094 443 467 402 
1095 165 854 729 
1096 310 680 395 
1097 164 809 50 
1098 57 792 668 
1099 598 766 444 
1100 126 572 127 
1101 223 356 221 
1102 124 538 125 
1103 241 666 242 
1104 112 591 113 
1105 336 721 554 
1106 251 328 306 
1107 515 729 427 
1108 611 830 420 
1109 176 594 109 
1110 501 775 641 
1111 598 684 550 
1112 243 245 239 
1113 250 666 241 
1114 616 801 222 
1115 128 587 129 
1116 610 806 367 
1117 489 834 491 
1118 666 726 480 
1119 454 456 455 
1120 536 762 665 
1121 103 727 104 
1122 177 579 135 
1123 227 257 225 
1124 478 658 408 
1125 243 251 245 
1126 295 717 304 
1127 119 526 120 
1128 127 175 128 
1129 115 174 116 
1130 637 825 746 
1131 244 689 243 
1132 288 703 290 
1133 554 705 553 
1134 570 819 189 
1135 278 280 279 
1136 102 623 8 
1137 267 268 264 
1138 373 788 391 
1139 781 782 720 
1140 481 815 625 
1141 110 594 147 
1142 419 704 501 
1143 508 686 377 
1144 325 343 324 
1145 251 306 245 
1146 6 518 122 
1147 580 627 176 
1148 280 674 279 
1149 233 234 232 
1150 265 828 643 
1151 200 853 691 
1152 106 694 146 
1153 696 700 475 
1154 628 813 507 
1155 456 801 616 
1156 293 682 295 
1157 65 180 66 
1158 101 181 102 
1159 367 647 611 
1160 220 221 219 
1161 261 263 253 
1162 545 773 549 
1163 231 233 232 
1164 99 149 100 
1165 67 144 68 
1166 671 780 468 
1167 556 846 544 
1168 593 817 516 
1169 151 590 130 
1170 286 681 285 
1171 712 799 533 
1172 278 279 277 
1173 100 633 101 
1174 147 593 111 
1175 213 707 211 
1176 120 526 161 
1177 122 518 162 
1178 306 683 392 
1179 134 595 177 
1180 613 786 486 
1181 415 819 734 
1182 138 607 179 
1183 415 734 334 
1184 590 592 131 
1185 563 787 409 
1186 417 739 469 
1187 125 538 157 
1188 282 283 280 
1189 665 716 536 
1190 672 845 790 
1191 153 805 646 
1192 394 434 433 
1193 152 589 114 
1194 303 703 291 
1195 291 703 288 
1196 429 746 523 
1197 162 525 123 
1198 271 308 269 
1199 205 660 209 
1200 158 537 118 
1201 600 814 563 
1202 233 838 612 
1203 521 718 522 
1204 157 572 126 
1205 142 595 133 
1206 174 574 116 
1207 555 760 347 
1208 610 816 441 
1209 98 629 99 
1210 326 362 360 
1211 275 309 273 
1212 219 368 217 
1213 726 770 480 
1214 115 589 174 
1215 246 687 615 
1216 152 672 589 
1217 225 673 223 
1218 285 681 302 
1219 159 766 598 
1220 720 782 635 
1221 596 735 416 
1222 519 667 518 
1223 69 183 70 
1224 97 182 98 
1225 71 145 72 
1226 95 150 96 
1227 265 689 244 
1228 364 683 306 
1229 161 519 121 
1230 535 748 536 
1231 112 593 591 
1232 279 313 277 
1233 380 730 383 
1234 96 651 97 
1235 283 674 280 
1236 132 592 142 
1237 264 664 263 
1238 393 678 394 
1239 76 618 77 
1240 424 425 412 
1241 648 692 398 
1242 649 863 464 
1243 511 829 767 
1244 322 359 320 
1245 340 738 358 
1246 329 721 336 
1247 785 865 167 
1248 542 805 541 
1249 179 620 139 
1250 519 815 667 
1251 47 858 46 
1252 391 788 708 
1253 655 857 392 
1254 77 154 78 
1255 89 156 90 
1256 379 687 381 
1257 86 169 87 
1258 667 815 481 
1259 551 831 525 
1260 178 694 105 
1261 388 770 335 
1262 486 786 635 
1263 237 857 655 
1264 609 754 287 
1265 250 726 666 
1266 94 640 95 
1267 232 693 229 
1268 445 725 564 
1269 496 799 712 
1270 351 753 648 
1271 129 587 151 
1272 680 732 395 
1273 440 812 557 
1274 636 793 37 
1275 408 658 474 
1276 113 591 152 
1277 452 510 454 
1278 655 838 237 
1279 259 726 250 
1280 229 693 227 
1281 146 600 581 
1282 146 694 600 
1283 398 692 449 
1284 81 172 82 
1285 353 732 680 
1286 468 780 402 
1287 127 572 175 
1288 74 153 75 
1289 92 155 93 
1290 413 871 695 
1291 91 728 92 
1292 488 783 214 
1293 468 849 809 
1294 93 656 94 
1295 104 727 178 
1296 223 673 356 
1297 381 847 779 
1298 268 664 264 
1299 526 625 161 
1300 691 853 194 
1301 603 605 604 
1302 143 622 7 
1303 140 620 143 
1304 334 734 363 
1305 574 744 679 
1306 707 870 422 
1307 141 698 607 
1308 505 813 506 
1309 443 785 467 
1310 243 689 251 
1311 346 675 339 
1312 789 864 479 
1313 268 665 664 
1314 175 587 128 
1315 386 438 393 
1316 88 602 89 
1317 83 171 5 
1318 461 463 462 
1319 344 375 343 
1320 538 699 157 
1321 311 722 314 
1322 157 573 572 
1323 248 713 265 
1324 574 679 158 
1325 328 780 364 
1326 612 838 655 
1327 618 646 571 
1328 84 170 85 
1329 824 844 495 
1330 702 782 421 
1331 709 861 194 
1332 500 725 382 
1333 426 511 425 
1334 395 732 479 
1335 85 565 86 
1336 645 762 644 
1337 437 540 539 
1338 571 805 542 
1339 148 727 103 
1340 579 751 141 
1341 661 733 390 
1342 434 763 435 
1343 146 581 580 
1344 607 608 179 
1345 757 853 200 
1346 8 623 148 
1347 64 794 653 
1348 654 795 28 
1349 177 736 579 
1350 427 729 637 
1351 65 622 180 
1352 175 588 587 
1353 394 678 434 
1354 414 621 376 
1355 473 764 649 
1356 217 707 213 
1357 756 763 315 
1358 430 754 446 
1359 640 642 641 
1360 491 686 685 
1361 257 673 225 
1362 539 835 426 
1363 239 857 237 
1364 748 858 167 
1365 624 841 290 
1366 5 737 84 
1367 572 690 175 
1368 587 696 151 
1369 734 819 570 
1370 214 783 458 
1371 575 753 351 
1372 187 782 702 
1373 198 862 568 
1374 745 801 456 
1375 180 632 66 
1376 67 632 144 
1377 13 808 12 
1378 273 714 271 
1379 79 173 80 
1380 237 838 231 
1381 375 421 343 
1382 682 800 717 
1383 55 796 196 
1384 227 693 257 
1385 58 792 57 
1386 83 559 171 
1387 253 713 248 
1388 36 793 195 
1389 197 794 9 
1390 27 795 198 
1391 324 720 322 
1392 677 807 676 
1393 613 800 314 
1394 465 649 464 
1395 181 623 102 
1396 376 447 375 
1397 11 798 10 
1398 527 789 428 
1399 144 631 68 
1400 638 639 73 
1401 676 791 524 
1402 162 551 525 
1403 581 627 580 
1404 662 739 417 
1405 169 583 87 
1406 498 800 613 
1407 717 800 498 
1408 767 829 266 
1409 465 691 650 
1410 682 717 295 
1411 277 711 275 
1412 167 865 748 
1413 785 822 467 
1414 672 790 589 
1415 518 719 162 
1416 464 863 562 
1417 101 633 181 
1418 537 755 526 
1419 674 723 279 
1420 561 737 171 
1421 685 818 491 
1422 149 633 100 
1423 320 722 311 
1424 537 855 755 
1425 145 638 72 
1426 412 710 355 
1427 495 866 496 
1428 584 602 583 
1429 195 793 636 
1430 515 864 808 
1431 174 744 574 
1432 635 782 187 
1433 480 770 619 
1434 157 699 573 
1435 318 752 326 
1436 347 760 346 
1437 172 559 82 
1438 69 631 183 
1439 714 715 308 
1440 414 650 621 
1441 640 656 642 
1442 691 827 200 
1443 81 617 172 
1444 99 629 149 
1445 383 730 452 
1446 76 646 618 
1447 154 772 606 
1448 247 859 517 
1449 368 707 217 
1450 790 845 487 
1451 566 567 169 
1452 646 805 571 
1453 71 652 145 
1454 183 652 70 
1455 465 650 649 
1456 458 783 461 
1457 356 742 221 
1458 583 602 88 
1459 653 794 197 
1460 198 795 654 
1461 614 772 460 
1462 536 865 762 
1463 372 788 373 
1464 649 650 414 
1465 711 712 309 
1466 181 688 623 
1467 567 583 169 
1468 154 606 78 
1469 263 713 253 
1470 560 561 171 
1471 271 714 308 
1472 450 751 736 
1473 463 465 464 
1474 358 738 386 
1475 348 773 659 
1476 683 735 596 
1477 444 766 662 
1478 686 706 685 
1479 799 866 168 
1480 573 690 572 
1481 182 629 98 
1482 517 759 752 
1483 376 621 447 
1484 309 714 273 
1485 493 802 758 
1486 326 752 362 
1487 183 685 652 
1488 77 618 154 
1489 372 846 788 
1490 153 646 75 
1491 141 751 698 
1492 149 634 633 
1493 588 700 696 
1494 175 690 588 
1495 618 663 154 
1496 74 639 153 
1497 150 651 96 
1498 716 821 308 
1499 97 651 182 
1500 461 503 463 
1501 588 696 587 
1502 663 772 154 
1503 313 711 277 
1504 599 812 440 
1505 279 723 313 
1506 86 565 169 
1507 322 720 359 
1508 362 778 360 
1509 540 835 539 
1510 308 821 269 
1511 566 701 695 
1512 364 735 683 
1513 621 709 447 
1514 676 807 791 
1515 196 796 668 
1516 736 751 579 
1517 764 863 649 
1518 557 812 636 
1519 360 778 379 
1520 275 711 309 
1521 194 861 691 
1522 95 640 150 
1523 667 719 518 
1524 359 722 320 
1525 186 843 660 
1526 182 630 629 
1527 219 742 368 
1528 652 706 145 
1529 508 706 686 
1530 607 698 608 
1531 425 710 412 
1532 797 860 206 
1533 173 617 80 
1534 89 602 156 
1535 668 796 56 
1536 402 780 328 
1537 90 832 91 
1538 644 865 785 
1539 788 846 556 
1540 710 767 514 
1541 566 743 701 
1542 644 785 443 
1543 567 584 583 
1544 170 565 85 
1545 379 778 687 
1546 660 757 209 
1547 221 742 219 
1548 435 756 437 
1549 452 730 510 
1550 207 797 677 
1551 79 606 173 
1552 378 769 542 
1553 171 737 5 
1554 598 852 684 
1555 268 821 665 
1556 594 810 586 
1557 603 610 605 
1558 640 641 150 
1559 526 755 625 
1560 388 852 770 
1561 592 771 142 
1562 502 819 415 
1563 621 861 709 
1564 84 737 170 
1565 143 758 622 
1566 393 747 678 
1567 92 728 155 
1568 94 656 640 
1569 582 823 490 
1570 454 745 456 
1571 791 807 356 
1572 290 841 681 
1573 314 800 682 
1574 708 788 556 
1575 155 656 93 
1576 705 862 548 
1577 525 831 538 
1578 692 741 449 
1579 665 821 716 
1580 581 848 628 
1581 606 614 173 
1582 752 759 362 
1583 507 776 470 
1584 723 750 313 
1585 156 832 90 
1586 685 706 652 
1587 197 867 653 
1588 559 562 560 
1589 510 745 454 
1590 245 857 239 
1591 162 719 551 
1592 538 831 699 
1593 715 850 533 
1594 386 738 438 
1595 659 846 372 
1596 163 741 692 
1597 435 763 756 
1598 438 747 393 
1599 465 827 691 
1600 91 832 728 
1601 595 803 177 
1602 368 870 707 
1603 177 803 736 
1604 565 566 169 
1605 207 860 797 
1606 449 824 495 
1607 647 830 611 
1608 441 806 610 
1609 199 757 660 
1610 691 861 650 
1611 784 802 493 
1612 167 822 785 
1613 559 560 171 
1614 231 838 233 
1615 215 869 769 
1616 479 864 515 
1617 704 840 630 
1618 615 837 513 
1619 355 856 316 
1620 172 562 559 
1621 627 810 176 
1622 437 756 540 
1623 269 821 268 
1624 673 791 356 
1625 566 695 567 
1626 625 815 161 
1627 180 784 632 
1628 681 841 400 
1629 544 846 659 
1630 779 847 482 
1631 461 783 503 
1632 684 852 388 
1633 741 824 449 
1634 561 764 473 
1635 770 852 619 
1636 825 842 204 
1637 161 815 519 
1638 467 849 468 
1639 748 865 536 
1640 714 850 715 
1641 421 781 343 
1642 246 847 687 
1643 700 740 442 
1644 176 810 594 
1645 448 719 667 
1646 822 849 467 
1647 633 761 181 
1648 199 853 757 
1649 589 790 174 
1650 567 816 584 
1651 688 761 477 
1652 560 764 561 
1653 170 743 565 
1654 758 802 622 
1655 359 786 722 
1656 142 839 595 
1657 632 804 144 
1658 309 850 714 
1659 629 765 149 
1660 511 767 425 
1661 771 839 142 
1662 784 804 632 
1663 710 856 355 
1664 606 772 614 
1665 679 855 158 
1666 517 859 759 
1667 181 761 688 
1668 695 701 413 
1669 568 862 705 
1670 688 851 623 
1671 343 781 324 
1672 422 870 797 
1673 686 834 377 
1674 660 843 199 
1675 426 835 511 
1676 755 855 504 
1677 634 761 633 
1678 324 781 720 
1679 651 774 182 
1680 178 814 694 
1681 695 816 567 
1682 797 870 677 
1683 595 839 803 
1684 687 778 615 
1685 158 855 537 
1686 418 830 647 
1687 712 850 309 
1688 149 765 634 
1689 687 847 381 
1690 184 864 789 
1691 425 767 710 
1692 713 828 265 
1693 622 802 180 
1694 150 775 651 
1695 356 807 742 
1696 630 765 629 
1697 174 790 744 
1698 623 851 148 
1699 564 839 771 
1700 182 774 630 
1701 491 834 686 
1702 600 848 581 
1703 514 856 710 
1704 202 842 825 
1705 746 825 204 
1706 421 782 781 
1707 641 775 150 
1708 183 818 685 
1709 323 868 647 
1710 647 868 418 
1711 496 866 799 
1712 650 861 621 
1713 631 818 183 
1714 145 820 638 
1715 706 820 145 
1716 699 831 423 
1717 565 743 566 
1718 562 863 560 
1719 560 863 764 
1720 769 869 457 
1721 535 858 748 
1722 300 801 745 
1723 180 802 784 
1724 509 851 688 
1725 508 820 706 
1726 736 803 500 
1727 738 833 438 
1728 651 775 774 
1729 694 814 600 
1730 503 827 463 
1731 512 837 759 
1732 762 865 644 
1733 463 827 465 
1734 744 790 487 
1735 728 832 604 
1736 582 804 784 
1737 630 840 765 
1738 774 775 501 
1739 759 859 512 
1740 168 866 844 
1741 844 866 495 
1742 459 772 663 
$EndElements
